%TF.GenerationSoftware,KiCad,Pcbnew,9.0.4*%
%TF.CreationDate,2025-09-29T13:15:33+05:30*%
%TF.ProjectId,ESP32_Project_1,45535033-325f-4507-926f-6a6563745f31,rev?*%
%TF.SameCoordinates,Original*%
%TF.FileFunction,Copper,L4,Bot*%
%TF.FilePolarity,Positive*%
%FSLAX46Y46*%
G04 Gerber Fmt 4.6, Leading zero omitted, Abs format (unit mm)*
G04 Created by KiCad (PCBNEW 9.0.4) date 2025-09-29 13:15:33*
%MOMM*%
%LPD*%
G01*
G04 APERTURE LIST*
%TA.AperFunction,ComponentPad*%
%ADD10C,2.100000*%
%TD*%
%TA.AperFunction,ComponentPad*%
%ADD11C,1.750000*%
%TD*%
%TA.AperFunction,HeatsinkPad*%
%ADD12C,0.600000*%
%TD*%
%TA.AperFunction,HeatsinkPad*%
%ADD13O,1.000000X2.100000*%
%TD*%
%TA.AperFunction,HeatsinkPad*%
%ADD14O,1.000000X1.800000*%
%TD*%
%TA.AperFunction,ComponentPad*%
%ADD15R,1.700000X1.700000*%
%TD*%
%TA.AperFunction,ComponentPad*%
%ADD16C,1.700000*%
%TD*%
%TA.AperFunction,ComponentPad*%
%ADD17C,2.000000*%
%TD*%
%TA.AperFunction,ViaPad*%
%ADD18C,0.600000*%
%TD*%
%TA.AperFunction,Conductor*%
%ADD19C,0.500000*%
%TD*%
%TA.AperFunction,Conductor*%
%ADD20C,0.200000*%
%TD*%
%TA.AperFunction,Conductor*%
%ADD21C,0.600000*%
%TD*%
G04 APERTURE END LIST*
D10*
%TO.P,SW3,*%
%TO.N,*%
X224310000Y-86750000D03*
X224310000Y-93760000D03*
D11*
%TO.P,SW3,1,A*%
%TO.N,GND*%
X226800000Y-88000000D03*
%TO.P,SW3,2,B*%
%TO.N,/USER_SW*%
X226800000Y-92500000D03*
%TD*%
D12*
%TO.P,U2,41,GND*%
%TO.N,GND*%
X202100000Y-68600000D03*
X202100000Y-70000000D03*
X202800000Y-67900000D03*
X202800000Y-69300000D03*
X202800000Y-70700000D03*
X203500000Y-68600000D03*
X203500000Y-70000000D03*
X204200000Y-67900000D03*
X204200000Y-69300000D03*
X204200000Y-70700000D03*
X204900000Y-68600000D03*
X204900000Y-70000000D03*
%TD*%
D13*
%TO.P,J1,S1,SHIELD*%
%TO.N,GND*%
X201480000Y-114575000D03*
D14*
X201480000Y-118755000D03*
D13*
X210120000Y-114575000D03*
D14*
X210120000Y-118755000D03*
%TD*%
D15*
%TO.P,J2,1,Pin_1*%
%TO.N,/ESP_EN*%
X219020000Y-72140000D03*
D16*
%TO.P,J2,2,Pin_2*%
%TO.N,+3.3V*%
X219020000Y-69600000D03*
%TO.P,J2,3,Pin_3*%
%TO.N,/ESP_TXD*%
X221560000Y-72140000D03*
%TO.P,J2,4,Pin_4*%
%TO.N,GND*%
X221560000Y-69600000D03*
%TO.P,J2,5,Pin_5*%
%TO.N,/ESP_RXD*%
X224100000Y-72140000D03*
%TO.P,J2,6,Pin_6*%
%TO.N,/ESP_IO0*%
X224100000Y-69600000D03*
%TD*%
D17*
%TO.P,DFR_C1,1,Vcc*%
%TO.N,+3.3V*%
X192870000Y-89940075D03*
%TO.P,DFR_C1,2,GND*%
%TO.N,GND*%
X192870000Y-92480075D03*
%TO.P,DFR_C1,3,RX*%
%TO.N,/C4001_RX*%
X192870000Y-95020075D03*
%TO.P,DFR_C1,4,TX*%
%TO.N,/C4001_TX*%
X192870000Y-97560075D03*
%TO.P,DFR_C1,5,OUT*%
%TO.N,unconnected-(DFR_C1-OUT-Pad5)*%
X192870000Y-100100075D03*
%TD*%
D18*
%TO.N,+3.3V*%
X183600000Y-70850000D03*
X190600000Y-64750000D03*
X215100000Y-114350000D03*
X223400000Y-80700000D03*
X183550000Y-79650000D03*
X202550000Y-81000000D03*
X223000000Y-102000000D03*
X183250000Y-81850000D03*
X189000000Y-116250000D03*
X189600000Y-69400000D03*
X192650000Y-69400000D03*
%TO.N,GND*%
X229050000Y-83100000D03*
X183600000Y-69850000D03*
X202534314Y-112965686D03*
X183250000Y-85300000D03*
X205792992Y-112595552D03*
X214250000Y-109200000D03*
X194750000Y-61100000D03*
X189150000Y-61500000D03*
X185100000Y-83800000D03*
X217100000Y-109250000D03*
X209250000Y-112650000D03*
X229000000Y-100500000D03*
X228000000Y-79500000D03*
%TO.N,+5V*%
X209350000Y-108250000D03*
X198200000Y-116600000D03*
%TO.N,/ESP_EN*%
X208351000Y-63449000D03*
X225500000Y-103000000D03*
%TO.N,/USER_SW*%
X211700000Y-84300000D03*
X219200000Y-84300000D03*
%TO.N,/C4001_TX*%
X197550000Y-74300000D03*
X192400000Y-83400000D03*
%TO.N,/C4001_RX*%
X198250000Y-73050000D03*
X193950000Y-82600000D03*
%TO.N,Net-(F1-Pad1)*%
X208100000Y-112600000D03*
X203400000Y-112750000D03*
%TO.N,/CC1*%
X212750000Y-111800000D03*
X204550000Y-116100000D03*
%TO.N,/ESP_RXD*%
X216900000Y-66700000D03*
%TO.N,/SDA*%
X190800000Y-71550000D03*
X191850000Y-74100000D03*
%TO.N,/SCL*%
X200100000Y-71550000D03*
X188450000Y-80300000D03*
X194150000Y-71500000D03*
%TO.N,/MIC_SD*%
X194850000Y-72150000D03*
X187000000Y-88250000D03*
X183050000Y-90100000D03*
X183250000Y-88750000D03*
%TO.N,/MIC_SCK*%
X187350000Y-91200000D03*
X211500000Y-64050000D03*
%TO.N,/MIC_WS*%
X200750000Y-65400000D03*
X189600000Y-87250000D03*
%TO.N,/R_LED*%
X211900000Y-71700000D03*
X212500000Y-116000000D03*
%TO.N,/G_LED*%
X211200000Y-70500000D03*
X221700000Y-115200000D03*
%TO.N,/B_LED*%
X220700000Y-112000000D03*
X210500000Y-69200000D03*
%TD*%
D19*
%TO.N,+5V*%
X205900057Y-108250000D02*
X198200000Y-115950057D01*
X209350000Y-108250000D02*
X205900057Y-108250000D01*
X198200000Y-115950057D02*
X198200000Y-116600000D01*
D20*
%TO.N,/ESP_EN*%
X208351000Y-63449000D02*
X211748943Y-63449000D01*
X211748943Y-63449000D02*
X215800000Y-67500057D01*
X215800000Y-67500057D02*
X215800000Y-71400000D01*
X216540000Y-72140000D02*
X219020000Y-72140000D01*
X221500000Y-97000000D02*
X221500000Y-102500000D01*
X222000000Y-103000000D02*
X225500000Y-103000000D01*
X221500000Y-102500000D02*
X222000000Y-103000000D01*
X215800000Y-71400000D02*
X216540000Y-72140000D01*
X221500000Y-74620000D02*
X221500000Y-97000000D01*
X219020000Y-72140000D02*
X221500000Y-74620000D01*
%TO.N,/USER_SW*%
X211700000Y-84300000D02*
X219200000Y-84300000D01*
%TO.N,/C4001_TX*%
X197550000Y-74300000D02*
X197550000Y-78100000D01*
X192400000Y-83250000D02*
X192400000Y-83400000D01*
X197550000Y-78100000D02*
X192400000Y-83250000D01*
%TO.N,/C4001_RX*%
X198250000Y-73050000D02*
X198250000Y-78300000D01*
X198250000Y-78300000D02*
X193950000Y-82600000D01*
D21*
%TO.N,Net-(F1-Pad1)*%
X208100000Y-112600000D02*
X207303448Y-113396552D01*
X204046552Y-113396552D02*
X203400000Y-112750000D01*
X207303448Y-113396552D02*
X204046552Y-113396552D01*
D20*
%TO.N,/CC1*%
X204550000Y-116100000D02*
X206400000Y-116100000D01*
X209250000Y-111800000D02*
X212750000Y-111800000D01*
X206400000Y-116100000D02*
X208699000Y-113801000D01*
X208699000Y-113801000D02*
X208699000Y-112421768D01*
X208699000Y-112421768D02*
X208700000Y-112420768D01*
X208664616Y-112385384D02*
X209250000Y-111800000D01*
X208700000Y-112420768D02*
X208664616Y-112385384D01*
%TO.N,/ESP_RXD*%
X225251000Y-69123240D02*
X225251000Y-70989000D01*
X216900000Y-66700000D02*
X222827760Y-66700000D01*
X222827760Y-66700000D02*
X225251000Y-69123240D01*
X225251000Y-70989000D02*
X224100000Y-72140000D01*
%TO.N,/SDA*%
X190800000Y-73050000D02*
X190800000Y-71550000D01*
X191850000Y-74100000D02*
X190800000Y-73050000D01*
%TO.N,/SCL*%
X194150000Y-73800000D02*
X194150000Y-71500000D01*
X188450000Y-80300000D02*
X188450000Y-79500000D01*
X188450000Y-79500000D02*
X194150000Y-73800000D01*
X200100000Y-71550000D02*
X194200000Y-71550000D01*
X194200000Y-71550000D02*
X194150000Y-71500000D01*
%TO.N,/MIC_SD*%
X187000000Y-87050000D02*
X194850000Y-79200000D01*
X187000000Y-88250000D02*
X187000000Y-87050000D01*
X186500000Y-88750000D02*
X187000000Y-88250000D01*
X187000000Y-88250000D02*
X185225000Y-90025000D01*
X185225000Y-90025000D02*
X185150000Y-90100000D01*
X185150000Y-90100000D02*
X183050000Y-90100000D01*
X194850000Y-79200000D02*
X194850000Y-72150000D01*
X183250000Y-88750000D02*
X186500000Y-88750000D01*
%TO.N,/MIC_SCK*%
X211450000Y-64100000D02*
X211450000Y-67100000D01*
X211450000Y-67100000D02*
X187350000Y-91200000D01*
X211500000Y-64050000D02*
X211450000Y-64100000D01*
%TO.N,/MIC_WS*%
X200750000Y-65400000D02*
X201000000Y-65650000D01*
X190250000Y-87250000D02*
X189600000Y-87250000D01*
X201000000Y-65650000D02*
X201000000Y-76500000D01*
X201000000Y-76500000D02*
X190250000Y-87250000D01*
%TO.N,/R_LED*%
X211900000Y-71700000D02*
X219801000Y-79601000D01*
X222301000Y-106499000D02*
X222301000Y-115448943D01*
X219801000Y-103999000D02*
X222301000Y-106499000D01*
X221749943Y-116000000D02*
X212500000Y-116000000D01*
X219801000Y-79601000D02*
X219801000Y-103999000D01*
X222301000Y-115448943D02*
X221749943Y-116000000D01*
%TO.N,/G_LED*%
X211099000Y-70601000D02*
X211200000Y-70500000D01*
X211099000Y-101549057D02*
X211099000Y-70601000D01*
X221800000Y-112250057D02*
X211099000Y-101549057D01*
X221700000Y-115200000D02*
X221800000Y-115100000D01*
X221800000Y-115100000D02*
X221800000Y-112250057D01*
%TO.N,/B_LED*%
X210500000Y-101800000D02*
X220700000Y-112000000D01*
X210500000Y-69200000D02*
X210500000Y-101800000D01*
%TD*%
%TA.AperFunction,Conductor*%
%TO.N,GND*%
G36*
X228002421Y-60500619D02*
G01*
X228031158Y-60502030D01*
X228338173Y-60517113D01*
X228347815Y-60518063D01*
X228677915Y-60567029D01*
X228687421Y-60568919D01*
X229011144Y-60650008D01*
X229020415Y-60652820D01*
X229334625Y-60765246D01*
X229343594Y-60768961D01*
X229645263Y-60911640D01*
X229653826Y-60916218D01*
X229940042Y-61087769D01*
X229948118Y-61093165D01*
X229959972Y-61101956D01*
X229995450Y-61151805D01*
X230000000Y-61181475D01*
X230000000Y-119718525D01*
X229981093Y-119776716D01*
X229959975Y-119798041D01*
X229948120Y-119806833D01*
X229940049Y-119812226D01*
X229653826Y-119983781D01*
X229645273Y-119988354D01*
X229642413Y-119989707D01*
X229640761Y-119990488D01*
X229598420Y-120000000D01*
X210406883Y-120000000D01*
X210348692Y-119981093D01*
X210312728Y-119931593D01*
X210312728Y-119870407D01*
X210348692Y-119820907D01*
X210368998Y-119809536D01*
X210451571Y-119775333D01*
X210566220Y-119698728D01*
X210663728Y-119601220D01*
X210740333Y-119486571D01*
X210793098Y-119359183D01*
X210819999Y-119223944D01*
X210820000Y-119223942D01*
X210820000Y-118855001D01*
X210819999Y-118855000D01*
X210420000Y-118855000D01*
X210420000Y-118655000D01*
X210819999Y-118655000D01*
X210820000Y-118654999D01*
X210820000Y-118286057D01*
X210819999Y-118286055D01*
X210793098Y-118150816D01*
X210740333Y-118023428D01*
X210663728Y-117908779D01*
X210566220Y-117811271D01*
X210451571Y-117734666D01*
X210324182Y-117681901D01*
X210220000Y-117661177D01*
X210220000Y-118071211D01*
X210159496Y-118055000D01*
X210080504Y-118055000D01*
X210020000Y-118071211D01*
X210020000Y-117661177D01*
X209915817Y-117681901D01*
X209788428Y-117734666D01*
X209673779Y-117811271D01*
X209576271Y-117908779D01*
X209499666Y-118023428D01*
X209446901Y-118150816D01*
X209420000Y-118286055D01*
X209420000Y-118654999D01*
X209420001Y-118655000D01*
X209820000Y-118655000D01*
X209820000Y-118855000D01*
X209420001Y-118855000D01*
X209420000Y-118855001D01*
X209420000Y-119223944D01*
X209446901Y-119359183D01*
X209499666Y-119486571D01*
X209576271Y-119601220D01*
X209673779Y-119698728D01*
X209788428Y-119775333D01*
X209871002Y-119809536D01*
X209917528Y-119849272D01*
X209931812Y-119908767D01*
X209908398Y-119965295D01*
X209856229Y-119997264D01*
X209833117Y-120000000D01*
X201766883Y-120000000D01*
X201708692Y-119981093D01*
X201672728Y-119931593D01*
X201672728Y-119870407D01*
X201708692Y-119820907D01*
X201728998Y-119809536D01*
X201811571Y-119775333D01*
X201926220Y-119698728D01*
X202023728Y-119601220D01*
X202100333Y-119486571D01*
X202153098Y-119359183D01*
X202179999Y-119223944D01*
X202180000Y-119223942D01*
X202180000Y-118855001D01*
X202179999Y-118855000D01*
X201780000Y-118855000D01*
X201780000Y-118655000D01*
X202179999Y-118655000D01*
X202180000Y-118654999D01*
X202180000Y-118286057D01*
X202179999Y-118286055D01*
X202153098Y-118150816D01*
X202100333Y-118023428D01*
X202023728Y-117908779D01*
X201926220Y-117811271D01*
X201811571Y-117734666D01*
X201684182Y-117681901D01*
X201580000Y-117661177D01*
X201580000Y-118071211D01*
X201519496Y-118055000D01*
X201440504Y-118055000D01*
X201380000Y-118071211D01*
X201380000Y-117661177D01*
X201275817Y-117681901D01*
X201148428Y-117734666D01*
X201033779Y-117811271D01*
X200936271Y-117908779D01*
X200859666Y-118023428D01*
X200806901Y-118150816D01*
X200780000Y-118286055D01*
X200780000Y-118654999D01*
X200780001Y-118655000D01*
X201180000Y-118655000D01*
X201180000Y-118855000D01*
X200780001Y-118855000D01*
X200780000Y-118855001D01*
X200780000Y-119223944D01*
X200806901Y-119359183D01*
X200859666Y-119486571D01*
X200936271Y-119601220D01*
X201033779Y-119698728D01*
X201148428Y-119775333D01*
X201231002Y-119809536D01*
X201277528Y-119849272D01*
X201291812Y-119908767D01*
X201268398Y-119965295D01*
X201216229Y-119997264D01*
X201193117Y-120000000D01*
X180401580Y-120000000D01*
X180359245Y-119990491D01*
X180354734Y-119988357D01*
X180346173Y-119983781D01*
X180059950Y-119812226D01*
X180051874Y-119806830D01*
X180040024Y-119798041D01*
X180004549Y-119748190D01*
X180000000Y-119718525D01*
X180000000Y-115881989D01*
X182199500Y-115881989D01*
X182199500Y-116118011D01*
X182224421Y-116307309D01*
X182230306Y-116352006D01*
X182230306Y-116352011D01*
X182291393Y-116579992D01*
X182381713Y-116798044D01*
X182381716Y-116798049D01*
X182440577Y-116900000D01*
X182499729Y-117002453D01*
X182643402Y-117189692D01*
X182643404Y-117189694D01*
X182643408Y-117189699D01*
X182810301Y-117356592D01*
X182810305Y-117356595D01*
X182810307Y-117356597D01*
X182981546Y-117487993D01*
X182997550Y-117500273D01*
X183201951Y-117618284D01*
X183201952Y-117618284D01*
X183201955Y-117618286D01*
X183420007Y-117708606D01*
X183647986Y-117769693D01*
X183881989Y-117800500D01*
X183881990Y-117800500D01*
X184118010Y-117800500D01*
X184118011Y-117800500D01*
X184352014Y-117769693D01*
X184579993Y-117708606D01*
X184798049Y-117618284D01*
X185002450Y-117500273D01*
X185189699Y-117356592D01*
X185356592Y-117189699D01*
X185500273Y-117002450D01*
X185618284Y-116798049D01*
X185708606Y-116579993D01*
X185769693Y-116352014D01*
X185791798Y-116184108D01*
X188499500Y-116184108D01*
X188499500Y-116315892D01*
X188522171Y-116400502D01*
X188533609Y-116443190D01*
X188599496Y-116557309D01*
X188599498Y-116557311D01*
X188599500Y-116557314D01*
X188692686Y-116650500D01*
X188692688Y-116650501D01*
X188692690Y-116650503D01*
X188806810Y-116716390D01*
X188806808Y-116716390D01*
X188806812Y-116716391D01*
X188806814Y-116716392D01*
X188934108Y-116750500D01*
X188934110Y-116750500D01*
X189065890Y-116750500D01*
X189065892Y-116750500D01*
X189193186Y-116716392D01*
X189193188Y-116716390D01*
X189193190Y-116716390D01*
X189307309Y-116650503D01*
X189307309Y-116650502D01*
X189307314Y-116650500D01*
X189400500Y-116557314D01*
X189409633Y-116541495D01*
X189413898Y-116534108D01*
X197699500Y-116534108D01*
X197699500Y-116665892D01*
X197729579Y-116778151D01*
X197733609Y-116793190D01*
X197799496Y-116907309D01*
X197799498Y-116907311D01*
X197799500Y-116907314D01*
X197892686Y-117000500D01*
X197892688Y-117000501D01*
X197892690Y-117000503D01*
X198006810Y-117066390D01*
X198006808Y-117066390D01*
X198006812Y-117066391D01*
X198006814Y-117066392D01*
X198134108Y-117100500D01*
X198134110Y-117100500D01*
X198265890Y-117100500D01*
X198265892Y-117100500D01*
X198393186Y-117066392D01*
X198393188Y-117066390D01*
X198393190Y-117066390D01*
X198507309Y-117000503D01*
X198507309Y-117000502D01*
X198507314Y-117000500D01*
X198600500Y-116907314D01*
X198642766Y-116834108D01*
X198666390Y-116793190D01*
X198666390Y-116793188D01*
X198666392Y-116793186D01*
X198700500Y-116665892D01*
X198700500Y-116534108D01*
X198666392Y-116406814D01*
X198663761Y-116402258D01*
X198650500Y-116352761D01*
X198650500Y-116177668D01*
X198669407Y-116119477D01*
X198679496Y-116107664D01*
X200610996Y-114176164D01*
X200665513Y-114148387D01*
X200725945Y-114157958D01*
X200769210Y-114201223D01*
X200780000Y-114246168D01*
X200780000Y-114474999D01*
X200780001Y-114475000D01*
X201180000Y-114475000D01*
X201180000Y-114675000D01*
X200780001Y-114675000D01*
X200780000Y-114675001D01*
X200780000Y-115193944D01*
X200806901Y-115329183D01*
X200859666Y-115456571D01*
X200936271Y-115571220D01*
X201033779Y-115668728D01*
X201148428Y-115745333D01*
X201275817Y-115798098D01*
X201380000Y-115818822D01*
X201380000Y-115408788D01*
X201440504Y-115425000D01*
X201519496Y-115425000D01*
X201580000Y-115408788D01*
X201580000Y-115818821D01*
X201684181Y-115798098D01*
X201684183Y-115798098D01*
X201811571Y-115745333D01*
X201926220Y-115668728D01*
X202023728Y-115571220D01*
X202100333Y-115456571D01*
X202153098Y-115329183D01*
X202179999Y-115193944D01*
X202180000Y-115193942D01*
X202180000Y-115005817D01*
X202384500Y-115005817D01*
X202384500Y-115144183D01*
X202420312Y-115277836D01*
X202489495Y-115397665D01*
X202587335Y-115495505D01*
X202707164Y-115564688D01*
X202840817Y-115600500D01*
X202840819Y-115600500D01*
X202979181Y-115600500D01*
X202979183Y-115600500D01*
X203112836Y-115564688D01*
X203232665Y-115495505D01*
X203330505Y-115397665D01*
X203399688Y-115277836D01*
X203435500Y-115144183D01*
X203435500Y-115005817D01*
X203399688Y-114872164D01*
X203330505Y-114752335D01*
X203232665Y-114654495D01*
X203112836Y-114585312D01*
X202979183Y-114549500D01*
X202840817Y-114549500D01*
X202707164Y-114585312D01*
X202587335Y-114654495D01*
X202489495Y-114752335D01*
X202420312Y-114872164D01*
X202384500Y-115005817D01*
X202180000Y-115005817D01*
X202180000Y-114675001D01*
X202179999Y-114675000D01*
X201780000Y-114675000D01*
X201780000Y-114475000D01*
X202179999Y-114475000D01*
X202180000Y-114474999D01*
X202180000Y-113956057D01*
X202179999Y-113956055D01*
X202153098Y-113820816D01*
X202100333Y-113693428D01*
X202023728Y-113578779D01*
X201926220Y-113481271D01*
X201811571Y-113404666D01*
X201684182Y-113351901D01*
X201658215Y-113346736D01*
X201604831Y-113316839D01*
X201579215Y-113261274D01*
X201591152Y-113201264D01*
X201607521Y-113179638D01*
X202103051Y-112684108D01*
X202899500Y-112684108D01*
X202899500Y-112815892D01*
X202915913Y-112877145D01*
X202933609Y-112943190D01*
X202999496Y-113057309D01*
X202999497Y-113057310D01*
X202999498Y-113057311D01*
X202999500Y-113057314D01*
X203646052Y-113703866D01*
X203646051Y-113703866D01*
X203739237Y-113797051D01*
X203739242Y-113797055D01*
X203853362Y-113862942D01*
X203853360Y-113862942D01*
X203853364Y-113862943D01*
X203853366Y-113862944D01*
X203980660Y-113897052D01*
X203980662Y-113897052D01*
X207369338Y-113897052D01*
X207369340Y-113897052D01*
X207496634Y-113862944D01*
X207496636Y-113862942D01*
X207496638Y-113862942D01*
X207610757Y-113797055D01*
X207610757Y-113797054D01*
X207610762Y-113797052D01*
X208229498Y-113178315D01*
X208284013Y-113150540D01*
X208344445Y-113160111D01*
X208387710Y-113203376D01*
X208398500Y-113248321D01*
X208398500Y-113635521D01*
X208379593Y-113693712D01*
X208369504Y-113705525D01*
X206304525Y-115770504D01*
X206250008Y-115798281D01*
X206234521Y-115799500D01*
X204998321Y-115799500D01*
X204940130Y-115780593D01*
X204928323Y-115770509D01*
X204857314Y-115699500D01*
X204857311Y-115699498D01*
X204857309Y-115699496D01*
X204743189Y-115633609D01*
X204743191Y-115633609D01*
X204693799Y-115620375D01*
X204615892Y-115599500D01*
X204484108Y-115599500D01*
X204406200Y-115620375D01*
X204356809Y-115633609D01*
X204242690Y-115699496D01*
X204149496Y-115792690D01*
X204083609Y-115906809D01*
X204076294Y-115934109D01*
X204049500Y-116034108D01*
X204049500Y-116165892D01*
X204069480Y-116240460D01*
X204083609Y-116293190D01*
X204149496Y-116407309D01*
X204149498Y-116407311D01*
X204149500Y-116407314D01*
X204242686Y-116500500D01*
X204242688Y-116500501D01*
X204242690Y-116500503D01*
X204356810Y-116566390D01*
X204356808Y-116566390D01*
X204356812Y-116566391D01*
X204356814Y-116566392D01*
X204484108Y-116600500D01*
X204484110Y-116600500D01*
X204615890Y-116600500D01*
X204615892Y-116600500D01*
X204743186Y-116566392D01*
X204743188Y-116566390D01*
X204743190Y-116566390D01*
X204857309Y-116500503D01*
X204857309Y-116500502D01*
X204857314Y-116500500D01*
X204928319Y-116429494D01*
X204982834Y-116401719D01*
X204998321Y-116400500D01*
X206439563Y-116400500D01*
X206439563Y-116400499D01*
X206515989Y-116380021D01*
X206584511Y-116340460D01*
X206640460Y-116284511D01*
X207995498Y-114929472D01*
X208050013Y-114901697D01*
X208110445Y-114911268D01*
X208153710Y-114954533D01*
X208164500Y-114999478D01*
X208164500Y-115005817D01*
X208164500Y-115144183D01*
X208200312Y-115277836D01*
X208269495Y-115397665D01*
X208367335Y-115495505D01*
X208487164Y-115564688D01*
X208620817Y-115600500D01*
X208620819Y-115600500D01*
X208759181Y-115600500D01*
X208759183Y-115600500D01*
X208892836Y-115564688D01*
X209012665Y-115495505D01*
X209110505Y-115397665D01*
X209179688Y-115277836D01*
X209215500Y-115144183D01*
X209215500Y-115005817D01*
X209179688Y-114872164D01*
X209110505Y-114752335D01*
X209012665Y-114654495D01*
X208892836Y-114585312D01*
X208759183Y-114549500D01*
X208620817Y-114549500D01*
X208614478Y-114549500D01*
X208556287Y-114530593D01*
X208520323Y-114481093D01*
X208520323Y-114419907D01*
X208544472Y-114380498D01*
X208939460Y-113985511D01*
X208952642Y-113962679D01*
X208956467Y-113956055D01*
X209420000Y-113956055D01*
X209420000Y-114474999D01*
X209420001Y-114475000D01*
X209820000Y-114475000D01*
X209820000Y-114675000D01*
X209420001Y-114675000D01*
X209420000Y-114675001D01*
X209420000Y-115193944D01*
X209446901Y-115329183D01*
X209499666Y-115456571D01*
X209576271Y-115571220D01*
X209673779Y-115668728D01*
X209788428Y-115745333D01*
X209915817Y-115798098D01*
X210020000Y-115818822D01*
X210020000Y-115408788D01*
X210080504Y-115425000D01*
X210159496Y-115425000D01*
X210220000Y-115408788D01*
X210220000Y-115818821D01*
X210324181Y-115798098D01*
X210324183Y-115798098D01*
X210451571Y-115745333D01*
X210566220Y-115668728D01*
X210663728Y-115571220D01*
X210740333Y-115456571D01*
X210793098Y-115329183D01*
X210819999Y-115193944D01*
X210820000Y-115193942D01*
X210820000Y-114675001D01*
X210819999Y-114675000D01*
X210420000Y-114675000D01*
X210420000Y-114475000D01*
X210819999Y-114475000D01*
X210820000Y-114474999D01*
X210820000Y-114284108D01*
X214599500Y-114284108D01*
X214599500Y-114415892D01*
X214621963Y-114499727D01*
X214633609Y-114543190D01*
X214699496Y-114657309D01*
X214699498Y-114657311D01*
X214699500Y-114657314D01*
X214792686Y-114750500D01*
X214792688Y-114750501D01*
X214792690Y-114750503D01*
X214906810Y-114816390D01*
X214906808Y-114816390D01*
X214906812Y-114816391D01*
X214906814Y-114816392D01*
X215034108Y-114850500D01*
X215034110Y-114850500D01*
X215165890Y-114850500D01*
X215165892Y-114850500D01*
X215293186Y-114816392D01*
X215293188Y-114816390D01*
X215293190Y-114816390D01*
X215407309Y-114750503D01*
X215407309Y-114750502D01*
X215407314Y-114750500D01*
X215500500Y-114657314D01*
X215508532Y-114643402D01*
X215566390Y-114543190D01*
X215566390Y-114543188D01*
X215566392Y-114543186D01*
X215600500Y-114415892D01*
X215600500Y-114284108D01*
X215566392Y-114156814D01*
X215566390Y-114156811D01*
X215566390Y-114156809D01*
X215500503Y-114042690D01*
X215500501Y-114042688D01*
X215500500Y-114042686D01*
X215407314Y-113949500D01*
X215407311Y-113949498D01*
X215407309Y-113949496D01*
X215293189Y-113883609D01*
X215293191Y-113883609D01*
X215243799Y-113870375D01*
X215165892Y-113849500D01*
X215034108Y-113849500D01*
X214956200Y-113870375D01*
X214906809Y-113883609D01*
X214792690Y-113949496D01*
X214699496Y-114042690D01*
X214633609Y-114156809D01*
X214633608Y-114156814D01*
X214599500Y-114284108D01*
X210820000Y-114284108D01*
X210820000Y-113956057D01*
X210819999Y-113956055D01*
X210793098Y-113820816D01*
X210740333Y-113693428D01*
X210663728Y-113578779D01*
X210566220Y-113481271D01*
X210451571Y-113404666D01*
X210324182Y-113351901D01*
X210220000Y-113331177D01*
X210220000Y-113741211D01*
X210159496Y-113725000D01*
X210080504Y-113725000D01*
X210020000Y-113741211D01*
X210020000Y-113331177D01*
X209915817Y-113351901D01*
X209788428Y-113404666D01*
X209673779Y-113481271D01*
X209576271Y-113578779D01*
X209499666Y-113693428D01*
X209446901Y-113820816D01*
X209420000Y-113956055D01*
X208956467Y-113956055D01*
X208960252Y-113949499D01*
X208967376Y-113937158D01*
X208979021Y-113916989D01*
X208999500Y-113840562D01*
X208999500Y-112516479D01*
X209018407Y-112458288D01*
X209028496Y-112446475D01*
X209345475Y-112129496D01*
X209399992Y-112101719D01*
X209415479Y-112100500D01*
X212301679Y-112100500D01*
X212359870Y-112119407D01*
X212371676Y-112129490D01*
X212442686Y-112200500D01*
X212442688Y-112200501D01*
X212442690Y-112200503D01*
X212556810Y-112266390D01*
X212556808Y-112266390D01*
X212556812Y-112266391D01*
X212556814Y-112266392D01*
X212684108Y-112300500D01*
X212684110Y-112300500D01*
X212815890Y-112300500D01*
X212815892Y-112300500D01*
X212943186Y-112266392D01*
X212943188Y-112266390D01*
X212943190Y-112266390D01*
X213057309Y-112200503D01*
X213057309Y-112200502D01*
X213057314Y-112200500D01*
X213150500Y-112107314D01*
X213154434Y-112100500D01*
X213216390Y-111993190D01*
X213216390Y-111993188D01*
X213216392Y-111993186D01*
X213250500Y-111865892D01*
X213250500Y-111734108D01*
X213216392Y-111606814D01*
X213216390Y-111606811D01*
X213216390Y-111606809D01*
X213150503Y-111492690D01*
X213150501Y-111492688D01*
X213150500Y-111492686D01*
X213057314Y-111399500D01*
X213057311Y-111399498D01*
X213057309Y-111399496D01*
X212943189Y-111333609D01*
X212943191Y-111333609D01*
X212893799Y-111320375D01*
X212815892Y-111299500D01*
X212684108Y-111299500D01*
X212606200Y-111320375D01*
X212556809Y-111333609D01*
X212442690Y-111399496D01*
X212442689Y-111399497D01*
X212442686Y-111399499D01*
X212442686Y-111399500D01*
X212371680Y-111470505D01*
X212317166Y-111498281D01*
X212301679Y-111499500D01*
X209210435Y-111499500D01*
X209134012Y-111519978D01*
X209110405Y-111533608D01*
X209110404Y-111533607D01*
X209065490Y-111559539D01*
X208480105Y-112144924D01*
X208480100Y-112144928D01*
X208472572Y-112152455D01*
X208418054Y-112180229D01*
X208357622Y-112170654D01*
X208353085Y-112168190D01*
X208293186Y-112133608D01*
X208165893Y-112099500D01*
X208034108Y-112099500D01*
X207959813Y-112119407D01*
X207906809Y-112133609D01*
X207792690Y-112199496D01*
X207125130Y-112867056D01*
X207070613Y-112894833D01*
X207055126Y-112896052D01*
X204294874Y-112896052D01*
X204236683Y-112877145D01*
X204224870Y-112867056D01*
X204041922Y-112684108D01*
X203707314Y-112349500D01*
X203707311Y-112349498D01*
X203707310Y-112349497D01*
X203707309Y-112349496D01*
X203593189Y-112283609D01*
X203593191Y-112283609D01*
X203528927Y-112266390D01*
X203465892Y-112249500D01*
X203334108Y-112249500D01*
X203271073Y-112266390D01*
X203206809Y-112283609D01*
X203092690Y-112349496D01*
X202999496Y-112442690D01*
X202933609Y-112556809D01*
X202933608Y-112556814D01*
X202899500Y-112684108D01*
X202103051Y-112684108D01*
X206057664Y-108729496D01*
X206112181Y-108701719D01*
X206127668Y-108700500D01*
X209102761Y-108700500D01*
X209152258Y-108713761D01*
X209156814Y-108716392D01*
X209284108Y-108750500D01*
X209284110Y-108750500D01*
X209415890Y-108750500D01*
X209415892Y-108750500D01*
X209543186Y-108716392D01*
X209543188Y-108716390D01*
X209543190Y-108716390D01*
X209657309Y-108650503D01*
X209657309Y-108650502D01*
X209657314Y-108650500D01*
X209750500Y-108557314D01*
X209816392Y-108443186D01*
X209850500Y-108315892D01*
X209850500Y-108184108D01*
X209816392Y-108056814D01*
X209816390Y-108056811D01*
X209816390Y-108056809D01*
X209750503Y-107942690D01*
X209750501Y-107942688D01*
X209750500Y-107942686D01*
X209657314Y-107849500D01*
X209657311Y-107849498D01*
X209657309Y-107849496D01*
X209543189Y-107783609D01*
X209543191Y-107783609D01*
X209493799Y-107770375D01*
X209415892Y-107749500D01*
X209284108Y-107749500D01*
X209199245Y-107772238D01*
X209156813Y-107783608D01*
X209152259Y-107786238D01*
X209102761Y-107799500D01*
X205840748Y-107799500D01*
X205795565Y-107811606D01*
X205750382Y-107823713D01*
X205750381Y-107823712D01*
X205726169Y-107830201D01*
X205726166Y-107830202D01*
X205623447Y-107889507D01*
X197839507Y-115673447D01*
X197780202Y-115776167D01*
X197780201Y-115776169D01*
X197780201Y-115776170D01*
X197780201Y-115776171D01*
X197751848Y-115881987D01*
X197749500Y-115890749D01*
X197749500Y-116352761D01*
X197745276Y-116368524D01*
X197745685Y-116379979D01*
X197742332Y-116391701D01*
X197733608Y-116406814D01*
X197699500Y-116534108D01*
X189413898Y-116534108D01*
X189446224Y-116478119D01*
X189466390Y-116443190D01*
X189466390Y-116443188D01*
X189466392Y-116443186D01*
X189500500Y-116315892D01*
X189500500Y-116184108D01*
X189466392Y-116056814D01*
X189466390Y-116056811D01*
X189466390Y-116056809D01*
X189400503Y-115942690D01*
X189400501Y-115942688D01*
X189400500Y-115942686D01*
X189307314Y-115849500D01*
X189307311Y-115849498D01*
X189307309Y-115849496D01*
X189193189Y-115783609D01*
X189193191Y-115783609D01*
X189143799Y-115770375D01*
X189065892Y-115749500D01*
X188934108Y-115749500D01*
X188856200Y-115770375D01*
X188806809Y-115783609D01*
X188692690Y-115849496D01*
X188599496Y-115942690D01*
X188533609Y-116056809D01*
X188519983Y-116107664D01*
X188499500Y-116184108D01*
X185791798Y-116184108D01*
X185792646Y-116177668D01*
X185794354Y-116164697D01*
X185794354Y-116164696D01*
X185798045Y-116136660D01*
X185800500Y-116118011D01*
X185800500Y-115881989D01*
X185769693Y-115647986D01*
X185708606Y-115420007D01*
X185685846Y-115365060D01*
X185618286Y-115201955D01*
X185596659Y-115164496D01*
X185500273Y-114997550D01*
X185361266Y-114816392D01*
X185356597Y-114810307D01*
X185356595Y-114810305D01*
X185356592Y-114810301D01*
X185189699Y-114643408D01*
X185189694Y-114643404D01*
X185189692Y-114643402D01*
X185002453Y-114499729D01*
X184959621Y-114475000D01*
X184798049Y-114381716D01*
X184798044Y-114381713D01*
X184579992Y-114291393D01*
X184411208Y-114246168D01*
X184352014Y-114230307D01*
X184352011Y-114230306D01*
X184352009Y-114230306D01*
X184118012Y-114199500D01*
X184118011Y-114199500D01*
X183881989Y-114199500D01*
X183881987Y-114199500D01*
X183647993Y-114230306D01*
X183647988Y-114230306D01*
X183420007Y-114291393D01*
X183201955Y-114381713D01*
X182997546Y-114499729D01*
X182810307Y-114643402D01*
X182643402Y-114810307D01*
X182499729Y-114997546D01*
X182381713Y-115201955D01*
X182291393Y-115420007D01*
X182230306Y-115647988D01*
X182230306Y-115647993D01*
X182209143Y-115808746D01*
X182199500Y-115881989D01*
X180000000Y-115881989D01*
X180000000Y-91542691D01*
X184649500Y-91542691D01*
X184649500Y-91661309D01*
X184660639Y-91702879D01*
X184680202Y-91775890D01*
X184739507Y-91878608D01*
X184739509Y-91878610D01*
X184739511Y-91878613D01*
X184823387Y-91962489D01*
X184823389Y-91962490D01*
X184823391Y-91962492D01*
X184926110Y-92021797D01*
X184926111Y-92021797D01*
X184926114Y-92021799D01*
X185040691Y-92052500D01*
X185040693Y-92052500D01*
X185159307Y-92052500D01*
X185159309Y-92052500D01*
X185273886Y-92021799D01*
X185273888Y-92021797D01*
X185273890Y-92021797D01*
X185376608Y-91962492D01*
X185376608Y-91962491D01*
X185376613Y-91962489D01*
X185460489Y-91878613D01*
X185519799Y-91775886D01*
X185550500Y-91661309D01*
X185550500Y-91542691D01*
X185519799Y-91428114D01*
X185519797Y-91428111D01*
X185519797Y-91428109D01*
X185460492Y-91325391D01*
X185460490Y-91325389D01*
X185460489Y-91325387D01*
X185376613Y-91241511D01*
X185376610Y-91241509D01*
X185376608Y-91241507D01*
X185273889Y-91182202D01*
X185273890Y-91182202D01*
X185260351Y-91178574D01*
X185159309Y-91151500D01*
X185040691Y-91151500D01*
X184988525Y-91165478D01*
X184926109Y-91182202D01*
X184823391Y-91241507D01*
X184739507Y-91325391D01*
X184680202Y-91428109D01*
X184673334Y-91453742D01*
X184649500Y-91542691D01*
X180000000Y-91542691D01*
X180000000Y-90034108D01*
X182549500Y-90034108D01*
X182549500Y-90165892D01*
X182564318Y-90221193D01*
X182583609Y-90293190D01*
X182649496Y-90407309D01*
X182649498Y-90407311D01*
X182649500Y-90407314D01*
X182742686Y-90500500D01*
X182742688Y-90500501D01*
X182742690Y-90500503D01*
X182856810Y-90566390D01*
X182856808Y-90566390D01*
X182856812Y-90566391D01*
X182856814Y-90566392D01*
X182984108Y-90600500D01*
X182984110Y-90600500D01*
X183115890Y-90600500D01*
X183115892Y-90600500D01*
X183243186Y-90566392D01*
X183243188Y-90566390D01*
X183243190Y-90566390D01*
X183357309Y-90500503D01*
X183357309Y-90500502D01*
X183357314Y-90500500D01*
X183428319Y-90429494D01*
X183482834Y-90401719D01*
X183498321Y-90400500D01*
X185189563Y-90400500D01*
X185189563Y-90400499D01*
X185265989Y-90380021D01*
X185334511Y-90340460D01*
X185390460Y-90284511D01*
X185465460Y-90209511D01*
X186895474Y-88779495D01*
X186949991Y-88751719D01*
X186965478Y-88750500D01*
X187065890Y-88750500D01*
X187065892Y-88750500D01*
X187193186Y-88716392D01*
X187193188Y-88716390D01*
X187193190Y-88716390D01*
X187307309Y-88650503D01*
X187307309Y-88650502D01*
X187307314Y-88650500D01*
X187400500Y-88557314D01*
X187436477Y-88495000D01*
X187466390Y-88443190D01*
X187466390Y-88443188D01*
X187466392Y-88443186D01*
X187500500Y-88315892D01*
X187500500Y-88184108D01*
X187466392Y-88056814D01*
X187466390Y-88056811D01*
X187466390Y-88056809D01*
X187400503Y-87942690D01*
X187400501Y-87942688D01*
X187400500Y-87942686D01*
X187329494Y-87871680D01*
X187301719Y-87817166D01*
X187300500Y-87801679D01*
X187300500Y-87215479D01*
X187319407Y-87157288D01*
X187329496Y-87145475D01*
X191140866Y-83334105D01*
X195090460Y-79384511D01*
X195099109Y-79369531D01*
X195130021Y-79315989D01*
X195150500Y-79239562D01*
X195150500Y-72598321D01*
X195169407Y-72540130D01*
X195179490Y-72528323D01*
X195250500Y-72457314D01*
X195272031Y-72420021D01*
X195316390Y-72343190D01*
X195316390Y-72343188D01*
X195316392Y-72343186D01*
X195350500Y-72215892D01*
X195350500Y-72084108D01*
X195321297Y-71975120D01*
X195324500Y-71914022D01*
X195363005Y-71866472D01*
X195416924Y-71850500D01*
X199651679Y-71850500D01*
X199709870Y-71869407D01*
X199721676Y-71879490D01*
X199792686Y-71950500D01*
X199792688Y-71950501D01*
X199792690Y-71950503D01*
X199906810Y-72016390D01*
X199906808Y-72016390D01*
X199906812Y-72016391D01*
X199906814Y-72016392D01*
X200034108Y-72050500D01*
X200034110Y-72050500D01*
X200165890Y-72050500D01*
X200165892Y-72050500D01*
X200293186Y-72016392D01*
X200293188Y-72016390D01*
X200293190Y-72016390D01*
X200407309Y-71950503D01*
X200407309Y-71950502D01*
X200407314Y-71950500D01*
X200500500Y-71857314D01*
X200514763Y-71832608D01*
X200560233Y-71791668D01*
X200621083Y-71785272D01*
X200674071Y-71815865D01*
X200698958Y-71871760D01*
X200699500Y-71882109D01*
X200699500Y-76334521D01*
X200680593Y-76392712D01*
X200670504Y-76404525D01*
X198719504Y-78355525D01*
X198664987Y-78383302D01*
X198604555Y-78373731D01*
X198561290Y-78330466D01*
X198550500Y-78285521D01*
X198550500Y-73498321D01*
X198569407Y-73440130D01*
X198579490Y-73428323D01*
X198650500Y-73357314D01*
X198716392Y-73243186D01*
X198750500Y-73115892D01*
X198750500Y-72984108D01*
X198716392Y-72856814D01*
X198716390Y-72856811D01*
X198716390Y-72856809D01*
X198650503Y-72742690D01*
X198650501Y-72742688D01*
X198650500Y-72742686D01*
X198557314Y-72649500D01*
X198557311Y-72649498D01*
X198557309Y-72649496D01*
X198443189Y-72583609D01*
X198443191Y-72583609D01*
X198393799Y-72570375D01*
X198315892Y-72549500D01*
X198184108Y-72549500D01*
X198106200Y-72570375D01*
X198056809Y-72583609D01*
X197942690Y-72649496D01*
X197849496Y-72742690D01*
X197783609Y-72856809D01*
X197783608Y-72856814D01*
X197749500Y-72984108D01*
X197749500Y-73115892D01*
X197769491Y-73190499D01*
X197783609Y-73243190D01*
X197849496Y-73357309D01*
X197849498Y-73357311D01*
X197849500Y-73357314D01*
X197920505Y-73428319D01*
X197948281Y-73482834D01*
X197949500Y-73498321D01*
X197949500Y-73781250D01*
X197930593Y-73839441D01*
X197881093Y-73875405D01*
X197819907Y-73875405D01*
X197801000Y-73866987D01*
X197743187Y-73833608D01*
X197700754Y-73822238D01*
X197615892Y-73799500D01*
X197484108Y-73799500D01*
X197406200Y-73820375D01*
X197356809Y-73833609D01*
X197242690Y-73899496D01*
X197149496Y-73992690D01*
X197083609Y-74106809D01*
X197083608Y-74106814D01*
X197049500Y-74234108D01*
X197049500Y-74365892D01*
X197060598Y-74407309D01*
X197083609Y-74493190D01*
X197149496Y-74607309D01*
X197149498Y-74607311D01*
X197149500Y-74607314D01*
X197220505Y-74678319D01*
X197248281Y-74732834D01*
X197249500Y-74748321D01*
X197249500Y-77934520D01*
X197230593Y-77992711D01*
X197220504Y-78004524D01*
X192341144Y-82883883D01*
X192296764Y-82909505D01*
X192206814Y-82933607D01*
X192206810Y-82933609D01*
X192092690Y-82999496D01*
X191999496Y-83092690D01*
X191933609Y-83206809D01*
X191933608Y-83206814D01*
X191899500Y-83334108D01*
X191899500Y-83465892D01*
X191929579Y-83578151D01*
X191933609Y-83593190D01*
X191999496Y-83707309D01*
X191999498Y-83707311D01*
X191999500Y-83707314D01*
X192092686Y-83800500D01*
X192092688Y-83800501D01*
X192092690Y-83800503D01*
X192206810Y-83866390D01*
X192206808Y-83866390D01*
X192206812Y-83866391D01*
X192206814Y-83866392D01*
X192334108Y-83900500D01*
X192334110Y-83900500D01*
X192465890Y-83900500D01*
X192465892Y-83900500D01*
X192593186Y-83866392D01*
X192593188Y-83866390D01*
X192593190Y-83866390D01*
X192707309Y-83800503D01*
X192707309Y-83800502D01*
X192707314Y-83800500D01*
X192800500Y-83707314D01*
X192866392Y-83593186D01*
X192900500Y-83465892D01*
X192900500Y-83334108D01*
X192881558Y-83263416D01*
X192884759Y-83202316D01*
X192907181Y-83167789D01*
X193319728Y-82755243D01*
X193374244Y-82727466D01*
X193434676Y-82737037D01*
X193477941Y-82780302D01*
X193481195Y-82787361D01*
X193483609Y-82793189D01*
X193549496Y-82907309D01*
X193549498Y-82907311D01*
X193549500Y-82907314D01*
X193642686Y-83000500D01*
X193642688Y-83000501D01*
X193642690Y-83000503D01*
X193756810Y-83066390D01*
X193756808Y-83066390D01*
X193756812Y-83066391D01*
X193756814Y-83066392D01*
X193789790Y-83075227D01*
X193841103Y-83108551D01*
X193863030Y-83165672D01*
X193847195Y-83224773D01*
X193834170Y-83240858D01*
X190154525Y-86920504D01*
X190147407Y-86924130D01*
X190142712Y-86930593D01*
X190120663Y-86937756D01*
X190100008Y-86948281D01*
X190084521Y-86949500D01*
X190048321Y-86949500D01*
X189990130Y-86930593D01*
X189978323Y-86920509D01*
X189907314Y-86849500D01*
X189907311Y-86849498D01*
X189907309Y-86849496D01*
X189793189Y-86783609D01*
X189793191Y-86783609D01*
X189743799Y-86770375D01*
X189665892Y-86749500D01*
X189534108Y-86749500D01*
X189456200Y-86770375D01*
X189406809Y-86783609D01*
X189292690Y-86849496D01*
X189199496Y-86942690D01*
X189133609Y-87056809D01*
X189133608Y-87056814D01*
X189099500Y-87184108D01*
X189099500Y-87315892D01*
X189123484Y-87405402D01*
X189133609Y-87443190D01*
X189199496Y-87557309D01*
X189199498Y-87557311D01*
X189199500Y-87557314D01*
X189292686Y-87650500D01*
X189292688Y-87650501D01*
X189292690Y-87650503D01*
X189406810Y-87716390D01*
X189406808Y-87716390D01*
X189406812Y-87716391D01*
X189406814Y-87716392D01*
X189534108Y-87750500D01*
X189534110Y-87750500D01*
X189665890Y-87750500D01*
X189665892Y-87750500D01*
X189793186Y-87716392D01*
X189793188Y-87716390D01*
X189793190Y-87716390D01*
X189907309Y-87650503D01*
X189907309Y-87650502D01*
X189907314Y-87650500D01*
X189978319Y-87579494D01*
X190032834Y-87551719D01*
X190048321Y-87550500D01*
X190289562Y-87550500D01*
X190321947Y-87541822D01*
X190383047Y-87545023D01*
X190430598Y-87583527D01*
X190446435Y-87642627D01*
X190424510Y-87699749D01*
X190417575Y-87707452D01*
X187454524Y-90670504D01*
X187400007Y-90698281D01*
X187384520Y-90699500D01*
X187284108Y-90699500D01*
X187206200Y-90720375D01*
X187156809Y-90733609D01*
X187042690Y-90799496D01*
X186949496Y-90892690D01*
X186883609Y-91006809D01*
X186883608Y-91006814D01*
X186849500Y-91134108D01*
X186849500Y-91265892D01*
X186865443Y-91325391D01*
X186883609Y-91393190D01*
X186949496Y-91507309D01*
X186949498Y-91507311D01*
X186949500Y-91507314D01*
X187042686Y-91600500D01*
X187042688Y-91600501D01*
X187042690Y-91600503D01*
X187156810Y-91666390D01*
X187156808Y-91666390D01*
X187156812Y-91666391D01*
X187156814Y-91666392D01*
X187284108Y-91700500D01*
X187284110Y-91700500D01*
X187415890Y-91700500D01*
X187415892Y-91700500D01*
X187543186Y-91666392D01*
X187543188Y-91666390D01*
X187543190Y-91666390D01*
X187657309Y-91600503D01*
X187657309Y-91600502D01*
X187657314Y-91600500D01*
X187750500Y-91507314D01*
X187781430Y-91453742D01*
X187816390Y-91393190D01*
X187816390Y-91393188D01*
X187816392Y-91393186D01*
X187850500Y-91265892D01*
X187850500Y-91165478D01*
X187869407Y-91107287D01*
X187879496Y-91095474D01*
X189129380Y-89845590D01*
X191669500Y-89845590D01*
X191669500Y-90034559D01*
X191699058Y-90221188D01*
X191757453Y-90400907D01*
X191841771Y-90566392D01*
X191843240Y-90569274D01*
X191954310Y-90722148D01*
X192087927Y-90855765D01*
X192240801Y-90966835D01*
X192409168Y-91052622D01*
X192588882Y-91111015D01*
X192588885Y-91111015D01*
X192588887Y-91111016D01*
X192598551Y-91112547D01*
X192653068Y-91140323D01*
X192680847Y-91194839D01*
X192671276Y-91255271D01*
X192628013Y-91298537D01*
X192598555Y-91308109D01*
X192589001Y-91309622D01*
X192409364Y-91367989D01*
X192241063Y-91453742D01*
X192241059Y-91453744D01*
X192092804Y-91561457D01*
X192666837Y-92135490D01*
X192624394Y-92159995D01*
X192549920Y-92234469D01*
X192525415Y-92276912D01*
X191951382Y-91702879D01*
X191843669Y-91851134D01*
X191843667Y-91851138D01*
X191757914Y-92019439D01*
X191699546Y-92199078D01*
X191670000Y-92385629D01*
X191670000Y-92574520D01*
X191699546Y-92761071D01*
X191757914Y-92940710D01*
X191843667Y-93109011D01*
X191843669Y-93109015D01*
X191951382Y-93257269D01*
X192525414Y-92683236D01*
X192549920Y-92725681D01*
X192624394Y-92800155D01*
X192666836Y-92824659D01*
X192092804Y-93398691D01*
X192241059Y-93506405D01*
X192241063Y-93506407D01*
X192409364Y-93592160D01*
X192589000Y-93650527D01*
X192598548Y-93652039D01*
X192653066Y-93679814D01*
X192680846Y-93734329D01*
X192671278Y-93794761D01*
X192628016Y-93838028D01*
X192598558Y-93847601D01*
X192588888Y-93849132D01*
X192409167Y-93907528D01*
X192240803Y-93993313D01*
X192087928Y-94104384D01*
X191954309Y-94238003D01*
X191843238Y-94390878D01*
X191757453Y-94559242D01*
X191699058Y-94738961D01*
X191669500Y-94925590D01*
X191669500Y-95114559D01*
X191699058Y-95301188D01*
X191699060Y-95301193D01*
X191757453Y-95480907D01*
X191843240Y-95649274D01*
X191954310Y-95802148D01*
X192087927Y-95935765D01*
X192240801Y-96046835D01*
X192409168Y-96132622D01*
X192588882Y-96191015D01*
X192588883Y-96191015D01*
X192588886Y-96191016D01*
X192596954Y-96192294D01*
X192651471Y-96220071D01*
X192679248Y-96274588D01*
X192669677Y-96335020D01*
X192626412Y-96378285D01*
X192596954Y-96387856D01*
X192588886Y-96389133D01*
X192409167Y-96447528D01*
X192240803Y-96533313D01*
X192087928Y-96644384D01*
X191954309Y-96778003D01*
X191843238Y-96930878D01*
X191757453Y-97099242D01*
X191699058Y-97278961D01*
X191669500Y-97465590D01*
X191669500Y-97654559D01*
X191699058Y-97841188D01*
X191699060Y-97841193D01*
X191757453Y-98020907D01*
X191843240Y-98189274D01*
X191954310Y-98342148D01*
X192087927Y-98475765D01*
X192240801Y-98586835D01*
X192409168Y-98672622D01*
X192588882Y-98731015D01*
X192588883Y-98731015D01*
X192588886Y-98731016D01*
X192596954Y-98732294D01*
X192651471Y-98760071D01*
X192679248Y-98814588D01*
X192669677Y-98875020D01*
X192626412Y-98918285D01*
X192596954Y-98927856D01*
X192588886Y-98929133D01*
X192409167Y-98987528D01*
X192240803Y-99073313D01*
X192087928Y-99184384D01*
X191954309Y-99318003D01*
X191843238Y-99470878D01*
X191757453Y-99639242D01*
X191699058Y-99818961D01*
X191669500Y-100005590D01*
X191669500Y-100194559D01*
X191699058Y-100381188D01*
X191699060Y-100381193D01*
X191757453Y-100560907D01*
X191843240Y-100729274D01*
X191954310Y-100882148D01*
X192087927Y-101015765D01*
X192240801Y-101126835D01*
X192409168Y-101212622D01*
X192588882Y-101271015D01*
X192588883Y-101271015D01*
X192588886Y-101271016D01*
X192775516Y-101300575D01*
X192775519Y-101300575D01*
X192964484Y-101300575D01*
X193151113Y-101271016D01*
X193151114Y-101271015D01*
X193151118Y-101271015D01*
X193330832Y-101212622D01*
X193499199Y-101126835D01*
X193652073Y-101015765D01*
X193785690Y-100882148D01*
X193896760Y-100729274D01*
X193982547Y-100560907D01*
X194040940Y-100381193D01*
X194070500Y-100194556D01*
X194070500Y-100005594D01*
X194070500Y-100005590D01*
X194040941Y-99818961D01*
X194040940Y-99818957D01*
X193982547Y-99639243D01*
X193896760Y-99470876D01*
X193785690Y-99318002D01*
X193652073Y-99184385D01*
X193499199Y-99073315D01*
X193499198Y-99073314D01*
X193499196Y-99073313D01*
X193330832Y-98987528D01*
X193151113Y-98929133D01*
X193143046Y-98927856D01*
X193088529Y-98900079D01*
X193060751Y-98845563D01*
X193070322Y-98785131D01*
X193113586Y-98741866D01*
X193143046Y-98732294D01*
X193151113Y-98731016D01*
X193151114Y-98731015D01*
X193151118Y-98731015D01*
X193330832Y-98672622D01*
X193499199Y-98586835D01*
X193652073Y-98475765D01*
X193785690Y-98342148D01*
X193896760Y-98189274D01*
X193982547Y-98020907D01*
X194040940Y-97841193D01*
X194070500Y-97654556D01*
X194070500Y-97465594D01*
X194070500Y-97465590D01*
X194040941Y-97278961D01*
X194040940Y-97278957D01*
X193982547Y-97099243D01*
X193896760Y-96930876D01*
X193785690Y-96778002D01*
X193652073Y-96644385D01*
X193499199Y-96533315D01*
X193499198Y-96533314D01*
X193499196Y-96533313D01*
X193330832Y-96447528D01*
X193151113Y-96389133D01*
X193143046Y-96387856D01*
X193088529Y-96360079D01*
X193060751Y-96305563D01*
X193070322Y-96245131D01*
X193113586Y-96201866D01*
X193143046Y-96192294D01*
X193151113Y-96191016D01*
X193151114Y-96191015D01*
X193151118Y-96191015D01*
X193330832Y-96132622D01*
X193499199Y-96046835D01*
X193652073Y-95935765D01*
X193785690Y-95802148D01*
X193896760Y-95649274D01*
X193982547Y-95480907D01*
X194040940Y-95301193D01*
X194070500Y-95114556D01*
X194070500Y-94925594D01*
X194070500Y-94925590D01*
X194040941Y-94738961D01*
X194032775Y-94713828D01*
X193982547Y-94559243D01*
X193896760Y-94390876D01*
X193785690Y-94238002D01*
X193652073Y-94104385D01*
X193499199Y-93993315D01*
X193499198Y-93993314D01*
X193499196Y-93993313D01*
X193330832Y-93907528D01*
X193151110Y-93849132D01*
X193141442Y-93847601D01*
X193086926Y-93819822D01*
X193059151Y-93765304D01*
X193068725Y-93704872D01*
X193111992Y-93661609D01*
X193141452Y-93652039D01*
X193150998Y-93650527D01*
X193330635Y-93592160D01*
X193498934Y-93506408D01*
X193647194Y-93398690D01*
X193073163Y-92824659D01*
X193115606Y-92800155D01*
X193190080Y-92725681D01*
X193214584Y-92683238D01*
X193788615Y-93257269D01*
X193896333Y-93109009D01*
X193982085Y-92940710D01*
X194040453Y-92761071D01*
X194070000Y-92574520D01*
X194070000Y-92385629D01*
X194040453Y-92199078D01*
X193982085Y-92019439D01*
X193896332Y-91851138D01*
X193896330Y-91851134D01*
X193788616Y-91702879D01*
X193214584Y-92276911D01*
X193190080Y-92234469D01*
X193115606Y-92159995D01*
X193073161Y-92135489D01*
X193647194Y-91561457D01*
X193498940Y-91453744D01*
X193498936Y-91453742D01*
X193330635Y-91367989D01*
X193150997Y-91309622D01*
X193141445Y-91308109D01*
X193086929Y-91280331D01*
X193059152Y-91225814D01*
X193068724Y-91165382D01*
X193111989Y-91122118D01*
X193141446Y-91112546D01*
X193151118Y-91111015D01*
X193330832Y-91052622D01*
X193499199Y-90966835D01*
X193652073Y-90855765D01*
X193785690Y-90722148D01*
X193896760Y-90569274D01*
X193982547Y-90400907D01*
X194040940Y-90221193D01*
X194070500Y-90034556D01*
X194070500Y-89845594D01*
X194070500Y-89845590D01*
X194040941Y-89658961D01*
X194032704Y-89633609D01*
X193982547Y-89479243D01*
X193896760Y-89310876D01*
X193785690Y-89158002D01*
X193652073Y-89024385D01*
X193499199Y-88913315D01*
X193499198Y-88913314D01*
X193499196Y-88913313D01*
X193330832Y-88827528D01*
X193151113Y-88769133D01*
X192964484Y-88739575D01*
X192964481Y-88739575D01*
X192775519Y-88739575D01*
X192775516Y-88739575D01*
X192588886Y-88769133D01*
X192409167Y-88827528D01*
X192240803Y-88913313D01*
X192087928Y-89024384D01*
X191954309Y-89158003D01*
X191843238Y-89310878D01*
X191757453Y-89479242D01*
X191699058Y-89658961D01*
X191669500Y-89845590D01*
X189129380Y-89845590D01*
X198040862Y-80934108D01*
X202049500Y-80934108D01*
X202049500Y-81065892D01*
X202058773Y-81100500D01*
X202083609Y-81193190D01*
X202149496Y-81307309D01*
X202149498Y-81307311D01*
X202149500Y-81307314D01*
X202242686Y-81400500D01*
X202242688Y-81400501D01*
X202242690Y-81400503D01*
X202356810Y-81466390D01*
X202356808Y-81466390D01*
X202356812Y-81466391D01*
X202356814Y-81466392D01*
X202484108Y-81500500D01*
X202484110Y-81500500D01*
X202615890Y-81500500D01*
X202615892Y-81500500D01*
X202743186Y-81466392D01*
X202743188Y-81466390D01*
X202743190Y-81466390D01*
X202857309Y-81400503D01*
X202857309Y-81400502D01*
X202857314Y-81400500D01*
X202950500Y-81307314D01*
X202950503Y-81307309D01*
X203016390Y-81193190D01*
X203016390Y-81193188D01*
X203016392Y-81193186D01*
X203050500Y-81065892D01*
X203050500Y-80934108D01*
X203016392Y-80806814D01*
X203016390Y-80806811D01*
X203016390Y-80806809D01*
X202950503Y-80692690D01*
X202950501Y-80692688D01*
X202950500Y-80692686D01*
X202857314Y-80599500D01*
X202857311Y-80599498D01*
X202857309Y-80599496D01*
X202743189Y-80533609D01*
X202743191Y-80533609D01*
X202693799Y-80520375D01*
X202615892Y-80499500D01*
X202484108Y-80499500D01*
X202406200Y-80520375D01*
X202356809Y-80533609D01*
X202242690Y-80599496D01*
X202149496Y-80692690D01*
X202083609Y-80806809D01*
X202083608Y-80806814D01*
X202049500Y-80934108D01*
X198040862Y-80934108D01*
X199735408Y-79239562D01*
X209830497Y-69144473D01*
X209885013Y-69116697D01*
X209945445Y-69126268D01*
X209988710Y-69169533D01*
X209999500Y-69214478D01*
X209999500Y-69265892D01*
X210017778Y-69334108D01*
X210033609Y-69393190D01*
X210099496Y-69507309D01*
X210099498Y-69507311D01*
X210099500Y-69507314D01*
X210170505Y-69578319D01*
X210198281Y-69632834D01*
X210199500Y-69648321D01*
X210199500Y-101839564D01*
X210219978Y-101915988D01*
X210219980Y-101915992D01*
X210259538Y-101984508D01*
X210259540Y-101984511D01*
X220170505Y-111895476D01*
X220198281Y-111949991D01*
X220199500Y-111965478D01*
X220199500Y-112065892D01*
X220222694Y-112152455D01*
X220233609Y-112193190D01*
X220299496Y-112307309D01*
X220299498Y-112307311D01*
X220299500Y-112307314D01*
X220392686Y-112400500D01*
X220392688Y-112400501D01*
X220392690Y-112400503D01*
X220506810Y-112466390D01*
X220506808Y-112466390D01*
X220506812Y-112466391D01*
X220506814Y-112466392D01*
X220634108Y-112500500D01*
X220634110Y-112500500D01*
X220765890Y-112500500D01*
X220765892Y-112500500D01*
X220893186Y-112466392D01*
X220893188Y-112466390D01*
X220893190Y-112466390D01*
X221007309Y-112400503D01*
X221007309Y-112400502D01*
X221007314Y-112400500D01*
X221100500Y-112307314D01*
X221157433Y-112208702D01*
X221202900Y-112167763D01*
X221263750Y-112161367D01*
X221313172Y-112188200D01*
X221470504Y-112345532D01*
X221498281Y-112400049D01*
X221499500Y-112415536D01*
X221499500Y-114680672D01*
X221480593Y-114738863D01*
X221450001Y-114766408D01*
X221392688Y-114799498D01*
X221299496Y-114892690D01*
X221233609Y-115006809D01*
X221233608Y-115006814D01*
X221199500Y-115134108D01*
X221199500Y-115265892D01*
X221211106Y-115309205D01*
X221233609Y-115393190D01*
X221299496Y-115507309D01*
X221299498Y-115507311D01*
X221299500Y-115507314D01*
X221322684Y-115530498D01*
X221350460Y-115585013D01*
X221340889Y-115645445D01*
X221297624Y-115688710D01*
X221252679Y-115699500D01*
X212948321Y-115699500D01*
X212890130Y-115680593D01*
X212878323Y-115670509D01*
X212807314Y-115599500D01*
X212807311Y-115599498D01*
X212807309Y-115599496D01*
X212693189Y-115533609D01*
X212693191Y-115533609D01*
X212643799Y-115520375D01*
X212565892Y-115499500D01*
X212434108Y-115499500D01*
X212356200Y-115520375D01*
X212306809Y-115533609D01*
X212192690Y-115599496D01*
X212099496Y-115692690D01*
X212033609Y-115806809D01*
X212022170Y-115849500D01*
X211999500Y-115934108D01*
X211999500Y-116065892D01*
X212026294Y-116165890D01*
X212033609Y-116193190D01*
X212099496Y-116307309D01*
X212099498Y-116307311D01*
X212099500Y-116307314D01*
X212192686Y-116400500D01*
X212192688Y-116400501D01*
X212192690Y-116400503D01*
X212306810Y-116466390D01*
X212306808Y-116466390D01*
X212306812Y-116466391D01*
X212306814Y-116466392D01*
X212434108Y-116500500D01*
X212434110Y-116500500D01*
X212565890Y-116500500D01*
X212565892Y-116500500D01*
X212693186Y-116466392D01*
X212693188Y-116466390D01*
X212693190Y-116466390D01*
X212807309Y-116400503D01*
X212807309Y-116400502D01*
X212807314Y-116400500D01*
X212878319Y-116329494D01*
X212932834Y-116301719D01*
X212948321Y-116300500D01*
X221789506Y-116300500D01*
X221789506Y-116300499D01*
X221865932Y-116280021D01*
X221934454Y-116240460D01*
X221962428Y-116212485D01*
X221990404Y-116184511D01*
X222268105Y-115906809D01*
X222292925Y-115881989D01*
X224199500Y-115881989D01*
X224199500Y-116118011D01*
X224224421Y-116307309D01*
X224230306Y-116352006D01*
X224230306Y-116352011D01*
X224291393Y-116579992D01*
X224381713Y-116798044D01*
X224381716Y-116798049D01*
X224440577Y-116900000D01*
X224499729Y-117002453D01*
X224643402Y-117189692D01*
X224643404Y-117189694D01*
X224643408Y-117189699D01*
X224810301Y-117356592D01*
X224810305Y-117356595D01*
X224810307Y-117356597D01*
X224981546Y-117487993D01*
X224997550Y-117500273D01*
X225201951Y-117618284D01*
X225201952Y-117618284D01*
X225201955Y-117618286D01*
X225420007Y-117708606D01*
X225647986Y-117769693D01*
X225881989Y-117800500D01*
X225881990Y-117800500D01*
X226118010Y-117800500D01*
X226118011Y-117800500D01*
X226352014Y-117769693D01*
X226579993Y-117708606D01*
X226798049Y-117618284D01*
X227002450Y-117500273D01*
X227189699Y-117356592D01*
X227356592Y-117189699D01*
X227500273Y-117002450D01*
X227618284Y-116798049D01*
X227708606Y-116579993D01*
X227769693Y-116352014D01*
X227800500Y-116118011D01*
X227800500Y-115881989D01*
X227769693Y-115647986D01*
X227708606Y-115420007D01*
X227685846Y-115365060D01*
X227618286Y-115201955D01*
X227596659Y-115164496D01*
X227500273Y-114997550D01*
X227361266Y-114816392D01*
X227356597Y-114810307D01*
X227356595Y-114810305D01*
X227356592Y-114810301D01*
X227189699Y-114643408D01*
X227189694Y-114643404D01*
X227189692Y-114643402D01*
X227002453Y-114499729D01*
X226959621Y-114475000D01*
X226798049Y-114381716D01*
X226798044Y-114381713D01*
X226579992Y-114291393D01*
X226411208Y-114246168D01*
X226352014Y-114230307D01*
X226352011Y-114230306D01*
X226352009Y-114230306D01*
X226118012Y-114199500D01*
X226118011Y-114199500D01*
X225881989Y-114199500D01*
X225881987Y-114199500D01*
X225647993Y-114230306D01*
X225647988Y-114230306D01*
X225420007Y-114291393D01*
X225201955Y-114381713D01*
X224997546Y-114499729D01*
X224810307Y-114643402D01*
X224643402Y-114810307D01*
X224499729Y-114997546D01*
X224381713Y-115201955D01*
X224291393Y-115420007D01*
X224230306Y-115647988D01*
X224230306Y-115647993D01*
X224209143Y-115808746D01*
X224199500Y-115881989D01*
X222292925Y-115881989D01*
X222541460Y-115633454D01*
X222566797Y-115589568D01*
X222581021Y-115564932D01*
X222601500Y-115488505D01*
X222601500Y-106459438D01*
X222581021Y-106383011D01*
X222541460Y-106314489D01*
X222485511Y-106258539D01*
X222485511Y-106258540D01*
X220130496Y-103903525D01*
X220102719Y-103849008D01*
X220101500Y-103833521D01*
X220101500Y-79561437D01*
X220101499Y-79561435D01*
X220081021Y-79485011D01*
X220081019Y-79485007D01*
X220041460Y-79416489D01*
X219985511Y-79360539D01*
X219985511Y-79360540D01*
X212429496Y-71804525D01*
X212401719Y-71750008D01*
X212400500Y-71734521D01*
X212400500Y-71634109D01*
X212395619Y-71615892D01*
X212366392Y-71506814D01*
X212366390Y-71506811D01*
X212366390Y-71506809D01*
X212300503Y-71392690D01*
X212300501Y-71392688D01*
X212300500Y-71392686D01*
X212207314Y-71299500D01*
X212207311Y-71299498D01*
X212207309Y-71299496D01*
X212093189Y-71233609D01*
X212093191Y-71233609D01*
X212034525Y-71217890D01*
X211965892Y-71199500D01*
X211834108Y-71199500D01*
X211765475Y-71217890D01*
X211706809Y-71233609D01*
X211592690Y-71299496D01*
X211592689Y-71299497D01*
X211592686Y-71299499D01*
X211592686Y-71299500D01*
X211568501Y-71323684D01*
X211513987Y-71351460D01*
X211453555Y-71341889D01*
X211410290Y-71298624D01*
X211399500Y-71253679D01*
X211399500Y-71019903D01*
X211418407Y-70961712D01*
X211448998Y-70934168D01*
X211507314Y-70900500D01*
X211600500Y-70807314D01*
X211600503Y-70807309D01*
X211666390Y-70693190D01*
X211666390Y-70693188D01*
X211666392Y-70693186D01*
X211700500Y-70565892D01*
X211700500Y-70434108D01*
X211666392Y-70306814D01*
X211666390Y-70306811D01*
X211666390Y-70306809D01*
X211600503Y-70192690D01*
X211600501Y-70192688D01*
X211600500Y-70192686D01*
X211507314Y-70099500D01*
X211507311Y-70099498D01*
X211507309Y-70099496D01*
X211393189Y-70033609D01*
X211393191Y-70033609D01*
X211343799Y-70020375D01*
X211265892Y-69999500D01*
X211134108Y-69999500D01*
X211070461Y-70016554D01*
X211006812Y-70033608D01*
X210949000Y-70066987D01*
X210889152Y-70079708D01*
X210833256Y-70054821D01*
X210802663Y-70001833D01*
X210800500Y-69981250D01*
X210800500Y-69648321D01*
X210819407Y-69590130D01*
X210829490Y-69578323D01*
X210900500Y-69507314D01*
X210928639Y-69458576D01*
X210966390Y-69393190D01*
X210966390Y-69393188D01*
X210966392Y-69393186D01*
X211000500Y-69265892D01*
X211000500Y-69134108D01*
X210966392Y-69006814D01*
X210966390Y-69006811D01*
X210966390Y-69006809D01*
X210900503Y-68892690D01*
X210900501Y-68892688D01*
X210900500Y-68892686D01*
X210807314Y-68799500D01*
X210807311Y-68799498D01*
X210807309Y-68799496D01*
X210693189Y-68733609D01*
X210693191Y-68733609D01*
X210643799Y-68720375D01*
X210565892Y-68699500D01*
X210514478Y-68699500D01*
X210456287Y-68680593D01*
X210420323Y-68631093D01*
X210420323Y-68569907D01*
X210444472Y-68530498D01*
X211690460Y-67284511D01*
X211727684Y-67220036D01*
X211730021Y-67215989D01*
X211750500Y-67139562D01*
X211750500Y-64540458D01*
X211769407Y-64482267D01*
X211799999Y-64454722D01*
X211807314Y-64450500D01*
X211900500Y-64357314D01*
X211957433Y-64258702D01*
X212002900Y-64217763D01*
X212063750Y-64211367D01*
X212113172Y-64238200D01*
X215470504Y-67595532D01*
X215498281Y-67650049D01*
X215499500Y-67665536D01*
X215499500Y-71439564D01*
X215519978Y-71515987D01*
X215519979Y-71515989D01*
X215559252Y-71584012D01*
X215559540Y-71584511D01*
X216299540Y-72324511D01*
X216299539Y-72324511D01*
X216355489Y-72380460D01*
X216424007Y-72420019D01*
X216424011Y-72420021D01*
X216500435Y-72440499D01*
X216500437Y-72440500D01*
X216500438Y-72440500D01*
X216579562Y-72440500D01*
X217870500Y-72440500D01*
X217928691Y-72459407D01*
X217964655Y-72508907D01*
X217969500Y-72539500D01*
X217969500Y-73009746D01*
X217969501Y-73009758D01*
X217981132Y-73068227D01*
X217981134Y-73068233D01*
X218025445Y-73134548D01*
X218025448Y-73134552D01*
X218091769Y-73178867D01*
X218136231Y-73187711D01*
X218150241Y-73190498D01*
X218150246Y-73190498D01*
X218150252Y-73190500D01*
X219604521Y-73190500D01*
X219662712Y-73209407D01*
X219674525Y-73219496D01*
X221170504Y-74715475D01*
X221198281Y-74769992D01*
X221199500Y-74785479D01*
X221199500Y-102539564D01*
X221219977Y-102615985D01*
X221219979Y-102615989D01*
X221253117Y-102673386D01*
X221259540Y-102684511D01*
X221815489Y-103240460D01*
X221815491Y-103240461D01*
X221815493Y-103240463D01*
X221884008Y-103280020D01*
X221884006Y-103280020D01*
X221884010Y-103280021D01*
X221884012Y-103280022D01*
X221960438Y-103300500D01*
X222039562Y-103300500D01*
X225051679Y-103300500D01*
X225109870Y-103319407D01*
X225121676Y-103329490D01*
X225192686Y-103400500D01*
X225192688Y-103400501D01*
X225192690Y-103400503D01*
X225306810Y-103466390D01*
X225306808Y-103466390D01*
X225306812Y-103466391D01*
X225306814Y-103466392D01*
X225434108Y-103500500D01*
X225434110Y-103500500D01*
X225565890Y-103500500D01*
X225565892Y-103500500D01*
X225693186Y-103466392D01*
X225693188Y-103466390D01*
X225693190Y-103466390D01*
X225807309Y-103400503D01*
X225807309Y-103400502D01*
X225807314Y-103400500D01*
X225900500Y-103307314D01*
X225939097Y-103240463D01*
X225966390Y-103193190D01*
X225966390Y-103193188D01*
X225966392Y-103193186D01*
X226000500Y-103065892D01*
X226000500Y-102934108D01*
X225966392Y-102806814D01*
X225966390Y-102806811D01*
X225966390Y-102806809D01*
X225900503Y-102692690D01*
X225900501Y-102692688D01*
X225900500Y-102692686D01*
X225807314Y-102599500D01*
X225807311Y-102599498D01*
X225807309Y-102599496D01*
X225693189Y-102533609D01*
X225693191Y-102533609D01*
X225643799Y-102520375D01*
X225565892Y-102499500D01*
X225434108Y-102499500D01*
X225356200Y-102520375D01*
X225306809Y-102533609D01*
X225192690Y-102599496D01*
X225192689Y-102599497D01*
X225192686Y-102599499D01*
X225192686Y-102599500D01*
X225121680Y-102670505D01*
X225067166Y-102698281D01*
X225051679Y-102699500D01*
X222165479Y-102699500D01*
X222107288Y-102680593D01*
X222095475Y-102670504D01*
X221829496Y-102404525D01*
X221801719Y-102350008D01*
X221800500Y-102334521D01*
X221800500Y-101934108D01*
X222499500Y-101934108D01*
X222499500Y-102065892D01*
X222529579Y-102178151D01*
X222533609Y-102193190D01*
X222599496Y-102307309D01*
X222599498Y-102307311D01*
X222599500Y-102307314D01*
X222692686Y-102400500D01*
X222692688Y-102400501D01*
X222692690Y-102400503D01*
X222806810Y-102466390D01*
X222806808Y-102466390D01*
X222806812Y-102466391D01*
X222806814Y-102466392D01*
X222934108Y-102500500D01*
X222934110Y-102500500D01*
X223065890Y-102500500D01*
X223065892Y-102500500D01*
X223193186Y-102466392D01*
X223193188Y-102466390D01*
X223193190Y-102466390D01*
X223307309Y-102400503D01*
X223307309Y-102400502D01*
X223307314Y-102400500D01*
X223400500Y-102307314D01*
X223466392Y-102193186D01*
X223500500Y-102065892D01*
X223500500Y-101934108D01*
X223466392Y-101806814D01*
X223466390Y-101806811D01*
X223466390Y-101806809D01*
X223400503Y-101692690D01*
X223400501Y-101692688D01*
X223400500Y-101692686D01*
X223307314Y-101599500D01*
X223307311Y-101599498D01*
X223307309Y-101599496D01*
X223193189Y-101533609D01*
X223193191Y-101533609D01*
X223143799Y-101520375D01*
X223065892Y-101499500D01*
X222934108Y-101499500D01*
X222856200Y-101520375D01*
X222806809Y-101533609D01*
X222692690Y-101599496D01*
X222599496Y-101692690D01*
X222533609Y-101806809D01*
X222533608Y-101806814D01*
X222499500Y-101934108D01*
X221800500Y-101934108D01*
X221800500Y-93661579D01*
X223059500Y-93661579D01*
X223059500Y-93858420D01*
X223090289Y-94052821D01*
X223150459Y-94238002D01*
X223151116Y-94240025D01*
X223240476Y-94415405D01*
X223356172Y-94574646D01*
X223495354Y-94713828D01*
X223654595Y-94829524D01*
X223829975Y-94918884D01*
X224017174Y-94979709D01*
X224017175Y-94979709D01*
X224017178Y-94979710D01*
X224211580Y-95010500D01*
X224211583Y-95010500D01*
X224408420Y-95010500D01*
X224602821Y-94979710D01*
X224602822Y-94979709D01*
X224602826Y-94979709D01*
X224790025Y-94918884D01*
X224965405Y-94829524D01*
X225124646Y-94713828D01*
X225263828Y-94574646D01*
X225379524Y-94415405D01*
X225468884Y-94240025D01*
X225529709Y-94052826D01*
X225560500Y-93858417D01*
X225560500Y-93661583D01*
X225560500Y-93661579D01*
X225529710Y-93467178D01*
X225529709Y-93467174D01*
X225468884Y-93279975D01*
X225379524Y-93104595D01*
X225263828Y-92945354D01*
X225124646Y-92806172D01*
X224965405Y-92690476D01*
X224965404Y-92690475D01*
X224965402Y-92690474D01*
X224790025Y-92601116D01*
X224602821Y-92540289D01*
X224408420Y-92509500D01*
X224408417Y-92509500D01*
X224211583Y-92509500D01*
X224211580Y-92509500D01*
X224017178Y-92540289D01*
X223829974Y-92601116D01*
X223654597Y-92690474D01*
X223495355Y-92806171D01*
X223356171Y-92945355D01*
X223240474Y-93104597D01*
X223151116Y-93279974D01*
X223090289Y-93467178D01*
X223059500Y-93661579D01*
X221800500Y-93661579D01*
X221800500Y-92415352D01*
X225724500Y-92415352D01*
X225724500Y-92584647D01*
X225750980Y-92751842D01*
X225750982Y-92751847D01*
X225803295Y-92912849D01*
X225880150Y-93063685D01*
X225979654Y-93200641D01*
X226099359Y-93320346D01*
X226236315Y-93419850D01*
X226387151Y-93496705D01*
X226548153Y-93549018D01*
X226548154Y-93549018D01*
X226548157Y-93549019D01*
X226715353Y-93575500D01*
X226715356Y-93575500D01*
X226884647Y-93575500D01*
X227051842Y-93549019D01*
X227051843Y-93549018D01*
X227051847Y-93549018D01*
X227212849Y-93496705D01*
X227363685Y-93419850D01*
X227500641Y-93320346D01*
X227620346Y-93200641D01*
X227719850Y-93063685D01*
X227796705Y-92912849D01*
X227849018Y-92751847D01*
X227858738Y-92690476D01*
X227875500Y-92584647D01*
X227875500Y-92415352D01*
X227849019Y-92248157D01*
X227844572Y-92234469D01*
X227796705Y-92087151D01*
X227719850Y-91936315D01*
X227620346Y-91799359D01*
X227500641Y-91679654D01*
X227363685Y-91580150D01*
X227363684Y-91580149D01*
X227363682Y-91580148D01*
X227290168Y-91542691D01*
X227212849Y-91503295D01*
X227212846Y-91503294D01*
X227212844Y-91503293D01*
X227051842Y-91450980D01*
X226884647Y-91424500D01*
X226884644Y-91424500D01*
X226715356Y-91424500D01*
X226715353Y-91424500D01*
X226548157Y-91450980D01*
X226387155Y-91503293D01*
X226236317Y-91580148D01*
X226208301Y-91600503D01*
X226099359Y-91679654D01*
X225979654Y-91799359D01*
X225929902Y-91867837D01*
X225880148Y-91936317D01*
X225803293Y-92087155D01*
X225750980Y-92248157D01*
X225724500Y-92415352D01*
X221800500Y-92415352D01*
X221800500Y-86651579D01*
X223059500Y-86651579D01*
X223059500Y-86848420D01*
X223090289Y-87042821D01*
X223136197Y-87184109D01*
X223151116Y-87230025D01*
X223240476Y-87405405D01*
X223356172Y-87564646D01*
X223495354Y-87703828D01*
X223654595Y-87819524D01*
X223829975Y-87908884D01*
X224017174Y-87969709D01*
X224017175Y-87969709D01*
X224017178Y-87969710D01*
X224211580Y-88000500D01*
X224211583Y-88000500D01*
X224408420Y-88000500D01*
X224602821Y-87969710D01*
X224602822Y-87969709D01*
X224602826Y-87969709D01*
X224769996Y-87915392D01*
X225725000Y-87915392D01*
X225725000Y-88084607D01*
X225751469Y-88251731D01*
X225751470Y-88251735D01*
X225803755Y-88412650D01*
X225803757Y-88412653D01*
X225880577Y-88563422D01*
X225880579Y-88563426D01*
X225970872Y-88687703D01*
X226385870Y-88272704D01*
X226403902Y-88303937D01*
X226496063Y-88396098D01*
X226527292Y-88414128D01*
X226112295Y-88829125D01*
X226236579Y-88919423D01*
X226387346Y-88996242D01*
X226387349Y-88996244D01*
X226548264Y-89048529D01*
X226548268Y-89048530D01*
X226715393Y-89075000D01*
X226884607Y-89075000D01*
X227051731Y-89048530D01*
X227051735Y-89048529D01*
X227212650Y-88996244D01*
X227212653Y-88996242D01*
X227363422Y-88919422D01*
X227363428Y-88919418D01*
X227487703Y-88829126D01*
X227487703Y-88829125D01*
X227072706Y-88414129D01*
X227103937Y-88396098D01*
X227196098Y-88303937D01*
X227214129Y-88272706D01*
X227629125Y-88687703D01*
X227629126Y-88687703D01*
X227719418Y-88563428D01*
X227719422Y-88563422D01*
X227796242Y-88412653D01*
X227796244Y-88412650D01*
X227848529Y-88251735D01*
X227848530Y-88251731D01*
X227875000Y-88084607D01*
X227875000Y-87915392D01*
X227848530Y-87748268D01*
X227848529Y-87748264D01*
X227796244Y-87587349D01*
X227796242Y-87587346D01*
X227719423Y-87436579D01*
X227629125Y-87312295D01*
X227214128Y-87727292D01*
X227196098Y-87696063D01*
X227103937Y-87603902D01*
X227072704Y-87585870D01*
X227487703Y-87170872D01*
X227363426Y-87080579D01*
X227363422Y-87080577D01*
X227212653Y-87003757D01*
X227212650Y-87003755D01*
X227051735Y-86951470D01*
X227051731Y-86951469D01*
X226884607Y-86925000D01*
X226715393Y-86925000D01*
X226548268Y-86951469D01*
X226548264Y-86951470D01*
X226387349Y-87003755D01*
X226387346Y-87003757D01*
X226236578Y-87080577D01*
X226112295Y-87170872D01*
X226527293Y-87585870D01*
X226496063Y-87603902D01*
X226403902Y-87696063D01*
X226385870Y-87727293D01*
X225970872Y-87312295D01*
X225880577Y-87436578D01*
X225803757Y-87587346D01*
X225803755Y-87587349D01*
X225751470Y-87748264D01*
X225751469Y-87748268D01*
X225725000Y-87915392D01*
X224769996Y-87915392D01*
X224790025Y-87908884D01*
X224965405Y-87819524D01*
X225124646Y-87703828D01*
X225263828Y-87564646D01*
X225379524Y-87405405D01*
X225468884Y-87230025D01*
X225485784Y-87178011D01*
X225485785Y-87178011D01*
X225529709Y-87042827D01*
X225560500Y-86848420D01*
X225560500Y-86651579D01*
X225529710Y-86457178D01*
X225529709Y-86457174D01*
X225468884Y-86269975D01*
X225379524Y-86094595D01*
X225263828Y-85935354D01*
X225124646Y-85796172D01*
X224965405Y-85680476D01*
X224965404Y-85680475D01*
X224965402Y-85680474D01*
X224790025Y-85591116D01*
X224602821Y-85530289D01*
X224408420Y-85499500D01*
X224408417Y-85499500D01*
X224211583Y-85499500D01*
X224211580Y-85499500D01*
X224017178Y-85530289D01*
X223829974Y-85591116D01*
X223654597Y-85680474D01*
X223495355Y-85796171D01*
X223356171Y-85935355D01*
X223240474Y-86094597D01*
X223151116Y-86269974D01*
X223090289Y-86457178D01*
X223059500Y-86651579D01*
X221800500Y-86651579D01*
X221800500Y-80634108D01*
X222899500Y-80634108D01*
X222899500Y-80765892D01*
X222908773Y-80800500D01*
X222933609Y-80893190D01*
X222999496Y-81007309D01*
X222999498Y-81007311D01*
X222999500Y-81007314D01*
X223092686Y-81100500D01*
X223092688Y-81100501D01*
X223092690Y-81100503D01*
X223206810Y-81166390D01*
X223206808Y-81166390D01*
X223206812Y-81166391D01*
X223206814Y-81166392D01*
X223334108Y-81200500D01*
X223334110Y-81200500D01*
X223465890Y-81200500D01*
X223465892Y-81200500D01*
X223593186Y-81166392D01*
X223593188Y-81166390D01*
X223593190Y-81166390D01*
X223707309Y-81100503D01*
X223707309Y-81100502D01*
X223707314Y-81100500D01*
X223800500Y-81007314D01*
X223866392Y-80893186D01*
X223900500Y-80765892D01*
X223900500Y-80634108D01*
X223866392Y-80506814D01*
X223866390Y-80506811D01*
X223866390Y-80506809D01*
X223800503Y-80392690D01*
X223800501Y-80392688D01*
X223800500Y-80392686D01*
X223707314Y-80299500D01*
X223707311Y-80299498D01*
X223707309Y-80299496D01*
X223593189Y-80233609D01*
X223593191Y-80233609D01*
X223543799Y-80220375D01*
X223465892Y-80199500D01*
X223334108Y-80199500D01*
X223256200Y-80220375D01*
X223206809Y-80233609D01*
X223092690Y-80299496D01*
X222999496Y-80392690D01*
X222933609Y-80506809D01*
X222926428Y-80533609D01*
X222899500Y-80634108D01*
X221800500Y-80634108D01*
X221800500Y-74580437D01*
X221796736Y-74566392D01*
X221796735Y-74566389D01*
X221780022Y-74504012D01*
X221740460Y-74435489D01*
X220099496Y-72794525D01*
X220071719Y-72740008D01*
X220070500Y-72724521D01*
X220070500Y-72036532D01*
X220509500Y-72036532D01*
X220509500Y-72243467D01*
X220549869Y-72446418D01*
X220629058Y-72637597D01*
X220744020Y-72809651D01*
X220744023Y-72809655D01*
X220890345Y-72955977D01*
X221062402Y-73070941D01*
X221253580Y-73150130D01*
X221456535Y-73190500D01*
X221456536Y-73190500D01*
X221663464Y-73190500D01*
X221663465Y-73190500D01*
X221866420Y-73150130D01*
X222057598Y-73070941D01*
X222229655Y-72955977D01*
X222375977Y-72809655D01*
X222490941Y-72637598D01*
X222570130Y-72446420D01*
X222610500Y-72243465D01*
X222610500Y-72036535D01*
X222570130Y-71833580D01*
X222490941Y-71642402D01*
X222375977Y-71470345D01*
X222229655Y-71324023D01*
X222229651Y-71324020D01*
X222057597Y-71209058D01*
X221866418Y-71129869D01*
X221663467Y-71089500D01*
X221663465Y-71089500D01*
X221456535Y-71089500D01*
X221456532Y-71089500D01*
X221253581Y-71129869D01*
X221062402Y-71209058D01*
X220890348Y-71324020D01*
X220744020Y-71470348D01*
X220629058Y-71642402D01*
X220549869Y-71833581D01*
X220509500Y-72036532D01*
X220070500Y-72036532D01*
X220070500Y-71270253D01*
X220070498Y-71270241D01*
X220066130Y-71248281D01*
X220058867Y-71211769D01*
X220014552Y-71145448D01*
X220014548Y-71145445D01*
X219948233Y-71101134D01*
X219948231Y-71101133D01*
X219948228Y-71101132D01*
X219948227Y-71101132D01*
X219889758Y-71089501D01*
X219889748Y-71089500D01*
X218150252Y-71089500D01*
X218150251Y-71089500D01*
X218150241Y-71089501D01*
X218091772Y-71101132D01*
X218091766Y-71101134D01*
X218025451Y-71145445D01*
X218025445Y-71145451D01*
X217981134Y-71211766D01*
X217981132Y-71211772D01*
X217969501Y-71270241D01*
X217969500Y-71270253D01*
X217969500Y-71740500D01*
X217950593Y-71798691D01*
X217901093Y-71834655D01*
X217870500Y-71839500D01*
X216705479Y-71839500D01*
X216647288Y-71820593D01*
X216635475Y-71810504D01*
X216129496Y-71304525D01*
X216101719Y-71250008D01*
X216100500Y-71234521D01*
X216100500Y-69496532D01*
X217969500Y-69496532D01*
X217969500Y-69703467D01*
X218009869Y-69906418D01*
X218089058Y-70097597D01*
X218203805Y-70269329D01*
X218204023Y-70269655D01*
X218350345Y-70415977D01*
X218522402Y-70530941D01*
X218713580Y-70610130D01*
X218916535Y-70650500D01*
X218916536Y-70650500D01*
X219123464Y-70650500D01*
X219123465Y-70650500D01*
X219326420Y-70610130D01*
X219517598Y-70530941D01*
X219689655Y-70415977D01*
X219835977Y-70269655D01*
X219950941Y-70097598D01*
X220030130Y-69906420D01*
X220070500Y-69703465D01*
X220070500Y-69496581D01*
X220510000Y-69496581D01*
X220510000Y-69703418D01*
X220550349Y-69906272D01*
X220629501Y-70097360D01*
X220629508Y-70097374D01*
X220744405Y-70269329D01*
X220746826Y-70271750D01*
X221142210Y-69876365D01*
X221159901Y-69907007D01*
X221252993Y-70000099D01*
X221283632Y-70017788D01*
X220888249Y-70413173D01*
X220890670Y-70415594D01*
X221062625Y-70530491D01*
X221062639Y-70530498D01*
X221253727Y-70609650D01*
X221456581Y-70649999D01*
X221456586Y-70650000D01*
X221663414Y-70650000D01*
X221663418Y-70649999D01*
X221866272Y-70609650D01*
X222057360Y-70530498D01*
X222057366Y-70530495D01*
X222229333Y-70415591D01*
X222231750Y-70413173D01*
X221836366Y-70017789D01*
X221867007Y-70000099D01*
X221960099Y-69907007D01*
X221977789Y-69876366D01*
X222373173Y-70271750D01*
X222375591Y-70269333D01*
X222490495Y-70097366D01*
X222490498Y-70097360D01*
X222569650Y-69906272D01*
X222609999Y-69703418D01*
X222610000Y-69703413D01*
X222610000Y-69496586D01*
X222609999Y-69496581D01*
X222569650Y-69293727D01*
X222490498Y-69102639D01*
X222490491Y-69102625D01*
X222375594Y-68930670D01*
X222373173Y-68928249D01*
X221977788Y-69323632D01*
X221960099Y-69292993D01*
X221867007Y-69199901D01*
X221836365Y-69182210D01*
X222231750Y-68786826D01*
X222229329Y-68784405D01*
X222057374Y-68669508D01*
X222057360Y-68669501D01*
X221866272Y-68590349D01*
X221663418Y-68550000D01*
X221456581Y-68550000D01*
X221253727Y-68590349D01*
X221062639Y-68669501D01*
X221062630Y-68669505D01*
X220890665Y-68784410D01*
X220888248Y-68786825D01*
X221283633Y-69182210D01*
X221252993Y-69199901D01*
X221159901Y-69292993D01*
X221142210Y-69323633D01*
X220746825Y-68928248D01*
X220744410Y-68930665D01*
X220629505Y-69102630D01*
X220629501Y-69102639D01*
X220550349Y-69293727D01*
X220510000Y-69496581D01*
X220070500Y-69496581D01*
X220070500Y-69496535D01*
X220030130Y-69293580D01*
X219950941Y-69102402D01*
X219835977Y-68930345D01*
X219689655Y-68784023D01*
X219614205Y-68733609D01*
X219517597Y-68669058D01*
X219326418Y-68589869D01*
X219123467Y-68549500D01*
X219123465Y-68549500D01*
X218916535Y-68549500D01*
X218916532Y-68549500D01*
X218713581Y-68589869D01*
X218522402Y-68669058D01*
X218350348Y-68784020D01*
X218204020Y-68930348D01*
X218089058Y-69102402D01*
X218009869Y-69293581D01*
X217969500Y-69496532D01*
X216100500Y-69496532D01*
X216100500Y-67460496D01*
X216100500Y-67460495D01*
X216080022Y-67384069D01*
X216080020Y-67384066D01*
X216080020Y-67384064D01*
X216040463Y-67315550D01*
X216040461Y-67315548D01*
X216040460Y-67315546D01*
X215359022Y-66634108D01*
X216399500Y-66634108D01*
X216399500Y-66765892D01*
X216429579Y-66878151D01*
X216433609Y-66893190D01*
X216499496Y-67007309D01*
X216499498Y-67007311D01*
X216499500Y-67007314D01*
X216592686Y-67100500D01*
X216592688Y-67100501D01*
X216592690Y-67100503D01*
X216706810Y-67166390D01*
X216706808Y-67166390D01*
X216706812Y-67166391D01*
X216706814Y-67166392D01*
X216834108Y-67200500D01*
X216834110Y-67200500D01*
X216965890Y-67200500D01*
X216965892Y-67200500D01*
X217093186Y-67166392D01*
X217093188Y-67166390D01*
X217093190Y-67166390D01*
X217207309Y-67100503D01*
X217207309Y-67100502D01*
X217207314Y-67100500D01*
X217278319Y-67029494D01*
X217332834Y-67001719D01*
X217348321Y-67000500D01*
X222662281Y-67000500D01*
X222720472Y-67019407D01*
X222732285Y-67029496D01*
X224083285Y-68380496D01*
X224111062Y-68435013D01*
X224101491Y-68495445D01*
X224058226Y-68538710D01*
X224013281Y-68549500D01*
X223996532Y-68549500D01*
X223793581Y-68589869D01*
X223602402Y-68669058D01*
X223430348Y-68784020D01*
X223284020Y-68930348D01*
X223169058Y-69102402D01*
X223089869Y-69293581D01*
X223049500Y-69496532D01*
X223049500Y-69703467D01*
X223089869Y-69906418D01*
X223169058Y-70097597D01*
X223283805Y-70269329D01*
X223284023Y-70269655D01*
X223430345Y-70415977D01*
X223602402Y-70530941D01*
X223793580Y-70610130D01*
X223996535Y-70650500D01*
X223996536Y-70650500D01*
X224203464Y-70650500D01*
X224203465Y-70650500D01*
X224406420Y-70610130D01*
X224597598Y-70530941D01*
X224769655Y-70415977D01*
X224781498Y-70404133D01*
X224836013Y-70376358D01*
X224896445Y-70385929D01*
X224939710Y-70429194D01*
X224950500Y-70474139D01*
X224950500Y-70823521D01*
X224931593Y-70881712D01*
X224921503Y-70893525D01*
X224650291Y-71164736D01*
X224595775Y-71192513D01*
X224542402Y-71186196D01*
X224406418Y-71129869D01*
X224203467Y-71089500D01*
X224203465Y-71089500D01*
X223996535Y-71089500D01*
X223996532Y-71089500D01*
X223793581Y-71129869D01*
X223602402Y-71209058D01*
X223430348Y-71324020D01*
X223284020Y-71470348D01*
X223169058Y-71642402D01*
X223089869Y-71833581D01*
X223049500Y-72036532D01*
X223049500Y-72243467D01*
X223089869Y-72446418D01*
X223169058Y-72637597D01*
X223284020Y-72809651D01*
X223284023Y-72809655D01*
X223430345Y-72955977D01*
X223602402Y-73070941D01*
X223793580Y-73150130D01*
X223996535Y-73190500D01*
X223996536Y-73190500D01*
X224203464Y-73190500D01*
X224203465Y-73190500D01*
X224406420Y-73150130D01*
X224597598Y-73070941D01*
X224769655Y-72955977D01*
X224915977Y-72809655D01*
X225030941Y-72637598D01*
X225110130Y-72446420D01*
X225150500Y-72243465D01*
X225150500Y-72036535D01*
X225110130Y-71833580D01*
X225053801Y-71697592D01*
X225049001Y-71636600D01*
X225075261Y-71589708D01*
X225491460Y-71173511D01*
X225500811Y-71157314D01*
X225531021Y-71104989D01*
X225551500Y-71028562D01*
X225551500Y-69083678D01*
X225531021Y-69007251D01*
X225491460Y-68938729D01*
X225480979Y-68928248D01*
X225435511Y-68882779D01*
X225435511Y-68882780D01*
X223012271Y-66459540D01*
X223012268Y-66459538D01*
X222943752Y-66419980D01*
X222943748Y-66419978D01*
X222867324Y-66399500D01*
X222867322Y-66399500D01*
X217348321Y-66399500D01*
X217290130Y-66380593D01*
X217278323Y-66370509D01*
X217207314Y-66299500D01*
X217207311Y-66299498D01*
X217207309Y-66299496D01*
X217093189Y-66233609D01*
X217093191Y-66233609D01*
X217043799Y-66220375D01*
X216965892Y-66199500D01*
X216834108Y-66199500D01*
X216756200Y-66220375D01*
X216706809Y-66233609D01*
X216592690Y-66299496D01*
X216499496Y-66392690D01*
X216433609Y-66506809D01*
X216433608Y-66506814D01*
X216399500Y-66634108D01*
X215359022Y-66634108D01*
X212606901Y-63881987D01*
X224199500Y-63881987D01*
X224199500Y-64118012D01*
X224212633Y-64217763D01*
X224229975Y-64349496D01*
X224230306Y-64352006D01*
X224230306Y-64352011D01*
X224291393Y-64579992D01*
X224381713Y-64798044D01*
X224499729Y-65002453D01*
X224643402Y-65189692D01*
X224643404Y-65189694D01*
X224643408Y-65189699D01*
X224810301Y-65356592D01*
X224810305Y-65356595D01*
X224810307Y-65356597D01*
X224952741Y-65465890D01*
X224997550Y-65500273D01*
X225201951Y-65618284D01*
X225201952Y-65618284D01*
X225201955Y-65618286D01*
X225416876Y-65707309D01*
X225420007Y-65708606D01*
X225647986Y-65769693D01*
X225881989Y-65800500D01*
X225881990Y-65800500D01*
X226118010Y-65800500D01*
X226118011Y-65800500D01*
X226352014Y-65769693D01*
X226579993Y-65708606D01*
X226798049Y-65618284D01*
X227002450Y-65500273D01*
X227189699Y-65356592D01*
X227356592Y-65189699D01*
X227500273Y-65002450D01*
X227618284Y-64798049D01*
X227708606Y-64579993D01*
X227769693Y-64352014D01*
X227800500Y-64118011D01*
X227800500Y-63881989D01*
X227769693Y-63647986D01*
X227708606Y-63420007D01*
X227618284Y-63201951D01*
X227500273Y-62997550D01*
X227356592Y-62810301D01*
X227189699Y-62643408D01*
X227189694Y-62643404D01*
X227189692Y-62643402D01*
X227002453Y-62499729D01*
X226798044Y-62381713D01*
X226579992Y-62291393D01*
X226424277Y-62249670D01*
X226352014Y-62230307D01*
X226352011Y-62230306D01*
X226352009Y-62230306D01*
X226118012Y-62199500D01*
X226118011Y-62199500D01*
X225881989Y-62199500D01*
X225881987Y-62199500D01*
X225647993Y-62230306D01*
X225647988Y-62230306D01*
X225420007Y-62291393D01*
X225201955Y-62381713D01*
X224997546Y-62499729D01*
X224810307Y-62643402D01*
X224643402Y-62810307D01*
X224499729Y-62997546D01*
X224381715Y-63201953D01*
X224291393Y-63420007D01*
X224230306Y-63647988D01*
X224230306Y-63647993D01*
X224199500Y-63881987D01*
X212606901Y-63881987D01*
X211933454Y-63208540D01*
X211922041Y-63201951D01*
X211885833Y-63181046D01*
X211864931Y-63168978D01*
X211788507Y-63148500D01*
X211788505Y-63148500D01*
X208799321Y-63148500D01*
X208741130Y-63129593D01*
X208729323Y-63119509D01*
X208658314Y-63048500D01*
X208658311Y-63048498D01*
X208658309Y-63048496D01*
X208544189Y-62982609D01*
X208544191Y-62982609D01*
X208494799Y-62969375D01*
X208416892Y-62948500D01*
X208285108Y-62948500D01*
X208207200Y-62969375D01*
X208157809Y-62982609D01*
X208043690Y-63048496D01*
X207950496Y-63141690D01*
X207884609Y-63255809D01*
X207884608Y-63255814D01*
X207850500Y-63383108D01*
X207850500Y-63514892D01*
X207880579Y-63627151D01*
X207884609Y-63642190D01*
X207950496Y-63756309D01*
X207950498Y-63756311D01*
X207950500Y-63756314D01*
X208043686Y-63849500D01*
X208043688Y-63849501D01*
X208043690Y-63849503D01*
X208157810Y-63915390D01*
X208157808Y-63915390D01*
X208157812Y-63915391D01*
X208157814Y-63915392D01*
X208285108Y-63949500D01*
X208285110Y-63949500D01*
X208416890Y-63949500D01*
X208416892Y-63949500D01*
X208544186Y-63915392D01*
X208544188Y-63915390D01*
X208544190Y-63915390D01*
X208658309Y-63849503D01*
X208658309Y-63849502D01*
X208658314Y-63849500D01*
X208729319Y-63778494D01*
X208783834Y-63750719D01*
X208799321Y-63749500D01*
X210933344Y-63749500D01*
X210991535Y-63768407D01*
X211027499Y-63817907D01*
X211028970Y-63874119D01*
X210999500Y-63984108D01*
X210999500Y-64115892D01*
X211020211Y-64193186D01*
X211033609Y-64243190D01*
X211099496Y-64357309D01*
X211099498Y-64357311D01*
X211099500Y-64357314D01*
X211120505Y-64378319D01*
X211148281Y-64432834D01*
X211149500Y-64448321D01*
X211149500Y-66934520D01*
X211130593Y-66992711D01*
X211120504Y-67004524D01*
X201457452Y-76667576D01*
X201402935Y-76695353D01*
X201342503Y-76685782D01*
X201299238Y-76642517D01*
X201289667Y-76582085D01*
X201291822Y-76571948D01*
X201300499Y-76539564D01*
X201300500Y-76539561D01*
X201300500Y-65610437D01*
X201300499Y-65610435D01*
X201280021Y-65534011D01*
X201280020Y-65534009D01*
X201263763Y-65505850D01*
X201250500Y-65456351D01*
X201250500Y-65334109D01*
X201250500Y-65334108D01*
X201216392Y-65206814D01*
X201216390Y-65206811D01*
X201216390Y-65206809D01*
X201150503Y-65092690D01*
X201150501Y-65092688D01*
X201150500Y-65092686D01*
X201057314Y-64999500D01*
X201057311Y-64999498D01*
X201057309Y-64999496D01*
X200943189Y-64933609D01*
X200943191Y-64933609D01*
X200893799Y-64920375D01*
X200815892Y-64899500D01*
X200684108Y-64899500D01*
X200606200Y-64920375D01*
X200556809Y-64933609D01*
X200442690Y-64999496D01*
X200349496Y-65092690D01*
X200283609Y-65206809D01*
X200271902Y-65250500D01*
X200249500Y-65334108D01*
X200249500Y-65465892D01*
X200260207Y-65505850D01*
X200283609Y-65593190D01*
X200349496Y-65707309D01*
X200349498Y-65707311D01*
X200349500Y-65707314D01*
X200442686Y-65800500D01*
X200442688Y-65800501D01*
X200442690Y-65800503D01*
X200556810Y-65866390D01*
X200556811Y-65866390D01*
X200556814Y-65866392D01*
X200626124Y-65884963D01*
X200677437Y-65918286D01*
X200699364Y-65975407D01*
X200699500Y-65980589D01*
X200699500Y-71217890D01*
X200680593Y-71276081D01*
X200631093Y-71312045D01*
X200569907Y-71312045D01*
X200520407Y-71276081D01*
X200514764Y-71267391D01*
X200500501Y-71242688D01*
X200500500Y-71242686D01*
X200407314Y-71149500D01*
X200407311Y-71149498D01*
X200407309Y-71149496D01*
X200293189Y-71083609D01*
X200293191Y-71083609D01*
X200243799Y-71070375D01*
X200165892Y-71049500D01*
X200034108Y-71049500D01*
X199956200Y-71070375D01*
X199906809Y-71083609D01*
X199792690Y-71149496D01*
X199792689Y-71149497D01*
X199792686Y-71149499D01*
X199792686Y-71149500D01*
X199721680Y-71220505D01*
X199667166Y-71248281D01*
X199651679Y-71249500D01*
X194640459Y-71249500D01*
X194582268Y-71230593D01*
X194554722Y-71199999D01*
X194550500Y-71192686D01*
X194457314Y-71099500D01*
X194457311Y-71099498D01*
X194457309Y-71099496D01*
X194343189Y-71033609D01*
X194343191Y-71033609D01*
X194292038Y-71019903D01*
X194215892Y-70999500D01*
X194084108Y-70999500D01*
X194007962Y-71019903D01*
X193956809Y-71033609D01*
X193842690Y-71099496D01*
X193749496Y-71192690D01*
X193683609Y-71306809D01*
X193678997Y-71324023D01*
X193649500Y-71434108D01*
X193649500Y-71565892D01*
X193667778Y-71634108D01*
X193683609Y-71693190D01*
X193749496Y-71807309D01*
X193749498Y-71807311D01*
X193749500Y-71807314D01*
X193820505Y-71878319D01*
X193848281Y-71932834D01*
X193849500Y-71948321D01*
X193849500Y-73634521D01*
X193830593Y-73692712D01*
X193820504Y-73704525D01*
X188265489Y-79259540D01*
X188265488Y-79259539D01*
X188209539Y-79315489D01*
X188169980Y-79384007D01*
X188169978Y-79384011D01*
X188149500Y-79460435D01*
X188149500Y-79851679D01*
X188130593Y-79909870D01*
X188120509Y-79921676D01*
X188084877Y-79957309D01*
X188049497Y-79992689D01*
X188049496Y-79992690D01*
X187983609Y-80106809D01*
X187971902Y-80150500D01*
X187949500Y-80234108D01*
X187949500Y-80365892D01*
X187979579Y-80478151D01*
X187983609Y-80493190D01*
X188049496Y-80607309D01*
X188049498Y-80607311D01*
X188049500Y-80607314D01*
X188142686Y-80700500D01*
X188142688Y-80700501D01*
X188142690Y-80700503D01*
X188256810Y-80766390D01*
X188256808Y-80766390D01*
X188256812Y-80766391D01*
X188256814Y-80766392D01*
X188384108Y-80800500D01*
X188384110Y-80800500D01*
X188515890Y-80800500D01*
X188515892Y-80800500D01*
X188643186Y-80766392D01*
X188643188Y-80766390D01*
X188643190Y-80766390D01*
X188757309Y-80700503D01*
X188757309Y-80700502D01*
X188757314Y-80700500D01*
X188850500Y-80607314D01*
X188850503Y-80607309D01*
X188916390Y-80493190D01*
X188916390Y-80493188D01*
X188916392Y-80493186D01*
X188950500Y-80365892D01*
X188950500Y-80234108D01*
X188916392Y-80106814D01*
X188916390Y-80106811D01*
X188916390Y-80106809D01*
X188850503Y-79992690D01*
X188850501Y-79992688D01*
X188850500Y-79992686D01*
X188779494Y-79921680D01*
X188775869Y-79914565D01*
X188769407Y-79909870D01*
X188762243Y-79887821D01*
X188751719Y-79867166D01*
X188750500Y-79851679D01*
X188750500Y-79665478D01*
X188769407Y-79607287D01*
X188779490Y-79595480D01*
X194380498Y-73994472D01*
X194435013Y-73966697D01*
X194495445Y-73976268D01*
X194538710Y-74019533D01*
X194549500Y-74064478D01*
X194549500Y-79034521D01*
X194530593Y-79092712D01*
X194520504Y-79104525D01*
X186815489Y-86809540D01*
X186815488Y-86809539D01*
X186759539Y-86865489D01*
X186719980Y-86934007D01*
X186719978Y-86934011D01*
X186699500Y-87010435D01*
X186699500Y-87801679D01*
X186680593Y-87859870D01*
X186670509Y-87871676D01*
X186633303Y-87908883D01*
X186599497Y-87942689D01*
X186599496Y-87942690D01*
X186533609Y-88056809D01*
X186499500Y-88184109D01*
X186499500Y-88284521D01*
X186497031Y-88292118D01*
X186498281Y-88300007D01*
X186487757Y-88320660D01*
X186480593Y-88342712D01*
X186470504Y-88354524D01*
X186404526Y-88420503D01*
X186350010Y-88448281D01*
X186334522Y-88449500D01*
X183698321Y-88449500D01*
X183640130Y-88430593D01*
X183628323Y-88420509D01*
X183557314Y-88349500D01*
X183557311Y-88349498D01*
X183557309Y-88349496D01*
X183443189Y-88283609D01*
X183443191Y-88283609D01*
X183393799Y-88270375D01*
X183315892Y-88249500D01*
X183184108Y-88249500D01*
X183106200Y-88270375D01*
X183056809Y-88283609D01*
X182942690Y-88349496D01*
X182849496Y-88442690D01*
X182783609Y-88556809D01*
X182764539Y-88627978D01*
X182749500Y-88684108D01*
X182749500Y-88815892D01*
X182752618Y-88827528D01*
X182783609Y-88943190D01*
X182849496Y-89057309D01*
X182849498Y-89057311D01*
X182849500Y-89057314D01*
X182942686Y-89150500D01*
X182942688Y-89150501D01*
X182942690Y-89150503D01*
X183056810Y-89216390D01*
X183056808Y-89216390D01*
X183056812Y-89216391D01*
X183056814Y-89216392D01*
X183184108Y-89250500D01*
X183184110Y-89250500D01*
X183315890Y-89250500D01*
X183315892Y-89250500D01*
X183443186Y-89216392D01*
X183443188Y-89216390D01*
X183443190Y-89216390D01*
X183557309Y-89150503D01*
X183557309Y-89150502D01*
X183557314Y-89150500D01*
X183628319Y-89079494D01*
X183682834Y-89051719D01*
X183698321Y-89050500D01*
X185535521Y-89050500D01*
X185593712Y-89069407D01*
X185629676Y-89118907D01*
X185629676Y-89180093D01*
X185605525Y-89219504D01*
X185054525Y-89770504D01*
X185000008Y-89798281D01*
X184984521Y-89799500D01*
X183498321Y-89799500D01*
X183440130Y-89780593D01*
X183428323Y-89770509D01*
X183357314Y-89699500D01*
X183357311Y-89699498D01*
X183357309Y-89699496D01*
X183243189Y-89633609D01*
X183243191Y-89633609D01*
X183193799Y-89620375D01*
X183115892Y-89599500D01*
X182984108Y-89599500D01*
X182906200Y-89620375D01*
X182856809Y-89633609D01*
X182742690Y-89699496D01*
X182649496Y-89792690D01*
X182583609Y-89906809D01*
X182583608Y-89906814D01*
X182549500Y-90034108D01*
X180000000Y-90034108D01*
X180000000Y-81784108D01*
X182749500Y-81784108D01*
X182749500Y-81915892D01*
X182779579Y-82028151D01*
X182783609Y-82043190D01*
X182849496Y-82157309D01*
X182849498Y-82157311D01*
X182849500Y-82157314D01*
X182942686Y-82250500D01*
X182942688Y-82250501D01*
X182942690Y-82250503D01*
X183056810Y-82316390D01*
X183056808Y-82316390D01*
X183056812Y-82316391D01*
X183056814Y-82316392D01*
X183184108Y-82350500D01*
X183184110Y-82350500D01*
X183315890Y-82350500D01*
X183315892Y-82350500D01*
X183443186Y-82316392D01*
X183443188Y-82316390D01*
X183443190Y-82316390D01*
X183557309Y-82250503D01*
X183557309Y-82250502D01*
X183557314Y-82250500D01*
X183650500Y-82157314D01*
X183716392Y-82043186D01*
X183750500Y-81915892D01*
X183750500Y-81784108D01*
X183716392Y-81656814D01*
X183716390Y-81656811D01*
X183716390Y-81656809D01*
X183650503Y-81542690D01*
X183650501Y-81542688D01*
X183650500Y-81542686D01*
X183557314Y-81449500D01*
X183557311Y-81449498D01*
X183557309Y-81449496D01*
X183443189Y-81383609D01*
X183443191Y-81383609D01*
X183393799Y-81370375D01*
X183315892Y-81349500D01*
X183184108Y-81349500D01*
X183106200Y-81370375D01*
X183056809Y-81383609D01*
X182942690Y-81449496D01*
X182849496Y-81542690D01*
X182783609Y-81656809D01*
X182783608Y-81656814D01*
X182749500Y-81784108D01*
X180000000Y-81784108D01*
X180000000Y-79584108D01*
X183049500Y-79584108D01*
X183049500Y-79715892D01*
X183052067Y-79725471D01*
X183083609Y-79843190D01*
X183149496Y-79957309D01*
X183149498Y-79957311D01*
X183149500Y-79957314D01*
X183242686Y-80050500D01*
X183242688Y-80050501D01*
X183242690Y-80050503D01*
X183356810Y-80116390D01*
X183356808Y-80116390D01*
X183356812Y-80116391D01*
X183356814Y-80116392D01*
X183484108Y-80150500D01*
X183484110Y-80150500D01*
X183615890Y-80150500D01*
X183615892Y-80150500D01*
X183743186Y-80116392D01*
X183743188Y-80116390D01*
X183743190Y-80116390D01*
X183857309Y-80050503D01*
X183857309Y-80050502D01*
X183857314Y-80050500D01*
X183950500Y-79957314D01*
X184016392Y-79843186D01*
X184050500Y-79715892D01*
X184050500Y-79584108D01*
X184016392Y-79456814D01*
X184016390Y-79456811D01*
X184016390Y-79456809D01*
X183950503Y-79342690D01*
X183950501Y-79342688D01*
X183950500Y-79342686D01*
X183857314Y-79249500D01*
X183857311Y-79249498D01*
X183857309Y-79249496D01*
X183743189Y-79183609D01*
X183743191Y-79183609D01*
X183693799Y-79170375D01*
X183615892Y-79149500D01*
X183484108Y-79149500D01*
X183406200Y-79170375D01*
X183356809Y-79183609D01*
X183242690Y-79249496D01*
X183149496Y-79342690D01*
X183083609Y-79456809D01*
X183082637Y-79460438D01*
X183049500Y-79584108D01*
X180000000Y-79584108D01*
X180000000Y-71484108D01*
X190299500Y-71484108D01*
X190299500Y-71615892D01*
X190320211Y-71693186D01*
X190333609Y-71743190D01*
X190399496Y-71857309D01*
X190399498Y-71857311D01*
X190399500Y-71857314D01*
X190470505Y-71928319D01*
X190498281Y-71982834D01*
X190499500Y-71998321D01*
X190499500Y-73089564D01*
X190519978Y-73165988D01*
X190519980Y-73165992D01*
X190534130Y-73190500D01*
X190559540Y-73234511D01*
X191320505Y-73995476D01*
X191348281Y-74049991D01*
X191349500Y-74065478D01*
X191349500Y-74165892D01*
X191367778Y-74234108D01*
X191383609Y-74293190D01*
X191449496Y-74407309D01*
X191449498Y-74407311D01*
X191449500Y-74407314D01*
X191542686Y-74500500D01*
X191542688Y-74500501D01*
X191542690Y-74500503D01*
X191656810Y-74566390D01*
X191656808Y-74566390D01*
X191656812Y-74566391D01*
X191656814Y-74566392D01*
X191784108Y-74600500D01*
X191784110Y-74600500D01*
X191915890Y-74600500D01*
X191915892Y-74600500D01*
X192043186Y-74566392D01*
X192043188Y-74566390D01*
X192043190Y-74566390D01*
X192157309Y-74500503D01*
X192157309Y-74500502D01*
X192157314Y-74500500D01*
X192250500Y-74407314D01*
X192316392Y-74293186D01*
X192350500Y-74165892D01*
X192350500Y-74034108D01*
X192316392Y-73906814D01*
X192316390Y-73906811D01*
X192316390Y-73906809D01*
X192250503Y-73792690D01*
X192250501Y-73792688D01*
X192250500Y-73792686D01*
X192157314Y-73699500D01*
X192157311Y-73699498D01*
X192157309Y-73699496D01*
X192043189Y-73633609D01*
X192043191Y-73633609D01*
X191993799Y-73620375D01*
X191915892Y-73599500D01*
X191815479Y-73599500D01*
X191757288Y-73580593D01*
X191745475Y-73570504D01*
X191129496Y-72954525D01*
X191101719Y-72900008D01*
X191100500Y-72884521D01*
X191100500Y-71998321D01*
X191119407Y-71940130D01*
X191129490Y-71928323D01*
X191200500Y-71857314D01*
X191214203Y-71833580D01*
X191266390Y-71743190D01*
X191266390Y-71743188D01*
X191266392Y-71743186D01*
X191300500Y-71615892D01*
X191300500Y-71484108D01*
X191266392Y-71356814D01*
X191266390Y-71356811D01*
X191266390Y-71356809D01*
X191200503Y-71242690D01*
X191200501Y-71242688D01*
X191200500Y-71242686D01*
X191107314Y-71149500D01*
X191107311Y-71149498D01*
X191107309Y-71149496D01*
X190993189Y-71083609D01*
X190993191Y-71083609D01*
X190943799Y-71070375D01*
X190865892Y-71049500D01*
X190734108Y-71049500D01*
X190656200Y-71070375D01*
X190606809Y-71083609D01*
X190492690Y-71149496D01*
X190399496Y-71242690D01*
X190333609Y-71356809D01*
X190333608Y-71356814D01*
X190299500Y-71484108D01*
X180000000Y-71484108D01*
X180000000Y-70784108D01*
X183099500Y-70784108D01*
X183099500Y-70915892D01*
X183127369Y-71019903D01*
X183133609Y-71043190D01*
X183199496Y-71157309D01*
X183199498Y-71157311D01*
X183199500Y-71157314D01*
X183292686Y-71250500D01*
X183292688Y-71250501D01*
X183292690Y-71250503D01*
X183406810Y-71316390D01*
X183406808Y-71316390D01*
X183406812Y-71316391D01*
X183406814Y-71316392D01*
X183534108Y-71350500D01*
X183534110Y-71350500D01*
X183665890Y-71350500D01*
X183665892Y-71350500D01*
X183793186Y-71316392D01*
X183793188Y-71316390D01*
X183793190Y-71316390D01*
X183907309Y-71250503D01*
X183907309Y-71250502D01*
X183907314Y-71250500D01*
X184000500Y-71157314D01*
X184000503Y-71157309D01*
X184066390Y-71043190D01*
X184066390Y-71043188D01*
X184066392Y-71043186D01*
X184100500Y-70915892D01*
X184100500Y-70784108D01*
X184066392Y-70656814D01*
X184066390Y-70656811D01*
X184066390Y-70656809D01*
X184000503Y-70542690D01*
X184000501Y-70542688D01*
X184000500Y-70542686D01*
X183907314Y-70449500D01*
X183907311Y-70449498D01*
X183907309Y-70449496D01*
X183793189Y-70383609D01*
X183793191Y-70383609D01*
X183743799Y-70370375D01*
X183665892Y-70349500D01*
X183534108Y-70349500D01*
X183456200Y-70370375D01*
X183406809Y-70383609D01*
X183292690Y-70449496D01*
X183199496Y-70542690D01*
X183133609Y-70656809D01*
X183133608Y-70656814D01*
X183099500Y-70784108D01*
X180000000Y-70784108D01*
X180000000Y-69334108D01*
X189099500Y-69334108D01*
X189099500Y-69465892D01*
X189110598Y-69507309D01*
X189133609Y-69593190D01*
X189199496Y-69707309D01*
X189199498Y-69707311D01*
X189199500Y-69707314D01*
X189292686Y-69800500D01*
X189292688Y-69800501D01*
X189292690Y-69800503D01*
X189406810Y-69866390D01*
X189406808Y-69866390D01*
X189406812Y-69866391D01*
X189406814Y-69866392D01*
X189534108Y-69900500D01*
X189534110Y-69900500D01*
X189665890Y-69900500D01*
X189665892Y-69900500D01*
X189793186Y-69866392D01*
X189793188Y-69866390D01*
X189793190Y-69866390D01*
X189907309Y-69800503D01*
X189907309Y-69800502D01*
X189907314Y-69800500D01*
X190000500Y-69707314D01*
X190002722Y-69703465D01*
X190066390Y-69593190D01*
X190066390Y-69593188D01*
X190066392Y-69593186D01*
X190100500Y-69465892D01*
X190100500Y-69334108D01*
X192149500Y-69334108D01*
X192149500Y-69465892D01*
X192160598Y-69507309D01*
X192183609Y-69593190D01*
X192249496Y-69707309D01*
X192249498Y-69707311D01*
X192249500Y-69707314D01*
X192342686Y-69800500D01*
X192342688Y-69800501D01*
X192342690Y-69800503D01*
X192456810Y-69866390D01*
X192456808Y-69866390D01*
X192456812Y-69866391D01*
X192456814Y-69866392D01*
X192584108Y-69900500D01*
X192584110Y-69900500D01*
X192715890Y-69900500D01*
X192715892Y-69900500D01*
X192843186Y-69866392D01*
X192843188Y-69866390D01*
X192843190Y-69866390D01*
X192957309Y-69800503D01*
X192957309Y-69800502D01*
X192957314Y-69800500D01*
X193050500Y-69707314D01*
X193052722Y-69703465D01*
X193116390Y-69593190D01*
X193116390Y-69593188D01*
X193116392Y-69593186D01*
X193150500Y-69465892D01*
X193150500Y-69334108D01*
X193116392Y-69206814D01*
X193116390Y-69206811D01*
X193116390Y-69206809D01*
X193050503Y-69092690D01*
X193050501Y-69092688D01*
X193050500Y-69092686D01*
X192957314Y-68999500D01*
X192957311Y-68999498D01*
X192957309Y-68999496D01*
X192843189Y-68933609D01*
X192843191Y-68933609D01*
X192793799Y-68920375D01*
X192715892Y-68899500D01*
X192584108Y-68899500D01*
X192506200Y-68920375D01*
X192456809Y-68933609D01*
X192342690Y-68999496D01*
X192249496Y-69092690D01*
X192183609Y-69206809D01*
X192183608Y-69206814D01*
X192149500Y-69334108D01*
X190100500Y-69334108D01*
X190066392Y-69206814D01*
X190066390Y-69206811D01*
X190066390Y-69206809D01*
X190000503Y-69092690D01*
X190000501Y-69092688D01*
X190000500Y-69092686D01*
X189907314Y-68999500D01*
X189907311Y-68999498D01*
X189907309Y-68999496D01*
X189793189Y-68933609D01*
X189793191Y-68933609D01*
X189743799Y-68920375D01*
X189665892Y-68899500D01*
X189534108Y-68899500D01*
X189456200Y-68920375D01*
X189406809Y-68933609D01*
X189292690Y-68999496D01*
X189199496Y-69092690D01*
X189133609Y-69206809D01*
X189133608Y-69206814D01*
X189099500Y-69334108D01*
X180000000Y-69334108D01*
X180000000Y-63881987D01*
X182199500Y-63881987D01*
X182199500Y-64118012D01*
X182212633Y-64217763D01*
X182229975Y-64349496D01*
X182230306Y-64352006D01*
X182230306Y-64352011D01*
X182291393Y-64579992D01*
X182381713Y-64798044D01*
X182499729Y-65002453D01*
X182643402Y-65189692D01*
X182643404Y-65189694D01*
X182643408Y-65189699D01*
X182810301Y-65356592D01*
X182810305Y-65356595D01*
X182810307Y-65356597D01*
X182952741Y-65465890D01*
X182997550Y-65500273D01*
X183201951Y-65618284D01*
X183201952Y-65618284D01*
X183201955Y-65618286D01*
X183416876Y-65707309D01*
X183420007Y-65708606D01*
X183647986Y-65769693D01*
X183881989Y-65800500D01*
X183881990Y-65800500D01*
X184118010Y-65800500D01*
X184118011Y-65800500D01*
X184352014Y-65769693D01*
X184579993Y-65708606D01*
X184798049Y-65618284D01*
X185002450Y-65500273D01*
X185189699Y-65356592D01*
X185356592Y-65189699D01*
X185500273Y-65002450D01*
X185618284Y-64798049D01*
X185665480Y-64684108D01*
X190099500Y-64684108D01*
X190099500Y-64815892D01*
X190129579Y-64928151D01*
X190133609Y-64943190D01*
X190199496Y-65057309D01*
X190199498Y-65057311D01*
X190199500Y-65057314D01*
X190292686Y-65150500D01*
X190292688Y-65150501D01*
X190292690Y-65150503D01*
X190406810Y-65216390D01*
X190406808Y-65216390D01*
X190406812Y-65216391D01*
X190406814Y-65216392D01*
X190534108Y-65250500D01*
X190534110Y-65250500D01*
X190665890Y-65250500D01*
X190665892Y-65250500D01*
X190793186Y-65216392D01*
X190793188Y-65216390D01*
X190793190Y-65216390D01*
X190907309Y-65150503D01*
X190907309Y-65150502D01*
X190907314Y-65150500D01*
X191000500Y-65057314D01*
X191033879Y-64999500D01*
X191066390Y-64943190D01*
X191066390Y-64943188D01*
X191066392Y-64943186D01*
X191100500Y-64815892D01*
X191100500Y-64684108D01*
X191066392Y-64556814D01*
X191066390Y-64556811D01*
X191066390Y-64556809D01*
X191000503Y-64442690D01*
X191000501Y-64442688D01*
X191000500Y-64442686D01*
X190907314Y-64349500D01*
X190907311Y-64349498D01*
X190907309Y-64349496D01*
X190793189Y-64283609D01*
X190793191Y-64283609D01*
X190743799Y-64270375D01*
X190665892Y-64249500D01*
X190534108Y-64249500D01*
X190456200Y-64270375D01*
X190406809Y-64283609D01*
X190292690Y-64349496D01*
X190199496Y-64442690D01*
X190133609Y-64556809D01*
X190114539Y-64627978D01*
X190099500Y-64684108D01*
X185665480Y-64684108D01*
X185708606Y-64579993D01*
X185769693Y-64352014D01*
X185800500Y-64118011D01*
X185800500Y-63881989D01*
X185769693Y-63647986D01*
X185708606Y-63420007D01*
X185618284Y-63201951D01*
X185500273Y-62997550D01*
X185356592Y-62810301D01*
X185189699Y-62643408D01*
X185189694Y-62643404D01*
X185189692Y-62643402D01*
X185002453Y-62499729D01*
X184798044Y-62381713D01*
X184579992Y-62291393D01*
X184424277Y-62249670D01*
X184352014Y-62230307D01*
X184352011Y-62230306D01*
X184352009Y-62230306D01*
X184118012Y-62199500D01*
X184118011Y-62199500D01*
X183881989Y-62199500D01*
X183881987Y-62199500D01*
X183647993Y-62230306D01*
X183647988Y-62230306D01*
X183420007Y-62291393D01*
X183201955Y-62381713D01*
X182997546Y-62499729D01*
X182810307Y-62643402D01*
X182643402Y-62810307D01*
X182499729Y-62997546D01*
X182381715Y-63201953D01*
X182291393Y-63420007D01*
X182230306Y-63647988D01*
X182230306Y-63647993D01*
X182199500Y-63881987D01*
X180000000Y-63881987D01*
X180000000Y-61181475D01*
X180004698Y-61167013D01*
X180004549Y-61151809D01*
X180013915Y-61138647D01*
X180018907Y-61123284D01*
X180040025Y-61101958D01*
X180040028Y-61101956D01*
X180051883Y-61093163D01*
X180059948Y-61087774D01*
X180346185Y-60916211D01*
X180354728Y-60911644D01*
X180656412Y-60768958D01*
X180665367Y-60765249D01*
X180979590Y-60652818D01*
X180988849Y-60650009D01*
X181312582Y-60568918D01*
X181322080Y-60567029D01*
X181652186Y-60518063D01*
X181661824Y-60517113D01*
X181970606Y-60501944D01*
X181997579Y-60500619D01*
X182002436Y-60500500D01*
X182065892Y-60500500D01*
X227934108Y-60500500D01*
X227997564Y-60500500D01*
X228002421Y-60500619D01*
G37*
%TD.AperFunction*%
%TD*%
M02*
