%TF.GenerationSoftware,KiCad,Pcbnew,9.0.4*%
%TF.CreationDate,2025-09-29T13:15:34+05:30*%
%TF.ProjectId,ESP32_Project_1,45535033-325f-4507-926f-6a6563745f31,rev?*%
%TF.SameCoordinates,Original*%
%TF.FileFunction,Soldermask,Top*%
%TF.FilePolarity,Negative*%
%FSLAX46Y46*%
G04 Gerber Fmt 4.6, Leading zero omitted, Abs format (unit mm)*
G04 Created by KiCad (PCBNEW 9.0.4) date 2025-09-29 13:15:34*
%MOMM*%
%LPD*%
G01*
G04 APERTURE LIST*
G04 Aperture macros list*
%AMRoundRect*
0 Rectangle with rounded corners*
0 $1 Rounding radius*
0 $2 $3 $4 $5 $6 $7 $8 $9 X,Y pos of 4 corners*
0 Add a 4 corners polygon primitive as box body*
4,1,4,$2,$3,$4,$5,$6,$7,$8,$9,$2,$3,0*
0 Add four circle primitives for the rounded corners*
1,1,$1+$1,$2,$3*
1,1,$1+$1,$4,$5*
1,1,$1+$1,$6,$7*
1,1,$1+$1,$8,$9*
0 Add four rect primitives between the rounded corners*
20,1,$1+$1,$2,$3,$4,$5,0*
20,1,$1+$1,$4,$5,$6,$7,0*
20,1,$1+$1,$6,$7,$8,$9,0*
20,1,$1+$1,$8,$9,$2,$3,0*%
%AMFreePoly0*
4,1,6,0.500000,-0.850000,-0.500000,-0.850000,-0.500000,0.550000,-0.200000,0.850000,0.500000,0.850000,0.500000,-0.850000,0.500000,-0.850000,$1*%
G04 Aperture macros list end*
%ADD10C,0.500000*%
%ADD11RoundRect,0.062500X-0.117500X-0.062500X0.117500X-0.062500X0.117500X0.062500X-0.117500X0.062500X0*%
%ADD12C,3.200000*%
%ADD13RoundRect,0.160000X0.160000X-0.197500X0.160000X0.197500X-0.160000X0.197500X-0.160000X-0.197500X0*%
%ADD14RoundRect,0.062500X-0.062500X0.117500X-0.062500X-0.117500X0.062500X-0.117500X0.062500X0.117500X0*%
%ADD15RoundRect,0.150000X0.150000X-0.512500X0.150000X0.512500X-0.150000X0.512500X-0.150000X-0.512500X0*%
%ADD16RoundRect,0.237500X-0.237500X0.300000X-0.237500X-0.300000X0.237500X-0.300000X0.237500X0.300000X0*%
%ADD17R,0.900000X1.700000*%
%ADD18RoundRect,0.250000X0.475000X-0.250000X0.475000X0.250000X-0.475000X0.250000X-0.475000X-0.250000X0*%
%ADD19RoundRect,0.160000X0.197500X0.160000X-0.197500X0.160000X-0.197500X-0.160000X0.197500X-0.160000X0*%
%ADD20RoundRect,0.160000X-0.160000X0.197500X-0.160000X-0.197500X0.160000X-0.197500X0.160000X0.197500X0*%
%ADD21RoundRect,0.062500X0.062500X-0.117500X0.062500X0.117500X-0.062500X0.117500X-0.062500X-0.117500X0*%
%ADD22RoundRect,0.150000X-0.625000X0.150000X-0.625000X-0.150000X0.625000X-0.150000X0.625000X0.150000X0*%
%ADD23RoundRect,0.250000X-0.650000X0.350000X-0.650000X-0.350000X0.650000X-0.350000X0.650000X0.350000X0*%
%ADD24C,0.500000*%
%ADD25RoundRect,0.102000X-0.300000X-0.261000X0.300000X-0.261000X0.300000X0.261000X-0.300000X0.261000X0*%
%ADD26RoundRect,0.218750X0.256250X-0.218750X0.256250X0.218750X-0.256250X0.218750X-0.256250X-0.218750X0*%
%ADD27RoundRect,0.200000X-0.300000X-0.200000X0.300000X-0.200000X0.300000X0.200000X-0.300000X0.200000X0*%
%ADD28RoundRect,0.250000X0.450000X-0.325000X0.450000X0.325000X-0.450000X0.325000X-0.450000X-0.325000X0*%
%ADD29C,2.100000*%
%ADD30C,1.750000*%
%ADD31RoundRect,0.250000X0.375000X0.625000X-0.375000X0.625000X-0.375000X-0.625000X0.375000X-0.625000X0*%
%ADD32R,1.500000X0.900000*%
%ADD33R,0.900000X1.500000*%
%ADD34C,0.600000*%
%ADD35R,3.900000X3.900000*%
%ADD36R,0.550000X0.250000*%
%ADD37FreePoly0,180.000000*%
%ADD38RoundRect,0.155000X-0.155000X0.212500X-0.155000X-0.212500X0.155000X-0.212500X0.155000X0.212500X0*%
%ADD39RoundRect,0.250000X-0.475000X0.250000X-0.475000X-0.250000X0.475000X-0.250000X0.475000X0.250000X0*%
%ADD40RoundRect,0.160000X-0.197500X-0.160000X0.197500X-0.160000X0.197500X0.160000X-0.197500X0.160000X0*%
%ADD41C,0.650000*%
%ADD42RoundRect,0.150000X-0.150000X-0.425000X0.150000X-0.425000X0.150000X0.425000X-0.150000X0.425000X0*%
%ADD43RoundRect,0.075000X-0.075000X-0.500000X0.075000X-0.500000X0.075000X0.500000X-0.075000X0.500000X0*%
%ADD44O,1.000000X2.100000*%
%ADD45O,1.000000X1.800000*%
%ADD46R,1.700000X1.700000*%
%ADD47C,1.700000*%
%ADD48C,2.000000*%
%ADD49RoundRect,0.250000X0.350000X-0.850000X0.350000X0.850000X-0.350000X0.850000X-0.350000X-0.850000X0*%
%ADD50RoundRect,0.249997X2.650003X-2.950003X2.650003X2.950003X-2.650003X2.950003X-2.650003X-2.950003X0*%
%ADD51RoundRect,0.218750X-0.381250X0.218750X-0.381250X-0.218750X0.381250X-0.218750X0.381250X0.218750X0*%
G04 APERTURE END LIST*
D10*
%TO.C,MK1*%
X185765000Y-91602000D02*
G75*
G02*
X184435000Y-91602000I-665000J0D01*
G01*
X184435000Y-91602000D02*
G75*
G02*
X185765000Y-91602000I665000J0D01*
G01*
%TD*%
D11*
%TO.C,D3*%
X229000000Y-99500000D03*
X228160000Y-99500000D03*
%TD*%
D12*
%TO.C,H4*%
X226000000Y-116000000D03*
%TD*%
D13*
%TO.C,R10*%
X181950000Y-91245000D03*
X181950000Y-90050000D03*
%TD*%
D14*
%TO.C,D4*%
X221500000Y-107920000D03*
X221500000Y-107080000D03*
%TD*%
D15*
%TO.C,U1*%
X204850000Y-111337500D03*
X205800000Y-111337500D03*
X206750000Y-111337500D03*
X206750000Y-109062500D03*
X205800000Y-109062500D03*
X204850000Y-109062500D03*
%TD*%
D16*
%TO.C,C1*%
X190600000Y-61437500D03*
X190600000Y-63162500D03*
%TD*%
D17*
%TO.C,SW1*%
X223200000Y-99400000D03*
X226600000Y-99400000D03*
%TD*%
%TO.C,SW2*%
X226900000Y-107000000D03*
X223500000Y-107000000D03*
%TD*%
D18*
%TO.C,C4*%
X228600000Y-103750000D03*
X228600000Y-101850000D03*
%TD*%
D19*
%TO.C,R6*%
X224597500Y-82000000D03*
X223402500Y-82000000D03*
%TD*%
D13*
%TO.C,R4*%
X214250000Y-111697500D03*
X214250000Y-110502500D03*
%TD*%
D20*
%TO.C,R7*%
X189600000Y-70355000D03*
X189600000Y-71550000D03*
%TD*%
D13*
%TO.C,R5*%
X217100000Y-111645000D03*
X217100000Y-110450000D03*
%TD*%
D21*
%TO.C,D5*%
X228000000Y-83080000D03*
X228000000Y-83920000D03*
%TD*%
D22*
%TO.C,J3*%
X185150000Y-69850000D03*
X185150000Y-70850000D03*
X185150000Y-71850000D03*
X185150000Y-72850000D03*
D23*
X181275000Y-68550000D03*
X181275000Y-74150000D03*
%TD*%
D24*
%TO.C,MK1*%
X185100000Y-91602000D03*
D25*
X184200000Y-89528000D03*
X184200000Y-90350000D03*
X186000000Y-90350000D03*
X186000000Y-89528000D03*
X185100000Y-89528000D03*
%TD*%
D26*
%TO.C,D2*%
X186500000Y-78237500D03*
X186500000Y-76662500D03*
%TD*%
D16*
%TO.C,C9*%
X189200000Y-90087500D03*
X189200000Y-91812500D03*
%TD*%
D27*
%TO.C,D6*%
X215850000Y-115900000D03*
X215850000Y-117300000D03*
X218350000Y-117300000D03*
X218350000Y-115900000D03*
%TD*%
D13*
%TO.C,R12*%
X220700000Y-115897500D03*
X220700000Y-114702500D03*
%TD*%
D19*
%TO.C,R9*%
X213700000Y-117300000D03*
X212505000Y-117300000D03*
%TD*%
D28*
%TO.C,D1*%
X198150000Y-115275000D03*
X198150000Y-113225000D03*
%TD*%
D29*
%TO.C,SW3*%
X224310000Y-86750000D03*
X224310000Y-93760000D03*
D30*
X226800000Y-88000000D03*
X226800000Y-92500000D03*
%TD*%
D31*
%TO.C,F1*%
X201300000Y-110600000D03*
X198500000Y-110600000D03*
%TD*%
D32*
%TO.C,U2*%
X196250000Y-61580000D03*
X196250000Y-62850000D03*
X196250000Y-64120000D03*
X196250000Y-65390000D03*
X196250000Y-66660000D03*
X196250000Y-67930000D03*
X196250000Y-69200000D03*
X196250000Y-70470000D03*
X196250000Y-71740000D03*
X196250000Y-73010000D03*
X196250000Y-74280000D03*
X196250000Y-75550000D03*
X196250000Y-76820000D03*
X196250000Y-78090000D03*
D33*
X198015000Y-79340000D03*
X199285000Y-79340000D03*
X200555000Y-79340000D03*
X201825000Y-79340000D03*
X203095000Y-79340000D03*
X204365000Y-79340000D03*
X205635000Y-79340000D03*
X206905000Y-79340000D03*
X208175000Y-79340000D03*
X209445000Y-79340000D03*
X210715000Y-79340000D03*
X211985000Y-79340000D03*
D32*
X213750000Y-78090000D03*
X213750000Y-76820000D03*
X213750000Y-75550000D03*
X213750000Y-74280000D03*
X213750000Y-73010000D03*
X213750000Y-71740000D03*
X213750000Y-70470000D03*
X213750000Y-69200000D03*
X213750000Y-67930000D03*
X213750000Y-66660000D03*
X213750000Y-65390000D03*
X213750000Y-64120000D03*
X213750000Y-62850000D03*
X213750000Y-61580000D03*
D34*
X202100000Y-68600000D03*
X202100000Y-70000000D03*
X202800000Y-67900000D03*
X202800000Y-69300000D03*
X202800000Y-70700000D03*
X203500000Y-68600000D03*
D35*
X203500000Y-69300000D03*
D34*
X203500000Y-70000000D03*
X204200000Y-67900000D03*
X204200000Y-69300000D03*
X204200000Y-70700000D03*
X204900000Y-68600000D03*
X204900000Y-70000000D03*
%TD*%
D36*
%TO.C,U4*%
X188450000Y-84300000D03*
X188450000Y-83800000D03*
X188450000Y-83300000D03*
X188450000Y-82800000D03*
X186100000Y-82800000D03*
X186100000Y-83300000D03*
X186100000Y-83800000D03*
X186100000Y-84300000D03*
D37*
X187275000Y-83550000D03*
%TD*%
D38*
%TO.C,C5*%
X183250000Y-83150000D03*
X183250000Y-84285000D03*
%TD*%
D19*
%TO.C,R2*%
X225500000Y-102000000D03*
X224305000Y-102000000D03*
%TD*%
D38*
%TO.C,C2*%
X193250000Y-61632500D03*
X193250000Y-62767500D03*
%TD*%
D12*
%TO.C,H2*%
X226000000Y-64000000D03*
%TD*%
%TO.C,H3*%
X184000000Y-116000000D03*
%TD*%
D13*
%TO.C,R1*%
X183550000Y-78097500D03*
X183550000Y-76902500D03*
%TD*%
D39*
%TO.C,C7*%
X191650000Y-116250000D03*
X191650000Y-118150000D03*
%TD*%
D38*
%TO.C,C3*%
X209350000Y-109600000D03*
X209350000Y-110735000D03*
%TD*%
D40*
%TO.C,R3*%
X200102500Y-81000000D03*
X201297500Y-81000000D03*
%TD*%
D41*
%TO.C,J1*%
X202910000Y-115075000D03*
X208690000Y-115075000D03*
D42*
X202600000Y-114000000D03*
X203400000Y-114000000D03*
D43*
X204550000Y-114000000D03*
X205550000Y-114000000D03*
X206050000Y-114000000D03*
X207050000Y-114000000D03*
D42*
X208200000Y-114000000D03*
X209000000Y-114000000D03*
X209000000Y-114000000D03*
X208200000Y-114000000D03*
D43*
X207550000Y-114000000D03*
X206550000Y-114000000D03*
X205050000Y-114000000D03*
X204050000Y-114000000D03*
D42*
X203400000Y-114000000D03*
X202600000Y-114000000D03*
D44*
X201480000Y-114575000D03*
D45*
X201480000Y-118755000D03*
D44*
X210120000Y-114575000D03*
D45*
X210120000Y-118755000D03*
%TD*%
D40*
%TO.C,R11*%
X220405000Y-117350000D03*
X221600000Y-117350000D03*
%TD*%
D46*
%TO.C,J2*%
X219020000Y-72140000D03*
D47*
X219020000Y-69600000D03*
X221560000Y-72140000D03*
X221560000Y-69600000D03*
X224100000Y-72140000D03*
X224100000Y-69600000D03*
%TD*%
D48*
%TO.C,DFR_C1*%
X192870000Y-89940075D03*
X192870000Y-92480075D03*
X192870000Y-95020075D03*
X192870000Y-97560075D03*
X192870000Y-100100075D03*
%TD*%
D39*
%TO.C,C6*%
X194850000Y-116200000D03*
X194850000Y-118100000D03*
%TD*%
D20*
%TO.C,R8*%
X192650000Y-70352500D03*
X192650000Y-71547500D03*
%TD*%
D49*
%TO.C,U3*%
X183342500Y-108900000D03*
X185622500Y-108900000D03*
D50*
X185622500Y-102600000D03*
D49*
X187902500Y-108900000D03*
%TD*%
D51*
%TO.C,FB1*%
X195300000Y-110200000D03*
X195300000Y-112325000D03*
%TD*%
D12*
%TO.C,H1*%
X184000000Y-64000000D03*
%TD*%
D18*
%TO.C,C8*%
X228000000Y-81950000D03*
X228000000Y-80050000D03*
%TD*%
M02*
