%TF.GenerationSoftware,KiCad,Pcbnew,9.0.4*%
%TF.CreationDate,2025-09-29T13:15:34+05:30*%
%TF.ProjectId,ESP32_Project_1,45535033-325f-4507-926f-6a6563745f31,rev?*%
%TF.SameCoordinates,Original*%
%TF.FileFunction,Legend,Top*%
%TF.FilePolarity,Positive*%
%FSLAX46Y46*%
G04 Gerber Fmt 4.6, Leading zero omitted, Abs format (unit mm)*
G04 Created by KiCad (PCBNEW 9.0.4) date 2025-09-29 13:15:34*
%MOMM*%
%LPD*%
G01*
G04 APERTURE LIST*
%ADD10C,0.100000*%
%ADD11C,0.150000*%
%ADD12C,0.050000*%
%ADD13C,0.062500*%
%ADD14C,0.087500*%
%ADD15C,0.060000*%
%ADD16C,0.120000*%
%ADD17C,0.127000*%
%ADD18C,0.200000*%
%ADD19C,0.000000*%
G04 APERTURE END LIST*
D10*
X201322819Y-90675312D02*
X201275200Y-90627693D01*
X201275200Y-90627693D02*
X201227580Y-90484836D01*
X201227580Y-90484836D02*
X201227580Y-90389598D01*
X201227580Y-90389598D02*
X201275200Y-90246741D01*
X201275200Y-90246741D02*
X201370438Y-90151503D01*
X201370438Y-90151503D02*
X201465676Y-90103884D01*
X201465676Y-90103884D02*
X201656152Y-90056265D01*
X201656152Y-90056265D02*
X201799009Y-90056265D01*
X201799009Y-90056265D02*
X201989485Y-90103884D01*
X201989485Y-90103884D02*
X202084723Y-90151503D01*
X202084723Y-90151503D02*
X202179961Y-90246741D01*
X202179961Y-90246741D02*
X202227580Y-90389598D01*
X202227580Y-90389598D02*
X202227580Y-90484836D01*
X202227580Y-90484836D02*
X202179961Y-90627693D01*
X202179961Y-90627693D02*
X202132342Y-90675312D01*
X201894247Y-91532455D02*
X201227580Y-91532455D01*
X202275200Y-91294360D02*
X201560914Y-91056265D01*
X201560914Y-91056265D02*
X201560914Y-91675312D01*
X202227580Y-92246741D02*
X202227580Y-92341979D01*
X202227580Y-92341979D02*
X202179961Y-92437217D01*
X202179961Y-92437217D02*
X202132342Y-92484836D01*
X202132342Y-92484836D02*
X202037104Y-92532455D01*
X202037104Y-92532455D02*
X201846628Y-92580074D01*
X201846628Y-92580074D02*
X201608533Y-92580074D01*
X201608533Y-92580074D02*
X201418057Y-92532455D01*
X201418057Y-92532455D02*
X201322819Y-92484836D01*
X201322819Y-92484836D02*
X201275200Y-92437217D01*
X201275200Y-92437217D02*
X201227580Y-92341979D01*
X201227580Y-92341979D02*
X201227580Y-92246741D01*
X201227580Y-92246741D02*
X201275200Y-92151503D01*
X201275200Y-92151503D02*
X201322819Y-92103884D01*
X201322819Y-92103884D02*
X201418057Y-92056265D01*
X201418057Y-92056265D02*
X201608533Y-92008646D01*
X201608533Y-92008646D02*
X201846628Y-92008646D01*
X201846628Y-92008646D02*
X202037104Y-92056265D01*
X202037104Y-92056265D02*
X202132342Y-92103884D01*
X202132342Y-92103884D02*
X202179961Y-92151503D01*
X202179961Y-92151503D02*
X202227580Y-92246741D01*
X202227580Y-93199122D02*
X202227580Y-93294360D01*
X202227580Y-93294360D02*
X202179961Y-93389598D01*
X202179961Y-93389598D02*
X202132342Y-93437217D01*
X202132342Y-93437217D02*
X202037104Y-93484836D01*
X202037104Y-93484836D02*
X201846628Y-93532455D01*
X201846628Y-93532455D02*
X201608533Y-93532455D01*
X201608533Y-93532455D02*
X201418057Y-93484836D01*
X201418057Y-93484836D02*
X201322819Y-93437217D01*
X201322819Y-93437217D02*
X201275200Y-93389598D01*
X201275200Y-93389598D02*
X201227580Y-93294360D01*
X201227580Y-93294360D02*
X201227580Y-93199122D01*
X201227580Y-93199122D02*
X201275200Y-93103884D01*
X201275200Y-93103884D02*
X201322819Y-93056265D01*
X201322819Y-93056265D02*
X201418057Y-93008646D01*
X201418057Y-93008646D02*
X201608533Y-92961027D01*
X201608533Y-92961027D02*
X201846628Y-92961027D01*
X201846628Y-92961027D02*
X202037104Y-93008646D01*
X202037104Y-93008646D02*
X202132342Y-93056265D01*
X202132342Y-93056265D02*
X202179961Y-93103884D01*
X202179961Y-93103884D02*
X202227580Y-93199122D01*
X201227580Y-94484836D02*
X201227580Y-93913408D01*
X201227580Y-94199122D02*
X202227580Y-94199122D01*
X202227580Y-94199122D02*
X202084723Y-94103884D01*
X202084723Y-94103884D02*
X201989485Y-94008646D01*
X201989485Y-94008646D02*
X201941866Y-93913408D01*
X201275200Y-95627694D02*
X201227580Y-95770551D01*
X201227580Y-95770551D02*
X201227580Y-96008646D01*
X201227580Y-96008646D02*
X201275200Y-96103884D01*
X201275200Y-96103884D02*
X201322819Y-96151503D01*
X201322819Y-96151503D02*
X201418057Y-96199122D01*
X201418057Y-96199122D02*
X201513295Y-96199122D01*
X201513295Y-96199122D02*
X201608533Y-96151503D01*
X201608533Y-96151503D02*
X201656152Y-96103884D01*
X201656152Y-96103884D02*
X201703771Y-96008646D01*
X201703771Y-96008646D02*
X201751390Y-95818170D01*
X201751390Y-95818170D02*
X201799009Y-95722932D01*
X201799009Y-95722932D02*
X201846628Y-95675313D01*
X201846628Y-95675313D02*
X201941866Y-95627694D01*
X201941866Y-95627694D02*
X202037104Y-95627694D01*
X202037104Y-95627694D02*
X202132342Y-95675313D01*
X202132342Y-95675313D02*
X202179961Y-95722932D01*
X202179961Y-95722932D02*
X202227580Y-95818170D01*
X202227580Y-95818170D02*
X202227580Y-96056265D01*
X202227580Y-96056265D02*
X202179961Y-96199122D01*
X201275200Y-97008646D02*
X201227580Y-96913408D01*
X201227580Y-96913408D02*
X201227580Y-96722932D01*
X201227580Y-96722932D02*
X201275200Y-96627694D01*
X201275200Y-96627694D02*
X201370438Y-96580075D01*
X201370438Y-96580075D02*
X201751390Y-96580075D01*
X201751390Y-96580075D02*
X201846628Y-96627694D01*
X201846628Y-96627694D02*
X201894247Y-96722932D01*
X201894247Y-96722932D02*
X201894247Y-96913408D01*
X201894247Y-96913408D02*
X201846628Y-97008646D01*
X201846628Y-97008646D02*
X201751390Y-97056265D01*
X201751390Y-97056265D02*
X201656152Y-97056265D01*
X201656152Y-97056265D02*
X201560914Y-96580075D01*
X201894247Y-97484837D02*
X201227580Y-97484837D01*
X201799009Y-97484837D02*
X201846628Y-97532456D01*
X201846628Y-97532456D02*
X201894247Y-97627694D01*
X201894247Y-97627694D02*
X201894247Y-97770551D01*
X201894247Y-97770551D02*
X201846628Y-97865789D01*
X201846628Y-97865789D02*
X201751390Y-97913408D01*
X201751390Y-97913408D02*
X201227580Y-97913408D01*
X201275200Y-98341980D02*
X201227580Y-98437218D01*
X201227580Y-98437218D02*
X201227580Y-98627694D01*
X201227580Y-98627694D02*
X201275200Y-98722932D01*
X201275200Y-98722932D02*
X201370438Y-98770551D01*
X201370438Y-98770551D02*
X201418057Y-98770551D01*
X201418057Y-98770551D02*
X201513295Y-98722932D01*
X201513295Y-98722932D02*
X201560914Y-98627694D01*
X201560914Y-98627694D02*
X201560914Y-98484837D01*
X201560914Y-98484837D02*
X201608533Y-98389599D01*
X201608533Y-98389599D02*
X201703771Y-98341980D01*
X201703771Y-98341980D02*
X201751390Y-98341980D01*
X201751390Y-98341980D02*
X201846628Y-98389599D01*
X201846628Y-98389599D02*
X201894247Y-98484837D01*
X201894247Y-98484837D02*
X201894247Y-98627694D01*
X201894247Y-98627694D02*
X201846628Y-98722932D01*
X201227580Y-99341980D02*
X201275200Y-99246742D01*
X201275200Y-99246742D02*
X201322819Y-99199123D01*
X201322819Y-99199123D02*
X201418057Y-99151504D01*
X201418057Y-99151504D02*
X201703771Y-99151504D01*
X201703771Y-99151504D02*
X201799009Y-99199123D01*
X201799009Y-99199123D02*
X201846628Y-99246742D01*
X201846628Y-99246742D02*
X201894247Y-99341980D01*
X201894247Y-99341980D02*
X201894247Y-99484837D01*
X201894247Y-99484837D02*
X201846628Y-99580075D01*
X201846628Y-99580075D02*
X201799009Y-99627694D01*
X201799009Y-99627694D02*
X201703771Y-99675313D01*
X201703771Y-99675313D02*
X201418057Y-99675313D01*
X201418057Y-99675313D02*
X201322819Y-99627694D01*
X201322819Y-99627694D02*
X201275200Y-99580075D01*
X201275200Y-99580075D02*
X201227580Y-99484837D01*
X201227580Y-99484837D02*
X201227580Y-99341980D01*
X201227580Y-100103885D02*
X201894247Y-100103885D01*
X201703771Y-100103885D02*
X201799009Y-100151504D01*
X201799009Y-100151504D02*
X201846628Y-100199123D01*
X201846628Y-100199123D02*
X201894247Y-100294361D01*
X201894247Y-100294361D02*
X201894247Y-100389599D01*
X228210952Y-98926109D02*
X228210952Y-98426109D01*
X228210952Y-98426109D02*
X228330000Y-98426109D01*
X228330000Y-98426109D02*
X228401428Y-98449919D01*
X228401428Y-98449919D02*
X228449047Y-98497538D01*
X228449047Y-98497538D02*
X228472857Y-98545157D01*
X228472857Y-98545157D02*
X228496666Y-98640395D01*
X228496666Y-98640395D02*
X228496666Y-98711823D01*
X228496666Y-98711823D02*
X228472857Y-98807061D01*
X228472857Y-98807061D02*
X228449047Y-98854680D01*
X228449047Y-98854680D02*
X228401428Y-98902300D01*
X228401428Y-98902300D02*
X228330000Y-98926109D01*
X228330000Y-98926109D02*
X228210952Y-98926109D01*
X228663333Y-98426109D02*
X228972857Y-98426109D01*
X228972857Y-98426109D02*
X228806190Y-98616585D01*
X228806190Y-98616585D02*
X228877619Y-98616585D01*
X228877619Y-98616585D02*
X228925238Y-98640395D01*
X228925238Y-98640395D02*
X228949047Y-98664204D01*
X228949047Y-98664204D02*
X228972857Y-98711823D01*
X228972857Y-98711823D02*
X228972857Y-98830871D01*
X228972857Y-98830871D02*
X228949047Y-98878490D01*
X228949047Y-98878490D02*
X228925238Y-98902300D01*
X228925238Y-98902300D02*
X228877619Y-98926109D01*
X228877619Y-98926109D02*
X228734762Y-98926109D01*
X228734762Y-98926109D02*
X228687143Y-98902300D01*
X228687143Y-98902300D02*
X228663333Y-98878490D01*
D11*
X181399999Y-93016033D02*
X181166666Y-92682700D01*
X180999999Y-93016033D02*
X180999999Y-92316033D01*
X180999999Y-92316033D02*
X181266666Y-92316033D01*
X181266666Y-92316033D02*
X181333333Y-92349366D01*
X181333333Y-92349366D02*
X181366666Y-92382700D01*
X181366666Y-92382700D02*
X181399999Y-92449366D01*
X181399999Y-92449366D02*
X181399999Y-92549366D01*
X181399999Y-92549366D02*
X181366666Y-92616033D01*
X181366666Y-92616033D02*
X181333333Y-92649366D01*
X181333333Y-92649366D02*
X181266666Y-92682700D01*
X181266666Y-92682700D02*
X180999999Y-92682700D01*
X182066666Y-93016033D02*
X181666666Y-93016033D01*
X181866666Y-93016033D02*
X181866666Y-92316033D01*
X181866666Y-92316033D02*
X181799999Y-92416033D01*
X181799999Y-92416033D02*
X181733333Y-92482700D01*
X181733333Y-92482700D02*
X181666666Y-92516033D01*
X182500000Y-92316033D02*
X182566666Y-92316033D01*
X182566666Y-92316033D02*
X182633333Y-92349366D01*
X182633333Y-92349366D02*
X182666666Y-92382700D01*
X182666666Y-92382700D02*
X182700000Y-92449366D01*
X182700000Y-92449366D02*
X182733333Y-92582700D01*
X182733333Y-92582700D02*
X182733333Y-92749366D01*
X182733333Y-92749366D02*
X182700000Y-92882700D01*
X182700000Y-92882700D02*
X182666666Y-92949366D01*
X182666666Y-92949366D02*
X182633333Y-92982700D01*
X182633333Y-92982700D02*
X182566666Y-93016033D01*
X182566666Y-93016033D02*
X182500000Y-93016033D01*
X182500000Y-93016033D02*
X182433333Y-92982700D01*
X182433333Y-92982700D02*
X182400000Y-92949366D01*
X182400000Y-92949366D02*
X182366666Y-92882700D01*
X182366666Y-92882700D02*
X182333333Y-92749366D01*
X182333333Y-92749366D02*
X182333333Y-92582700D01*
X182333333Y-92582700D02*
X182366666Y-92449366D01*
X182366666Y-92449366D02*
X182400000Y-92382700D01*
X182400000Y-92382700D02*
X182433333Y-92349366D01*
X182433333Y-92349366D02*
X182500000Y-92316033D01*
X220761905Y-109954819D02*
X220761905Y-108954819D01*
X220761905Y-108954819D02*
X221000000Y-108954819D01*
X221000000Y-108954819D02*
X221142857Y-109002438D01*
X221142857Y-109002438D02*
X221238095Y-109097676D01*
X221238095Y-109097676D02*
X221285714Y-109192914D01*
X221285714Y-109192914D02*
X221333333Y-109383390D01*
X221333333Y-109383390D02*
X221333333Y-109526247D01*
X221333333Y-109526247D02*
X221285714Y-109716723D01*
X221285714Y-109716723D02*
X221238095Y-109811961D01*
X221238095Y-109811961D02*
X221142857Y-109907200D01*
X221142857Y-109907200D02*
X221000000Y-109954819D01*
X221000000Y-109954819D02*
X220761905Y-109954819D01*
X222190476Y-109288152D02*
X222190476Y-109954819D01*
X221952381Y-108907200D02*
X221714286Y-109621485D01*
X221714286Y-109621485D02*
X222333333Y-109621485D01*
D12*
X203478709Y-110580952D02*
X203883471Y-110580952D01*
X203883471Y-110580952D02*
X203931090Y-110557142D01*
X203931090Y-110557142D02*
X203954900Y-110533333D01*
X203954900Y-110533333D02*
X203978709Y-110485714D01*
X203978709Y-110485714D02*
X203978709Y-110390476D01*
X203978709Y-110390476D02*
X203954900Y-110342857D01*
X203954900Y-110342857D02*
X203931090Y-110319047D01*
X203931090Y-110319047D02*
X203883471Y-110295238D01*
X203883471Y-110295238D02*
X203478709Y-110295238D01*
X203978709Y-109795237D02*
X203978709Y-110080951D01*
X203978709Y-109938094D02*
X203478709Y-109938094D01*
X203478709Y-109938094D02*
X203550138Y-109985713D01*
X203550138Y-109985713D02*
X203597757Y-110033332D01*
X203597757Y-110033332D02*
X203621566Y-110080951D01*
D10*
X192028490Y-62383333D02*
X192052300Y-62407142D01*
X192052300Y-62407142D02*
X192076109Y-62478571D01*
X192076109Y-62478571D02*
X192076109Y-62526190D01*
X192076109Y-62526190D02*
X192052300Y-62597618D01*
X192052300Y-62597618D02*
X192004680Y-62645237D01*
X192004680Y-62645237D02*
X191957061Y-62669047D01*
X191957061Y-62669047D02*
X191861823Y-62692856D01*
X191861823Y-62692856D02*
X191790395Y-62692856D01*
X191790395Y-62692856D02*
X191695157Y-62669047D01*
X191695157Y-62669047D02*
X191647538Y-62645237D01*
X191647538Y-62645237D02*
X191599919Y-62597618D01*
X191599919Y-62597618D02*
X191576109Y-62526190D01*
X191576109Y-62526190D02*
X191576109Y-62478571D01*
X191576109Y-62478571D02*
X191599919Y-62407142D01*
X191599919Y-62407142D02*
X191623728Y-62383333D01*
X192076109Y-61907142D02*
X192076109Y-62192856D01*
X192076109Y-62049999D02*
X191576109Y-62049999D01*
X191576109Y-62049999D02*
X191647538Y-62097618D01*
X191647538Y-62097618D02*
X191695157Y-62145237D01*
X191695157Y-62145237D02*
X191718966Y-62192856D01*
D11*
X223547618Y-97454819D02*
X223214285Y-96978628D01*
X222976190Y-97454819D02*
X222976190Y-96454819D01*
X222976190Y-96454819D02*
X223357142Y-96454819D01*
X223357142Y-96454819D02*
X223452380Y-96502438D01*
X223452380Y-96502438D02*
X223499999Y-96550057D01*
X223499999Y-96550057D02*
X223547618Y-96645295D01*
X223547618Y-96645295D02*
X223547618Y-96788152D01*
X223547618Y-96788152D02*
X223499999Y-96883390D01*
X223499999Y-96883390D02*
X223452380Y-96931009D01*
X223452380Y-96931009D02*
X223357142Y-96978628D01*
X223357142Y-96978628D02*
X222976190Y-96978628D01*
X223976190Y-96931009D02*
X224309523Y-96931009D01*
X224452380Y-97454819D02*
X223976190Y-97454819D01*
X223976190Y-97454819D02*
X223976190Y-96454819D01*
X223976190Y-96454819D02*
X224452380Y-96454819D01*
X224833333Y-97407200D02*
X224976190Y-97454819D01*
X224976190Y-97454819D02*
X225214285Y-97454819D01*
X225214285Y-97454819D02*
X225309523Y-97407200D01*
X225309523Y-97407200D02*
X225357142Y-97359580D01*
X225357142Y-97359580D02*
X225404761Y-97264342D01*
X225404761Y-97264342D02*
X225404761Y-97169104D01*
X225404761Y-97169104D02*
X225357142Y-97073866D01*
X225357142Y-97073866D02*
X225309523Y-97026247D01*
X225309523Y-97026247D02*
X225214285Y-96978628D01*
X225214285Y-96978628D02*
X225023809Y-96931009D01*
X225023809Y-96931009D02*
X224928571Y-96883390D01*
X224928571Y-96883390D02*
X224880952Y-96835771D01*
X224880952Y-96835771D02*
X224833333Y-96740533D01*
X224833333Y-96740533D02*
X224833333Y-96645295D01*
X224833333Y-96645295D02*
X224880952Y-96550057D01*
X224880952Y-96550057D02*
X224928571Y-96502438D01*
X224928571Y-96502438D02*
X225023809Y-96454819D01*
X225023809Y-96454819D02*
X225261904Y-96454819D01*
X225261904Y-96454819D02*
X225404761Y-96502438D01*
X225833333Y-96931009D02*
X226166666Y-96931009D01*
X226309523Y-97454819D02*
X225833333Y-97454819D01*
X225833333Y-97454819D02*
X225833333Y-96454819D01*
X225833333Y-96454819D02*
X226309523Y-96454819D01*
X226595238Y-96454819D02*
X227166666Y-96454819D01*
X226880952Y-97454819D02*
X226880952Y-96454819D01*
X223842857Y-104631009D02*
X223985714Y-104678628D01*
X223985714Y-104678628D02*
X224033333Y-104726247D01*
X224033333Y-104726247D02*
X224080952Y-104821485D01*
X224080952Y-104821485D02*
X224080952Y-104964342D01*
X224080952Y-104964342D02*
X224033333Y-105059580D01*
X224033333Y-105059580D02*
X223985714Y-105107200D01*
X223985714Y-105107200D02*
X223890476Y-105154819D01*
X223890476Y-105154819D02*
X223509524Y-105154819D01*
X223509524Y-105154819D02*
X223509524Y-104154819D01*
X223509524Y-104154819D02*
X223842857Y-104154819D01*
X223842857Y-104154819D02*
X223938095Y-104202438D01*
X223938095Y-104202438D02*
X223985714Y-104250057D01*
X223985714Y-104250057D02*
X224033333Y-104345295D01*
X224033333Y-104345295D02*
X224033333Y-104440533D01*
X224033333Y-104440533D02*
X223985714Y-104535771D01*
X223985714Y-104535771D02*
X223938095Y-104583390D01*
X223938095Y-104583390D02*
X223842857Y-104631009D01*
X223842857Y-104631009D02*
X223509524Y-104631009D01*
X224700000Y-104154819D02*
X224890476Y-104154819D01*
X224890476Y-104154819D02*
X224985714Y-104202438D01*
X224985714Y-104202438D02*
X225080952Y-104297676D01*
X225080952Y-104297676D02*
X225128571Y-104488152D01*
X225128571Y-104488152D02*
X225128571Y-104821485D01*
X225128571Y-104821485D02*
X225080952Y-105011961D01*
X225080952Y-105011961D02*
X224985714Y-105107200D01*
X224985714Y-105107200D02*
X224890476Y-105154819D01*
X224890476Y-105154819D02*
X224700000Y-105154819D01*
X224700000Y-105154819D02*
X224604762Y-105107200D01*
X224604762Y-105107200D02*
X224509524Y-105011961D01*
X224509524Y-105011961D02*
X224461905Y-104821485D01*
X224461905Y-104821485D02*
X224461905Y-104488152D01*
X224461905Y-104488152D02*
X224509524Y-104297676D01*
X224509524Y-104297676D02*
X224604762Y-104202438D01*
X224604762Y-104202438D02*
X224700000Y-104154819D01*
X225747619Y-104154819D02*
X225938095Y-104154819D01*
X225938095Y-104154819D02*
X226033333Y-104202438D01*
X226033333Y-104202438D02*
X226128571Y-104297676D01*
X226128571Y-104297676D02*
X226176190Y-104488152D01*
X226176190Y-104488152D02*
X226176190Y-104821485D01*
X226176190Y-104821485D02*
X226128571Y-105011961D01*
X226128571Y-105011961D02*
X226033333Y-105107200D01*
X226033333Y-105107200D02*
X225938095Y-105154819D01*
X225938095Y-105154819D02*
X225747619Y-105154819D01*
X225747619Y-105154819D02*
X225652381Y-105107200D01*
X225652381Y-105107200D02*
X225557143Y-105011961D01*
X225557143Y-105011961D02*
X225509524Y-104821485D01*
X225509524Y-104821485D02*
X225509524Y-104488152D01*
X225509524Y-104488152D02*
X225557143Y-104297676D01*
X225557143Y-104297676D02*
X225652381Y-104202438D01*
X225652381Y-104202438D02*
X225747619Y-104154819D01*
X226461905Y-104154819D02*
X227033333Y-104154819D01*
X226747619Y-105154819D02*
X226747619Y-104154819D01*
X225033333Y-83654819D02*
X224700000Y-83178628D01*
X224461905Y-83654819D02*
X224461905Y-82654819D01*
X224461905Y-82654819D02*
X224842857Y-82654819D01*
X224842857Y-82654819D02*
X224938095Y-82702438D01*
X224938095Y-82702438D02*
X224985714Y-82750057D01*
X224985714Y-82750057D02*
X225033333Y-82845295D01*
X225033333Y-82845295D02*
X225033333Y-82988152D01*
X225033333Y-82988152D02*
X224985714Y-83083390D01*
X224985714Y-83083390D02*
X224938095Y-83131009D01*
X224938095Y-83131009D02*
X224842857Y-83178628D01*
X224842857Y-83178628D02*
X224461905Y-83178628D01*
X225890476Y-82654819D02*
X225700000Y-82654819D01*
X225700000Y-82654819D02*
X225604762Y-82702438D01*
X225604762Y-82702438D02*
X225557143Y-82750057D01*
X225557143Y-82750057D02*
X225461905Y-82892914D01*
X225461905Y-82892914D02*
X225414286Y-83083390D01*
X225414286Y-83083390D02*
X225414286Y-83464342D01*
X225414286Y-83464342D02*
X225461905Y-83559580D01*
X225461905Y-83559580D02*
X225509524Y-83607200D01*
X225509524Y-83607200D02*
X225604762Y-83654819D01*
X225604762Y-83654819D02*
X225795238Y-83654819D01*
X225795238Y-83654819D02*
X225890476Y-83607200D01*
X225890476Y-83607200D02*
X225938095Y-83559580D01*
X225938095Y-83559580D02*
X225985714Y-83464342D01*
X225985714Y-83464342D02*
X225985714Y-83226247D01*
X225985714Y-83226247D02*
X225938095Y-83131009D01*
X225938095Y-83131009D02*
X225890476Y-83083390D01*
X225890476Y-83083390D02*
X225795238Y-83035771D01*
X225795238Y-83035771D02*
X225604762Y-83035771D01*
X225604762Y-83035771D02*
X225509524Y-83083390D01*
X225509524Y-83083390D02*
X225461905Y-83131009D01*
X225461905Y-83131009D02*
X225414286Y-83226247D01*
D13*
X213628059Y-111183333D02*
X213389964Y-111349999D01*
X213628059Y-111469047D02*
X213128059Y-111469047D01*
X213128059Y-111469047D02*
X213128059Y-111278571D01*
X213128059Y-111278571D02*
X213151869Y-111230952D01*
X213151869Y-111230952D02*
X213175678Y-111207142D01*
X213175678Y-111207142D02*
X213223297Y-111183333D01*
X213223297Y-111183333D02*
X213294726Y-111183333D01*
X213294726Y-111183333D02*
X213342345Y-111207142D01*
X213342345Y-111207142D02*
X213366154Y-111230952D01*
X213366154Y-111230952D02*
X213389964Y-111278571D01*
X213389964Y-111278571D02*
X213389964Y-111469047D01*
X213294726Y-110754761D02*
X213628059Y-110754761D01*
X213104250Y-110873809D02*
X213461392Y-110992856D01*
X213461392Y-110992856D02*
X213461392Y-110683333D01*
D10*
X190826109Y-71033333D02*
X190588014Y-71199999D01*
X190826109Y-71319047D02*
X190326109Y-71319047D01*
X190326109Y-71319047D02*
X190326109Y-71128571D01*
X190326109Y-71128571D02*
X190349919Y-71080952D01*
X190349919Y-71080952D02*
X190373728Y-71057142D01*
X190373728Y-71057142D02*
X190421347Y-71033333D01*
X190421347Y-71033333D02*
X190492776Y-71033333D01*
X190492776Y-71033333D02*
X190540395Y-71057142D01*
X190540395Y-71057142D02*
X190564204Y-71080952D01*
X190564204Y-71080952D02*
X190588014Y-71128571D01*
X190588014Y-71128571D02*
X190588014Y-71319047D01*
X190326109Y-70866666D02*
X190326109Y-70533333D01*
X190326109Y-70533333D02*
X190826109Y-70747618D01*
D13*
X216478059Y-111133333D02*
X216239964Y-111299999D01*
X216478059Y-111419047D02*
X215978059Y-111419047D01*
X215978059Y-111419047D02*
X215978059Y-111228571D01*
X215978059Y-111228571D02*
X216001869Y-111180952D01*
X216001869Y-111180952D02*
X216025678Y-111157142D01*
X216025678Y-111157142D02*
X216073297Y-111133333D01*
X216073297Y-111133333D02*
X216144726Y-111133333D01*
X216144726Y-111133333D02*
X216192345Y-111157142D01*
X216192345Y-111157142D02*
X216216154Y-111180952D01*
X216216154Y-111180952D02*
X216239964Y-111228571D01*
X216239964Y-111228571D02*
X216239964Y-111419047D01*
X215978059Y-110680952D02*
X215978059Y-110919047D01*
X215978059Y-110919047D02*
X216216154Y-110942856D01*
X216216154Y-110942856D02*
X216192345Y-110919047D01*
X216192345Y-110919047D02*
X216168535Y-110871428D01*
X216168535Y-110871428D02*
X216168535Y-110752380D01*
X216168535Y-110752380D02*
X216192345Y-110704761D01*
X216192345Y-110704761D02*
X216216154Y-110680952D01*
X216216154Y-110680952D02*
X216263773Y-110657142D01*
X216263773Y-110657142D02*
X216382821Y-110657142D01*
X216382821Y-110657142D02*
X216430440Y-110680952D01*
X216430440Y-110680952D02*
X216454250Y-110704761D01*
X216454250Y-110704761D02*
X216478059Y-110752380D01*
X216478059Y-110752380D02*
X216478059Y-110871428D01*
X216478059Y-110871428D02*
X216454250Y-110919047D01*
X216454250Y-110919047D02*
X216430440Y-110942856D01*
D11*
X229654819Y-84238094D02*
X228654819Y-84238094D01*
X228654819Y-84238094D02*
X228654819Y-83999999D01*
X228654819Y-83999999D02*
X228702438Y-83857142D01*
X228702438Y-83857142D02*
X228797676Y-83761904D01*
X228797676Y-83761904D02*
X228892914Y-83714285D01*
X228892914Y-83714285D02*
X229083390Y-83666666D01*
X229083390Y-83666666D02*
X229226247Y-83666666D01*
X229226247Y-83666666D02*
X229416723Y-83714285D01*
X229416723Y-83714285D02*
X229511961Y-83761904D01*
X229511961Y-83761904D02*
X229607200Y-83857142D01*
X229607200Y-83857142D02*
X229654819Y-83999999D01*
X229654819Y-83999999D02*
X229654819Y-84238094D01*
X228654819Y-82761904D02*
X228654819Y-83238094D01*
X228654819Y-83238094D02*
X229131009Y-83285713D01*
X229131009Y-83285713D02*
X229083390Y-83238094D01*
X229083390Y-83238094D02*
X229035771Y-83142856D01*
X229035771Y-83142856D02*
X229035771Y-82904761D01*
X229035771Y-82904761D02*
X229083390Y-82809523D01*
X229083390Y-82809523D02*
X229131009Y-82761904D01*
X229131009Y-82761904D02*
X229226247Y-82714285D01*
X229226247Y-82714285D02*
X229464342Y-82714285D01*
X229464342Y-82714285D02*
X229559580Y-82761904D01*
X229559580Y-82761904D02*
X229607200Y-82809523D01*
X229607200Y-82809523D02*
X229654819Y-82904761D01*
X229654819Y-82904761D02*
X229654819Y-83142856D01*
X229654819Y-83142856D02*
X229607200Y-83238094D01*
X229607200Y-83238094D02*
X229559580Y-83285713D01*
X186904819Y-71683333D02*
X187619104Y-71683333D01*
X187619104Y-71683333D02*
X187761961Y-71730952D01*
X187761961Y-71730952D02*
X187857200Y-71826190D01*
X187857200Y-71826190D02*
X187904819Y-71969047D01*
X187904819Y-71969047D02*
X187904819Y-72064285D01*
X186904819Y-71302380D02*
X186904819Y-70683333D01*
X186904819Y-70683333D02*
X187285771Y-71016666D01*
X187285771Y-71016666D02*
X187285771Y-70873809D01*
X187285771Y-70873809D02*
X187333390Y-70778571D01*
X187333390Y-70778571D02*
X187381009Y-70730952D01*
X187381009Y-70730952D02*
X187476247Y-70683333D01*
X187476247Y-70683333D02*
X187714342Y-70683333D01*
X187714342Y-70683333D02*
X187809580Y-70730952D01*
X187809580Y-70730952D02*
X187857200Y-70778571D01*
X187857200Y-70778571D02*
X187904819Y-70873809D01*
X187904819Y-70873809D02*
X187904819Y-71159523D01*
X187904819Y-71159523D02*
X187857200Y-71254761D01*
X187857200Y-71254761D02*
X187809580Y-71302380D01*
X183790476Y-95154819D02*
X183790476Y-94154819D01*
X183790476Y-94154819D02*
X184123809Y-94869104D01*
X184123809Y-94869104D02*
X184457142Y-94154819D01*
X184457142Y-94154819D02*
X184457142Y-95154819D01*
X184933333Y-95154819D02*
X184933333Y-94154819D01*
X185504761Y-95154819D02*
X185076190Y-94583390D01*
X185504761Y-94154819D02*
X184933333Y-94726247D01*
X186457142Y-95154819D02*
X185885714Y-95154819D01*
X186171428Y-95154819D02*
X186171428Y-94154819D01*
X186171428Y-94154819D02*
X186076190Y-94297676D01*
X186076190Y-94297676D02*
X185980952Y-94392914D01*
X185980952Y-94392914D02*
X185885714Y-94440533D01*
D10*
X183111906Y-93776109D02*
X183111906Y-93276109D01*
X183635715Y-93728490D02*
X183611906Y-93752300D01*
X183611906Y-93752300D02*
X183540477Y-93776109D01*
X183540477Y-93776109D02*
X183492858Y-93776109D01*
X183492858Y-93776109D02*
X183421430Y-93752300D01*
X183421430Y-93752300D02*
X183373811Y-93704680D01*
X183373811Y-93704680D02*
X183350001Y-93657061D01*
X183350001Y-93657061D02*
X183326192Y-93561823D01*
X183326192Y-93561823D02*
X183326192Y-93490395D01*
X183326192Y-93490395D02*
X183350001Y-93395157D01*
X183350001Y-93395157D02*
X183373811Y-93347538D01*
X183373811Y-93347538D02*
X183421430Y-93299919D01*
X183421430Y-93299919D02*
X183492858Y-93276109D01*
X183492858Y-93276109D02*
X183540477Y-93276109D01*
X183540477Y-93276109D02*
X183611906Y-93299919D01*
X183611906Y-93299919D02*
X183635715Y-93323728D01*
X183826192Y-93752300D02*
X183897620Y-93776109D01*
X183897620Y-93776109D02*
X184016668Y-93776109D01*
X184016668Y-93776109D02*
X184064287Y-93752300D01*
X184064287Y-93752300D02*
X184088096Y-93728490D01*
X184088096Y-93728490D02*
X184111906Y-93680871D01*
X184111906Y-93680871D02*
X184111906Y-93633252D01*
X184111906Y-93633252D02*
X184088096Y-93585633D01*
X184088096Y-93585633D02*
X184064287Y-93561823D01*
X184064287Y-93561823D02*
X184016668Y-93538014D01*
X184016668Y-93538014D02*
X183921430Y-93514204D01*
X183921430Y-93514204D02*
X183873811Y-93490395D01*
X183873811Y-93490395D02*
X183850001Y-93466585D01*
X183850001Y-93466585D02*
X183826192Y-93418966D01*
X183826192Y-93418966D02*
X183826192Y-93371347D01*
X183826192Y-93371347D02*
X183850001Y-93323728D01*
X183850001Y-93323728D02*
X183873811Y-93299919D01*
X183873811Y-93299919D02*
X183921430Y-93276109D01*
X183921430Y-93276109D02*
X184040477Y-93276109D01*
X184040477Y-93276109D02*
X184111906Y-93299919D01*
X184326191Y-93585633D02*
X184707144Y-93585633D01*
X185159525Y-93442776D02*
X185159525Y-93776109D01*
X185040477Y-93252300D02*
X184921430Y-93609442D01*
X184921430Y-93609442D02*
X185230953Y-93609442D01*
X185373810Y-93276109D02*
X185683334Y-93276109D01*
X185683334Y-93276109D02*
X185516667Y-93466585D01*
X185516667Y-93466585D02*
X185588096Y-93466585D01*
X185588096Y-93466585D02*
X185635715Y-93490395D01*
X185635715Y-93490395D02*
X185659524Y-93514204D01*
X185659524Y-93514204D02*
X185683334Y-93561823D01*
X185683334Y-93561823D02*
X185683334Y-93680871D01*
X185683334Y-93680871D02*
X185659524Y-93728490D01*
X185659524Y-93728490D02*
X185635715Y-93752300D01*
X185635715Y-93752300D02*
X185588096Y-93776109D01*
X185588096Y-93776109D02*
X185445239Y-93776109D01*
X185445239Y-93776109D02*
X185397620Y-93752300D01*
X185397620Y-93752300D02*
X185373810Y-93728490D01*
X186111905Y-93442776D02*
X186111905Y-93776109D01*
X185992857Y-93252300D02*
X185873810Y-93609442D01*
X185873810Y-93609442D02*
X186183333Y-93609442D01*
X186326190Y-93276109D02*
X186635714Y-93276109D01*
X186635714Y-93276109D02*
X186469047Y-93466585D01*
X186469047Y-93466585D02*
X186540476Y-93466585D01*
X186540476Y-93466585D02*
X186588095Y-93490395D01*
X186588095Y-93490395D02*
X186611904Y-93514204D01*
X186611904Y-93514204D02*
X186635714Y-93561823D01*
X186635714Y-93561823D02*
X186635714Y-93680871D01*
X186635714Y-93680871D02*
X186611904Y-93728490D01*
X186611904Y-93728490D02*
X186588095Y-93752300D01*
X186588095Y-93752300D02*
X186540476Y-93776109D01*
X186540476Y-93776109D02*
X186397619Y-93776109D01*
X186397619Y-93776109D02*
X186350000Y-93752300D01*
X186350000Y-93752300D02*
X186326190Y-93728490D01*
X187064285Y-93442776D02*
X187064285Y-93776109D01*
X186945237Y-93252300D02*
X186826190Y-93609442D01*
X186826190Y-93609442D02*
X187135713Y-93609442D01*
D11*
X185504819Y-78688094D02*
X184504819Y-78688094D01*
X184504819Y-78688094D02*
X184504819Y-78449999D01*
X184504819Y-78449999D02*
X184552438Y-78307142D01*
X184552438Y-78307142D02*
X184647676Y-78211904D01*
X184647676Y-78211904D02*
X184742914Y-78164285D01*
X184742914Y-78164285D02*
X184933390Y-78116666D01*
X184933390Y-78116666D02*
X185076247Y-78116666D01*
X185076247Y-78116666D02*
X185266723Y-78164285D01*
X185266723Y-78164285D02*
X185361961Y-78211904D01*
X185361961Y-78211904D02*
X185457200Y-78307142D01*
X185457200Y-78307142D02*
X185504819Y-78449999D01*
X185504819Y-78449999D02*
X185504819Y-78688094D01*
X184600057Y-77735713D02*
X184552438Y-77688094D01*
X184552438Y-77688094D02*
X184504819Y-77592856D01*
X184504819Y-77592856D02*
X184504819Y-77354761D01*
X184504819Y-77354761D02*
X184552438Y-77259523D01*
X184552438Y-77259523D02*
X184600057Y-77211904D01*
X184600057Y-77211904D02*
X184695295Y-77164285D01*
X184695295Y-77164285D02*
X184790533Y-77164285D01*
X184790533Y-77164285D02*
X184933390Y-77211904D01*
X184933390Y-77211904D02*
X185504819Y-77783332D01*
X185504819Y-77783332D02*
X185504819Y-77164285D01*
X189083333Y-93399366D02*
X189050000Y-93432700D01*
X189050000Y-93432700D02*
X188950000Y-93466033D01*
X188950000Y-93466033D02*
X188883333Y-93466033D01*
X188883333Y-93466033D02*
X188783333Y-93432700D01*
X188783333Y-93432700D02*
X188716667Y-93366033D01*
X188716667Y-93366033D02*
X188683333Y-93299366D01*
X188683333Y-93299366D02*
X188650000Y-93166033D01*
X188650000Y-93166033D02*
X188650000Y-93066033D01*
X188650000Y-93066033D02*
X188683333Y-92932700D01*
X188683333Y-92932700D02*
X188716667Y-92866033D01*
X188716667Y-92866033D02*
X188783333Y-92799366D01*
X188783333Y-92799366D02*
X188883333Y-92766033D01*
X188883333Y-92766033D02*
X188950000Y-92766033D01*
X188950000Y-92766033D02*
X189050000Y-92799366D01*
X189050000Y-92799366D02*
X189083333Y-92832700D01*
X189416667Y-93466033D02*
X189550000Y-93466033D01*
X189550000Y-93466033D02*
X189616667Y-93432700D01*
X189616667Y-93432700D02*
X189650000Y-93399366D01*
X189650000Y-93399366D02*
X189716667Y-93299366D01*
X189716667Y-93299366D02*
X189750000Y-93166033D01*
X189750000Y-93166033D02*
X189750000Y-92899366D01*
X189750000Y-92899366D02*
X189716667Y-92832700D01*
X189716667Y-92832700D02*
X189683333Y-92799366D01*
X189683333Y-92799366D02*
X189616667Y-92766033D01*
X189616667Y-92766033D02*
X189483333Y-92766033D01*
X189483333Y-92766033D02*
X189416667Y-92799366D01*
X189416667Y-92799366D02*
X189383333Y-92832700D01*
X189383333Y-92832700D02*
X189350000Y-92899366D01*
X189350000Y-92899366D02*
X189350000Y-93066033D01*
X189350000Y-93066033D02*
X189383333Y-93132700D01*
X189383333Y-93132700D02*
X189416667Y-93166033D01*
X189416667Y-93166033D02*
X189483333Y-93199366D01*
X189483333Y-93199366D02*
X189616667Y-93199366D01*
X189616667Y-93199366D02*
X189683333Y-93166033D01*
X189683333Y-93166033D02*
X189716667Y-93132700D01*
X189716667Y-93132700D02*
X189750000Y-93066033D01*
X216361905Y-114404819D02*
X216361905Y-113404819D01*
X216361905Y-113404819D02*
X216600000Y-113404819D01*
X216600000Y-113404819D02*
X216742857Y-113452438D01*
X216742857Y-113452438D02*
X216838095Y-113547676D01*
X216838095Y-113547676D02*
X216885714Y-113642914D01*
X216885714Y-113642914D02*
X216933333Y-113833390D01*
X216933333Y-113833390D02*
X216933333Y-113976247D01*
X216933333Y-113976247D02*
X216885714Y-114166723D01*
X216885714Y-114166723D02*
X216838095Y-114261961D01*
X216838095Y-114261961D02*
X216742857Y-114357200D01*
X216742857Y-114357200D02*
X216600000Y-114404819D01*
X216600000Y-114404819D02*
X216361905Y-114404819D01*
X217790476Y-113404819D02*
X217600000Y-113404819D01*
X217600000Y-113404819D02*
X217504762Y-113452438D01*
X217504762Y-113452438D02*
X217457143Y-113500057D01*
X217457143Y-113500057D02*
X217361905Y-113642914D01*
X217361905Y-113642914D02*
X217314286Y-113833390D01*
X217314286Y-113833390D02*
X217314286Y-114214342D01*
X217314286Y-114214342D02*
X217361905Y-114309580D01*
X217361905Y-114309580D02*
X217409524Y-114357200D01*
X217409524Y-114357200D02*
X217504762Y-114404819D01*
X217504762Y-114404819D02*
X217695238Y-114404819D01*
X217695238Y-114404819D02*
X217790476Y-114357200D01*
X217790476Y-114357200D02*
X217838095Y-114309580D01*
X217838095Y-114309580D02*
X217885714Y-114214342D01*
X217885714Y-114214342D02*
X217885714Y-113976247D01*
X217885714Y-113976247D02*
X217838095Y-113881009D01*
X217838095Y-113881009D02*
X217790476Y-113833390D01*
X217790476Y-113833390D02*
X217695238Y-113785771D01*
X217695238Y-113785771D02*
X217504762Y-113785771D01*
X217504762Y-113785771D02*
X217409524Y-113833390D01*
X217409524Y-113833390D02*
X217361905Y-113881009D01*
X217361905Y-113881009D02*
X217314286Y-113976247D01*
D10*
X220299999Y-113918633D02*
X220066666Y-113585300D01*
X219899999Y-113918633D02*
X219899999Y-113218633D01*
X219899999Y-113218633D02*
X220166666Y-113218633D01*
X220166666Y-113218633D02*
X220233333Y-113251966D01*
X220233333Y-113251966D02*
X220266666Y-113285300D01*
X220266666Y-113285300D02*
X220299999Y-113351966D01*
X220299999Y-113351966D02*
X220299999Y-113451966D01*
X220299999Y-113451966D02*
X220266666Y-113518633D01*
X220266666Y-113518633D02*
X220233333Y-113551966D01*
X220233333Y-113551966D02*
X220166666Y-113585300D01*
X220166666Y-113585300D02*
X219899999Y-113585300D01*
X220966666Y-113918633D02*
X220566666Y-113918633D01*
X220766666Y-113918633D02*
X220766666Y-113218633D01*
X220766666Y-113218633D02*
X220699999Y-113318633D01*
X220699999Y-113318633D02*
X220633333Y-113385300D01*
X220633333Y-113385300D02*
X220566666Y-113418633D01*
X221233333Y-113285300D02*
X221266666Y-113251966D01*
X221266666Y-113251966D02*
X221333333Y-113218633D01*
X221333333Y-113218633D02*
X221500000Y-113218633D01*
X221500000Y-113218633D02*
X221566666Y-113251966D01*
X221566666Y-113251966D02*
X221600000Y-113285300D01*
X221600000Y-113285300D02*
X221633333Y-113351966D01*
X221633333Y-113351966D02*
X221633333Y-113418633D01*
X221633333Y-113418633D02*
X221600000Y-113518633D01*
X221600000Y-113518633D02*
X221200000Y-113918633D01*
X221200000Y-113918633D02*
X221633333Y-113918633D01*
D14*
X212933333Y-118719283D02*
X212700000Y-118385950D01*
X212533333Y-118719283D02*
X212533333Y-118019283D01*
X212533333Y-118019283D02*
X212800000Y-118019283D01*
X212800000Y-118019283D02*
X212866667Y-118052616D01*
X212866667Y-118052616D02*
X212900000Y-118085950D01*
X212900000Y-118085950D02*
X212933333Y-118152616D01*
X212933333Y-118152616D02*
X212933333Y-118252616D01*
X212933333Y-118252616D02*
X212900000Y-118319283D01*
X212900000Y-118319283D02*
X212866667Y-118352616D01*
X212866667Y-118352616D02*
X212800000Y-118385950D01*
X212800000Y-118385950D02*
X212533333Y-118385950D01*
X213266667Y-118719283D02*
X213400000Y-118719283D01*
X213400000Y-118719283D02*
X213466667Y-118685950D01*
X213466667Y-118685950D02*
X213500000Y-118652616D01*
X213500000Y-118652616D02*
X213566667Y-118552616D01*
X213566667Y-118552616D02*
X213600000Y-118419283D01*
X213600000Y-118419283D02*
X213600000Y-118152616D01*
X213600000Y-118152616D02*
X213566667Y-118085950D01*
X213566667Y-118085950D02*
X213533333Y-118052616D01*
X213533333Y-118052616D02*
X213466667Y-118019283D01*
X213466667Y-118019283D02*
X213333333Y-118019283D01*
X213333333Y-118019283D02*
X213266667Y-118052616D01*
X213266667Y-118052616D02*
X213233333Y-118085950D01*
X213233333Y-118085950D02*
X213200000Y-118152616D01*
X213200000Y-118152616D02*
X213200000Y-118319283D01*
X213200000Y-118319283D02*
X213233333Y-118385950D01*
X213233333Y-118385950D02*
X213266667Y-118419283D01*
X213266667Y-118419283D02*
X213333333Y-118452616D01*
X213333333Y-118452616D02*
X213466667Y-118452616D01*
X213466667Y-118452616D02*
X213533333Y-118419283D01*
X213533333Y-118419283D02*
X213566667Y-118385950D01*
X213566667Y-118385950D02*
X213600000Y-118319283D01*
D11*
X196954819Y-114988094D02*
X195954819Y-114988094D01*
X195954819Y-114988094D02*
X195954819Y-114749999D01*
X195954819Y-114749999D02*
X196002438Y-114607142D01*
X196002438Y-114607142D02*
X196097676Y-114511904D01*
X196097676Y-114511904D02*
X196192914Y-114464285D01*
X196192914Y-114464285D02*
X196383390Y-114416666D01*
X196383390Y-114416666D02*
X196526247Y-114416666D01*
X196526247Y-114416666D02*
X196716723Y-114464285D01*
X196716723Y-114464285D02*
X196811961Y-114511904D01*
X196811961Y-114511904D02*
X196907200Y-114607142D01*
X196907200Y-114607142D02*
X196954819Y-114749999D01*
X196954819Y-114749999D02*
X196954819Y-114988094D01*
X196954819Y-113464285D02*
X196954819Y-114035713D01*
X196954819Y-113749999D02*
X195954819Y-113749999D01*
X195954819Y-113749999D02*
X196097676Y-113845237D01*
X196097676Y-113845237D02*
X196192914Y-113940475D01*
X196192914Y-113940475D02*
X196240533Y-114035713D01*
X225527200Y-91583332D02*
X225574819Y-91440475D01*
X225574819Y-91440475D02*
X225574819Y-91202380D01*
X225574819Y-91202380D02*
X225527200Y-91107142D01*
X225527200Y-91107142D02*
X225479580Y-91059523D01*
X225479580Y-91059523D02*
X225384342Y-91011904D01*
X225384342Y-91011904D02*
X225289104Y-91011904D01*
X225289104Y-91011904D02*
X225193866Y-91059523D01*
X225193866Y-91059523D02*
X225146247Y-91107142D01*
X225146247Y-91107142D02*
X225098628Y-91202380D01*
X225098628Y-91202380D02*
X225051009Y-91392856D01*
X225051009Y-91392856D02*
X225003390Y-91488094D01*
X225003390Y-91488094D02*
X224955771Y-91535713D01*
X224955771Y-91535713D02*
X224860533Y-91583332D01*
X224860533Y-91583332D02*
X224765295Y-91583332D01*
X224765295Y-91583332D02*
X224670057Y-91535713D01*
X224670057Y-91535713D02*
X224622438Y-91488094D01*
X224622438Y-91488094D02*
X224574819Y-91392856D01*
X224574819Y-91392856D02*
X224574819Y-91154761D01*
X224574819Y-91154761D02*
X224622438Y-91011904D01*
X224574819Y-90678570D02*
X225574819Y-90440475D01*
X225574819Y-90440475D02*
X224860533Y-90249999D01*
X224860533Y-90249999D02*
X225574819Y-90059523D01*
X225574819Y-90059523D02*
X224574819Y-89821428D01*
X224574819Y-89535713D02*
X224574819Y-88916666D01*
X224574819Y-88916666D02*
X224955771Y-89249999D01*
X224955771Y-89249999D02*
X224955771Y-89107142D01*
X224955771Y-89107142D02*
X225003390Y-89011904D01*
X225003390Y-89011904D02*
X225051009Y-88964285D01*
X225051009Y-88964285D02*
X225146247Y-88916666D01*
X225146247Y-88916666D02*
X225384342Y-88916666D01*
X225384342Y-88916666D02*
X225479580Y-88964285D01*
X225479580Y-88964285D02*
X225527200Y-89011904D01*
X225527200Y-89011904D02*
X225574819Y-89107142D01*
X225574819Y-89107142D02*
X225574819Y-89392856D01*
X225574819Y-89392856D02*
X225527200Y-89488094D01*
X225527200Y-89488094D02*
X225479580Y-89535713D01*
D10*
X199633333Y-112295847D02*
X199366667Y-112295847D01*
X199366667Y-112714895D02*
X199366667Y-111914895D01*
X199366667Y-111914895D02*
X199747619Y-111914895D01*
X200471428Y-112714895D02*
X200014285Y-112714895D01*
X200242857Y-112714895D02*
X200242857Y-111914895D01*
X200242857Y-111914895D02*
X200166666Y-112029180D01*
X200166666Y-112029180D02*
X200090476Y-112105371D01*
X200090476Y-112105371D02*
X200014285Y-112143466D01*
D11*
X186513095Y-85254819D02*
X186513095Y-86064342D01*
X186513095Y-86064342D02*
X186560714Y-86159580D01*
X186560714Y-86159580D02*
X186608333Y-86207200D01*
X186608333Y-86207200D02*
X186703571Y-86254819D01*
X186703571Y-86254819D02*
X186894047Y-86254819D01*
X186894047Y-86254819D02*
X186989285Y-86207200D01*
X186989285Y-86207200D02*
X187036904Y-86159580D01*
X187036904Y-86159580D02*
X187084523Y-86064342D01*
X187084523Y-86064342D02*
X187084523Y-85254819D01*
X187989285Y-85588152D02*
X187989285Y-86254819D01*
X187751190Y-85207200D02*
X187513095Y-85921485D01*
X187513095Y-85921485D02*
X188132142Y-85921485D01*
D10*
X182516666Y-81385300D02*
X182616666Y-81418633D01*
X182616666Y-81418633D02*
X182783333Y-81418633D01*
X182783333Y-81418633D02*
X182849999Y-81385300D01*
X182849999Y-81385300D02*
X182883333Y-81351966D01*
X182883333Y-81351966D02*
X182916666Y-81285300D01*
X182916666Y-81285300D02*
X182916666Y-81218633D01*
X182916666Y-81218633D02*
X182883333Y-81151966D01*
X182883333Y-81151966D02*
X182849999Y-81118633D01*
X182849999Y-81118633D02*
X182783333Y-81085300D01*
X182783333Y-81085300D02*
X182649999Y-81051966D01*
X182649999Y-81051966D02*
X182583333Y-81018633D01*
X182583333Y-81018633D02*
X182549999Y-80985300D01*
X182549999Y-80985300D02*
X182516666Y-80918633D01*
X182516666Y-80918633D02*
X182516666Y-80851966D01*
X182516666Y-80851966D02*
X182549999Y-80785300D01*
X182549999Y-80785300D02*
X182583333Y-80751966D01*
X182583333Y-80751966D02*
X182649999Y-80718633D01*
X182649999Y-80718633D02*
X182816666Y-80718633D01*
X182816666Y-80718633D02*
X182916666Y-80751966D01*
X183216666Y-81418633D02*
X183216666Y-80718633D01*
X183216666Y-81051966D02*
X183616666Y-81051966D01*
X183616666Y-81418633D02*
X183616666Y-80718633D01*
X183849999Y-80718633D02*
X184249999Y-80718633D01*
X184049999Y-81418633D02*
X184049999Y-80718633D01*
X184416666Y-80718633D02*
X184849999Y-80718633D01*
X184849999Y-80718633D02*
X184616666Y-80985300D01*
X184616666Y-80985300D02*
X184716666Y-80985300D01*
X184716666Y-80985300D02*
X184783332Y-81018633D01*
X184783332Y-81018633D02*
X184816666Y-81051966D01*
X184816666Y-81051966D02*
X184849999Y-81118633D01*
X184849999Y-81118633D02*
X184849999Y-81285300D01*
X184849999Y-81285300D02*
X184816666Y-81351966D01*
X184816666Y-81351966D02*
X184783332Y-81385300D01*
X184783332Y-81385300D02*
X184716666Y-81418633D01*
X184716666Y-81418633D02*
X184516666Y-81418633D01*
X184516666Y-81418633D02*
X184449999Y-81385300D01*
X184449999Y-81385300D02*
X184416666Y-81351966D01*
X185483333Y-80718633D02*
X185149999Y-80718633D01*
X185149999Y-80718633D02*
X185116666Y-81051966D01*
X185116666Y-81051966D02*
X185149999Y-81018633D01*
X185149999Y-81018633D02*
X185216666Y-80985300D01*
X185216666Y-80985300D02*
X185383333Y-80985300D01*
X185383333Y-80985300D02*
X185449999Y-81018633D01*
X185449999Y-81018633D02*
X185483333Y-81051966D01*
X185483333Y-81051966D02*
X185516666Y-81118633D01*
X185516666Y-81118633D02*
X185516666Y-81285300D01*
X185516666Y-81285300D02*
X185483333Y-81351966D01*
X185483333Y-81351966D02*
X185449999Y-81385300D01*
X185449999Y-81385300D02*
X185383333Y-81418633D01*
X185383333Y-81418633D02*
X185216666Y-81418633D01*
X185216666Y-81418633D02*
X185149999Y-81385300D01*
X185149999Y-81385300D02*
X185116666Y-81351966D01*
X185816666Y-81151966D02*
X186350000Y-81151966D01*
X186683333Y-81418633D02*
X186683333Y-80718633D01*
X186683333Y-80718633D02*
X186850000Y-80718633D01*
X186850000Y-80718633D02*
X186950000Y-80751966D01*
X186950000Y-80751966D02*
X187016667Y-80818633D01*
X187016667Y-80818633D02*
X187050000Y-80885300D01*
X187050000Y-80885300D02*
X187083333Y-81018633D01*
X187083333Y-81018633D02*
X187083333Y-81118633D01*
X187083333Y-81118633D02*
X187050000Y-81251966D01*
X187050000Y-81251966D02*
X187016667Y-81318633D01*
X187016667Y-81318633D02*
X186950000Y-81385300D01*
X186950000Y-81385300D02*
X186850000Y-81418633D01*
X186850000Y-81418633D02*
X186683333Y-81418633D01*
X187383333Y-81418633D02*
X187383333Y-80718633D01*
X187683333Y-81385300D02*
X187783333Y-81418633D01*
X187783333Y-81418633D02*
X187950000Y-81418633D01*
X187950000Y-81418633D02*
X188016666Y-81385300D01*
X188016666Y-81385300D02*
X188050000Y-81351966D01*
X188050000Y-81351966D02*
X188083333Y-81285300D01*
X188083333Y-81285300D02*
X188083333Y-81218633D01*
X188083333Y-81218633D02*
X188050000Y-81151966D01*
X188050000Y-81151966D02*
X188016666Y-81118633D01*
X188016666Y-81118633D02*
X187950000Y-81085300D01*
X187950000Y-81085300D02*
X187816666Y-81051966D01*
X187816666Y-81051966D02*
X187750000Y-81018633D01*
X187750000Y-81018633D02*
X187716666Y-80985300D01*
X187716666Y-80985300D02*
X187683333Y-80918633D01*
X187683333Y-80918633D02*
X187683333Y-80851966D01*
X187683333Y-80851966D02*
X187716666Y-80785300D01*
X187716666Y-80785300D02*
X187750000Y-80751966D01*
X187750000Y-80751966D02*
X187816666Y-80718633D01*
X187816666Y-80718633D02*
X187983333Y-80718633D01*
X187983333Y-80718633D02*
X188083333Y-80751966D01*
D11*
X182399366Y-83816666D02*
X182432700Y-83849999D01*
X182432700Y-83849999D02*
X182466033Y-83949999D01*
X182466033Y-83949999D02*
X182466033Y-84016666D01*
X182466033Y-84016666D02*
X182432700Y-84116666D01*
X182432700Y-84116666D02*
X182366033Y-84183333D01*
X182366033Y-84183333D02*
X182299366Y-84216666D01*
X182299366Y-84216666D02*
X182166033Y-84249999D01*
X182166033Y-84249999D02*
X182066033Y-84249999D01*
X182066033Y-84249999D02*
X181932700Y-84216666D01*
X181932700Y-84216666D02*
X181866033Y-84183333D01*
X181866033Y-84183333D02*
X181799366Y-84116666D01*
X181799366Y-84116666D02*
X181766033Y-84016666D01*
X181766033Y-84016666D02*
X181766033Y-83949999D01*
X181766033Y-83949999D02*
X181799366Y-83849999D01*
X181799366Y-83849999D02*
X181832700Y-83816666D01*
X181766033Y-83183333D02*
X181766033Y-83516666D01*
X181766033Y-83516666D02*
X182099366Y-83549999D01*
X182099366Y-83549999D02*
X182066033Y-83516666D01*
X182066033Y-83516666D02*
X182032700Y-83449999D01*
X182032700Y-83449999D02*
X182032700Y-83283333D01*
X182032700Y-83283333D02*
X182066033Y-83216666D01*
X182066033Y-83216666D02*
X182099366Y-83183333D01*
X182099366Y-83183333D02*
X182166033Y-83149999D01*
X182166033Y-83149999D02*
X182332700Y-83149999D01*
X182332700Y-83149999D02*
X182399366Y-83183333D01*
X182399366Y-83183333D02*
X182432700Y-83216666D01*
X182432700Y-83216666D02*
X182466033Y-83283333D01*
X182466033Y-83283333D02*
X182466033Y-83449999D01*
X182466033Y-83449999D02*
X182432700Y-83516666D01*
X182432700Y-83516666D02*
X182399366Y-83549999D01*
D10*
X226416666Y-102226109D02*
X226250000Y-101988014D01*
X226130952Y-102226109D02*
X226130952Y-101726109D01*
X226130952Y-101726109D02*
X226321428Y-101726109D01*
X226321428Y-101726109D02*
X226369047Y-101749919D01*
X226369047Y-101749919D02*
X226392857Y-101773728D01*
X226392857Y-101773728D02*
X226416666Y-101821347D01*
X226416666Y-101821347D02*
X226416666Y-101892776D01*
X226416666Y-101892776D02*
X226392857Y-101940395D01*
X226392857Y-101940395D02*
X226369047Y-101964204D01*
X226369047Y-101964204D02*
X226321428Y-101988014D01*
X226321428Y-101988014D02*
X226130952Y-101988014D01*
X226607143Y-101773728D02*
X226630952Y-101749919D01*
X226630952Y-101749919D02*
X226678571Y-101726109D01*
X226678571Y-101726109D02*
X226797619Y-101726109D01*
X226797619Y-101726109D02*
X226845238Y-101749919D01*
X226845238Y-101749919D02*
X226869047Y-101773728D01*
X226869047Y-101773728D02*
X226892857Y-101821347D01*
X226892857Y-101821347D02*
X226892857Y-101868966D01*
X226892857Y-101868966D02*
X226869047Y-101940395D01*
X226869047Y-101940395D02*
X226583333Y-102226109D01*
X226583333Y-102226109D02*
X226892857Y-102226109D01*
X194428490Y-62283333D02*
X194452300Y-62307142D01*
X194452300Y-62307142D02*
X194476109Y-62378571D01*
X194476109Y-62378571D02*
X194476109Y-62426190D01*
X194476109Y-62426190D02*
X194452300Y-62497618D01*
X194452300Y-62497618D02*
X194404680Y-62545237D01*
X194404680Y-62545237D02*
X194357061Y-62569047D01*
X194357061Y-62569047D02*
X194261823Y-62592856D01*
X194261823Y-62592856D02*
X194190395Y-62592856D01*
X194190395Y-62592856D02*
X194095157Y-62569047D01*
X194095157Y-62569047D02*
X194047538Y-62545237D01*
X194047538Y-62545237D02*
X193999919Y-62497618D01*
X193999919Y-62497618D02*
X193976109Y-62426190D01*
X193976109Y-62426190D02*
X193976109Y-62378571D01*
X193976109Y-62378571D02*
X193999919Y-62307142D01*
X193999919Y-62307142D02*
X194023728Y-62283333D01*
X194023728Y-62092856D02*
X193999919Y-62069047D01*
X193999919Y-62069047D02*
X193976109Y-62021428D01*
X193976109Y-62021428D02*
X193976109Y-61902380D01*
X193976109Y-61902380D02*
X193999919Y-61854761D01*
X193999919Y-61854761D02*
X194023728Y-61830952D01*
X194023728Y-61830952D02*
X194071347Y-61807142D01*
X194071347Y-61807142D02*
X194118966Y-61807142D01*
X194118966Y-61807142D02*
X194190395Y-61830952D01*
X194190395Y-61830952D02*
X194476109Y-62116666D01*
X194476109Y-62116666D02*
X194476109Y-61807142D01*
D11*
X182834819Y-77666666D02*
X182358628Y-77999999D01*
X182834819Y-78238094D02*
X181834819Y-78238094D01*
X181834819Y-78238094D02*
X181834819Y-77857142D01*
X181834819Y-77857142D02*
X181882438Y-77761904D01*
X181882438Y-77761904D02*
X181930057Y-77714285D01*
X181930057Y-77714285D02*
X182025295Y-77666666D01*
X182025295Y-77666666D02*
X182168152Y-77666666D01*
X182168152Y-77666666D02*
X182263390Y-77714285D01*
X182263390Y-77714285D02*
X182311009Y-77761904D01*
X182311009Y-77761904D02*
X182358628Y-77857142D01*
X182358628Y-77857142D02*
X182358628Y-78238094D01*
X182834819Y-76714285D02*
X182834819Y-77285713D01*
X182834819Y-76999999D02*
X181834819Y-76999999D01*
X181834819Y-76999999D02*
X181977676Y-77095237D01*
X181977676Y-77095237D02*
X182072914Y-77190475D01*
X182072914Y-77190475D02*
X182120533Y-77285713D01*
D10*
X193278490Y-117233333D02*
X193302300Y-117257142D01*
X193302300Y-117257142D02*
X193326109Y-117328571D01*
X193326109Y-117328571D02*
X193326109Y-117376190D01*
X193326109Y-117376190D02*
X193302300Y-117447618D01*
X193302300Y-117447618D02*
X193254680Y-117495237D01*
X193254680Y-117495237D02*
X193207061Y-117519047D01*
X193207061Y-117519047D02*
X193111823Y-117542856D01*
X193111823Y-117542856D02*
X193040395Y-117542856D01*
X193040395Y-117542856D02*
X192945157Y-117519047D01*
X192945157Y-117519047D02*
X192897538Y-117495237D01*
X192897538Y-117495237D02*
X192849919Y-117447618D01*
X192849919Y-117447618D02*
X192826109Y-117376190D01*
X192826109Y-117376190D02*
X192826109Y-117328571D01*
X192826109Y-117328571D02*
X192849919Y-117257142D01*
X192849919Y-117257142D02*
X192873728Y-117233333D01*
X192826109Y-117066666D02*
X192826109Y-116733333D01*
X192826109Y-116733333D02*
X193326109Y-116947618D01*
D11*
X190329580Y-117366666D02*
X190377200Y-117414285D01*
X190377200Y-117414285D02*
X190424819Y-117557142D01*
X190424819Y-117557142D02*
X190424819Y-117652380D01*
X190424819Y-117652380D02*
X190377200Y-117795237D01*
X190377200Y-117795237D02*
X190281961Y-117890475D01*
X190281961Y-117890475D02*
X190186723Y-117938094D01*
X190186723Y-117938094D02*
X189996247Y-117985713D01*
X189996247Y-117985713D02*
X189853390Y-117985713D01*
X189853390Y-117985713D02*
X189662914Y-117938094D01*
X189662914Y-117938094D02*
X189567676Y-117890475D01*
X189567676Y-117890475D02*
X189472438Y-117795237D01*
X189472438Y-117795237D02*
X189424819Y-117652380D01*
X189424819Y-117652380D02*
X189424819Y-117557142D01*
X189424819Y-117557142D02*
X189472438Y-117414285D01*
X189472438Y-117414285D02*
X189520057Y-117366666D01*
X189424819Y-117033332D02*
X189424819Y-116366666D01*
X189424819Y-116366666D02*
X190424819Y-116795237D01*
D10*
X210428490Y-110383333D02*
X210452300Y-110407142D01*
X210452300Y-110407142D02*
X210476109Y-110478571D01*
X210476109Y-110478571D02*
X210476109Y-110526190D01*
X210476109Y-110526190D02*
X210452300Y-110597618D01*
X210452300Y-110597618D02*
X210404680Y-110645237D01*
X210404680Y-110645237D02*
X210357061Y-110669047D01*
X210357061Y-110669047D02*
X210261823Y-110692856D01*
X210261823Y-110692856D02*
X210190395Y-110692856D01*
X210190395Y-110692856D02*
X210095157Y-110669047D01*
X210095157Y-110669047D02*
X210047538Y-110645237D01*
X210047538Y-110645237D02*
X209999919Y-110597618D01*
X209999919Y-110597618D02*
X209976109Y-110526190D01*
X209976109Y-110526190D02*
X209976109Y-110478571D01*
X209976109Y-110478571D02*
X209999919Y-110407142D01*
X209999919Y-110407142D02*
X210023728Y-110383333D01*
X209976109Y-110216666D02*
X209976109Y-109907142D01*
X209976109Y-109907142D02*
X210166585Y-110073809D01*
X210166585Y-110073809D02*
X210166585Y-110002380D01*
X210166585Y-110002380D02*
X210190395Y-109954761D01*
X210190395Y-109954761D02*
X210214204Y-109930952D01*
X210214204Y-109930952D02*
X210261823Y-109907142D01*
X210261823Y-109907142D02*
X210380871Y-109907142D01*
X210380871Y-109907142D02*
X210428490Y-109930952D01*
X210428490Y-109930952D02*
X210452300Y-109954761D01*
X210452300Y-109954761D02*
X210476109Y-110002380D01*
X210476109Y-110002380D02*
X210476109Y-110145237D01*
X210476109Y-110145237D02*
X210452300Y-110192856D01*
X210452300Y-110192856D02*
X210428490Y-110216666D01*
D15*
X210164286Y-111235665D02*
X209992857Y-111235665D01*
X210078572Y-111235665D02*
X210078572Y-110935665D01*
X210078572Y-110935665D02*
X210050000Y-110978522D01*
X210050000Y-110978522D02*
X210021429Y-111007094D01*
X210021429Y-111007094D02*
X209992857Y-111021380D01*
X210350000Y-110935665D02*
X210378571Y-110935665D01*
X210378571Y-110935665D02*
X210407143Y-110949951D01*
X210407143Y-110949951D02*
X210421429Y-110964237D01*
X210421429Y-110964237D02*
X210435714Y-110992808D01*
X210435714Y-110992808D02*
X210450000Y-111049951D01*
X210450000Y-111049951D02*
X210450000Y-111121380D01*
X210450000Y-111121380D02*
X210435714Y-111178522D01*
X210435714Y-111178522D02*
X210421429Y-111207094D01*
X210421429Y-111207094D02*
X210407143Y-111221380D01*
X210407143Y-111221380D02*
X210378571Y-111235665D01*
X210378571Y-111235665D02*
X210350000Y-111235665D01*
X210350000Y-111235665D02*
X210321429Y-111221380D01*
X210321429Y-111221380D02*
X210307143Y-111207094D01*
X210307143Y-111207094D02*
X210292857Y-111178522D01*
X210292857Y-111178522D02*
X210278571Y-111121380D01*
X210278571Y-111121380D02*
X210278571Y-111049951D01*
X210278571Y-111049951D02*
X210292857Y-110992808D01*
X210292857Y-110992808D02*
X210307143Y-110964237D01*
X210307143Y-110964237D02*
X210321429Y-110949951D01*
X210321429Y-110949951D02*
X210350000Y-110935665D01*
X210635714Y-110935665D02*
X210664285Y-110935665D01*
X210664285Y-110935665D02*
X210692857Y-110949951D01*
X210692857Y-110949951D02*
X210707143Y-110964237D01*
X210707143Y-110964237D02*
X210721428Y-110992808D01*
X210721428Y-110992808D02*
X210735714Y-111049951D01*
X210735714Y-111049951D02*
X210735714Y-111121380D01*
X210735714Y-111121380D02*
X210721428Y-111178522D01*
X210721428Y-111178522D02*
X210707143Y-111207094D01*
X210707143Y-111207094D02*
X210692857Y-111221380D01*
X210692857Y-111221380D02*
X210664285Y-111235665D01*
X210664285Y-111235665D02*
X210635714Y-111235665D01*
X210635714Y-111235665D02*
X210607143Y-111221380D01*
X210607143Y-111221380D02*
X210592857Y-111207094D01*
X210592857Y-111207094D02*
X210578571Y-111178522D01*
X210578571Y-111178522D02*
X210564285Y-111121380D01*
X210564285Y-111121380D02*
X210564285Y-111049951D01*
X210564285Y-111049951D02*
X210578571Y-110992808D01*
X210578571Y-110992808D02*
X210592857Y-110964237D01*
X210592857Y-110964237D02*
X210607143Y-110949951D01*
X210607143Y-110949951D02*
X210635714Y-110935665D01*
X210864285Y-111035665D02*
X210864285Y-111235665D01*
X210864285Y-111064237D02*
X210878571Y-111049951D01*
X210878571Y-111049951D02*
X210907142Y-111035665D01*
X210907142Y-111035665D02*
X210949999Y-111035665D01*
X210949999Y-111035665D02*
X210978571Y-111049951D01*
X210978571Y-111049951D02*
X210992857Y-111078522D01*
X210992857Y-111078522D02*
X210992857Y-111235665D01*
D10*
X203466666Y-81226109D02*
X203300000Y-80988014D01*
X203180952Y-81226109D02*
X203180952Y-80726109D01*
X203180952Y-80726109D02*
X203371428Y-80726109D01*
X203371428Y-80726109D02*
X203419047Y-80749919D01*
X203419047Y-80749919D02*
X203442857Y-80773728D01*
X203442857Y-80773728D02*
X203466666Y-80821347D01*
X203466666Y-80821347D02*
X203466666Y-80892776D01*
X203466666Y-80892776D02*
X203442857Y-80940395D01*
X203442857Y-80940395D02*
X203419047Y-80964204D01*
X203419047Y-80964204D02*
X203371428Y-80988014D01*
X203371428Y-80988014D02*
X203180952Y-80988014D01*
X203633333Y-80726109D02*
X203942857Y-80726109D01*
X203942857Y-80726109D02*
X203776190Y-80916585D01*
X203776190Y-80916585D02*
X203847619Y-80916585D01*
X203847619Y-80916585D02*
X203895238Y-80940395D01*
X203895238Y-80940395D02*
X203919047Y-80964204D01*
X203919047Y-80964204D02*
X203942857Y-81011823D01*
X203942857Y-81011823D02*
X203942857Y-81130871D01*
X203942857Y-81130871D02*
X203919047Y-81178490D01*
X203919047Y-81178490D02*
X203895238Y-81202300D01*
X203895238Y-81202300D02*
X203847619Y-81226109D01*
X203847619Y-81226109D02*
X203704762Y-81226109D01*
X203704762Y-81226109D02*
X203657143Y-81202300D01*
X203657143Y-81202300D02*
X203633333Y-81178490D01*
D11*
X220362142Y-118904819D02*
X220028809Y-118428628D01*
X219790714Y-118904819D02*
X219790714Y-117904819D01*
X219790714Y-117904819D02*
X220171666Y-117904819D01*
X220171666Y-117904819D02*
X220266904Y-117952438D01*
X220266904Y-117952438D02*
X220314523Y-118000057D01*
X220314523Y-118000057D02*
X220362142Y-118095295D01*
X220362142Y-118095295D02*
X220362142Y-118238152D01*
X220362142Y-118238152D02*
X220314523Y-118333390D01*
X220314523Y-118333390D02*
X220266904Y-118381009D01*
X220266904Y-118381009D02*
X220171666Y-118428628D01*
X220171666Y-118428628D02*
X219790714Y-118428628D01*
X221314523Y-118904819D02*
X220743095Y-118904819D01*
X221028809Y-118904819D02*
X221028809Y-117904819D01*
X221028809Y-117904819D02*
X220933571Y-118047676D01*
X220933571Y-118047676D02*
X220838333Y-118142914D01*
X220838333Y-118142914D02*
X220743095Y-118190533D01*
X222266904Y-118904819D02*
X221695476Y-118904819D01*
X221981190Y-118904819D02*
X221981190Y-117904819D01*
X221981190Y-117904819D02*
X221885952Y-118047676D01*
X221885952Y-118047676D02*
X221790714Y-118142914D01*
X221790714Y-118142914D02*
X221695476Y-118190533D01*
X216094819Y-71203333D02*
X216809104Y-71203333D01*
X216809104Y-71203333D02*
X216951961Y-71250952D01*
X216951961Y-71250952D02*
X217047200Y-71346190D01*
X217047200Y-71346190D02*
X217094819Y-71489047D01*
X217094819Y-71489047D02*
X217094819Y-71584285D01*
X216190057Y-70774761D02*
X216142438Y-70727142D01*
X216142438Y-70727142D02*
X216094819Y-70631904D01*
X216094819Y-70631904D02*
X216094819Y-70393809D01*
X216094819Y-70393809D02*
X216142438Y-70298571D01*
X216142438Y-70298571D02*
X216190057Y-70250952D01*
X216190057Y-70250952D02*
X216285295Y-70203333D01*
X216285295Y-70203333D02*
X216380533Y-70203333D01*
X216380533Y-70203333D02*
X216523390Y-70250952D01*
X216523390Y-70250952D02*
X217094819Y-70822380D01*
X217094819Y-70822380D02*
X217094819Y-70203333D01*
X209576133Y-94758170D02*
X209623752Y-94805789D01*
X209623752Y-94805789D02*
X209671371Y-94901027D01*
X209671371Y-94901027D02*
X209576133Y-95091503D01*
X209576133Y-95091503D02*
X209623752Y-95186741D01*
X209623752Y-95186741D02*
X209671371Y-95234360D01*
D10*
X191679666Y-99500664D02*
X191679666Y-99633997D01*
X191679666Y-99633997D02*
X191646333Y-99700664D01*
X191646333Y-99700664D02*
X191579666Y-99767330D01*
X191579666Y-99767330D02*
X191446333Y-99800664D01*
X191446333Y-99800664D02*
X191213000Y-99800664D01*
X191213000Y-99800664D02*
X191079666Y-99767330D01*
X191079666Y-99767330D02*
X191013000Y-99700664D01*
X191013000Y-99700664D02*
X190979666Y-99633997D01*
X190979666Y-99633997D02*
X190979666Y-99500664D01*
X190979666Y-99500664D02*
X191013000Y-99433997D01*
X191013000Y-99433997D02*
X191079666Y-99367330D01*
X191079666Y-99367330D02*
X191213000Y-99333997D01*
X191213000Y-99333997D02*
X191446333Y-99333997D01*
X191446333Y-99333997D02*
X191579666Y-99367330D01*
X191579666Y-99367330D02*
X191646333Y-99433997D01*
X191646333Y-99433997D02*
X191679666Y-99500664D01*
X191679666Y-100100663D02*
X191113000Y-100100663D01*
X191113000Y-100100663D02*
X191046333Y-100133997D01*
X191046333Y-100133997D02*
X191013000Y-100167330D01*
X191013000Y-100167330D02*
X190979666Y-100233997D01*
X190979666Y-100233997D02*
X190979666Y-100367330D01*
X190979666Y-100367330D02*
X191013000Y-100433997D01*
X191013000Y-100433997D02*
X191046333Y-100467330D01*
X191046333Y-100467330D02*
X191113000Y-100500663D01*
X191113000Y-100500663D02*
X191679666Y-100500663D01*
X191679666Y-100733996D02*
X191679666Y-101133996D01*
X190979666Y-100933996D02*
X191679666Y-100933996D01*
X191595533Y-92012397D02*
X191628866Y-91945730D01*
X191628866Y-91945730D02*
X191628866Y-91845730D01*
X191628866Y-91845730D02*
X191595533Y-91745730D01*
X191595533Y-91745730D02*
X191528866Y-91679064D01*
X191528866Y-91679064D02*
X191462200Y-91645730D01*
X191462200Y-91645730D02*
X191328866Y-91612397D01*
X191328866Y-91612397D02*
X191228866Y-91612397D01*
X191228866Y-91612397D02*
X191095533Y-91645730D01*
X191095533Y-91645730D02*
X191028866Y-91679064D01*
X191028866Y-91679064D02*
X190962200Y-91745730D01*
X190962200Y-91745730D02*
X190928866Y-91845730D01*
X190928866Y-91845730D02*
X190928866Y-91912397D01*
X190928866Y-91912397D02*
X190962200Y-92012397D01*
X190962200Y-92012397D02*
X190995533Y-92045730D01*
X190995533Y-92045730D02*
X191228866Y-92045730D01*
X191228866Y-92045730D02*
X191228866Y-91912397D01*
X190928866Y-92345730D02*
X191628866Y-92345730D01*
X191628866Y-92345730D02*
X190928866Y-92745730D01*
X190928866Y-92745730D02*
X191628866Y-92745730D01*
X190928866Y-93079063D02*
X191628866Y-93079063D01*
X191628866Y-93079063D02*
X191628866Y-93245730D01*
X191628866Y-93245730D02*
X191595533Y-93345730D01*
X191595533Y-93345730D02*
X191528866Y-93412397D01*
X191528866Y-93412397D02*
X191462200Y-93445730D01*
X191462200Y-93445730D02*
X191328866Y-93479063D01*
X191328866Y-93479063D02*
X191228866Y-93479063D01*
X191228866Y-93479063D02*
X191095533Y-93445730D01*
X191095533Y-93445730D02*
X191028866Y-93412397D01*
X191028866Y-93412397D02*
X190962200Y-93345730D01*
X190962200Y-93345730D02*
X190928866Y-93245730D01*
X190928866Y-93245730D02*
X190928866Y-93079063D01*
D11*
X207695180Y-92472456D02*
X208695180Y-92472456D01*
X208695180Y-92472456D02*
X208695180Y-92710551D01*
X208695180Y-92710551D02*
X208647561Y-92853408D01*
X208647561Y-92853408D02*
X208552323Y-92948646D01*
X208552323Y-92948646D02*
X208457085Y-92996265D01*
X208457085Y-92996265D02*
X208266609Y-93043884D01*
X208266609Y-93043884D02*
X208123752Y-93043884D01*
X208123752Y-93043884D02*
X207933276Y-92996265D01*
X207933276Y-92996265D02*
X207838038Y-92948646D01*
X207838038Y-92948646D02*
X207742800Y-92853408D01*
X207742800Y-92853408D02*
X207695180Y-92710551D01*
X207695180Y-92710551D02*
X207695180Y-92472456D01*
X208218990Y-93805789D02*
X208218990Y-93472456D01*
X207695180Y-93472456D02*
X208695180Y-93472456D01*
X208695180Y-93472456D02*
X208695180Y-93948646D01*
X207695180Y-94901027D02*
X208171371Y-94567694D01*
X207695180Y-94329599D02*
X208695180Y-94329599D01*
X208695180Y-94329599D02*
X208695180Y-94710551D01*
X208695180Y-94710551D02*
X208647561Y-94805789D01*
X208647561Y-94805789D02*
X208599942Y-94853408D01*
X208599942Y-94853408D02*
X208504704Y-94901027D01*
X208504704Y-94901027D02*
X208361847Y-94901027D01*
X208361847Y-94901027D02*
X208266609Y-94853408D01*
X208266609Y-94853408D02*
X208218990Y-94805789D01*
X208218990Y-94805789D02*
X208171371Y-94710551D01*
X208171371Y-94710551D02*
X208171371Y-94329599D01*
X207599942Y-95091504D02*
X207599942Y-95853408D01*
X207790419Y-96662932D02*
X207742800Y-96615313D01*
X207742800Y-96615313D02*
X207695180Y-96472456D01*
X207695180Y-96472456D02*
X207695180Y-96377218D01*
X207695180Y-96377218D02*
X207742800Y-96234361D01*
X207742800Y-96234361D02*
X207838038Y-96139123D01*
X207838038Y-96139123D02*
X207933276Y-96091504D01*
X207933276Y-96091504D02*
X208123752Y-96043885D01*
X208123752Y-96043885D02*
X208266609Y-96043885D01*
X208266609Y-96043885D02*
X208457085Y-96091504D01*
X208457085Y-96091504D02*
X208552323Y-96139123D01*
X208552323Y-96139123D02*
X208647561Y-96234361D01*
X208647561Y-96234361D02*
X208695180Y-96377218D01*
X208695180Y-96377218D02*
X208695180Y-96472456D01*
X208695180Y-96472456D02*
X208647561Y-96615313D01*
X208647561Y-96615313D02*
X208599942Y-96662932D01*
X207695180Y-97615313D02*
X207695180Y-97043885D01*
X207695180Y-97329599D02*
X208695180Y-97329599D01*
X208695180Y-97329599D02*
X208552323Y-97234361D01*
X208552323Y-97234361D02*
X208457085Y-97139123D01*
X208457085Y-97139123D02*
X208409466Y-97043885D01*
D10*
X190979666Y-94992130D02*
X191313000Y-94758797D01*
X190979666Y-94592130D02*
X191679666Y-94592130D01*
X191679666Y-94592130D02*
X191679666Y-94858797D01*
X191679666Y-94858797D02*
X191646333Y-94925464D01*
X191646333Y-94925464D02*
X191613000Y-94958797D01*
X191613000Y-94958797D02*
X191546333Y-94992130D01*
X191546333Y-94992130D02*
X191446333Y-94992130D01*
X191446333Y-94992130D02*
X191379666Y-94958797D01*
X191379666Y-94958797D02*
X191346333Y-94925464D01*
X191346333Y-94925464D02*
X191313000Y-94858797D01*
X191313000Y-94858797D02*
X191313000Y-94592130D01*
X191679666Y-95225464D02*
X190979666Y-95692130D01*
X191679666Y-95692130D02*
X190979666Y-95225464D01*
X191603466Y-89183530D02*
X190903466Y-89416864D01*
X190903466Y-89416864D02*
X191603466Y-89650197D01*
X190903466Y-89883530D02*
X191603466Y-89883530D01*
X190903466Y-90216863D02*
X191603466Y-90216863D01*
X191603466Y-90216863D02*
X190903466Y-90616863D01*
X190903466Y-90616863D02*
X191603466Y-90616863D01*
X191679666Y-97082930D02*
X191679666Y-97482930D01*
X190979666Y-97282930D02*
X191679666Y-97282930D01*
X191679666Y-97649597D02*
X190979666Y-98116263D01*
X191679666Y-98116263D02*
X190979666Y-97649597D01*
X196428490Y-117333333D02*
X196452300Y-117357142D01*
X196452300Y-117357142D02*
X196476109Y-117428571D01*
X196476109Y-117428571D02*
X196476109Y-117476190D01*
X196476109Y-117476190D02*
X196452300Y-117547618D01*
X196452300Y-117547618D02*
X196404680Y-117595237D01*
X196404680Y-117595237D02*
X196357061Y-117619047D01*
X196357061Y-117619047D02*
X196261823Y-117642856D01*
X196261823Y-117642856D02*
X196190395Y-117642856D01*
X196190395Y-117642856D02*
X196095157Y-117619047D01*
X196095157Y-117619047D02*
X196047538Y-117595237D01*
X196047538Y-117595237D02*
X195999919Y-117547618D01*
X195999919Y-117547618D02*
X195976109Y-117476190D01*
X195976109Y-117476190D02*
X195976109Y-117428571D01*
X195976109Y-117428571D02*
X195999919Y-117357142D01*
X195999919Y-117357142D02*
X196023728Y-117333333D01*
X195976109Y-116904761D02*
X195976109Y-116999999D01*
X195976109Y-116999999D02*
X195999919Y-117047618D01*
X195999919Y-117047618D02*
X196023728Y-117071428D01*
X196023728Y-117071428D02*
X196095157Y-117119047D01*
X196095157Y-117119047D02*
X196190395Y-117142856D01*
X196190395Y-117142856D02*
X196380871Y-117142856D01*
X196380871Y-117142856D02*
X196428490Y-117119047D01*
X196428490Y-117119047D02*
X196452300Y-117095237D01*
X196452300Y-117095237D02*
X196476109Y-117047618D01*
X196476109Y-117047618D02*
X196476109Y-116952380D01*
X196476109Y-116952380D02*
X196452300Y-116904761D01*
X196452300Y-116904761D02*
X196428490Y-116880952D01*
X196428490Y-116880952D02*
X196380871Y-116857142D01*
X196380871Y-116857142D02*
X196261823Y-116857142D01*
X196261823Y-116857142D02*
X196214204Y-116880952D01*
X196214204Y-116880952D02*
X196190395Y-116904761D01*
X196190395Y-116904761D02*
X196166585Y-116952380D01*
X196166585Y-116952380D02*
X196166585Y-117047618D01*
X196166585Y-117047618D02*
X196190395Y-117095237D01*
X196190395Y-117095237D02*
X196214204Y-117119047D01*
X196214204Y-117119047D02*
X196261823Y-117142856D01*
X194214895Y-70333332D02*
X193833942Y-70599999D01*
X194214895Y-70790475D02*
X193414895Y-70790475D01*
X193414895Y-70790475D02*
X193414895Y-70485713D01*
X193414895Y-70485713D02*
X193452990Y-70409523D01*
X193452990Y-70409523D02*
X193491085Y-70371428D01*
X193491085Y-70371428D02*
X193567276Y-70333332D01*
X193567276Y-70333332D02*
X193681561Y-70333332D01*
X193681561Y-70333332D02*
X193757752Y-70371428D01*
X193757752Y-70371428D02*
X193795847Y-70409523D01*
X193795847Y-70409523D02*
X193833942Y-70485713D01*
X193833942Y-70485713D02*
X193833942Y-70790475D01*
X193757752Y-69876190D02*
X193719657Y-69952380D01*
X193719657Y-69952380D02*
X193681561Y-69990475D01*
X193681561Y-69990475D02*
X193605371Y-70028571D01*
X193605371Y-70028571D02*
X193567276Y-70028571D01*
X193567276Y-70028571D02*
X193491085Y-69990475D01*
X193491085Y-69990475D02*
X193452990Y-69952380D01*
X193452990Y-69952380D02*
X193414895Y-69876190D01*
X193414895Y-69876190D02*
X193414895Y-69723809D01*
X193414895Y-69723809D02*
X193452990Y-69647618D01*
X193452990Y-69647618D02*
X193491085Y-69609523D01*
X193491085Y-69609523D02*
X193567276Y-69571428D01*
X193567276Y-69571428D02*
X193605371Y-69571428D01*
X193605371Y-69571428D02*
X193681561Y-69609523D01*
X193681561Y-69609523D02*
X193719657Y-69647618D01*
X193719657Y-69647618D02*
X193757752Y-69723809D01*
X193757752Y-69723809D02*
X193757752Y-69876190D01*
X193757752Y-69876190D02*
X193795847Y-69952380D01*
X193795847Y-69952380D02*
X193833942Y-69990475D01*
X193833942Y-69990475D02*
X193910133Y-70028571D01*
X193910133Y-70028571D02*
X194062514Y-70028571D01*
X194062514Y-70028571D02*
X194138704Y-69990475D01*
X194138704Y-69990475D02*
X194176800Y-69952380D01*
X194176800Y-69952380D02*
X194214895Y-69876190D01*
X194214895Y-69876190D02*
X194214895Y-69723809D01*
X194214895Y-69723809D02*
X194176800Y-69647618D01*
X194176800Y-69647618D02*
X194138704Y-69609523D01*
X194138704Y-69609523D02*
X194062514Y-69571428D01*
X194062514Y-69571428D02*
X193910133Y-69571428D01*
X193910133Y-69571428D02*
X193833942Y-69609523D01*
X193833942Y-69609523D02*
X193795847Y-69647618D01*
X193795847Y-69647618D02*
X193757752Y-69723809D01*
D11*
X180577319Y-104621904D02*
X181386842Y-104621904D01*
X181386842Y-104621904D02*
X181482080Y-104574285D01*
X181482080Y-104574285D02*
X181529700Y-104526666D01*
X181529700Y-104526666D02*
X181577319Y-104431428D01*
X181577319Y-104431428D02*
X181577319Y-104240952D01*
X181577319Y-104240952D02*
X181529700Y-104145714D01*
X181529700Y-104145714D02*
X181482080Y-104098095D01*
X181482080Y-104098095D02*
X181386842Y-104050476D01*
X181386842Y-104050476D02*
X180577319Y-104050476D01*
X180577319Y-103669523D02*
X180577319Y-103050476D01*
X180577319Y-103050476D02*
X180958271Y-103383809D01*
X180958271Y-103383809D02*
X180958271Y-103240952D01*
X180958271Y-103240952D02*
X181005890Y-103145714D01*
X181005890Y-103145714D02*
X181053509Y-103098095D01*
X181053509Y-103098095D02*
X181148747Y-103050476D01*
X181148747Y-103050476D02*
X181386842Y-103050476D01*
X181386842Y-103050476D02*
X181482080Y-103098095D01*
X181482080Y-103098095D02*
X181529700Y-103145714D01*
X181529700Y-103145714D02*
X181577319Y-103240952D01*
X181577319Y-103240952D02*
X181577319Y-103526666D01*
X181577319Y-103526666D02*
X181529700Y-103621904D01*
X181529700Y-103621904D02*
X181482080Y-103669523D01*
D10*
X193945847Y-111916666D02*
X193945847Y-112183332D01*
X194364895Y-112183332D02*
X193564895Y-112183332D01*
X193564895Y-112183332D02*
X193564895Y-111802380D01*
X193945847Y-111230952D02*
X193983942Y-111116666D01*
X193983942Y-111116666D02*
X194022038Y-111078571D01*
X194022038Y-111078571D02*
X194098228Y-111040475D01*
X194098228Y-111040475D02*
X194212514Y-111040475D01*
X194212514Y-111040475D02*
X194288704Y-111078571D01*
X194288704Y-111078571D02*
X194326800Y-111116666D01*
X194326800Y-111116666D02*
X194364895Y-111192856D01*
X194364895Y-111192856D02*
X194364895Y-111497618D01*
X194364895Y-111497618D02*
X193564895Y-111497618D01*
X193564895Y-111497618D02*
X193564895Y-111230952D01*
X193564895Y-111230952D02*
X193602990Y-111154761D01*
X193602990Y-111154761D02*
X193641085Y-111116666D01*
X193641085Y-111116666D02*
X193717276Y-111078571D01*
X193717276Y-111078571D02*
X193793466Y-111078571D01*
X193793466Y-111078571D02*
X193869657Y-111116666D01*
X193869657Y-111116666D02*
X193907752Y-111154761D01*
X193907752Y-111154761D02*
X193945847Y-111230952D01*
X193945847Y-111230952D02*
X193945847Y-111497618D01*
X194364895Y-110278571D02*
X194364895Y-110735714D01*
X194364895Y-110507142D02*
X193564895Y-110507142D01*
X193564895Y-110507142D02*
X193679180Y-110583333D01*
X193679180Y-110583333D02*
X193755371Y-110659523D01*
X193755371Y-110659523D02*
X193793466Y-110735714D01*
D11*
X226679580Y-81166666D02*
X226727200Y-81214285D01*
X226727200Y-81214285D02*
X226774819Y-81357142D01*
X226774819Y-81357142D02*
X226774819Y-81452380D01*
X226774819Y-81452380D02*
X226727200Y-81595237D01*
X226727200Y-81595237D02*
X226631961Y-81690475D01*
X226631961Y-81690475D02*
X226536723Y-81738094D01*
X226536723Y-81738094D02*
X226346247Y-81785713D01*
X226346247Y-81785713D02*
X226203390Y-81785713D01*
X226203390Y-81785713D02*
X226012914Y-81738094D01*
X226012914Y-81738094D02*
X225917676Y-81690475D01*
X225917676Y-81690475D02*
X225822438Y-81595237D01*
X225822438Y-81595237D02*
X225774819Y-81452380D01*
X225774819Y-81452380D02*
X225774819Y-81357142D01*
X225774819Y-81357142D02*
X225822438Y-81214285D01*
X225822438Y-81214285D02*
X225870057Y-81166666D01*
X226203390Y-80595237D02*
X226155771Y-80690475D01*
X226155771Y-80690475D02*
X226108152Y-80738094D01*
X226108152Y-80738094D02*
X226012914Y-80785713D01*
X226012914Y-80785713D02*
X225965295Y-80785713D01*
X225965295Y-80785713D02*
X225870057Y-80738094D01*
X225870057Y-80738094D02*
X225822438Y-80690475D01*
X225822438Y-80690475D02*
X225774819Y-80595237D01*
X225774819Y-80595237D02*
X225774819Y-80404761D01*
X225774819Y-80404761D02*
X225822438Y-80309523D01*
X225822438Y-80309523D02*
X225870057Y-80261904D01*
X225870057Y-80261904D02*
X225965295Y-80214285D01*
X225965295Y-80214285D02*
X226012914Y-80214285D01*
X226012914Y-80214285D02*
X226108152Y-80261904D01*
X226108152Y-80261904D02*
X226155771Y-80309523D01*
X226155771Y-80309523D02*
X226203390Y-80404761D01*
X226203390Y-80404761D02*
X226203390Y-80595237D01*
X226203390Y-80595237D02*
X226251009Y-80690475D01*
X226251009Y-80690475D02*
X226298628Y-80738094D01*
X226298628Y-80738094D02*
X226393866Y-80785713D01*
X226393866Y-80785713D02*
X226584342Y-80785713D01*
X226584342Y-80785713D02*
X226679580Y-80738094D01*
X226679580Y-80738094D02*
X226727200Y-80690475D01*
X226727200Y-80690475D02*
X226774819Y-80595237D01*
X226774819Y-80595237D02*
X226774819Y-80404761D01*
X226774819Y-80404761D02*
X226727200Y-80309523D01*
X226727200Y-80309523D02*
X226679580Y-80261904D01*
X226679580Y-80261904D02*
X226584342Y-80214285D01*
X226584342Y-80214285D02*
X226393866Y-80214285D01*
X226393866Y-80214285D02*
X226298628Y-80261904D01*
X226298628Y-80261904D02*
X226251009Y-80309523D01*
X226251009Y-80309523D02*
X226203390Y-80404761D01*
D16*
%TO.C,D3*%
X228080000Y-99100000D02*
X229440000Y-99100000D01*
X228080000Y-99900000D02*
X229440000Y-99900000D01*
X229440000Y-99900000D02*
X229440000Y-99100000D01*
%TO.C,R10*%
X181570000Y-90815121D02*
X181570000Y-90479879D01*
X182330000Y-90815121D02*
X182330000Y-90479879D01*
%TO.C,D4*%
X221100000Y-107000000D02*
X221100000Y-108360000D01*
X221100000Y-108360000D02*
X221900000Y-108360000D01*
X221900000Y-107000000D02*
X221900000Y-108360000D01*
%TO.C,U1*%
X204240000Y-110200000D02*
X204240000Y-109400000D01*
X204240000Y-110200000D02*
X204240000Y-111000000D01*
X207360000Y-110200000D02*
X207360000Y-109400000D01*
X207360000Y-110200000D02*
X207360000Y-111000000D01*
X204290000Y-111500000D02*
X203960000Y-111740000D01*
X203960000Y-111260000D01*
X204290000Y-111500000D01*
G36*
X204290000Y-111500000D02*
G01*
X203960000Y-111740000D01*
X203960000Y-111260000D01*
X204290000Y-111500000D01*
G37*
%TO.C,C1*%
X190090000Y-62153733D02*
X190090000Y-62446267D01*
X191110000Y-62153733D02*
X191110000Y-62446267D01*
%TO.C,SW1*%
X223250000Y-98000000D02*
X226550000Y-98000000D01*
X223250000Y-98300000D02*
X223250000Y-98000000D01*
X223250000Y-100500000D02*
X223250000Y-100800000D01*
X223250000Y-100800000D02*
X226550000Y-100800000D01*
X226550000Y-98000000D02*
X226550000Y-98300000D01*
X226550000Y-100800000D02*
X226550000Y-100500000D01*
%TO.C,SW2*%
X223550000Y-105600000D02*
X223550000Y-105900000D01*
X223550000Y-108400000D02*
X223550000Y-108100000D01*
X226850000Y-105600000D02*
X223550000Y-105600000D01*
X226850000Y-105900000D02*
X226850000Y-105600000D01*
X226850000Y-108100000D02*
X226850000Y-108400000D01*
X226850000Y-108400000D02*
X223550000Y-108400000D01*
%TO.C,C4*%
X227865000Y-103061252D02*
X227865000Y-102538748D01*
X229335000Y-103061252D02*
X229335000Y-102538748D01*
%TO.C,R6*%
X224167621Y-81620000D02*
X223832379Y-81620000D01*
X224167621Y-82380000D02*
X223832379Y-82380000D01*
%TO.C,R4*%
X213870000Y-111267621D02*
X213870000Y-110932379D01*
X214630000Y-111267621D02*
X214630000Y-110932379D01*
%TO.C,R7*%
X189220000Y-70784879D02*
X189220000Y-71120121D01*
X189980000Y-70784879D02*
X189980000Y-71120121D01*
%TO.C,R5*%
X216720000Y-111215121D02*
X216720000Y-110879879D01*
X217480000Y-111215121D02*
X217480000Y-110879879D01*
%TO.C,D5*%
X227600000Y-84000000D02*
X227600000Y-82640000D01*
X228400000Y-82640000D02*
X227600000Y-82640000D01*
X228400000Y-84000000D02*
X228400000Y-82640000D01*
%TO.C,J3*%
X180465000Y-69410000D02*
X180465000Y-73290000D01*
X182435000Y-68240000D02*
X184935000Y-68240000D01*
X182435000Y-74460000D02*
X184935000Y-74460000D01*
X184935000Y-68240000D02*
X184935000Y-69290000D01*
X184935000Y-69290000D02*
X185925000Y-69290000D01*
X184935000Y-74460000D02*
X184935000Y-73410000D01*
D17*
%TO.C,MK1*%
X183775000Y-89139000D02*
X183775000Y-92639000D01*
X183775000Y-92639000D02*
X186425000Y-92639000D01*
X186425000Y-89139000D02*
X183775000Y-89139000D01*
X186425000Y-92639000D02*
X186425000Y-89139000D01*
D18*
X183462500Y-89539000D02*
G75*
G02*
X183262500Y-89539000I-100000J0D01*
G01*
X183262500Y-89539000D02*
G75*
G02*
X183462500Y-89539000I100000J0D01*
G01*
D16*
%TO.C,D2*%
X185765000Y-76650000D02*
X185765000Y-78935000D01*
X185765000Y-78935000D02*
X187235000Y-78935000D01*
X187235000Y-78935000D02*
X187235000Y-76650000D01*
%TO.C,C9*%
X188690000Y-90803733D02*
X188690000Y-91096267D01*
X189710000Y-90803733D02*
X189710000Y-91096267D01*
%TO.C,D6*%
X219110000Y-118110000D02*
X215090000Y-118110000D01*
X215090000Y-115390000D01*
X215390000Y-115090000D01*
X219110000Y-115090000D01*
X219110000Y-118110000D01*
%TO.C,R12*%
X220320000Y-115467621D02*
X220320000Y-115132379D01*
X221080000Y-115467621D02*
X221080000Y-115132379D01*
%TO.C,R9*%
X213270121Y-116920000D02*
X212934879Y-116920000D01*
X213270121Y-117680000D02*
X212934879Y-117680000D01*
%TO.C,D1*%
X197190000Y-113250000D02*
X197190000Y-116110000D01*
X197190000Y-116110000D02*
X199110000Y-116110000D01*
X199110000Y-116110000D02*
X199110000Y-113250000D01*
%TO.C,SW3*%
X222490000Y-86390000D02*
X222490000Y-86910000D01*
X222490000Y-93590000D02*
X222490000Y-94110000D01*
X223000000Y-86390000D02*
X222490000Y-86390000D01*
X223000000Y-86910000D02*
X222490000Y-86910000D01*
X223000000Y-93590000D02*
X222490000Y-93590000D01*
X223000000Y-94110000D02*
X222490000Y-94110000D01*
X225830000Y-86910000D02*
X225600000Y-86910000D01*
X225830000Y-86910000D02*
X225830000Y-87450000D01*
X225830000Y-88550000D02*
X225830000Y-91950000D01*
X225830000Y-93050000D02*
X225830000Y-93590000D01*
X225830000Y-93590000D02*
X225600000Y-93590000D01*
X227700000Y-86390000D02*
X225600000Y-86390000D01*
X227700000Y-94110000D02*
X225600000Y-94110000D01*
%TO.C,F1*%
X200502064Y-109690000D02*
X199297936Y-109690000D01*
X200502064Y-111510000D02*
X199297936Y-111510000D01*
%TO.C,U2*%
X195800000Y-53940000D02*
X195800000Y-60140000D01*
X195800000Y-53940000D02*
X214200000Y-53940000D01*
X195800000Y-78790000D02*
X195800000Y-79790000D01*
X195800000Y-79790000D02*
X197300000Y-79790000D01*
X214200000Y-53940000D02*
X214200000Y-60140000D01*
X214200000Y-79790000D02*
X212700000Y-79790000D01*
X214200000Y-79790000D02*
X214200000Y-78790000D01*
X195800000Y-60815000D02*
X195300000Y-60815000D01*
X195800000Y-60315000D01*
X195800000Y-60815000D01*
G36*
X195800000Y-60815000D02*
G01*
X195300000Y-60815000D01*
X195800000Y-60315000D01*
X195800000Y-60815000D01*
G37*
%TO.C,U4*%
X188525000Y-82190000D02*
X186025000Y-82190000D01*
X188525000Y-84910000D02*
X186025000Y-84910000D01*
X188925000Y-84880000D02*
X188925000Y-84600000D01*
X189205000Y-84600000D01*
X188925000Y-84880000D01*
G36*
X188925000Y-84880000D02*
G01*
X188925000Y-84600000D01*
X189205000Y-84600000D01*
X188925000Y-84880000D01*
G37*
%TO.C,C5*%
X182890000Y-83601665D02*
X182890000Y-83833335D01*
X183610000Y-83601665D02*
X183610000Y-83833335D01*
%TO.C,R2*%
X225070121Y-101620000D02*
X224734879Y-101620000D01*
X225070121Y-102380000D02*
X224734879Y-102380000D01*
%TO.C,C2*%
X192890000Y-62084165D02*
X192890000Y-62315835D01*
X193610000Y-62084165D02*
X193610000Y-62315835D01*
%TO.C,R1*%
X183170000Y-77667621D02*
X183170000Y-77332379D01*
X183930000Y-77667621D02*
X183930000Y-77332379D01*
%TO.C,C7*%
X190915000Y-116938748D02*
X190915000Y-117461252D01*
X192385000Y-116938748D02*
X192385000Y-117461252D01*
%TO.C,C3*%
X208990000Y-110051665D02*
X208990000Y-110283335D01*
X209710000Y-110051665D02*
X209710000Y-110283335D01*
%TO.C,R3*%
X200532379Y-80620000D02*
X200867621Y-80620000D01*
X200532379Y-81380000D02*
X200867621Y-81380000D01*
%TO.C,J1*%
X201130000Y-117580000D02*
X201130000Y-115880000D01*
X210470000Y-117580000D02*
X210470000Y-115880000D01*
%TO.C,R11*%
X220834879Y-116970000D02*
X221170121Y-116970000D01*
X220834879Y-117730000D02*
X221170121Y-117730000D01*
%TO.C,J2*%
X217640000Y-68220000D02*
X225480000Y-68220000D01*
X217640000Y-70870000D02*
X217640000Y-68220000D01*
X217640000Y-73520000D02*
X217640000Y-72140000D01*
X219020000Y-73520000D02*
X217640000Y-73520000D01*
X220290000Y-70870000D02*
X217640000Y-70870000D01*
X220290000Y-73520000D02*
X220290000Y-70870000D01*
X220290000Y-73520000D02*
X225480000Y-73520000D01*
X225480000Y-73520000D02*
X225480000Y-68220000D01*
D10*
%TO.C,DFR_C1*%
X190650000Y-81750000D02*
X220650000Y-81750000D01*
X190650000Y-107750000D02*
X190650000Y-81750000D01*
X220650000Y-81750000D02*
X220650000Y-107750000D01*
X220650000Y-107750000D02*
X190650000Y-107750000D01*
D19*
%TO.C,G\u002A\u002A\u002A*%
G36*
X227848095Y-71979409D02*
G01*
X227895377Y-72029834D01*
X227982888Y-72182249D01*
X227983435Y-72325037D01*
X227941360Y-72423866D01*
X227812788Y-72581556D01*
X227657239Y-72644761D01*
X227484903Y-72611277D01*
X227379734Y-72545477D01*
X227270704Y-72405492D01*
X227251354Y-72242090D01*
X227322063Y-72077293D01*
X227370701Y-72020800D01*
X227530482Y-71916931D01*
X227696954Y-71903261D01*
X227848095Y-71979409D01*
G37*
G36*
X227595060Y-70526871D02*
G01*
X227654192Y-70547517D01*
X227805197Y-70658781D01*
X227905847Y-70827928D01*
X227947834Y-71023484D01*
X227922848Y-71213974D01*
X227860325Y-71328358D01*
X227685266Y-71479558D01*
X227487165Y-71545129D01*
X227286750Y-71523114D01*
X227104744Y-71411558D01*
X227093582Y-71400698D01*
X226978401Y-71227390D01*
X226945360Y-71040006D01*
X226982539Y-70856687D01*
X227078018Y-70695574D01*
X227219878Y-70574807D01*
X227396198Y-70512526D01*
X227595060Y-70526871D01*
G37*
G36*
X227579803Y-68846010D02*
G01*
X227760251Y-68976618D01*
X227894176Y-69155429D01*
X227968240Y-69369504D01*
X227969107Y-69605902D01*
X227889615Y-69840081D01*
X227726020Y-70056420D01*
X227512806Y-70192450D01*
X227267338Y-70242382D01*
X227006976Y-70200425D01*
X226917927Y-70164095D01*
X226723348Y-70022281D01*
X226596712Y-69827966D01*
X226538440Y-69602678D01*
X226548953Y-69367943D01*
X226628672Y-69145291D01*
X226778017Y-68956247D01*
X226892689Y-68872812D01*
X227132685Y-68781167D01*
X227366169Y-68776547D01*
X227579803Y-68846010D01*
G37*
G36*
X228865854Y-68705241D02*
G01*
X228900873Y-68779414D01*
X228900986Y-68785582D01*
X228928825Y-68889180D01*
X229021422Y-68955730D01*
X229192399Y-68992546D01*
X229303293Y-69001636D01*
X229464997Y-69016464D01*
X229551292Y-69044152D01*
X229586927Y-69094799D01*
X229591955Y-69119419D01*
X229588603Y-69218968D01*
X229571081Y-69257190D01*
X229507596Y-69273619D01*
X229370074Y-69286018D01*
X229184653Y-69292314D01*
X229123440Y-69292703D01*
X228886056Y-69284829D01*
X228738860Y-69258370D01*
X228672872Y-69209068D01*
X228679111Y-69132665D01*
X228700629Y-69092248D01*
X228710446Y-68998868D01*
X228686483Y-68938038D01*
X228659653Y-68839488D01*
X228697215Y-68770735D01*
X228788271Y-68701641D01*
X228865854Y-68705241D01*
G37*
G36*
X229564132Y-70659710D02*
G01*
X229597204Y-70722198D01*
X229602366Y-70818948D01*
X229576053Y-70970071D01*
X229505463Y-71044392D01*
X229398786Y-71075237D01*
X229239918Y-71093809D01*
X229160132Y-71096253D01*
X228986847Y-71108645D01*
X228897610Y-71148231D01*
X228882869Y-71171401D01*
X228815916Y-71238046D01*
X228777311Y-71246549D01*
X228709887Y-71207146D01*
X228700591Y-71171401D01*
X228656855Y-71111076D01*
X228571860Y-71096253D01*
X228478028Y-71079898D01*
X228455983Y-71013876D01*
X228459138Y-70983531D01*
X228516189Y-70882249D01*
X228587869Y-70854800D01*
X228682108Y-70805174D01*
X228700591Y-70742078D01*
X228737694Y-70660844D01*
X228800788Y-70645365D01*
X228884089Y-70680338D01*
X228900986Y-70748308D01*
X228912299Y-70810046D01*
X228963242Y-70837268D01*
X229079317Y-70839370D01*
X229138954Y-70835980D01*
X229286699Y-70819066D01*
X229356292Y-70786734D01*
X229369964Y-70733038D01*
X229398832Y-70662471D01*
X229482686Y-70645365D01*
X229564132Y-70659710D01*
G37*
G36*
X229201577Y-69872510D02*
G01*
X229205888Y-70032363D01*
X229223570Y-70113490D01*
X229261744Y-70137165D01*
X229289250Y-70134406D01*
X229345569Y-70099482D01*
X229372048Y-70007963D01*
X229377420Y-69883917D01*
X229388017Y-69704093D01*
X229421599Y-69615939D01*
X229482312Y-69612716D01*
X229526008Y-69642388D01*
X229588087Y-69750652D01*
X229607687Y-69910494D01*
X229587149Y-70083878D01*
X229528812Y-70232770D01*
X229486415Y-70285942D01*
X229337683Y-70366702D01*
X229144724Y-70397272D01*
X228983312Y-70379819D01*
X228950798Y-70376303D01*
X228804815Y-70307200D01*
X228695836Y-70165029D01*
X228661244Y-69998754D01*
X228666371Y-69972144D01*
X228863625Y-69972144D01*
X228901515Y-70069869D01*
X228983312Y-70138282D01*
X229034082Y-70111918D01*
X229051281Y-69994083D01*
X229029622Y-69875845D01*
X228974561Y-69843788D01*
X228891847Y-69882647D01*
X228863625Y-69972144D01*
X228666371Y-69972144D01*
X228693029Y-69833783D01*
X228783181Y-69695525D01*
X228923689Y-69609389D01*
X229029868Y-69593294D01*
X229201577Y-69593294D01*
X229201577Y-69872510D01*
G37*
G36*
X229135801Y-71451290D02*
G01*
X229181235Y-71480665D01*
X229198697Y-71559571D01*
X229201576Y-71712511D01*
X229201577Y-71726159D01*
X229205890Y-71886016D01*
X229223574Y-71967148D01*
X229261753Y-71990831D01*
X229289250Y-71988081D01*
X229346327Y-71952340D01*
X229372088Y-71858834D01*
X229376146Y-71746439D01*
X229391593Y-71570148D01*
X229437881Y-71482777D01*
X229512645Y-71487833D01*
X229538063Y-71506042D01*
X229580115Y-71593057D01*
X229598226Y-71738141D01*
X229592757Y-71902155D01*
X229564071Y-72045964D01*
X229532464Y-72110972D01*
X229390827Y-72222121D01*
X229204676Y-72270329D01*
X229006541Y-72256712D01*
X228983312Y-72246991D01*
X228828953Y-72182391D01*
X228725796Y-72083244D01*
X228659140Y-71913176D01*
X228666436Y-71825793D01*
X228863625Y-71825793D01*
X228901515Y-71923518D01*
X228983312Y-71991930D01*
X229034082Y-71965567D01*
X229051281Y-71847732D01*
X229029622Y-71729494D01*
X228974561Y-71697436D01*
X228891847Y-71736296D01*
X228863625Y-71825793D01*
X228666436Y-71825793D01*
X228673696Y-71738849D01*
X228756386Y-71586005D01*
X228894137Y-71480385D01*
X229049004Y-71446943D01*
X229135801Y-71451290D01*
G37*
G36*
X229141238Y-74210137D02*
G01*
X229188953Y-74299403D01*
X229201577Y-74474953D01*
X229213382Y-74670469D01*
X229248871Y-74768785D01*
X229308154Y-74770085D01*
X229352556Y-74727580D01*
X229391562Y-74607826D01*
X229382108Y-74448951D01*
X229366004Y-74320672D01*
X229380383Y-74265419D01*
X229436187Y-74257943D01*
X229463421Y-74261352D01*
X229531489Y-74283524D01*
X229568764Y-74342662D01*
X229587363Y-74464957D01*
X229592448Y-74540204D01*
X229594230Y-74708107D01*
X229567683Y-74817487D01*
X229501361Y-74908587D01*
X229482004Y-74928468D01*
X229310288Y-75035892D01*
X229113045Y-75058898D01*
X228963609Y-75012620D01*
X228917407Y-74998312D01*
X228796935Y-74907602D01*
X228687129Y-74741119D01*
X228670694Y-74628206D01*
X228875936Y-74628206D01*
X228913939Y-74716842D01*
X228963609Y-74743915D01*
X229030058Y-74730531D01*
X229051130Y-74641900D01*
X229051281Y-74628206D01*
X229033971Y-74531043D01*
X228972683Y-74510978D01*
X228963609Y-74512496D01*
X228891468Y-74569226D01*
X228875936Y-74628206D01*
X228670694Y-74628206D01*
X228661337Y-74563926D01*
X228716264Y-74400672D01*
X228848613Y-74276004D01*
X228883818Y-74257991D01*
X229044253Y-74199560D01*
X229141238Y-74210137D01*
G37*
G36*
X228675853Y-75311746D02*
G01*
X228988498Y-75392959D01*
X229253662Y-75538072D01*
X229454551Y-75742237D01*
X229490371Y-75797842D01*
X229549105Y-75905570D01*
X229589213Y-76008205D01*
X229615054Y-76129607D01*
X229630991Y-76293635D01*
X229641385Y-76524151D01*
X229645081Y-76644275D01*
X229650526Y-76913303D01*
X229647835Y-77097237D01*
X229635817Y-77210939D01*
X229613282Y-77269272D01*
X229593848Y-77284021D01*
X229525534Y-77291092D01*
X229372358Y-77296249D01*
X229149641Y-77299325D01*
X228872705Y-77300156D01*
X228556870Y-77298575D01*
X228456119Y-77297536D01*
X228398866Y-77296946D01*
X227272780Y-77283433D01*
X227258303Y-76814510D01*
X227258560Y-76807496D01*
X227648520Y-76807496D01*
X228456119Y-76807496D01*
X229263719Y-76807496D01*
X229241802Y-76504496D01*
X229219770Y-76315822D01*
X229177546Y-76188339D01*
X229100551Y-76083196D01*
X229072960Y-76054648D01*
X228884886Y-75928956D01*
X228645293Y-75856588D01*
X228384759Y-75838475D01*
X228133858Y-75875548D01*
X227923167Y-75968736D01*
X227861363Y-76017777D01*
X227749960Y-76178731D01*
X227675212Y-76402210D01*
X227648800Y-76644675D01*
X227648520Y-76807496D01*
X227258560Y-76807496D01*
X227274436Y-76374589D01*
X227351458Y-76008077D01*
X227488231Y-75717285D01*
X227683614Y-75504525D01*
X227936468Y-75372108D01*
X227975291Y-75360416D01*
X228332519Y-75299282D01*
X228675853Y-75311746D01*
G37*
G36*
X229298371Y-72559410D02*
G01*
X229457601Y-72571394D01*
X229540950Y-72593767D01*
X229572715Y-72638721D01*
X229577317Y-72699409D01*
X229571217Y-72766068D01*
X229538131Y-72805026D01*
X229455879Y-72825470D01*
X229302280Y-72836587D01*
X229239151Y-72839469D01*
X229033575Y-72856829D01*
X228923444Y-72887214D01*
X228900986Y-72917122D01*
X228940015Y-73016606D01*
X229060926Y-73076631D01*
X229269452Y-73099752D01*
X229311794Y-73100198D01*
X229474914Y-73103069D01*
X229561774Y-73118554D01*
X229596287Y-73156960D01*
X229602366Y-73225444D01*
X229595583Y-73296008D01*
X229559228Y-73333534D01*
X229469292Y-73348527D01*
X229314299Y-73351458D01*
X229086541Y-73364034D01*
X228952151Y-73401634D01*
X228906978Y-73466270D01*
X228931244Y-73537135D01*
X228996128Y-73592899D01*
X229119413Y-73625908D01*
X229294459Y-73641149D01*
X229463773Y-73652258D01*
X229556081Y-73671615D01*
X229594555Y-73709589D01*
X229602364Y-73776544D01*
X229602366Y-73778920D01*
X229598402Y-73837516D01*
X229573538Y-73873697D01*
X229508315Y-73892867D01*
X229383276Y-73900425D01*
X229178964Y-73901774D01*
X229159828Y-73901776D01*
X228958494Y-73898412D01*
X228797267Y-73889423D01*
X228700913Y-73876461D01*
X228685654Y-73870139D01*
X228679873Y-73806044D01*
X228700531Y-73751592D01*
X228717371Y-73620643D01*
X228687853Y-73507867D01*
X228654638Y-73388011D01*
X228675332Y-73309980D01*
X228709330Y-73270383D01*
X228760215Y-73205213D01*
X228755199Y-73137714D01*
X228709815Y-73050002D01*
X228658737Y-72928570D01*
X228672254Y-72820403D01*
X228689545Y-72778795D01*
X228791618Y-72651465D01*
X228961965Y-72578444D01*
X229209389Y-72556561D01*
X229298371Y-72559410D01*
G37*
D16*
%TO.C,C6*%
X194115000Y-116888748D02*
X194115000Y-117411252D01*
X195585000Y-116888748D02*
X195585000Y-117411252D01*
%TO.C,R8*%
X192270000Y-70782379D02*
X192270000Y-71117621D01*
X193030000Y-70782379D02*
X193030000Y-71117621D01*
%TO.C,U3*%
X182172500Y-100750000D02*
X182172500Y-107170000D01*
X182172500Y-107170000D02*
X182442500Y-107170000D01*
X189072500Y-100750000D02*
X189072500Y-107170000D01*
X189072500Y-107170000D02*
X188802500Y-107170000D01*
X182482500Y-108900000D02*
X182012500Y-109240000D01*
X182012500Y-108560000D01*
X182482500Y-108900000D01*
G36*
X182482500Y-108900000D02*
G01*
X182012500Y-109240000D01*
X182012500Y-108560000D01*
X182482500Y-108900000D01*
G37*
%TO.C,FB1*%
X194740000Y-110862878D02*
X194740000Y-111662122D01*
X195860000Y-110862878D02*
X195860000Y-111662122D01*
%TO.C,C8*%
X227265000Y-81261252D02*
X227265000Y-80738748D01*
X228735000Y-81261252D02*
X228735000Y-80738748D01*
%TD*%
M02*
