%TF.GenerationSoftware,KiCad,Pcbnew,9.0.4*%
%TF.CreationDate,2025-09-29T13:15:33+05:30*%
%TF.ProjectId,ESP32_Project_1,45535033-325f-4507-926f-6a6563745f31,rev?*%
%TF.SameCoordinates,Original*%
%TF.FileFunction,Copper,L3,Inr*%
%TF.FilePolarity,Positive*%
%FSLAX46Y46*%
G04 Gerber Fmt 4.6, Leading zero omitted, Abs format (unit mm)*
G04 Created by KiCad (PCBNEW 9.0.4) date 2025-09-29 13:15:33*
%MOMM*%
%LPD*%
G01*
G04 APERTURE LIST*
%TA.AperFunction,ComponentPad*%
%ADD10C,2.100000*%
%TD*%
%TA.AperFunction,ComponentPad*%
%ADD11C,1.750000*%
%TD*%
%TA.AperFunction,HeatsinkPad*%
%ADD12C,0.600000*%
%TD*%
%TA.AperFunction,HeatsinkPad*%
%ADD13O,1.000000X2.100000*%
%TD*%
%TA.AperFunction,HeatsinkPad*%
%ADD14O,1.000000X1.800000*%
%TD*%
%TA.AperFunction,ComponentPad*%
%ADD15R,1.700000X1.700000*%
%TD*%
%TA.AperFunction,ComponentPad*%
%ADD16C,1.700000*%
%TD*%
%TA.AperFunction,ComponentPad*%
%ADD17C,2.000000*%
%TD*%
%TA.AperFunction,ViaPad*%
%ADD18C,0.600000*%
%TD*%
G04 APERTURE END LIST*
D10*
%TO.N,*%
%TO.C,SW3*%
X224310000Y-86750000D03*
X224310000Y-93760000D03*
D11*
%TO.N,GND*%
X226800000Y-88000000D03*
%TO.N,/USER_SW*%
X226800000Y-92500000D03*
%TD*%
D12*
%TO.N,GND*%
%TO.C,U2*%
X202100000Y-68600000D03*
X202100000Y-70000000D03*
X202800000Y-67900000D03*
X202800000Y-69300000D03*
X202800000Y-70700000D03*
X203500000Y-68600000D03*
X203500000Y-70000000D03*
X204200000Y-67900000D03*
X204200000Y-69300000D03*
X204200000Y-70700000D03*
X204900000Y-68600000D03*
X204900000Y-70000000D03*
%TD*%
D13*
%TO.N,GND*%
%TO.C,J1*%
X201480000Y-114575000D03*
D14*
X201480000Y-118755000D03*
D13*
X210120000Y-114575000D03*
D14*
X210120000Y-118755000D03*
%TD*%
D15*
%TO.N,/ESP_EN*%
%TO.C,J2*%
X219020000Y-72140000D03*
D16*
%TO.N,+3.3V*%
X219020000Y-69600000D03*
%TO.N,/ESP_TXD*%
X221560000Y-72140000D03*
%TO.N,GND*%
X221560000Y-69600000D03*
%TO.N,/ESP_RXD*%
X224100000Y-72140000D03*
%TO.N,/ESP_IO0*%
X224100000Y-69600000D03*
%TD*%
D17*
%TO.N,+3.3V*%
%TO.C,DFR_C1*%
X192870000Y-89940075D03*
%TO.N,GND*%
X192870000Y-92480075D03*
%TO.N,/C4001_RX*%
X192870000Y-95020075D03*
%TO.N,/C4001_TX*%
X192870000Y-97560075D03*
%TO.N,unconnected-(DFR_C1-OUT-Pad5)*%
X192870000Y-100100075D03*
%TD*%
D18*
%TO.N,+3.3V*%
X183600000Y-70850000D03*
X190600000Y-64750000D03*
X215100000Y-114350000D03*
X223400000Y-80700000D03*
X183550000Y-79650000D03*
X202550000Y-81000000D03*
X223000000Y-102000000D03*
X183250000Y-81850000D03*
X189000000Y-116250000D03*
X189600000Y-69400000D03*
X192650000Y-69400000D03*
%TO.N,GND*%
X229050000Y-83100000D03*
X183600000Y-69850000D03*
X202534314Y-112965686D03*
X183250000Y-85300000D03*
X205792992Y-112595552D03*
X214250000Y-109200000D03*
X194750000Y-61100000D03*
X189150000Y-61500000D03*
X185100000Y-83800000D03*
X217100000Y-109250000D03*
X209250000Y-112650000D03*
X229000000Y-100500000D03*
X228000000Y-79500000D03*
%TO.N,+5V*%
X209350000Y-108250000D03*
X198200000Y-116600000D03*
%TO.N,/ESP_EN*%
X208351000Y-63449000D03*
X225500000Y-103000000D03*
%TO.N,/USER_SW*%
X211700000Y-84300000D03*
X219200000Y-84300000D03*
%TO.N,/C4001_TX*%
X197550000Y-74300000D03*
X192400000Y-83400000D03*
%TO.N,/C4001_RX*%
X198250000Y-73050000D03*
X193950000Y-82600000D03*
%TO.N,Net-(F1-Pad1)*%
X208100000Y-112600000D03*
X203400000Y-112750000D03*
%TO.N,/CC1*%
X212750000Y-111800000D03*
X204550000Y-116100000D03*
%TO.N,/ESP_RXD*%
X216900000Y-66700000D03*
%TO.N,/SDA*%
X190800000Y-71550000D03*
X191850000Y-74100000D03*
%TO.N,/SCL*%
X200100000Y-71550000D03*
X188450000Y-80300000D03*
X194150000Y-71500000D03*
%TO.N,/MIC_SD*%
X194850000Y-72150000D03*
X187000000Y-88250000D03*
X183050000Y-90100000D03*
X183250000Y-88750000D03*
%TO.N,/MIC_SCK*%
X187350000Y-91200000D03*
X211500000Y-64050000D03*
%TO.N,/MIC_WS*%
X200750000Y-65400000D03*
X189600000Y-87250000D03*
%TO.N,/R_LED*%
X211900000Y-71700000D03*
X212500000Y-116000000D03*
%TO.N,/G_LED*%
X211200000Y-70500000D03*
X221700000Y-115200000D03*
%TO.N,/B_LED*%
X220700000Y-112000000D03*
X210500000Y-69200000D03*
%TD*%
%TA.AperFunction,Conductor*%
%TO.N,+3.3V*%
G36*
X194476082Y-60519407D02*
G01*
X194512046Y-60568907D01*
X194512046Y-60630093D01*
X194476082Y-60679593D01*
X194467397Y-60685232D01*
X194454320Y-60692782D01*
X194442687Y-60699499D01*
X194349496Y-60792690D01*
X194283609Y-60906809D01*
X194264539Y-60977978D01*
X194249500Y-61034108D01*
X194249500Y-61165892D01*
X194274089Y-61257659D01*
X194283609Y-61293190D01*
X194349496Y-61407309D01*
X194349498Y-61407311D01*
X194349500Y-61407314D01*
X194442686Y-61500500D01*
X194442688Y-61500501D01*
X194442690Y-61500503D01*
X194556810Y-61566390D01*
X194556808Y-61566390D01*
X194556812Y-61566391D01*
X194556814Y-61566392D01*
X194684108Y-61600500D01*
X194684110Y-61600500D01*
X194815890Y-61600500D01*
X194815892Y-61600500D01*
X194943186Y-61566392D01*
X194943188Y-61566390D01*
X194943190Y-61566390D01*
X195057309Y-61500503D01*
X195057309Y-61500502D01*
X195057314Y-61500500D01*
X195150500Y-61407314D01*
X195208527Y-61306809D01*
X195216390Y-61293190D01*
X195216390Y-61293188D01*
X195216392Y-61293186D01*
X195250500Y-61165892D01*
X195250500Y-61034108D01*
X195216392Y-60906814D01*
X195216390Y-60906811D01*
X195216390Y-60906809D01*
X195150503Y-60792690D01*
X195150501Y-60792688D01*
X195150500Y-60792686D01*
X195057314Y-60699500D01*
X195032608Y-60685236D01*
X194991668Y-60639767D01*
X194985272Y-60578917D01*
X195015865Y-60525929D01*
X195071760Y-60501042D01*
X195082109Y-60500500D01*
X227934108Y-60500500D01*
X227997564Y-60500500D01*
X228002421Y-60500619D01*
X228031158Y-60502030D01*
X228338173Y-60517113D01*
X228347815Y-60518063D01*
X228677915Y-60567029D01*
X228687421Y-60568919D01*
X229011144Y-60650008D01*
X229020415Y-60652820D01*
X229334625Y-60765246D01*
X229343594Y-60768961D01*
X229645263Y-60911640D01*
X229653823Y-60916216D01*
X229940042Y-61087769D01*
X229948118Y-61093165D01*
X229959972Y-61101956D01*
X229995450Y-61151805D01*
X230000000Y-61181475D01*
X230000000Y-119718525D01*
X229981093Y-119776716D01*
X229959975Y-119798041D01*
X229948120Y-119806833D01*
X229940049Y-119812226D01*
X229653826Y-119983781D01*
X229645273Y-119988354D01*
X229642413Y-119989707D01*
X229640761Y-119990488D01*
X229598420Y-120000000D01*
X210408190Y-120000000D01*
X210349999Y-119981093D01*
X210314035Y-119931593D01*
X210314035Y-119870407D01*
X210349999Y-119820907D01*
X210370305Y-119809536D01*
X210451806Y-119775777D01*
X210451805Y-119775777D01*
X210451811Y-119775775D01*
X210566542Y-119699114D01*
X210664114Y-119601542D01*
X210740775Y-119486811D01*
X210793580Y-119359328D01*
X210820500Y-119223993D01*
X210820500Y-118286007D01*
X210793580Y-118150672D01*
X210740775Y-118023189D01*
X210740774Y-118023187D01*
X210740771Y-118023182D01*
X210664114Y-117908458D01*
X210566541Y-117810885D01*
X210451817Y-117734228D01*
X210451806Y-117734222D01*
X210324328Y-117681420D01*
X210188995Y-117654500D01*
X210188993Y-117654500D01*
X210051007Y-117654500D01*
X210051004Y-117654500D01*
X209915672Y-117681420D01*
X209915670Y-117681420D01*
X209788193Y-117734222D01*
X209788182Y-117734228D01*
X209673458Y-117810885D01*
X209575885Y-117908458D01*
X209499228Y-118023182D01*
X209499222Y-118023193D01*
X209446420Y-118150670D01*
X209446420Y-118150672D01*
X209419500Y-118286004D01*
X209419500Y-119223995D01*
X209446420Y-119359327D01*
X209446420Y-119359329D01*
X209499222Y-119486806D01*
X209499228Y-119486817D01*
X209575885Y-119601541D01*
X209673458Y-119699114D01*
X209788182Y-119775771D01*
X209788193Y-119775777D01*
X209869695Y-119809536D01*
X209916221Y-119849272D01*
X209930505Y-119908767D01*
X209907090Y-119965295D01*
X209854921Y-119997265D01*
X209831810Y-120000000D01*
X201768190Y-120000000D01*
X201709999Y-119981093D01*
X201674035Y-119931593D01*
X201674035Y-119870407D01*
X201709999Y-119820907D01*
X201730305Y-119809536D01*
X201811806Y-119775777D01*
X201811805Y-119775777D01*
X201811811Y-119775775D01*
X201926542Y-119699114D01*
X202024114Y-119601542D01*
X202100775Y-119486811D01*
X202153580Y-119359328D01*
X202180500Y-119223993D01*
X202180500Y-118286007D01*
X202153580Y-118150672D01*
X202100775Y-118023189D01*
X202100774Y-118023187D01*
X202100771Y-118023182D01*
X202024114Y-117908458D01*
X201926541Y-117810885D01*
X201811817Y-117734228D01*
X201811806Y-117734222D01*
X201684328Y-117681420D01*
X201548995Y-117654500D01*
X201548993Y-117654500D01*
X201411007Y-117654500D01*
X201411004Y-117654500D01*
X201275672Y-117681420D01*
X201275670Y-117681420D01*
X201148193Y-117734222D01*
X201148182Y-117734228D01*
X201033458Y-117810885D01*
X200935885Y-117908458D01*
X200859228Y-118023182D01*
X200859222Y-118023193D01*
X200806420Y-118150670D01*
X200806420Y-118150672D01*
X200779500Y-118286004D01*
X200779500Y-119223995D01*
X200806420Y-119359327D01*
X200806420Y-119359329D01*
X200859222Y-119486806D01*
X200859228Y-119486817D01*
X200935885Y-119601541D01*
X201033458Y-119699114D01*
X201148182Y-119775771D01*
X201148193Y-119775777D01*
X201229695Y-119809536D01*
X201276221Y-119849272D01*
X201290505Y-119908767D01*
X201267090Y-119965295D01*
X201214921Y-119997265D01*
X201191810Y-120000000D01*
X180401580Y-120000000D01*
X180359245Y-119990491D01*
X180354734Y-119988357D01*
X180346173Y-119983781D01*
X180059950Y-119812226D01*
X180051874Y-119806830D01*
X180040024Y-119798041D01*
X180004549Y-119748190D01*
X180000000Y-119718525D01*
X180000000Y-115881987D01*
X182199500Y-115881987D01*
X182199500Y-116118012D01*
X182205803Y-116165890D01*
X182224421Y-116307309D01*
X182230306Y-116352006D01*
X182230306Y-116352011D01*
X182291393Y-116579992D01*
X182381713Y-116798044D01*
X182381716Y-116798049D01*
X182440577Y-116900000D01*
X182499729Y-117002453D01*
X182643402Y-117189692D01*
X182643404Y-117189694D01*
X182643408Y-117189699D01*
X182810301Y-117356592D01*
X182810305Y-117356595D01*
X182810307Y-117356597D01*
X182981546Y-117487993D01*
X182997550Y-117500273D01*
X183201951Y-117618284D01*
X183201952Y-117618284D01*
X183201955Y-117618286D01*
X183354374Y-117681420D01*
X183420007Y-117708606D01*
X183647986Y-117769693D01*
X183881989Y-117800500D01*
X183881990Y-117800500D01*
X184118010Y-117800500D01*
X184118011Y-117800500D01*
X184352014Y-117769693D01*
X184579993Y-117708606D01*
X184798049Y-117618284D01*
X185002450Y-117500273D01*
X185189699Y-117356592D01*
X185356592Y-117189699D01*
X185500273Y-117002450D01*
X185618284Y-116798049D01*
X185708606Y-116579993D01*
X185720901Y-116534108D01*
X197699500Y-116534108D01*
X197699500Y-116665892D01*
X197710465Y-116706814D01*
X197733609Y-116793190D01*
X197799496Y-116907309D01*
X197799498Y-116907311D01*
X197799500Y-116907314D01*
X197892686Y-117000500D01*
X197892688Y-117000501D01*
X197892690Y-117000503D01*
X198006810Y-117066390D01*
X198006808Y-117066390D01*
X198006812Y-117066391D01*
X198006814Y-117066392D01*
X198134108Y-117100500D01*
X198134110Y-117100500D01*
X198265890Y-117100500D01*
X198265892Y-117100500D01*
X198393186Y-117066392D01*
X198393188Y-117066390D01*
X198393190Y-117066390D01*
X198507309Y-117000503D01*
X198507309Y-117000502D01*
X198507314Y-117000500D01*
X198600500Y-116907314D01*
X198642766Y-116834108D01*
X198666390Y-116793190D01*
X198666390Y-116793188D01*
X198666392Y-116793186D01*
X198700500Y-116665892D01*
X198700500Y-116534108D01*
X198666392Y-116406814D01*
X198666390Y-116406811D01*
X198666390Y-116406809D01*
X198600503Y-116292690D01*
X198600501Y-116292688D01*
X198600500Y-116292686D01*
X198507314Y-116199500D01*
X198507311Y-116199498D01*
X198507309Y-116199496D01*
X198393189Y-116133609D01*
X198393191Y-116133609D01*
X198378722Y-116129732D01*
X198265892Y-116099500D01*
X198134108Y-116099500D01*
X198065020Y-116118012D01*
X198006809Y-116133609D01*
X197892690Y-116199496D01*
X197799496Y-116292690D01*
X197733609Y-116406809D01*
X197717645Y-116466390D01*
X197699500Y-116534108D01*
X185720901Y-116534108D01*
X185769693Y-116352014D01*
X185800500Y-116118011D01*
X185800500Y-116034108D01*
X204049500Y-116034108D01*
X204049500Y-116165892D01*
X204079579Y-116278151D01*
X204083609Y-116293190D01*
X204149496Y-116407309D01*
X204149498Y-116407311D01*
X204149500Y-116407314D01*
X204242686Y-116500500D01*
X204242688Y-116500501D01*
X204242690Y-116500503D01*
X204356810Y-116566390D01*
X204356808Y-116566390D01*
X204356812Y-116566391D01*
X204356814Y-116566392D01*
X204484108Y-116600500D01*
X204484110Y-116600500D01*
X204615890Y-116600500D01*
X204615892Y-116600500D01*
X204743186Y-116566392D01*
X204743188Y-116566390D01*
X204743190Y-116566390D01*
X204857309Y-116500503D01*
X204857309Y-116500502D01*
X204857314Y-116500500D01*
X204950500Y-116407314D01*
X204954434Y-116400500D01*
X205016390Y-116293190D01*
X205016390Y-116293188D01*
X205016392Y-116293186D01*
X205050500Y-116165892D01*
X205050500Y-116034108D01*
X205023705Y-115934108D01*
X211999500Y-115934108D01*
X211999500Y-116065892D01*
X212014868Y-116123246D01*
X212033609Y-116193190D01*
X212099496Y-116307309D01*
X212099498Y-116307311D01*
X212099500Y-116307314D01*
X212192686Y-116400500D01*
X212192688Y-116400501D01*
X212192690Y-116400503D01*
X212306810Y-116466390D01*
X212306808Y-116466390D01*
X212306812Y-116466391D01*
X212306814Y-116466392D01*
X212434108Y-116500500D01*
X212434110Y-116500500D01*
X212565890Y-116500500D01*
X212565892Y-116500500D01*
X212693186Y-116466392D01*
X212693188Y-116466390D01*
X212693190Y-116466390D01*
X212807309Y-116400503D01*
X212807309Y-116400502D01*
X212807314Y-116400500D01*
X212900500Y-116307314D01*
X212966392Y-116193186D01*
X213000500Y-116065892D01*
X213000500Y-115934108D01*
X212986534Y-115881987D01*
X224199500Y-115881987D01*
X224199500Y-116118012D01*
X224205803Y-116165890D01*
X224224421Y-116307309D01*
X224230306Y-116352006D01*
X224230306Y-116352011D01*
X224291393Y-116579992D01*
X224381713Y-116798044D01*
X224381716Y-116798049D01*
X224440577Y-116900000D01*
X224499729Y-117002453D01*
X224643402Y-117189692D01*
X224643404Y-117189694D01*
X224643408Y-117189699D01*
X224810301Y-117356592D01*
X224810305Y-117356595D01*
X224810307Y-117356597D01*
X224981546Y-117487993D01*
X224997550Y-117500273D01*
X225201951Y-117618284D01*
X225201952Y-117618284D01*
X225201955Y-117618286D01*
X225354374Y-117681420D01*
X225420007Y-117708606D01*
X225647986Y-117769693D01*
X225881989Y-117800500D01*
X225881990Y-117800500D01*
X226118010Y-117800500D01*
X226118011Y-117800500D01*
X226352014Y-117769693D01*
X226579993Y-117708606D01*
X226798049Y-117618284D01*
X227002450Y-117500273D01*
X227189699Y-117356592D01*
X227356592Y-117189699D01*
X227500273Y-117002450D01*
X227618284Y-116798049D01*
X227708606Y-116579993D01*
X227769693Y-116352014D01*
X227800500Y-116118011D01*
X227800500Y-115881989D01*
X227769693Y-115647986D01*
X227708606Y-115420007D01*
X227671046Y-115329329D01*
X227618286Y-115201955D01*
X227618284Y-115201951D01*
X227500273Y-114997550D01*
X227356592Y-114810301D01*
X227189699Y-114643408D01*
X227189694Y-114643404D01*
X227189692Y-114643402D01*
X227002453Y-114499729D01*
X226798044Y-114381713D01*
X226579992Y-114291393D01*
X226424277Y-114249670D01*
X226352014Y-114230307D01*
X226352011Y-114230306D01*
X226352009Y-114230306D01*
X226118012Y-114199500D01*
X226118011Y-114199500D01*
X225881989Y-114199500D01*
X225881987Y-114199500D01*
X225647993Y-114230306D01*
X225647988Y-114230306D01*
X225420007Y-114291393D01*
X225201955Y-114381713D01*
X224997546Y-114499729D01*
X224810307Y-114643402D01*
X224643402Y-114810307D01*
X224499729Y-114997546D01*
X224381713Y-115201955D01*
X224291393Y-115420007D01*
X224230306Y-115647988D01*
X224230306Y-115647993D01*
X224199500Y-115881987D01*
X212986534Y-115881987D01*
X212966392Y-115806814D01*
X212966390Y-115806811D01*
X212966390Y-115806809D01*
X212900503Y-115692690D01*
X212900501Y-115692688D01*
X212900500Y-115692686D01*
X212807314Y-115599500D01*
X212807311Y-115599498D01*
X212807309Y-115599496D01*
X212693189Y-115533609D01*
X212693191Y-115533609D01*
X212643799Y-115520375D01*
X212565892Y-115499500D01*
X212434108Y-115499500D01*
X212356200Y-115520375D01*
X212306809Y-115533609D01*
X212192690Y-115599496D01*
X212099496Y-115692690D01*
X212033609Y-115806809D01*
X212033608Y-115806814D01*
X211999500Y-115934108D01*
X205023705Y-115934108D01*
X205016392Y-115906814D01*
X205016390Y-115906811D01*
X205016390Y-115906809D01*
X204950503Y-115792690D01*
X204950501Y-115792688D01*
X204950500Y-115792686D01*
X204857314Y-115699500D01*
X204857311Y-115699498D01*
X204857309Y-115699496D01*
X204743189Y-115633609D01*
X204743191Y-115633609D01*
X204693799Y-115620375D01*
X204615892Y-115599500D01*
X204484108Y-115599500D01*
X204406200Y-115620375D01*
X204356809Y-115633609D01*
X204242690Y-115699496D01*
X204149496Y-115792690D01*
X204083609Y-115906809D01*
X204076294Y-115934109D01*
X204049500Y-116034108D01*
X185800500Y-116034108D01*
X185800500Y-115881989D01*
X185769693Y-115647986D01*
X185708606Y-115420007D01*
X185671046Y-115329329D01*
X185618286Y-115201955D01*
X185618284Y-115201951D01*
X185500273Y-114997550D01*
X185356592Y-114810301D01*
X185189699Y-114643408D01*
X185189694Y-114643404D01*
X185189692Y-114643402D01*
X185002453Y-114499729D01*
X184798044Y-114381713D01*
X184579992Y-114291393D01*
X184424277Y-114249670D01*
X184352014Y-114230307D01*
X184352011Y-114230306D01*
X184352009Y-114230306D01*
X184118012Y-114199500D01*
X184118011Y-114199500D01*
X183881989Y-114199500D01*
X183881987Y-114199500D01*
X183647993Y-114230306D01*
X183647988Y-114230306D01*
X183420007Y-114291393D01*
X183201955Y-114381713D01*
X182997546Y-114499729D01*
X182810307Y-114643402D01*
X182643402Y-114810307D01*
X182499729Y-114997546D01*
X182381713Y-115201955D01*
X182291393Y-115420007D01*
X182230306Y-115647988D01*
X182230306Y-115647993D01*
X182199500Y-115881987D01*
X180000000Y-115881987D01*
X180000000Y-113956004D01*
X200779500Y-113956004D01*
X200779500Y-115193995D01*
X200806420Y-115329327D01*
X200806420Y-115329329D01*
X200859222Y-115456806D01*
X200859228Y-115456817D01*
X200935885Y-115571541D01*
X201033458Y-115669114D01*
X201148182Y-115745771D01*
X201148193Y-115745777D01*
X201195283Y-115765282D01*
X201275672Y-115798580D01*
X201411007Y-115825500D01*
X201411008Y-115825500D01*
X201548992Y-115825500D01*
X201548993Y-115825500D01*
X201684328Y-115798580D01*
X201811811Y-115745775D01*
X201926542Y-115669114D01*
X202024114Y-115571542D01*
X202100775Y-115456811D01*
X202153580Y-115329328D01*
X202180500Y-115193993D01*
X202180500Y-115005817D01*
X202384500Y-115005817D01*
X202384500Y-115144183D01*
X202420312Y-115277836D01*
X202489495Y-115397665D01*
X202587335Y-115495505D01*
X202707164Y-115564688D01*
X202840817Y-115600500D01*
X202840819Y-115600500D01*
X202979181Y-115600500D01*
X202979183Y-115600500D01*
X203112836Y-115564688D01*
X203232665Y-115495505D01*
X203330505Y-115397665D01*
X203399688Y-115277836D01*
X203435500Y-115144183D01*
X203435500Y-115005817D01*
X208164500Y-115005817D01*
X208164500Y-115144183D01*
X208200312Y-115277836D01*
X208269495Y-115397665D01*
X208367335Y-115495505D01*
X208487164Y-115564688D01*
X208620817Y-115600500D01*
X208620819Y-115600500D01*
X208759181Y-115600500D01*
X208759183Y-115600500D01*
X208892836Y-115564688D01*
X209012665Y-115495505D01*
X209110505Y-115397665D01*
X209179688Y-115277836D01*
X209215500Y-115144183D01*
X209215500Y-115005817D01*
X209179688Y-114872164D01*
X209110505Y-114752335D01*
X209012665Y-114654495D01*
X208892836Y-114585312D01*
X208759183Y-114549500D01*
X208620817Y-114549500D01*
X208487164Y-114585312D01*
X208367335Y-114654495D01*
X208269495Y-114752335D01*
X208200312Y-114872164D01*
X208164500Y-115005817D01*
X203435500Y-115005817D01*
X203399688Y-114872164D01*
X203330505Y-114752335D01*
X203232665Y-114654495D01*
X203112836Y-114585312D01*
X202979183Y-114549500D01*
X202840817Y-114549500D01*
X202707164Y-114585312D01*
X202587335Y-114654495D01*
X202489495Y-114752335D01*
X202420312Y-114872164D01*
X202384500Y-115005817D01*
X202180500Y-115005817D01*
X202180500Y-113956007D01*
X202180499Y-113956004D01*
X209419500Y-113956004D01*
X209419500Y-115193995D01*
X209446420Y-115329327D01*
X209446420Y-115329329D01*
X209499222Y-115456806D01*
X209499228Y-115456817D01*
X209575885Y-115571541D01*
X209673458Y-115669114D01*
X209788182Y-115745771D01*
X209788193Y-115745777D01*
X209835283Y-115765282D01*
X209915672Y-115798580D01*
X210051007Y-115825500D01*
X210051008Y-115825500D01*
X210188992Y-115825500D01*
X210188993Y-115825500D01*
X210324328Y-115798580D01*
X210451811Y-115745775D01*
X210566542Y-115669114D01*
X210664114Y-115571542D01*
X210740775Y-115456811D01*
X210793580Y-115329328D01*
X210820500Y-115193993D01*
X210820500Y-115134108D01*
X221199500Y-115134108D01*
X221199500Y-115265892D01*
X221216498Y-115329329D01*
X221233609Y-115393190D01*
X221299496Y-115507309D01*
X221299498Y-115507311D01*
X221299500Y-115507314D01*
X221392686Y-115600500D01*
X221392688Y-115600501D01*
X221392690Y-115600503D01*
X221506810Y-115666390D01*
X221506808Y-115666390D01*
X221506812Y-115666391D01*
X221506814Y-115666392D01*
X221634108Y-115700500D01*
X221634110Y-115700500D01*
X221765890Y-115700500D01*
X221765892Y-115700500D01*
X221893186Y-115666392D01*
X221893188Y-115666390D01*
X221893190Y-115666390D01*
X222007309Y-115600503D01*
X222007309Y-115600502D01*
X222007314Y-115600500D01*
X222100500Y-115507314D01*
X222100503Y-115507309D01*
X222166390Y-115393190D01*
X222166390Y-115393188D01*
X222166392Y-115393186D01*
X222200500Y-115265892D01*
X222200500Y-115134108D01*
X222166392Y-115006814D01*
X222166390Y-115006811D01*
X222166390Y-115006809D01*
X222100503Y-114892690D01*
X222100501Y-114892688D01*
X222100500Y-114892686D01*
X222007314Y-114799500D01*
X222007311Y-114799498D01*
X222007309Y-114799496D01*
X221893189Y-114733609D01*
X221893191Y-114733609D01*
X221843799Y-114720375D01*
X221765892Y-114699500D01*
X221634108Y-114699500D01*
X221556200Y-114720375D01*
X221506809Y-114733609D01*
X221392690Y-114799496D01*
X221299496Y-114892690D01*
X221233609Y-115006809D01*
X221233608Y-115006814D01*
X221199500Y-115134108D01*
X210820500Y-115134108D01*
X210820500Y-113956007D01*
X210793580Y-113820672D01*
X210740775Y-113693189D01*
X210740774Y-113693187D01*
X210740771Y-113693182D01*
X210664114Y-113578458D01*
X210566541Y-113480885D01*
X210451817Y-113404228D01*
X210451806Y-113404222D01*
X210324328Y-113351420D01*
X210188995Y-113324500D01*
X210188993Y-113324500D01*
X210051007Y-113324500D01*
X210051004Y-113324500D01*
X209915672Y-113351420D01*
X209915670Y-113351420D01*
X209788193Y-113404222D01*
X209788182Y-113404228D01*
X209673458Y-113480885D01*
X209575885Y-113578458D01*
X209499228Y-113693182D01*
X209499222Y-113693193D01*
X209446420Y-113820670D01*
X209446420Y-113820672D01*
X209419500Y-113956004D01*
X202180499Y-113956004D01*
X202153580Y-113820672D01*
X202100775Y-113693189D01*
X202100774Y-113693187D01*
X202100771Y-113693182D01*
X202024114Y-113578458D01*
X201926541Y-113480885D01*
X201811817Y-113404228D01*
X201811806Y-113404222D01*
X201684328Y-113351420D01*
X201548995Y-113324500D01*
X201548993Y-113324500D01*
X201411007Y-113324500D01*
X201411004Y-113324500D01*
X201275672Y-113351420D01*
X201275670Y-113351420D01*
X201148193Y-113404222D01*
X201148182Y-113404228D01*
X201033458Y-113480885D01*
X200935885Y-113578458D01*
X200859228Y-113693182D01*
X200859222Y-113693193D01*
X200806420Y-113820670D01*
X200806420Y-113820672D01*
X200779500Y-113956004D01*
X180000000Y-113956004D01*
X180000000Y-112899794D01*
X202033814Y-112899794D01*
X202033814Y-113031578D01*
X202056539Y-113116390D01*
X202067923Y-113158876D01*
X202133810Y-113272995D01*
X202133812Y-113272997D01*
X202133814Y-113273000D01*
X202227000Y-113366186D01*
X202227002Y-113366187D01*
X202227004Y-113366189D01*
X202341124Y-113432076D01*
X202341122Y-113432076D01*
X202341126Y-113432077D01*
X202341128Y-113432078D01*
X202468422Y-113466186D01*
X202468424Y-113466186D01*
X202600204Y-113466186D01*
X202600206Y-113466186D01*
X202727500Y-113432078D01*
X202727502Y-113432076D01*
X202727504Y-113432076D01*
X202841623Y-113366189D01*
X202841623Y-113366188D01*
X202841628Y-113366186D01*
X202934814Y-113273000D01*
X202977826Y-113198500D01*
X203023294Y-113157560D01*
X203084145Y-113151164D01*
X203113062Y-113162265D01*
X203206810Y-113216390D01*
X203206808Y-113216390D01*
X203206812Y-113216391D01*
X203206814Y-113216392D01*
X203334108Y-113250500D01*
X203334110Y-113250500D01*
X203465890Y-113250500D01*
X203465892Y-113250500D01*
X203593186Y-113216392D01*
X203593188Y-113216390D01*
X203593190Y-113216390D01*
X203707309Y-113150503D01*
X203707309Y-113150502D01*
X203707314Y-113150500D01*
X203800500Y-113057314D01*
X203866392Y-112943186D01*
X203900500Y-112815892D01*
X203900500Y-112684108D01*
X203866392Y-112556814D01*
X203866390Y-112556811D01*
X203866390Y-112556809D01*
X203850715Y-112529660D01*
X205292492Y-112529660D01*
X205292492Y-112661444D01*
X205293684Y-112665892D01*
X205326601Y-112788742D01*
X205392488Y-112902861D01*
X205392490Y-112902863D01*
X205392492Y-112902866D01*
X205485678Y-112996052D01*
X205485680Y-112996053D01*
X205485682Y-112996055D01*
X205599802Y-113061942D01*
X205599800Y-113061942D01*
X205599804Y-113061943D01*
X205599806Y-113061944D01*
X205727100Y-113096052D01*
X205727102Y-113096052D01*
X205858882Y-113096052D01*
X205858884Y-113096052D01*
X205986178Y-113061944D01*
X205986180Y-113061942D01*
X205986182Y-113061942D01*
X206100301Y-112996055D01*
X206100301Y-112996054D01*
X206100306Y-112996052D01*
X206193492Y-112902866D01*
X206227946Y-112843190D01*
X206259382Y-112788742D01*
X206259382Y-112788740D01*
X206259384Y-112788738D01*
X206293492Y-112661444D01*
X206293492Y-112534108D01*
X207599500Y-112534108D01*
X207599500Y-112665892D01*
X207613576Y-112718424D01*
X207633609Y-112793190D01*
X207699496Y-112907309D01*
X207699498Y-112907311D01*
X207699500Y-112907314D01*
X207792686Y-113000500D01*
X207792688Y-113000501D01*
X207792690Y-113000503D01*
X207906810Y-113066390D01*
X207906808Y-113066390D01*
X207906812Y-113066391D01*
X207906814Y-113066392D01*
X208034108Y-113100500D01*
X208034110Y-113100500D01*
X208165890Y-113100500D01*
X208165892Y-113100500D01*
X208293186Y-113066392D01*
X208293188Y-113066390D01*
X208293190Y-113066390D01*
X208407309Y-113000503D01*
X208407309Y-113000502D01*
X208407314Y-113000500D01*
X208500500Y-112907314D01*
X208566392Y-112793186D01*
X208572674Y-112769737D01*
X208605997Y-112718424D01*
X208663118Y-112696496D01*
X208722219Y-112712331D01*
X208760725Y-112759880D01*
X208763925Y-112769729D01*
X208770212Y-112793190D01*
X208783609Y-112843190D01*
X208849496Y-112957309D01*
X208849498Y-112957311D01*
X208849500Y-112957314D01*
X208942686Y-113050500D01*
X208942688Y-113050501D01*
X208942690Y-113050503D01*
X209056810Y-113116390D01*
X209056808Y-113116390D01*
X209056812Y-113116391D01*
X209056814Y-113116392D01*
X209184108Y-113150500D01*
X209184110Y-113150500D01*
X209315890Y-113150500D01*
X209315892Y-113150500D01*
X209443186Y-113116392D01*
X209443188Y-113116390D01*
X209443190Y-113116390D01*
X209557309Y-113050503D01*
X209557309Y-113050502D01*
X209557314Y-113050500D01*
X209650500Y-112957314D01*
X209679368Y-112907314D01*
X209716390Y-112843190D01*
X209716390Y-112843188D01*
X209716392Y-112843186D01*
X209750500Y-112715892D01*
X209750500Y-112584108D01*
X209716392Y-112456814D01*
X209716390Y-112456810D01*
X209716390Y-112456809D01*
X209650503Y-112342690D01*
X209650501Y-112342688D01*
X209650500Y-112342686D01*
X209557314Y-112249500D01*
X209557311Y-112249498D01*
X209557309Y-112249496D01*
X209443189Y-112183609D01*
X209443191Y-112183609D01*
X209393799Y-112170375D01*
X209315892Y-112149500D01*
X209184108Y-112149500D01*
X209106200Y-112170375D01*
X209056809Y-112183609D01*
X208942690Y-112249496D01*
X208849496Y-112342690D01*
X208783609Y-112456810D01*
X208783608Y-112456813D01*
X208777324Y-112480264D01*
X208743999Y-112531578D01*
X208686877Y-112553503D01*
X208627777Y-112537666D01*
X208589273Y-112490116D01*
X208586076Y-112480276D01*
X208566392Y-112406814D01*
X208563821Y-112402361D01*
X208500503Y-112292690D01*
X208500501Y-112292688D01*
X208500500Y-112292686D01*
X208407314Y-112199500D01*
X208407311Y-112199498D01*
X208407309Y-112199496D01*
X208293189Y-112133609D01*
X208293191Y-112133609D01*
X208243799Y-112120375D01*
X208165892Y-112099500D01*
X208034108Y-112099500D01*
X207956200Y-112120375D01*
X207906809Y-112133609D01*
X207792690Y-112199496D01*
X207699496Y-112292690D01*
X207633609Y-112406809D01*
X207633608Y-112406814D01*
X207599500Y-112534108D01*
X206293492Y-112534108D01*
X206293492Y-112529660D01*
X206259384Y-112402366D01*
X206259382Y-112402363D01*
X206259382Y-112402361D01*
X206193495Y-112288242D01*
X206193493Y-112288240D01*
X206193492Y-112288238D01*
X206100306Y-112195052D01*
X206100303Y-112195050D01*
X206100301Y-112195048D01*
X205986181Y-112129161D01*
X205986183Y-112129161D01*
X205936791Y-112115927D01*
X205858884Y-112095052D01*
X205727100Y-112095052D01*
X205649192Y-112115927D01*
X205599801Y-112129161D01*
X205485682Y-112195048D01*
X205392488Y-112288242D01*
X205326601Y-112402361D01*
X205325409Y-112406810D01*
X205292492Y-112529660D01*
X203850715Y-112529660D01*
X203800503Y-112442690D01*
X203800501Y-112442688D01*
X203800500Y-112442686D01*
X203707314Y-112349500D01*
X203707311Y-112349498D01*
X203707309Y-112349496D01*
X203593189Y-112283609D01*
X203593191Y-112283609D01*
X203528927Y-112266390D01*
X203465892Y-112249500D01*
X203334108Y-112249500D01*
X203271073Y-112266390D01*
X203206809Y-112283609D01*
X203092690Y-112349496D01*
X202999498Y-112442688D01*
X202956487Y-112517185D01*
X202911017Y-112558125D01*
X202850167Y-112564520D01*
X202821251Y-112553421D01*
X202727501Y-112499294D01*
X202656467Y-112480261D01*
X202600206Y-112465186D01*
X202468422Y-112465186D01*
X202412161Y-112480261D01*
X202341123Y-112499295D01*
X202227004Y-112565182D01*
X202133810Y-112658376D01*
X202067923Y-112772495D01*
X202062378Y-112793189D01*
X202033814Y-112899794D01*
X180000000Y-112899794D01*
X180000000Y-111734108D01*
X212249500Y-111734108D01*
X212249500Y-111865892D01*
X212259174Y-111901995D01*
X212283609Y-111993190D01*
X212349496Y-112107309D01*
X212349498Y-112107311D01*
X212349500Y-112107314D01*
X212442686Y-112200500D01*
X212442688Y-112200501D01*
X212442690Y-112200503D01*
X212556810Y-112266390D01*
X212556808Y-112266390D01*
X212556812Y-112266391D01*
X212556814Y-112266392D01*
X212684108Y-112300500D01*
X212684110Y-112300500D01*
X212815890Y-112300500D01*
X212815892Y-112300500D01*
X212943186Y-112266392D01*
X212943188Y-112266390D01*
X212943190Y-112266390D01*
X213057309Y-112200503D01*
X213057309Y-112200502D01*
X213057314Y-112200500D01*
X213150500Y-112107314D01*
X213150503Y-112107309D01*
X213216390Y-111993190D01*
X213216390Y-111993188D01*
X213216392Y-111993186D01*
X213232222Y-111934108D01*
X220199500Y-111934108D01*
X220199500Y-112065892D01*
X220229579Y-112178151D01*
X220233609Y-112193190D01*
X220299496Y-112307309D01*
X220299498Y-112307311D01*
X220299500Y-112307314D01*
X220392686Y-112400500D01*
X220392688Y-112400501D01*
X220392690Y-112400503D01*
X220506810Y-112466390D01*
X220506808Y-112466390D01*
X220506812Y-112466391D01*
X220506814Y-112466392D01*
X220634108Y-112500500D01*
X220634110Y-112500500D01*
X220765890Y-112500500D01*
X220765892Y-112500500D01*
X220893186Y-112466392D01*
X220893188Y-112466390D01*
X220893190Y-112466390D01*
X221007309Y-112400503D01*
X221007309Y-112400502D01*
X221007314Y-112400500D01*
X221100500Y-112307314D01*
X221114187Y-112283608D01*
X221166390Y-112193190D01*
X221166390Y-112193188D01*
X221166392Y-112193186D01*
X221200500Y-112065892D01*
X221200500Y-111934108D01*
X221166392Y-111806814D01*
X221166390Y-111806811D01*
X221166390Y-111806809D01*
X221100503Y-111692690D01*
X221100501Y-111692688D01*
X221100500Y-111692686D01*
X221007314Y-111599500D01*
X221007311Y-111599498D01*
X221007309Y-111599496D01*
X220893189Y-111533609D01*
X220893191Y-111533609D01*
X220843799Y-111520375D01*
X220765892Y-111499500D01*
X220634108Y-111499500D01*
X220556200Y-111520375D01*
X220506809Y-111533609D01*
X220392690Y-111599496D01*
X220299496Y-111692690D01*
X220233609Y-111806809D01*
X220217778Y-111865892D01*
X220199500Y-111934108D01*
X213232222Y-111934108D01*
X213250500Y-111865892D01*
X213250500Y-111734108D01*
X213216392Y-111606814D01*
X213216390Y-111606811D01*
X213216390Y-111606809D01*
X213150503Y-111492690D01*
X213150501Y-111492688D01*
X213150500Y-111492686D01*
X213057314Y-111399500D01*
X213057311Y-111399498D01*
X213057309Y-111399496D01*
X212943189Y-111333609D01*
X212943191Y-111333609D01*
X212893799Y-111320375D01*
X212815892Y-111299500D01*
X212684108Y-111299500D01*
X212606200Y-111320375D01*
X212556809Y-111333609D01*
X212442690Y-111399496D01*
X212349496Y-111492690D01*
X212283609Y-111606809D01*
X212283608Y-111606814D01*
X212249500Y-111734108D01*
X180000000Y-111734108D01*
X180000000Y-109134108D01*
X213749500Y-109134108D01*
X213749500Y-109265892D01*
X213779579Y-109378151D01*
X213783609Y-109393190D01*
X213849496Y-109507309D01*
X213849498Y-109507311D01*
X213849500Y-109507314D01*
X213942686Y-109600500D01*
X213942688Y-109600501D01*
X213942690Y-109600503D01*
X214056810Y-109666390D01*
X214056808Y-109666390D01*
X214056812Y-109666391D01*
X214056814Y-109666392D01*
X214184108Y-109700500D01*
X214184110Y-109700500D01*
X214315890Y-109700500D01*
X214315892Y-109700500D01*
X214443186Y-109666392D01*
X214443188Y-109666390D01*
X214443190Y-109666390D01*
X214557309Y-109600503D01*
X214557309Y-109600502D01*
X214557314Y-109600500D01*
X214650500Y-109507314D01*
X214687522Y-109443190D01*
X214716390Y-109393190D01*
X214716390Y-109393188D01*
X214716392Y-109393186D01*
X214750500Y-109265892D01*
X214750500Y-109184108D01*
X216599500Y-109184108D01*
X216599500Y-109315892D01*
X216620211Y-109393186D01*
X216633609Y-109443190D01*
X216699496Y-109557309D01*
X216699498Y-109557311D01*
X216699500Y-109557314D01*
X216792686Y-109650500D01*
X216792688Y-109650501D01*
X216792690Y-109650503D01*
X216906810Y-109716390D01*
X216906808Y-109716390D01*
X216906812Y-109716391D01*
X216906814Y-109716392D01*
X217034108Y-109750500D01*
X217034110Y-109750500D01*
X217165890Y-109750500D01*
X217165892Y-109750500D01*
X217293186Y-109716392D01*
X217293188Y-109716390D01*
X217293190Y-109716390D01*
X217407309Y-109650503D01*
X217407309Y-109650502D01*
X217407314Y-109650500D01*
X217500500Y-109557314D01*
X217529368Y-109507314D01*
X217566390Y-109443190D01*
X217566390Y-109443188D01*
X217566392Y-109443186D01*
X217600500Y-109315892D01*
X217600500Y-109184108D01*
X217566392Y-109056814D01*
X217566390Y-109056811D01*
X217566390Y-109056809D01*
X217500503Y-108942690D01*
X217500501Y-108942688D01*
X217500500Y-108942686D01*
X217407314Y-108849500D01*
X217407311Y-108849498D01*
X217407309Y-108849496D01*
X217293189Y-108783609D01*
X217293191Y-108783609D01*
X217243799Y-108770375D01*
X217165892Y-108749500D01*
X217034108Y-108749500D01*
X216956200Y-108770375D01*
X216906809Y-108783609D01*
X216792690Y-108849496D01*
X216699496Y-108942690D01*
X216633609Y-109056809D01*
X216633608Y-109056814D01*
X216599500Y-109184108D01*
X214750500Y-109184108D01*
X214750500Y-109134108D01*
X214716392Y-109006814D01*
X214716390Y-109006811D01*
X214716390Y-109006809D01*
X214650503Y-108892690D01*
X214650501Y-108892688D01*
X214650500Y-108892686D01*
X214557314Y-108799500D01*
X214557311Y-108799498D01*
X214557309Y-108799496D01*
X214443189Y-108733609D01*
X214443191Y-108733609D01*
X214378927Y-108716390D01*
X214315892Y-108699500D01*
X214184108Y-108699500D01*
X214121073Y-108716390D01*
X214056809Y-108733609D01*
X213942690Y-108799496D01*
X213849496Y-108892690D01*
X213783609Y-109006809D01*
X213783608Y-109006814D01*
X213749500Y-109134108D01*
X180000000Y-109134108D01*
X180000000Y-108184108D01*
X208849500Y-108184108D01*
X208849500Y-108315892D01*
X208879579Y-108428151D01*
X208883609Y-108443190D01*
X208949496Y-108557309D01*
X208949498Y-108557311D01*
X208949500Y-108557314D01*
X209042686Y-108650500D01*
X209042688Y-108650501D01*
X209042690Y-108650503D01*
X209156810Y-108716390D01*
X209156808Y-108716390D01*
X209156812Y-108716391D01*
X209156814Y-108716392D01*
X209284108Y-108750500D01*
X209284110Y-108750500D01*
X209415890Y-108750500D01*
X209415892Y-108750500D01*
X209543186Y-108716392D01*
X209543188Y-108716390D01*
X209543190Y-108716390D01*
X209657309Y-108650503D01*
X209657309Y-108650502D01*
X209657314Y-108650500D01*
X209750500Y-108557314D01*
X209816392Y-108443186D01*
X209850500Y-108315892D01*
X209850500Y-108184108D01*
X209816392Y-108056814D01*
X209816390Y-108056811D01*
X209816390Y-108056809D01*
X209750503Y-107942690D01*
X209750501Y-107942688D01*
X209750500Y-107942686D01*
X209657314Y-107849500D01*
X209657311Y-107849498D01*
X209657309Y-107849496D01*
X209543189Y-107783609D01*
X209543191Y-107783609D01*
X209493799Y-107770375D01*
X209415892Y-107749500D01*
X209284108Y-107749500D01*
X209206200Y-107770375D01*
X209156809Y-107783609D01*
X209042690Y-107849496D01*
X208949496Y-107942690D01*
X208883609Y-108056809D01*
X208883608Y-108056814D01*
X208849500Y-108184108D01*
X180000000Y-108184108D01*
X180000000Y-102934108D01*
X224999500Y-102934108D01*
X224999500Y-103065892D01*
X225029579Y-103178151D01*
X225033609Y-103193190D01*
X225099496Y-103307309D01*
X225099498Y-103307311D01*
X225099500Y-103307314D01*
X225192686Y-103400500D01*
X225192688Y-103400501D01*
X225192690Y-103400503D01*
X225306810Y-103466390D01*
X225306808Y-103466390D01*
X225306812Y-103466391D01*
X225306814Y-103466392D01*
X225434108Y-103500500D01*
X225434110Y-103500500D01*
X225565890Y-103500500D01*
X225565892Y-103500500D01*
X225693186Y-103466392D01*
X225693188Y-103466390D01*
X225693190Y-103466390D01*
X225807309Y-103400503D01*
X225807309Y-103400502D01*
X225807314Y-103400500D01*
X225900500Y-103307314D01*
X225966392Y-103193186D01*
X226000500Y-103065892D01*
X226000500Y-102934108D01*
X225966392Y-102806814D01*
X225966390Y-102806811D01*
X225966390Y-102806809D01*
X225900503Y-102692690D01*
X225900501Y-102692688D01*
X225900500Y-102692686D01*
X225807314Y-102599500D01*
X225807311Y-102599498D01*
X225807309Y-102599496D01*
X225693189Y-102533609D01*
X225693191Y-102533609D01*
X225643799Y-102520375D01*
X225565892Y-102499500D01*
X225434108Y-102499500D01*
X225356200Y-102520375D01*
X225306809Y-102533609D01*
X225192690Y-102599496D01*
X225099496Y-102692690D01*
X225033609Y-102806809D01*
X225033608Y-102806814D01*
X224999500Y-102934108D01*
X180000000Y-102934108D01*
X180000000Y-92385590D01*
X191669500Y-92385590D01*
X191669500Y-92574559D01*
X191699058Y-92761188D01*
X191757453Y-92940907D01*
X191840856Y-93104597D01*
X191843240Y-93109274D01*
X191954310Y-93262148D01*
X192087927Y-93395765D01*
X192240801Y-93506835D01*
X192409168Y-93592622D01*
X192588882Y-93651015D01*
X192588883Y-93651015D01*
X192588886Y-93651016D01*
X192596954Y-93652294D01*
X192651471Y-93680071D01*
X192679248Y-93734588D01*
X192669677Y-93795020D01*
X192626412Y-93838285D01*
X192596954Y-93847856D01*
X192588886Y-93849133D01*
X192409167Y-93907528D01*
X192240803Y-93993313D01*
X192087928Y-94104384D01*
X191954309Y-94238003D01*
X191843238Y-94390878D01*
X191757453Y-94559242D01*
X191699058Y-94738961D01*
X191669500Y-94925590D01*
X191669500Y-95114559D01*
X191699058Y-95301188D01*
X191699060Y-95301193D01*
X191757453Y-95480907D01*
X191843240Y-95649274D01*
X191954310Y-95802148D01*
X192087927Y-95935765D01*
X192240801Y-96046835D01*
X192409168Y-96132622D01*
X192588882Y-96191015D01*
X192588883Y-96191015D01*
X192588886Y-96191016D01*
X192596954Y-96192294D01*
X192651471Y-96220071D01*
X192679248Y-96274588D01*
X192669677Y-96335020D01*
X192626412Y-96378285D01*
X192596954Y-96387856D01*
X192588886Y-96389133D01*
X192409167Y-96447528D01*
X192240803Y-96533313D01*
X192087928Y-96644384D01*
X191954309Y-96778003D01*
X191843238Y-96930878D01*
X191757453Y-97099242D01*
X191699058Y-97278961D01*
X191669500Y-97465590D01*
X191669500Y-97654559D01*
X191699058Y-97841188D01*
X191699060Y-97841193D01*
X191757453Y-98020907D01*
X191843240Y-98189274D01*
X191954310Y-98342148D01*
X192087927Y-98475765D01*
X192240801Y-98586835D01*
X192409168Y-98672622D01*
X192588882Y-98731015D01*
X192588883Y-98731015D01*
X192588886Y-98731016D01*
X192596954Y-98732294D01*
X192651471Y-98760071D01*
X192679248Y-98814588D01*
X192669677Y-98875020D01*
X192626412Y-98918285D01*
X192596954Y-98927856D01*
X192588886Y-98929133D01*
X192409167Y-98987528D01*
X192240803Y-99073313D01*
X192087928Y-99184384D01*
X191954309Y-99318003D01*
X191843238Y-99470878D01*
X191757453Y-99639242D01*
X191699058Y-99818961D01*
X191669500Y-100005590D01*
X191669500Y-100194559D01*
X191699058Y-100381188D01*
X191757453Y-100560907D01*
X191843240Y-100729274D01*
X191954310Y-100882148D01*
X192087927Y-101015765D01*
X192240801Y-101126835D01*
X192409168Y-101212622D01*
X192588882Y-101271015D01*
X192588883Y-101271015D01*
X192588886Y-101271016D01*
X192775516Y-101300575D01*
X192775519Y-101300575D01*
X192964484Y-101300575D01*
X193151113Y-101271016D01*
X193151114Y-101271015D01*
X193151118Y-101271015D01*
X193330832Y-101212622D01*
X193499199Y-101126835D01*
X193652073Y-101015765D01*
X193785690Y-100882148D01*
X193896760Y-100729274D01*
X193982547Y-100560907D01*
X194023747Y-100434108D01*
X228499500Y-100434108D01*
X228499500Y-100565892D01*
X228529579Y-100678151D01*
X228533609Y-100693190D01*
X228599496Y-100807309D01*
X228599498Y-100807311D01*
X228599500Y-100807314D01*
X228692686Y-100900500D01*
X228692688Y-100900501D01*
X228692690Y-100900503D01*
X228806810Y-100966390D01*
X228806808Y-100966390D01*
X228806812Y-100966391D01*
X228806814Y-100966392D01*
X228934108Y-101000500D01*
X228934110Y-101000500D01*
X229065890Y-101000500D01*
X229065892Y-101000500D01*
X229193186Y-100966392D01*
X229193188Y-100966390D01*
X229193190Y-100966390D01*
X229307309Y-100900503D01*
X229307309Y-100900502D01*
X229307314Y-100900500D01*
X229400500Y-100807314D01*
X229445557Y-100729274D01*
X229466390Y-100693190D01*
X229466390Y-100693188D01*
X229466392Y-100693186D01*
X229500500Y-100565892D01*
X229500500Y-100434108D01*
X229466392Y-100306814D01*
X229466390Y-100306811D01*
X229466390Y-100306809D01*
X229400503Y-100192690D01*
X229400501Y-100192688D01*
X229400500Y-100192686D01*
X229307314Y-100099500D01*
X229307311Y-100099498D01*
X229307309Y-100099496D01*
X229193189Y-100033609D01*
X229193191Y-100033609D01*
X229143799Y-100020375D01*
X229065892Y-99999500D01*
X228934108Y-99999500D01*
X228856200Y-100020375D01*
X228806809Y-100033609D01*
X228692690Y-100099496D01*
X228599496Y-100192690D01*
X228533609Y-100306809D01*
X228533608Y-100306814D01*
X228499500Y-100434108D01*
X194023747Y-100434108D01*
X194040940Y-100381193D01*
X194070500Y-100194556D01*
X194070500Y-100005594D01*
X194070500Y-100005590D01*
X194040941Y-99818961D01*
X194040940Y-99818957D01*
X193982547Y-99639243D01*
X193896760Y-99470876D01*
X193785690Y-99318002D01*
X193652073Y-99184385D01*
X193499199Y-99073315D01*
X193499198Y-99073314D01*
X193499196Y-99073313D01*
X193330832Y-98987528D01*
X193151113Y-98929133D01*
X193143046Y-98927856D01*
X193088529Y-98900079D01*
X193060751Y-98845563D01*
X193070322Y-98785131D01*
X193113586Y-98741866D01*
X193143046Y-98732294D01*
X193151113Y-98731016D01*
X193151114Y-98731015D01*
X193151118Y-98731015D01*
X193330832Y-98672622D01*
X193499199Y-98586835D01*
X193652073Y-98475765D01*
X193785690Y-98342148D01*
X193896760Y-98189274D01*
X193982547Y-98020907D01*
X194040940Y-97841193D01*
X194070500Y-97654556D01*
X194070500Y-97465594D01*
X194070500Y-97465590D01*
X194040941Y-97278961D01*
X194040940Y-97278957D01*
X193982547Y-97099243D01*
X193896760Y-96930876D01*
X193785690Y-96778002D01*
X193652073Y-96644385D01*
X193499199Y-96533315D01*
X193499198Y-96533314D01*
X193499196Y-96533313D01*
X193330832Y-96447528D01*
X193151113Y-96389133D01*
X193143046Y-96387856D01*
X193088529Y-96360079D01*
X193060751Y-96305563D01*
X193070322Y-96245131D01*
X193113586Y-96201866D01*
X193143046Y-96192294D01*
X193151113Y-96191016D01*
X193151114Y-96191015D01*
X193151118Y-96191015D01*
X193330832Y-96132622D01*
X193499199Y-96046835D01*
X193652073Y-95935765D01*
X193785690Y-95802148D01*
X193896760Y-95649274D01*
X193982547Y-95480907D01*
X194040940Y-95301193D01*
X194070500Y-95114556D01*
X194070500Y-94925594D01*
X194070500Y-94925590D01*
X194040941Y-94738961D01*
X194032775Y-94713828D01*
X193982547Y-94559243D01*
X193896760Y-94390876D01*
X193785690Y-94238002D01*
X193652073Y-94104385D01*
X193499199Y-93993315D01*
X193499198Y-93993314D01*
X193499196Y-93993313D01*
X193330832Y-93907528D01*
X193151113Y-93849133D01*
X193143046Y-93847856D01*
X193088529Y-93820079D01*
X193060751Y-93765563D01*
X193070322Y-93705131D01*
X193113586Y-93661866D01*
X193114469Y-93661579D01*
X223059500Y-93661579D01*
X223059500Y-93858420D01*
X223090289Y-94052821D01*
X223150459Y-94238002D01*
X223151116Y-94240025D01*
X223240476Y-94415405D01*
X223356172Y-94574646D01*
X223495354Y-94713828D01*
X223654595Y-94829524D01*
X223829975Y-94918884D01*
X224017174Y-94979709D01*
X224017175Y-94979709D01*
X224017178Y-94979710D01*
X224211580Y-95010500D01*
X224211583Y-95010500D01*
X224408420Y-95010500D01*
X224602821Y-94979710D01*
X224602822Y-94979709D01*
X224602826Y-94979709D01*
X224790025Y-94918884D01*
X224965405Y-94829524D01*
X225124646Y-94713828D01*
X225263828Y-94574646D01*
X225379524Y-94415405D01*
X225468884Y-94240025D01*
X225529709Y-94052826D01*
X225560500Y-93858417D01*
X225560500Y-93661583D01*
X225560500Y-93661579D01*
X225529710Y-93467178D01*
X225529709Y-93467174D01*
X225468884Y-93279975D01*
X225379524Y-93104595D01*
X225263828Y-92945354D01*
X225124646Y-92806172D01*
X224965405Y-92690476D01*
X224965404Y-92690475D01*
X224965402Y-92690474D01*
X224790025Y-92601116D01*
X224602821Y-92540289D01*
X224408420Y-92509500D01*
X224408417Y-92509500D01*
X224211583Y-92509500D01*
X224211580Y-92509500D01*
X224017178Y-92540289D01*
X223829974Y-92601116D01*
X223654597Y-92690474D01*
X223495355Y-92806171D01*
X223356171Y-92945355D01*
X223240474Y-93104597D01*
X223151116Y-93279974D01*
X223090289Y-93467178D01*
X223059500Y-93661579D01*
X193114469Y-93661579D01*
X193143046Y-93652294D01*
X193151113Y-93651016D01*
X193151114Y-93651015D01*
X193151118Y-93651015D01*
X193330832Y-93592622D01*
X193499199Y-93506835D01*
X193652073Y-93395765D01*
X193785690Y-93262148D01*
X193896760Y-93109274D01*
X193982547Y-92940907D01*
X194040940Y-92761193D01*
X194042421Y-92751842D01*
X194070500Y-92574559D01*
X194070500Y-92415352D01*
X225724500Y-92415352D01*
X225724500Y-92584647D01*
X225750980Y-92751842D01*
X225754019Y-92761193D01*
X225803295Y-92912849D01*
X225880150Y-93063685D01*
X225979654Y-93200641D01*
X226099359Y-93320346D01*
X226236315Y-93419850D01*
X226387151Y-93496705D01*
X226548153Y-93549018D01*
X226548154Y-93549018D01*
X226548157Y-93549019D01*
X226715353Y-93575500D01*
X226715356Y-93575500D01*
X226884647Y-93575500D01*
X227051842Y-93549019D01*
X227051843Y-93549018D01*
X227051847Y-93549018D01*
X227212849Y-93496705D01*
X227363685Y-93419850D01*
X227500641Y-93320346D01*
X227620346Y-93200641D01*
X227719850Y-93063685D01*
X227796705Y-92912849D01*
X227849018Y-92751847D01*
X227858738Y-92690476D01*
X227875500Y-92584647D01*
X227875500Y-92415352D01*
X227849019Y-92248157D01*
X227796706Y-92087155D01*
X227796705Y-92087151D01*
X227719850Y-91936315D01*
X227620346Y-91799359D01*
X227500641Y-91679654D01*
X227363685Y-91580150D01*
X227363684Y-91580149D01*
X227363682Y-91580148D01*
X227290168Y-91542691D01*
X227212849Y-91503295D01*
X227212846Y-91503294D01*
X227212844Y-91503293D01*
X227051842Y-91450980D01*
X226884647Y-91424500D01*
X226884644Y-91424500D01*
X226715356Y-91424500D01*
X226715353Y-91424500D01*
X226548157Y-91450980D01*
X226387155Y-91503293D01*
X226236317Y-91580148D01*
X226208301Y-91600503D01*
X226099359Y-91679654D01*
X225979654Y-91799359D01*
X225929902Y-91867837D01*
X225880148Y-91936317D01*
X225803293Y-92087155D01*
X225750980Y-92248157D01*
X225724500Y-92415352D01*
X194070500Y-92415352D01*
X194070500Y-92385590D01*
X194040941Y-92198961D01*
X194004613Y-92087155D01*
X193982547Y-92019243D01*
X193896760Y-91850876D01*
X193785690Y-91698002D01*
X193652073Y-91564385D01*
X193499199Y-91453315D01*
X193499198Y-91453314D01*
X193499196Y-91453313D01*
X193330832Y-91367528D01*
X193151110Y-91309132D01*
X193141442Y-91307601D01*
X193086926Y-91279822D01*
X193059151Y-91225304D01*
X193068725Y-91164872D01*
X193111992Y-91121609D01*
X193141452Y-91112039D01*
X193150998Y-91110527D01*
X193330635Y-91052160D01*
X193498934Y-90966408D01*
X193647194Y-90858690D01*
X193073163Y-90284659D01*
X193115606Y-90260155D01*
X193190080Y-90185681D01*
X193214584Y-90143238D01*
X193788615Y-90717269D01*
X193896333Y-90569009D01*
X193982085Y-90400710D01*
X194040453Y-90221071D01*
X194070000Y-90034520D01*
X194070000Y-89845629D01*
X194040453Y-89659078D01*
X193982085Y-89479439D01*
X193896332Y-89311138D01*
X193896330Y-89311134D01*
X193788616Y-89162879D01*
X193214584Y-89736911D01*
X193190080Y-89694469D01*
X193115606Y-89619995D01*
X193073161Y-89595489D01*
X193647194Y-89021457D01*
X193498940Y-88913744D01*
X193498936Y-88913742D01*
X193330635Y-88827989D01*
X193150996Y-88769621D01*
X192964445Y-88740075D01*
X192775555Y-88740075D01*
X192589003Y-88769621D01*
X192409364Y-88827989D01*
X192241063Y-88913742D01*
X192241059Y-88913744D01*
X192092804Y-89021457D01*
X192666837Y-89595490D01*
X192624394Y-89619995D01*
X192549920Y-89694469D01*
X192525415Y-89736912D01*
X191951382Y-89162879D01*
X191843669Y-89311134D01*
X191843667Y-89311138D01*
X191757914Y-89479439D01*
X191699546Y-89659078D01*
X191670000Y-89845629D01*
X191670000Y-90034520D01*
X191699546Y-90221071D01*
X191757914Y-90400710D01*
X191843667Y-90569011D01*
X191843669Y-90569015D01*
X191951382Y-90717269D01*
X192525414Y-90143236D01*
X192549920Y-90185681D01*
X192624394Y-90260155D01*
X192666836Y-90284659D01*
X192092804Y-90858691D01*
X192241059Y-90966405D01*
X192241063Y-90966407D01*
X192409364Y-91052160D01*
X192589000Y-91110527D01*
X192598548Y-91112039D01*
X192653066Y-91139814D01*
X192680846Y-91194329D01*
X192671278Y-91254761D01*
X192628016Y-91298028D01*
X192598558Y-91307601D01*
X192588888Y-91309132D01*
X192409167Y-91367528D01*
X192240803Y-91453313D01*
X192087928Y-91564384D01*
X191954309Y-91698003D01*
X191843238Y-91850878D01*
X191757453Y-92019242D01*
X191699058Y-92198961D01*
X191669500Y-92385590D01*
X180000000Y-92385590D01*
X180000000Y-91542691D01*
X184649500Y-91542691D01*
X184649500Y-91661309D01*
X184676574Y-91762351D01*
X184680202Y-91775890D01*
X184739507Y-91878608D01*
X184739509Y-91878610D01*
X184739511Y-91878613D01*
X184823387Y-91962489D01*
X184823389Y-91962490D01*
X184823391Y-91962492D01*
X184926110Y-92021797D01*
X184926111Y-92021797D01*
X184926114Y-92021799D01*
X185040691Y-92052500D01*
X185040693Y-92052500D01*
X185159307Y-92052500D01*
X185159309Y-92052500D01*
X185273886Y-92021799D01*
X185273888Y-92021797D01*
X185273890Y-92021797D01*
X185376608Y-91962492D01*
X185376608Y-91962491D01*
X185376613Y-91962489D01*
X185460489Y-91878613D01*
X185519799Y-91775886D01*
X185550500Y-91661309D01*
X185550500Y-91542691D01*
X185519799Y-91428114D01*
X185519797Y-91428111D01*
X185519797Y-91428109D01*
X185460492Y-91325391D01*
X185460490Y-91325389D01*
X185460489Y-91325387D01*
X185376613Y-91241511D01*
X185376610Y-91241509D01*
X185376608Y-91241507D01*
X185327847Y-91213355D01*
X185327846Y-91213355D01*
X185273888Y-91182202D01*
X185273887Y-91182201D01*
X185273886Y-91182201D01*
X185159309Y-91151500D01*
X185040691Y-91151500D01*
X184970567Y-91170289D01*
X184926109Y-91182202D01*
X184823391Y-91241507D01*
X184739507Y-91325391D01*
X184680202Y-91428109D01*
X184673449Y-91453313D01*
X184649500Y-91542691D01*
X180000000Y-91542691D01*
X180000000Y-91134108D01*
X186849500Y-91134108D01*
X186849500Y-91265892D01*
X186865443Y-91325391D01*
X186883609Y-91393190D01*
X186949496Y-91507309D01*
X186949498Y-91507311D01*
X186949500Y-91507314D01*
X187042686Y-91600500D01*
X187042688Y-91600501D01*
X187042690Y-91600503D01*
X187156810Y-91666390D01*
X187156808Y-91666390D01*
X187156812Y-91666391D01*
X187156814Y-91666392D01*
X187284108Y-91700500D01*
X187284110Y-91700500D01*
X187415890Y-91700500D01*
X187415892Y-91700500D01*
X187543186Y-91666392D01*
X187543188Y-91666390D01*
X187543190Y-91666390D01*
X187657309Y-91600503D01*
X187657309Y-91600502D01*
X187657314Y-91600500D01*
X187750500Y-91507314D01*
X187752822Y-91503293D01*
X187816390Y-91393190D01*
X187816390Y-91393188D01*
X187816392Y-91393186D01*
X187850500Y-91265892D01*
X187850500Y-91134108D01*
X187816392Y-91006814D01*
X187816390Y-91006811D01*
X187816390Y-91006809D01*
X187750503Y-90892690D01*
X187750501Y-90892688D01*
X187750500Y-90892686D01*
X187657314Y-90799500D01*
X187657311Y-90799498D01*
X187657309Y-90799496D01*
X187543189Y-90733609D01*
X187543191Y-90733609D01*
X187482207Y-90717269D01*
X187415892Y-90699500D01*
X187284108Y-90699500D01*
X187217793Y-90717269D01*
X187156809Y-90733609D01*
X187042690Y-90799496D01*
X186949496Y-90892690D01*
X186883609Y-91006809D01*
X186883608Y-91006814D01*
X186849500Y-91134108D01*
X180000000Y-91134108D01*
X180000000Y-90034108D01*
X182549500Y-90034108D01*
X182549500Y-90165892D01*
X182579579Y-90278151D01*
X182583609Y-90293190D01*
X182649496Y-90407309D01*
X182649498Y-90407311D01*
X182649500Y-90407314D01*
X182742686Y-90500500D01*
X182742688Y-90500501D01*
X182742690Y-90500503D01*
X182856810Y-90566390D01*
X182856808Y-90566390D01*
X182856812Y-90566391D01*
X182856814Y-90566392D01*
X182984108Y-90600500D01*
X182984110Y-90600500D01*
X183115890Y-90600500D01*
X183115892Y-90600500D01*
X183243186Y-90566392D01*
X183243188Y-90566390D01*
X183243190Y-90566390D01*
X183357309Y-90500503D01*
X183357309Y-90500502D01*
X183357314Y-90500500D01*
X183450500Y-90407314D01*
X183516392Y-90293186D01*
X183550500Y-90165892D01*
X183550500Y-90034108D01*
X183516392Y-89906814D01*
X183507401Y-89891242D01*
X183507401Y-89891240D01*
X183450503Y-89792690D01*
X183450501Y-89792688D01*
X183450500Y-89792686D01*
X183357314Y-89699500D01*
X183357311Y-89699498D01*
X183357309Y-89699496D01*
X183243189Y-89633609D01*
X183243191Y-89633609D01*
X183192381Y-89619995D01*
X183115892Y-89599500D01*
X182984108Y-89599500D01*
X182907619Y-89619995D01*
X182856809Y-89633609D01*
X182742690Y-89699496D01*
X182649496Y-89792690D01*
X182583609Y-89906809D01*
X182583608Y-89906814D01*
X182549500Y-90034108D01*
X180000000Y-90034108D01*
X180000000Y-88684108D01*
X182749500Y-88684108D01*
X182749500Y-88815892D01*
X182779579Y-88928151D01*
X182783609Y-88943190D01*
X182849496Y-89057309D01*
X182849498Y-89057311D01*
X182849500Y-89057314D01*
X182942686Y-89150500D01*
X182942688Y-89150501D01*
X182942690Y-89150503D01*
X183056810Y-89216390D01*
X183056808Y-89216390D01*
X183056812Y-89216391D01*
X183056814Y-89216392D01*
X183184108Y-89250500D01*
X183184110Y-89250500D01*
X183315890Y-89250500D01*
X183315892Y-89250500D01*
X183443186Y-89216392D01*
X183443188Y-89216390D01*
X183443190Y-89216390D01*
X183557309Y-89150503D01*
X183557309Y-89150502D01*
X183557314Y-89150500D01*
X183650500Y-89057314D01*
X183685493Y-88996706D01*
X183716390Y-88943190D01*
X183716390Y-88943188D01*
X183716392Y-88943186D01*
X183750500Y-88815892D01*
X183750500Y-88684108D01*
X183716392Y-88556814D01*
X183716390Y-88556811D01*
X183716390Y-88556809D01*
X183650503Y-88442690D01*
X183650501Y-88442688D01*
X183650500Y-88442686D01*
X183557314Y-88349500D01*
X183557311Y-88349498D01*
X183557309Y-88349496D01*
X183443189Y-88283609D01*
X183443191Y-88283609D01*
X183428722Y-88279732D01*
X183315892Y-88249500D01*
X183184108Y-88249500D01*
X183106200Y-88270375D01*
X183056809Y-88283609D01*
X182942690Y-88349496D01*
X182849496Y-88442690D01*
X182783609Y-88556809D01*
X182781767Y-88563685D01*
X182749500Y-88684108D01*
X180000000Y-88684108D01*
X180000000Y-88184108D01*
X186499500Y-88184108D01*
X186499500Y-88315892D01*
X186525478Y-88412844D01*
X186533609Y-88443190D01*
X186599496Y-88557309D01*
X186599498Y-88557311D01*
X186599500Y-88557314D01*
X186692686Y-88650500D01*
X186692688Y-88650501D01*
X186692690Y-88650503D01*
X186806810Y-88716390D01*
X186806808Y-88716390D01*
X186806812Y-88716391D01*
X186806814Y-88716392D01*
X186934108Y-88750500D01*
X186934110Y-88750500D01*
X187065890Y-88750500D01*
X187065892Y-88750500D01*
X187193186Y-88716392D01*
X187193188Y-88716390D01*
X187193190Y-88716390D01*
X187307309Y-88650503D01*
X187307309Y-88650502D01*
X187307314Y-88650500D01*
X187400500Y-88557314D01*
X187466392Y-88443186D01*
X187500500Y-88315892D01*
X187500500Y-88184108D01*
X187466392Y-88056814D01*
X187466390Y-88056811D01*
X187466390Y-88056809D01*
X187400503Y-87942690D01*
X187400501Y-87942688D01*
X187400500Y-87942686D01*
X187307314Y-87849500D01*
X187307311Y-87849498D01*
X187307309Y-87849496D01*
X187193189Y-87783609D01*
X187193191Y-87783609D01*
X187143799Y-87770375D01*
X187065892Y-87749500D01*
X186934108Y-87749500D01*
X186856200Y-87770375D01*
X186806809Y-87783609D01*
X186692690Y-87849496D01*
X186599496Y-87942690D01*
X186533609Y-88056809D01*
X186533608Y-88056814D01*
X186499500Y-88184108D01*
X180000000Y-88184108D01*
X180000000Y-87184108D01*
X189099500Y-87184108D01*
X189099500Y-87315892D01*
X189123484Y-87405402D01*
X189133609Y-87443190D01*
X189199496Y-87557309D01*
X189199498Y-87557311D01*
X189199500Y-87557314D01*
X189292686Y-87650500D01*
X189292688Y-87650501D01*
X189292690Y-87650503D01*
X189406810Y-87716390D01*
X189406808Y-87716390D01*
X189406812Y-87716391D01*
X189406814Y-87716392D01*
X189534108Y-87750500D01*
X189534110Y-87750500D01*
X189665890Y-87750500D01*
X189665892Y-87750500D01*
X189793186Y-87716392D01*
X189793188Y-87716390D01*
X189793190Y-87716390D01*
X189907309Y-87650503D01*
X189907309Y-87650502D01*
X189907314Y-87650500D01*
X190000500Y-87557314D01*
X190066392Y-87443186D01*
X190100500Y-87315892D01*
X190100500Y-87184108D01*
X190066392Y-87056814D01*
X190066390Y-87056811D01*
X190066390Y-87056809D01*
X190000503Y-86942690D01*
X190000501Y-86942688D01*
X190000500Y-86942686D01*
X189907314Y-86849500D01*
X189907311Y-86849498D01*
X189907309Y-86849496D01*
X189793189Y-86783609D01*
X189793191Y-86783609D01*
X189743799Y-86770375D01*
X189665892Y-86749500D01*
X189534108Y-86749500D01*
X189456200Y-86770375D01*
X189406809Y-86783609D01*
X189292690Y-86849496D01*
X189199496Y-86942690D01*
X189133609Y-87056809D01*
X189133608Y-87056814D01*
X189099500Y-87184108D01*
X180000000Y-87184108D01*
X180000000Y-86651579D01*
X223059500Y-86651579D01*
X223059500Y-86848420D01*
X223090289Y-87042821D01*
X223136197Y-87184109D01*
X223151116Y-87230025D01*
X223240476Y-87405405D01*
X223356172Y-87564646D01*
X223495354Y-87703828D01*
X223654595Y-87819524D01*
X223829975Y-87908884D01*
X224017174Y-87969709D01*
X224017175Y-87969709D01*
X224017178Y-87969710D01*
X224211580Y-88000500D01*
X224211583Y-88000500D01*
X224408420Y-88000500D01*
X224602821Y-87969710D01*
X224602822Y-87969709D01*
X224602826Y-87969709D01*
X224770119Y-87915352D01*
X225724500Y-87915352D01*
X225724500Y-88084647D01*
X225750980Y-88251842D01*
X225782712Y-88349500D01*
X225803295Y-88412849D01*
X225818498Y-88442686D01*
X225876903Y-88557314D01*
X225880150Y-88563685D01*
X225979654Y-88700641D01*
X226099359Y-88820346D01*
X226236315Y-88919850D01*
X226387151Y-88996705D01*
X226548153Y-89049018D01*
X226548154Y-89049018D01*
X226548157Y-89049019D01*
X226715353Y-89075500D01*
X226715356Y-89075500D01*
X226884647Y-89075500D01*
X227051842Y-89049019D01*
X227051843Y-89049018D01*
X227051847Y-89049018D01*
X227212849Y-88996705D01*
X227363685Y-88919850D01*
X227500641Y-88820346D01*
X227620346Y-88700641D01*
X227719850Y-88563685D01*
X227796705Y-88412849D01*
X227849018Y-88251847D01*
X227875500Y-88084644D01*
X227875500Y-87915356D01*
X227875500Y-87915352D01*
X227849019Y-87748157D01*
X227838698Y-87716390D01*
X227796705Y-87587151D01*
X227719850Y-87436315D01*
X227620346Y-87299359D01*
X227500641Y-87179654D01*
X227363685Y-87080150D01*
X227363684Y-87080149D01*
X227363682Y-87080148D01*
X227290423Y-87042821D01*
X227212849Y-87003295D01*
X227212846Y-87003294D01*
X227212844Y-87003293D01*
X227051842Y-86950980D01*
X226884647Y-86924500D01*
X226884644Y-86924500D01*
X226715356Y-86924500D01*
X226715353Y-86924500D01*
X226548157Y-86950980D01*
X226387155Y-87003293D01*
X226236317Y-87080148D01*
X226167837Y-87129902D01*
X226099359Y-87179654D01*
X225979654Y-87299359D01*
X225929902Y-87367837D01*
X225880148Y-87436317D01*
X225803293Y-87587155D01*
X225750980Y-87748157D01*
X225724500Y-87915352D01*
X224770119Y-87915352D01*
X224790025Y-87908884D01*
X224965405Y-87819524D01*
X225124646Y-87703828D01*
X225263828Y-87564646D01*
X225379524Y-87405405D01*
X225468884Y-87230025D01*
X225529709Y-87042826D01*
X225535970Y-87003295D01*
X225560500Y-86848420D01*
X225560500Y-86651579D01*
X225529710Y-86457178D01*
X225529709Y-86457174D01*
X225468884Y-86269975D01*
X225379524Y-86094595D01*
X225263828Y-85935354D01*
X225124646Y-85796172D01*
X224965405Y-85680476D01*
X224965404Y-85680475D01*
X224965402Y-85680474D01*
X224790025Y-85591116D01*
X224602821Y-85530289D01*
X224408420Y-85499500D01*
X224408417Y-85499500D01*
X224211583Y-85499500D01*
X224211580Y-85499500D01*
X224017178Y-85530289D01*
X223829974Y-85591116D01*
X223654597Y-85680474D01*
X223495355Y-85796171D01*
X223356171Y-85935355D01*
X223240474Y-86094597D01*
X223151116Y-86269974D01*
X223090289Y-86457178D01*
X223059500Y-86651579D01*
X180000000Y-86651579D01*
X180000000Y-85234108D01*
X182749500Y-85234108D01*
X182749500Y-85365892D01*
X182779579Y-85478151D01*
X182783609Y-85493190D01*
X182849496Y-85607309D01*
X182849498Y-85607311D01*
X182849500Y-85607314D01*
X182942686Y-85700500D01*
X182942688Y-85700501D01*
X182942690Y-85700503D01*
X183056810Y-85766390D01*
X183056808Y-85766390D01*
X183056812Y-85766391D01*
X183056814Y-85766392D01*
X183184108Y-85800500D01*
X183184110Y-85800500D01*
X183315890Y-85800500D01*
X183315892Y-85800500D01*
X183443186Y-85766392D01*
X183443188Y-85766390D01*
X183443190Y-85766390D01*
X183557309Y-85700503D01*
X183557309Y-85700502D01*
X183557314Y-85700500D01*
X183650500Y-85607314D01*
X183659852Y-85591116D01*
X183716390Y-85493190D01*
X183716390Y-85493188D01*
X183716392Y-85493186D01*
X183750500Y-85365892D01*
X183750500Y-85234108D01*
X183716392Y-85106814D01*
X183716390Y-85106811D01*
X183716390Y-85106809D01*
X183650503Y-84992690D01*
X183650501Y-84992688D01*
X183650500Y-84992686D01*
X183557314Y-84899500D01*
X183557311Y-84899498D01*
X183557309Y-84899496D01*
X183443189Y-84833609D01*
X183443191Y-84833609D01*
X183393799Y-84820375D01*
X183315892Y-84799500D01*
X183184108Y-84799500D01*
X183106200Y-84820375D01*
X183056809Y-84833609D01*
X182942690Y-84899496D01*
X182849496Y-84992690D01*
X182783609Y-85106809D01*
X182783608Y-85106814D01*
X182749500Y-85234108D01*
X180000000Y-85234108D01*
X180000000Y-83734108D01*
X184599500Y-83734108D01*
X184599500Y-83865892D01*
X184608773Y-83900500D01*
X184633609Y-83993190D01*
X184699496Y-84107309D01*
X184699498Y-84107311D01*
X184699500Y-84107314D01*
X184792686Y-84200500D01*
X184792688Y-84200501D01*
X184792690Y-84200503D01*
X184906810Y-84266390D01*
X184906808Y-84266390D01*
X184906812Y-84266391D01*
X184906814Y-84266392D01*
X185034108Y-84300500D01*
X185034110Y-84300500D01*
X185165890Y-84300500D01*
X185165892Y-84300500D01*
X185293186Y-84266392D01*
X185293188Y-84266390D01*
X185293190Y-84266390D01*
X185349104Y-84234108D01*
X211199500Y-84234108D01*
X211199500Y-84365892D01*
X211229579Y-84478151D01*
X211233609Y-84493190D01*
X211299496Y-84607309D01*
X211299498Y-84607311D01*
X211299500Y-84607314D01*
X211392686Y-84700500D01*
X211392688Y-84700501D01*
X211392690Y-84700503D01*
X211506810Y-84766390D01*
X211506808Y-84766390D01*
X211506812Y-84766391D01*
X211506814Y-84766392D01*
X211634108Y-84800500D01*
X211634110Y-84800500D01*
X211765890Y-84800500D01*
X211765892Y-84800500D01*
X211893186Y-84766392D01*
X211893188Y-84766390D01*
X211893190Y-84766390D01*
X212007309Y-84700503D01*
X212007309Y-84700502D01*
X212007314Y-84700500D01*
X212100500Y-84607314D01*
X212166392Y-84493186D01*
X212200500Y-84365892D01*
X212200500Y-84234108D01*
X218699500Y-84234108D01*
X218699500Y-84365892D01*
X218729579Y-84478151D01*
X218733609Y-84493190D01*
X218799496Y-84607309D01*
X218799498Y-84607311D01*
X218799500Y-84607314D01*
X218892686Y-84700500D01*
X218892688Y-84700501D01*
X218892690Y-84700503D01*
X219006810Y-84766390D01*
X219006808Y-84766390D01*
X219006812Y-84766391D01*
X219006814Y-84766392D01*
X219134108Y-84800500D01*
X219134110Y-84800500D01*
X219265890Y-84800500D01*
X219265892Y-84800500D01*
X219393186Y-84766392D01*
X219393188Y-84766390D01*
X219393190Y-84766390D01*
X219507309Y-84700503D01*
X219507309Y-84700502D01*
X219507314Y-84700500D01*
X219600500Y-84607314D01*
X219666392Y-84493186D01*
X219700500Y-84365892D01*
X219700500Y-84234108D01*
X219666392Y-84106814D01*
X219666390Y-84106811D01*
X219666390Y-84106809D01*
X219600503Y-83992690D01*
X219600501Y-83992688D01*
X219600500Y-83992686D01*
X219507314Y-83899500D01*
X219507311Y-83899498D01*
X219507309Y-83899496D01*
X219393189Y-83833609D01*
X219393191Y-83833609D01*
X219343799Y-83820375D01*
X219265892Y-83799500D01*
X219134108Y-83799500D01*
X219056200Y-83820375D01*
X219006809Y-83833609D01*
X218892690Y-83899496D01*
X218799496Y-83992690D01*
X218733609Y-84106809D01*
X218733608Y-84106814D01*
X218699500Y-84234108D01*
X212200500Y-84234108D01*
X212166392Y-84106814D01*
X212166390Y-84106811D01*
X212166390Y-84106809D01*
X212100503Y-83992690D01*
X212100501Y-83992688D01*
X212100500Y-83992686D01*
X212007314Y-83899500D01*
X212007311Y-83899498D01*
X212007309Y-83899496D01*
X211893189Y-83833609D01*
X211893191Y-83833609D01*
X211843799Y-83820375D01*
X211765892Y-83799500D01*
X211634108Y-83799500D01*
X211556200Y-83820375D01*
X211506809Y-83833609D01*
X211392690Y-83899496D01*
X211299496Y-83992690D01*
X211233609Y-84106809D01*
X211233608Y-84106814D01*
X211199500Y-84234108D01*
X185349104Y-84234108D01*
X185407309Y-84200503D01*
X185407309Y-84200502D01*
X185407314Y-84200500D01*
X185500500Y-84107314D01*
X185566392Y-83993186D01*
X185600500Y-83865892D01*
X185600500Y-83734108D01*
X185566392Y-83606814D01*
X185566390Y-83606811D01*
X185566390Y-83606809D01*
X185500503Y-83492690D01*
X185500501Y-83492688D01*
X185500500Y-83492686D01*
X185407314Y-83399500D01*
X185407311Y-83399498D01*
X185407309Y-83399496D01*
X185294053Y-83334108D01*
X191899500Y-83334108D01*
X191899500Y-83465892D01*
X191908773Y-83500500D01*
X191933609Y-83593190D01*
X191999496Y-83707309D01*
X191999498Y-83707311D01*
X191999500Y-83707314D01*
X192092686Y-83800500D01*
X192092688Y-83800501D01*
X192092690Y-83800503D01*
X192206810Y-83866390D01*
X192206808Y-83866390D01*
X192206812Y-83866391D01*
X192206814Y-83866392D01*
X192334108Y-83900500D01*
X192334110Y-83900500D01*
X192465890Y-83900500D01*
X192465892Y-83900500D01*
X192593186Y-83866392D01*
X192593188Y-83866390D01*
X192593190Y-83866390D01*
X192707309Y-83800503D01*
X192707309Y-83800502D01*
X192707314Y-83800500D01*
X192800500Y-83707314D01*
X192858527Y-83606809D01*
X192866390Y-83593190D01*
X192866390Y-83593188D01*
X192866392Y-83593186D01*
X192900500Y-83465892D01*
X192900500Y-83334108D01*
X192866392Y-83206814D01*
X192866390Y-83206811D01*
X192866390Y-83206809D01*
X192800503Y-83092690D01*
X192800501Y-83092688D01*
X192800500Y-83092686D01*
X192707314Y-82999500D01*
X192707311Y-82999498D01*
X192707309Y-82999496D01*
X192593189Y-82933609D01*
X192593191Y-82933609D01*
X192543799Y-82920375D01*
X192465892Y-82899500D01*
X192334108Y-82899500D01*
X192256200Y-82920375D01*
X192206809Y-82933609D01*
X192092690Y-82999496D01*
X191999496Y-83092690D01*
X191933609Y-83206809D01*
X191933608Y-83206814D01*
X191899500Y-83334108D01*
X185294053Y-83334108D01*
X185293189Y-83333609D01*
X185293191Y-83333609D01*
X185243799Y-83320375D01*
X185165892Y-83299500D01*
X185034108Y-83299500D01*
X184956200Y-83320375D01*
X184906809Y-83333609D01*
X184792690Y-83399496D01*
X184699496Y-83492690D01*
X184633609Y-83606809D01*
X184633608Y-83606814D01*
X184599500Y-83734108D01*
X180000000Y-83734108D01*
X180000000Y-82534108D01*
X193449500Y-82534108D01*
X193449500Y-82665892D01*
X193479579Y-82778151D01*
X193483609Y-82793190D01*
X193549496Y-82907309D01*
X193549498Y-82907311D01*
X193549500Y-82907314D01*
X193642686Y-83000500D01*
X193642688Y-83000501D01*
X193642690Y-83000503D01*
X193756810Y-83066390D01*
X193756808Y-83066390D01*
X193756812Y-83066391D01*
X193756814Y-83066392D01*
X193884108Y-83100500D01*
X193884110Y-83100500D01*
X194015890Y-83100500D01*
X194015892Y-83100500D01*
X194143186Y-83066392D01*
X194143188Y-83066390D01*
X194143190Y-83066390D01*
X194199104Y-83034108D01*
X228549500Y-83034108D01*
X228549500Y-83165892D01*
X228560464Y-83206809D01*
X228583609Y-83293190D01*
X228649496Y-83407309D01*
X228649498Y-83407311D01*
X228649500Y-83407314D01*
X228742686Y-83500500D01*
X228742688Y-83500501D01*
X228742690Y-83500503D01*
X228856810Y-83566390D01*
X228856808Y-83566390D01*
X228856812Y-83566391D01*
X228856814Y-83566392D01*
X228984108Y-83600500D01*
X228984110Y-83600500D01*
X229115890Y-83600500D01*
X229115892Y-83600500D01*
X229243186Y-83566392D01*
X229243188Y-83566390D01*
X229243190Y-83566390D01*
X229357309Y-83500503D01*
X229357309Y-83500502D01*
X229357314Y-83500500D01*
X229450500Y-83407314D01*
X229450503Y-83407309D01*
X229516390Y-83293190D01*
X229516390Y-83293188D01*
X229516392Y-83293186D01*
X229550500Y-83165892D01*
X229550500Y-83034108D01*
X229516392Y-82906814D01*
X229516390Y-82906811D01*
X229516390Y-82906809D01*
X229450503Y-82792690D01*
X229450501Y-82792688D01*
X229450500Y-82792686D01*
X229357314Y-82699500D01*
X229357311Y-82699498D01*
X229357309Y-82699496D01*
X229243189Y-82633609D01*
X229243191Y-82633609D01*
X229193799Y-82620375D01*
X229115892Y-82599500D01*
X228984108Y-82599500D01*
X228906200Y-82620375D01*
X228856809Y-82633609D01*
X228742690Y-82699496D01*
X228649496Y-82792690D01*
X228583609Y-82906809D01*
X228576428Y-82933609D01*
X228549500Y-83034108D01*
X194199104Y-83034108D01*
X194257309Y-83000503D01*
X194257309Y-83000502D01*
X194257314Y-83000500D01*
X194350500Y-82907314D01*
X194350792Y-82906809D01*
X194416390Y-82793190D01*
X194416390Y-82793188D01*
X194416392Y-82793186D01*
X194450500Y-82665892D01*
X194450500Y-82534108D01*
X194416392Y-82406814D01*
X194416390Y-82406811D01*
X194416390Y-82406809D01*
X194350503Y-82292690D01*
X194350501Y-82292688D01*
X194350500Y-82292686D01*
X194257314Y-82199500D01*
X194257311Y-82199498D01*
X194257309Y-82199496D01*
X194143189Y-82133609D01*
X194143191Y-82133609D01*
X194093799Y-82120375D01*
X194015892Y-82099500D01*
X193884108Y-82099500D01*
X193806200Y-82120375D01*
X193756809Y-82133609D01*
X193642690Y-82199496D01*
X193549496Y-82292690D01*
X193483609Y-82406809D01*
X193483608Y-82406814D01*
X193449500Y-82534108D01*
X180000000Y-82534108D01*
X180000000Y-80234108D01*
X187949500Y-80234108D01*
X187949500Y-80365892D01*
X187979579Y-80478151D01*
X187983609Y-80493190D01*
X188049496Y-80607309D01*
X188049498Y-80607311D01*
X188049500Y-80607314D01*
X188142686Y-80700500D01*
X188142688Y-80700501D01*
X188142690Y-80700503D01*
X188256810Y-80766390D01*
X188256808Y-80766390D01*
X188256812Y-80766391D01*
X188256814Y-80766392D01*
X188384108Y-80800500D01*
X188384110Y-80800500D01*
X188515890Y-80800500D01*
X188515892Y-80800500D01*
X188643186Y-80766392D01*
X188643188Y-80766390D01*
X188643190Y-80766390D01*
X188757309Y-80700503D01*
X188757309Y-80700502D01*
X188757314Y-80700500D01*
X188850500Y-80607314D01*
X188916392Y-80493186D01*
X188950500Y-80365892D01*
X188950500Y-80234108D01*
X188916392Y-80106814D01*
X188916390Y-80106811D01*
X188916390Y-80106809D01*
X188850503Y-79992690D01*
X188850501Y-79992688D01*
X188850500Y-79992686D01*
X188757314Y-79899500D01*
X188757311Y-79899498D01*
X188757309Y-79899496D01*
X188643189Y-79833609D01*
X188643191Y-79833609D01*
X188593799Y-79820375D01*
X188515892Y-79799500D01*
X188384108Y-79799500D01*
X188306200Y-79820375D01*
X188256809Y-79833609D01*
X188142690Y-79899496D01*
X188049496Y-79992690D01*
X187983609Y-80106809D01*
X187983608Y-80106814D01*
X187949500Y-80234108D01*
X180000000Y-80234108D01*
X180000000Y-79434108D01*
X227499500Y-79434108D01*
X227499500Y-79565892D01*
X227529579Y-79678151D01*
X227533609Y-79693190D01*
X227599496Y-79807309D01*
X227599498Y-79807311D01*
X227599500Y-79807314D01*
X227692686Y-79900500D01*
X227692688Y-79900501D01*
X227692690Y-79900503D01*
X227806810Y-79966390D01*
X227806808Y-79966390D01*
X227806812Y-79966391D01*
X227806814Y-79966392D01*
X227934108Y-80000500D01*
X227934110Y-80000500D01*
X228065890Y-80000500D01*
X228065892Y-80000500D01*
X228193186Y-79966392D01*
X228193188Y-79966390D01*
X228193190Y-79966390D01*
X228307309Y-79900503D01*
X228307309Y-79900502D01*
X228307314Y-79900500D01*
X228400500Y-79807314D01*
X228400503Y-79807309D01*
X228466390Y-79693190D01*
X228466390Y-79693188D01*
X228466392Y-79693186D01*
X228500500Y-79565892D01*
X228500500Y-79434108D01*
X228466392Y-79306814D01*
X228466390Y-79306811D01*
X228466390Y-79306809D01*
X228400503Y-79192690D01*
X228400501Y-79192688D01*
X228400500Y-79192686D01*
X228307314Y-79099500D01*
X228307311Y-79099498D01*
X228307309Y-79099496D01*
X228193189Y-79033609D01*
X228193191Y-79033609D01*
X228143799Y-79020375D01*
X228065892Y-78999500D01*
X227934108Y-78999500D01*
X227856200Y-79020375D01*
X227806809Y-79033609D01*
X227692690Y-79099496D01*
X227599496Y-79192690D01*
X227533609Y-79306809D01*
X227533608Y-79306814D01*
X227499500Y-79434108D01*
X180000000Y-79434108D01*
X180000000Y-74034108D01*
X191349500Y-74034108D01*
X191349500Y-74165892D01*
X191359174Y-74201995D01*
X191383609Y-74293190D01*
X191449496Y-74407309D01*
X191449498Y-74407311D01*
X191449500Y-74407314D01*
X191542686Y-74500500D01*
X191542688Y-74500501D01*
X191542690Y-74500503D01*
X191656810Y-74566390D01*
X191656808Y-74566390D01*
X191656812Y-74566391D01*
X191656814Y-74566392D01*
X191784108Y-74600500D01*
X191784110Y-74600500D01*
X191915890Y-74600500D01*
X191915892Y-74600500D01*
X192043186Y-74566392D01*
X192043188Y-74566390D01*
X192043190Y-74566390D01*
X192157309Y-74500503D01*
X192157309Y-74500502D01*
X192157314Y-74500500D01*
X192250500Y-74407314D01*
X192316392Y-74293186D01*
X192332222Y-74234108D01*
X197049500Y-74234108D01*
X197049500Y-74365892D01*
X197060598Y-74407309D01*
X197083609Y-74493190D01*
X197149496Y-74607309D01*
X197149498Y-74607311D01*
X197149500Y-74607314D01*
X197242686Y-74700500D01*
X197242688Y-74700501D01*
X197242690Y-74700503D01*
X197356810Y-74766390D01*
X197356808Y-74766390D01*
X197356812Y-74766391D01*
X197356814Y-74766392D01*
X197484108Y-74800500D01*
X197484110Y-74800500D01*
X197615890Y-74800500D01*
X197615892Y-74800500D01*
X197743186Y-74766392D01*
X197743188Y-74766390D01*
X197743190Y-74766390D01*
X197857309Y-74700503D01*
X197857309Y-74700502D01*
X197857314Y-74700500D01*
X197950500Y-74607314D01*
X197954434Y-74600500D01*
X198016390Y-74493190D01*
X198016390Y-74493188D01*
X198016392Y-74493186D01*
X198050500Y-74365892D01*
X198050500Y-74234108D01*
X198016392Y-74106814D01*
X198016390Y-74106811D01*
X198016390Y-74106809D01*
X197950503Y-73992690D01*
X197950501Y-73992688D01*
X197950500Y-73992686D01*
X197857314Y-73899500D01*
X197857311Y-73899498D01*
X197857309Y-73899496D01*
X197743189Y-73833609D01*
X197743191Y-73833609D01*
X197693799Y-73820375D01*
X197615892Y-73799500D01*
X197484108Y-73799500D01*
X197406200Y-73820375D01*
X197356809Y-73833609D01*
X197242690Y-73899496D01*
X197149496Y-73992690D01*
X197083609Y-74106809D01*
X197067778Y-74165892D01*
X197049500Y-74234108D01*
X192332222Y-74234108D01*
X192350500Y-74165892D01*
X192350500Y-74034108D01*
X192316392Y-73906814D01*
X192316390Y-73906811D01*
X192316390Y-73906809D01*
X192250503Y-73792690D01*
X192250501Y-73792688D01*
X192250500Y-73792686D01*
X192157314Y-73699500D01*
X192157311Y-73699498D01*
X192157309Y-73699496D01*
X192043189Y-73633609D01*
X192043191Y-73633609D01*
X191993799Y-73620375D01*
X191915892Y-73599500D01*
X191784108Y-73599500D01*
X191706200Y-73620375D01*
X191656809Y-73633609D01*
X191542690Y-73699496D01*
X191449496Y-73792690D01*
X191383609Y-73906809D01*
X191383608Y-73906814D01*
X191349500Y-74034108D01*
X180000000Y-74034108D01*
X180000000Y-72984108D01*
X197749500Y-72984108D01*
X197749500Y-73115892D01*
X197769491Y-73190499D01*
X197783609Y-73243190D01*
X197849496Y-73357309D01*
X197849498Y-73357311D01*
X197849500Y-73357314D01*
X197942686Y-73450500D01*
X197942688Y-73450501D01*
X197942690Y-73450503D01*
X198056810Y-73516390D01*
X198056808Y-73516390D01*
X198056812Y-73516391D01*
X198056814Y-73516392D01*
X198184108Y-73550500D01*
X198184110Y-73550500D01*
X198315890Y-73550500D01*
X198315892Y-73550500D01*
X198443186Y-73516392D01*
X198443188Y-73516390D01*
X198443190Y-73516390D01*
X198557309Y-73450503D01*
X198557309Y-73450502D01*
X198557314Y-73450500D01*
X198650500Y-73357314D01*
X198716392Y-73243186D01*
X198750500Y-73115892D01*
X198750500Y-72984108D01*
X198716392Y-72856814D01*
X198716390Y-72856811D01*
X198716390Y-72856809D01*
X198650503Y-72742690D01*
X198650501Y-72742688D01*
X198650500Y-72742686D01*
X198557314Y-72649500D01*
X198557311Y-72649498D01*
X198557309Y-72649496D01*
X198443189Y-72583609D01*
X198443191Y-72583609D01*
X198393799Y-72570375D01*
X198315892Y-72549500D01*
X198184108Y-72549500D01*
X198106200Y-72570375D01*
X198056809Y-72583609D01*
X197942690Y-72649496D01*
X197849496Y-72742690D01*
X197783609Y-72856809D01*
X197783608Y-72856814D01*
X197749500Y-72984108D01*
X180000000Y-72984108D01*
X180000000Y-71484108D01*
X190299500Y-71484108D01*
X190299500Y-71615892D01*
X190317644Y-71683608D01*
X190333609Y-71743190D01*
X190399496Y-71857309D01*
X190399498Y-71857311D01*
X190399500Y-71857314D01*
X190492686Y-71950500D01*
X190492688Y-71950501D01*
X190492690Y-71950503D01*
X190606810Y-72016390D01*
X190606808Y-72016390D01*
X190606812Y-72016391D01*
X190606814Y-72016392D01*
X190734108Y-72050500D01*
X190734110Y-72050500D01*
X190865890Y-72050500D01*
X190865892Y-72050500D01*
X190993186Y-72016392D01*
X190993188Y-72016390D01*
X190993190Y-72016390D01*
X191107309Y-71950503D01*
X191107309Y-71950502D01*
X191107314Y-71950500D01*
X191200500Y-71857314D01*
X191229368Y-71807314D01*
X191266390Y-71743190D01*
X191266390Y-71743188D01*
X191266392Y-71743186D01*
X191300500Y-71615892D01*
X191300500Y-71484108D01*
X191287103Y-71434108D01*
X193649500Y-71434108D01*
X193649500Y-71565892D01*
X193672153Y-71650436D01*
X193683609Y-71693190D01*
X193749496Y-71807309D01*
X193749498Y-71807311D01*
X193749500Y-71807314D01*
X193842686Y-71900500D01*
X193842688Y-71900501D01*
X193842690Y-71900503D01*
X193956810Y-71966390D01*
X193956808Y-71966390D01*
X193956812Y-71966391D01*
X193956814Y-71966392D01*
X194084108Y-72000500D01*
X194084110Y-72000500D01*
X194215890Y-72000500D01*
X194215892Y-72000500D01*
X194224878Y-71998092D01*
X194285979Y-72001295D01*
X194333528Y-72039800D01*
X194349500Y-72093719D01*
X194349500Y-72215892D01*
X194356888Y-72243463D01*
X194383609Y-72343190D01*
X194449496Y-72457309D01*
X194449498Y-72457311D01*
X194449500Y-72457314D01*
X194542686Y-72550500D01*
X194542688Y-72550501D01*
X194542690Y-72550503D01*
X194656810Y-72616390D01*
X194656808Y-72616390D01*
X194656812Y-72616391D01*
X194656814Y-72616392D01*
X194784108Y-72650500D01*
X194784110Y-72650500D01*
X194915890Y-72650500D01*
X194915892Y-72650500D01*
X195043186Y-72616392D01*
X195043188Y-72616390D01*
X195043190Y-72616390D01*
X195157309Y-72550503D01*
X195157309Y-72550502D01*
X195157314Y-72550500D01*
X195250500Y-72457314D01*
X195316392Y-72343186D01*
X195350500Y-72215892D01*
X195350500Y-72084108D01*
X195316392Y-71956814D01*
X195316390Y-71956811D01*
X195316390Y-71956809D01*
X195250503Y-71842690D01*
X195250501Y-71842688D01*
X195250500Y-71842686D01*
X195157314Y-71749500D01*
X195157311Y-71749498D01*
X195157309Y-71749496D01*
X195043189Y-71683609D01*
X195043191Y-71683609D01*
X194993799Y-71670375D01*
X194915892Y-71649500D01*
X194784108Y-71649500D01*
X194775121Y-71651907D01*
X194747042Y-71650436D01*
X194718907Y-71650436D01*
X194716719Y-71648846D01*
X194714021Y-71648705D01*
X194692172Y-71631012D01*
X194669407Y-71614472D01*
X194668571Y-71611900D01*
X194666472Y-71610200D01*
X194650500Y-71556281D01*
X194650500Y-71484108D01*
X199599500Y-71484108D01*
X199599500Y-71615892D01*
X199617644Y-71683608D01*
X199633609Y-71743190D01*
X199699496Y-71857309D01*
X199699498Y-71857311D01*
X199699500Y-71857314D01*
X199792686Y-71950500D01*
X199792688Y-71950501D01*
X199792690Y-71950503D01*
X199906810Y-72016390D01*
X199906808Y-72016390D01*
X199906812Y-72016391D01*
X199906814Y-72016392D01*
X200034108Y-72050500D01*
X200034110Y-72050500D01*
X200165890Y-72050500D01*
X200165892Y-72050500D01*
X200293186Y-72016392D01*
X200293188Y-72016390D01*
X200293190Y-72016390D01*
X200407309Y-71950503D01*
X200407309Y-71950502D01*
X200407314Y-71950500D01*
X200500500Y-71857314D01*
X200529368Y-71807314D01*
X200566390Y-71743190D01*
X200566390Y-71743188D01*
X200566392Y-71743186D01*
X200595619Y-71634108D01*
X211399500Y-71634108D01*
X211399500Y-71765892D01*
X211410598Y-71807309D01*
X211433609Y-71893190D01*
X211499496Y-72007309D01*
X211499498Y-72007311D01*
X211499500Y-72007314D01*
X211592686Y-72100500D01*
X211592688Y-72100501D01*
X211592690Y-72100503D01*
X211706810Y-72166390D01*
X211706808Y-72166390D01*
X211706812Y-72166391D01*
X211706814Y-72166392D01*
X211834108Y-72200500D01*
X211834110Y-72200500D01*
X211965890Y-72200500D01*
X211965892Y-72200500D01*
X212093186Y-72166392D01*
X212093188Y-72166390D01*
X212093190Y-72166390D01*
X212207309Y-72100503D01*
X212207309Y-72100502D01*
X212207314Y-72100500D01*
X212300500Y-72007314D01*
X212305824Y-71998092D01*
X212366390Y-71893190D01*
X212366390Y-71893188D01*
X212366392Y-71893186D01*
X212400500Y-71765892D01*
X212400500Y-71634108D01*
X212366392Y-71506814D01*
X212366390Y-71506811D01*
X212366390Y-71506809D01*
X212300503Y-71392690D01*
X212300501Y-71392688D01*
X212300500Y-71392686D01*
X212207314Y-71299500D01*
X212207311Y-71299498D01*
X212207309Y-71299496D01*
X212156658Y-71270253D01*
X217969500Y-71270253D01*
X217969500Y-73009746D01*
X217969501Y-73009758D01*
X217981132Y-73068227D01*
X217981134Y-73068233D01*
X218025445Y-73134548D01*
X218025448Y-73134552D01*
X218091769Y-73178867D01*
X218136231Y-73187711D01*
X218150241Y-73190498D01*
X218150246Y-73190498D01*
X218150252Y-73190500D01*
X218150253Y-73190500D01*
X219889747Y-73190500D01*
X219889748Y-73190500D01*
X219948231Y-73178867D01*
X220014552Y-73134552D01*
X220058867Y-73068231D01*
X220070500Y-73009748D01*
X220070500Y-72036532D01*
X220509500Y-72036532D01*
X220509500Y-72243467D01*
X220549869Y-72446418D01*
X220629058Y-72637597D01*
X220744020Y-72809651D01*
X220744023Y-72809655D01*
X220890345Y-72955977D01*
X221062402Y-73070941D01*
X221253580Y-73150130D01*
X221456535Y-73190500D01*
X221456536Y-73190500D01*
X221663464Y-73190500D01*
X221663465Y-73190500D01*
X221866420Y-73150130D01*
X222057598Y-73070941D01*
X222229655Y-72955977D01*
X222375977Y-72809655D01*
X222490941Y-72637598D01*
X222570130Y-72446420D01*
X222610500Y-72243465D01*
X222610500Y-72036535D01*
X222610499Y-72036532D01*
X223049500Y-72036532D01*
X223049500Y-72243467D01*
X223089869Y-72446418D01*
X223169058Y-72637597D01*
X223284020Y-72809651D01*
X223284023Y-72809655D01*
X223430345Y-72955977D01*
X223602402Y-73070941D01*
X223793580Y-73150130D01*
X223996535Y-73190500D01*
X223996536Y-73190500D01*
X224203464Y-73190500D01*
X224203465Y-73190500D01*
X224406420Y-73150130D01*
X224597598Y-73070941D01*
X224769655Y-72955977D01*
X224915977Y-72809655D01*
X225030941Y-72637598D01*
X225110130Y-72446420D01*
X225150500Y-72243465D01*
X225150500Y-72036535D01*
X225110130Y-71833580D01*
X225030941Y-71642402D01*
X224915977Y-71470345D01*
X224769655Y-71324023D01*
X224743900Y-71306814D01*
X224597597Y-71209058D01*
X224406418Y-71129869D01*
X224203467Y-71089500D01*
X224203465Y-71089500D01*
X223996535Y-71089500D01*
X223996532Y-71089500D01*
X223793581Y-71129869D01*
X223602402Y-71209058D01*
X223430348Y-71324020D01*
X223284020Y-71470348D01*
X223169058Y-71642402D01*
X223089869Y-71833581D01*
X223049500Y-72036532D01*
X222610499Y-72036532D01*
X222570130Y-71833580D01*
X222490941Y-71642402D01*
X222375977Y-71470345D01*
X222229655Y-71324023D01*
X222203900Y-71306814D01*
X222057597Y-71209058D01*
X221866418Y-71129869D01*
X221663467Y-71089500D01*
X221663465Y-71089500D01*
X221456535Y-71089500D01*
X221456532Y-71089500D01*
X221253581Y-71129869D01*
X221062402Y-71209058D01*
X220890348Y-71324020D01*
X220744020Y-71470348D01*
X220629058Y-71642402D01*
X220549869Y-71833581D01*
X220509500Y-72036532D01*
X220070500Y-72036532D01*
X220070500Y-71270252D01*
X220058867Y-71211769D01*
X220014552Y-71145448D01*
X220014548Y-71145445D01*
X219948233Y-71101134D01*
X219948231Y-71101133D01*
X219948228Y-71101132D01*
X219948227Y-71101132D01*
X219889758Y-71089501D01*
X219889748Y-71089500D01*
X218150252Y-71089500D01*
X218150251Y-71089500D01*
X218150241Y-71089501D01*
X218091772Y-71101132D01*
X218091766Y-71101134D01*
X218025451Y-71145445D01*
X218025445Y-71145451D01*
X217981134Y-71211766D01*
X217981132Y-71211772D01*
X217969501Y-71270241D01*
X217969500Y-71270253D01*
X212156658Y-71270253D01*
X212093189Y-71233609D01*
X212093191Y-71233609D01*
X212043799Y-71220375D01*
X211965892Y-71199500D01*
X211834108Y-71199500D01*
X211756200Y-71220375D01*
X211706809Y-71233609D01*
X211592690Y-71299496D01*
X211499496Y-71392690D01*
X211433609Y-71506809D01*
X211433608Y-71506814D01*
X211399500Y-71634108D01*
X200595619Y-71634108D01*
X200600500Y-71615892D01*
X200600500Y-71484108D01*
X200566392Y-71356814D01*
X200566390Y-71356811D01*
X200566390Y-71356809D01*
X200500503Y-71242690D01*
X200500501Y-71242688D01*
X200500500Y-71242686D01*
X200407314Y-71149500D01*
X200407311Y-71149498D01*
X200407309Y-71149496D01*
X200293189Y-71083609D01*
X200293191Y-71083609D01*
X200243799Y-71070375D01*
X200165892Y-71049500D01*
X200034108Y-71049500D01*
X199956200Y-71070375D01*
X199906809Y-71083609D01*
X199792690Y-71149496D01*
X199699496Y-71242690D01*
X199633609Y-71356809D01*
X199633608Y-71356814D01*
X199599500Y-71484108D01*
X194650500Y-71484108D01*
X194650500Y-71434109D01*
X194629789Y-71356814D01*
X194616392Y-71306814D01*
X194616390Y-71306811D01*
X194616390Y-71306809D01*
X194550503Y-71192690D01*
X194550501Y-71192688D01*
X194550500Y-71192686D01*
X194457314Y-71099500D01*
X194457311Y-71099498D01*
X194457309Y-71099496D01*
X194343189Y-71033609D01*
X194343191Y-71033609D01*
X194293799Y-71020375D01*
X194215892Y-70999500D01*
X194084108Y-70999500D01*
X194006200Y-71020375D01*
X193956809Y-71033609D01*
X193842690Y-71099496D01*
X193749496Y-71192690D01*
X193683609Y-71306809D01*
X193678997Y-71324023D01*
X193649500Y-71434108D01*
X191287103Y-71434108D01*
X191266392Y-71356814D01*
X191266390Y-71356811D01*
X191266390Y-71356809D01*
X191200503Y-71242690D01*
X191200501Y-71242688D01*
X191200500Y-71242686D01*
X191107314Y-71149500D01*
X191107311Y-71149498D01*
X191107309Y-71149496D01*
X190993189Y-71083609D01*
X190993191Y-71083609D01*
X190943799Y-71070375D01*
X190865892Y-71049500D01*
X190734108Y-71049500D01*
X190656200Y-71070375D01*
X190606809Y-71083609D01*
X190492690Y-71149496D01*
X190399496Y-71242690D01*
X190333609Y-71356809D01*
X190333608Y-71356814D01*
X190299500Y-71484108D01*
X180000000Y-71484108D01*
X180000000Y-69784108D01*
X183099500Y-69784108D01*
X183099500Y-69915892D01*
X183122063Y-70000099D01*
X183133609Y-70043190D01*
X183199496Y-70157309D01*
X183199498Y-70157311D01*
X183199500Y-70157314D01*
X183292686Y-70250500D01*
X183292688Y-70250501D01*
X183292690Y-70250503D01*
X183406810Y-70316390D01*
X183406808Y-70316390D01*
X183406812Y-70316391D01*
X183406814Y-70316392D01*
X183534108Y-70350500D01*
X183534110Y-70350500D01*
X183665890Y-70350500D01*
X183665892Y-70350500D01*
X183793186Y-70316392D01*
X183793188Y-70316390D01*
X183793190Y-70316390D01*
X183907309Y-70250503D01*
X183907309Y-70250502D01*
X183907314Y-70250500D01*
X184000500Y-70157314D01*
X184031734Y-70103216D01*
X184066390Y-70043190D01*
X184066390Y-70043188D01*
X184066392Y-70043186D01*
X184100500Y-69915892D01*
X184100500Y-69784108D01*
X184066392Y-69656814D01*
X184066390Y-69656811D01*
X184066390Y-69656809D01*
X184000503Y-69542690D01*
X184000501Y-69542688D01*
X184000500Y-69542686D01*
X183907314Y-69449500D01*
X183907311Y-69449498D01*
X183907309Y-69449496D01*
X183793189Y-69383609D01*
X183793191Y-69383609D01*
X183727068Y-69365892D01*
X183665892Y-69349500D01*
X183534108Y-69349500D01*
X183472932Y-69365892D01*
X183406809Y-69383609D01*
X183292690Y-69449496D01*
X183199496Y-69542690D01*
X183133609Y-69656809D01*
X183121108Y-69703465D01*
X183099500Y-69784108D01*
X180000000Y-69784108D01*
X180000000Y-68534108D01*
X201599500Y-68534108D01*
X201599500Y-68665892D01*
X201629579Y-68778151D01*
X201633609Y-68793190D01*
X201699496Y-68907309D01*
X201699498Y-68907311D01*
X201699500Y-68907314D01*
X201792686Y-69000500D01*
X201792688Y-69000501D01*
X201792690Y-69000503D01*
X201906810Y-69066390D01*
X201906808Y-69066390D01*
X201906812Y-69066391D01*
X201906814Y-69066392D01*
X202034108Y-69100500D01*
X202034110Y-69100500D01*
X202165890Y-69100500D01*
X202165892Y-69100500D01*
X202182775Y-69095976D01*
X202243876Y-69099179D01*
X202291425Y-69137684D01*
X202307261Y-69196784D01*
X202304024Y-69217221D01*
X202299500Y-69234108D01*
X202299500Y-69234109D01*
X202299500Y-69365896D01*
X202304023Y-69382776D01*
X202300819Y-69443877D01*
X202262313Y-69491426D01*
X202203212Y-69507260D01*
X202182776Y-69504023D01*
X202165896Y-69499500D01*
X202165892Y-69499500D01*
X202034108Y-69499500D01*
X201956200Y-69520375D01*
X201906809Y-69533609D01*
X201792690Y-69599496D01*
X201699496Y-69692690D01*
X201633609Y-69806809D01*
X201614539Y-69877978D01*
X201599500Y-69934108D01*
X201599500Y-70065892D01*
X201629579Y-70178151D01*
X201633609Y-70193190D01*
X201699496Y-70307309D01*
X201699498Y-70307311D01*
X201699500Y-70307314D01*
X201792686Y-70400500D01*
X201792688Y-70400501D01*
X201792690Y-70400503D01*
X201906810Y-70466390D01*
X201906808Y-70466390D01*
X201906812Y-70466391D01*
X201906814Y-70466392D01*
X202034108Y-70500500D01*
X202034110Y-70500500D01*
X202165890Y-70500500D01*
X202165892Y-70500500D01*
X202182775Y-70495976D01*
X202243876Y-70499179D01*
X202291425Y-70537684D01*
X202307261Y-70596784D01*
X202304024Y-70617221D01*
X202299500Y-70634108D01*
X202299500Y-70765892D01*
X202310598Y-70807309D01*
X202333609Y-70893190D01*
X202399496Y-71007309D01*
X202399498Y-71007311D01*
X202399500Y-71007314D01*
X202492686Y-71100500D01*
X202492688Y-71100501D01*
X202492690Y-71100503D01*
X202606810Y-71166390D01*
X202606808Y-71166390D01*
X202606812Y-71166391D01*
X202606814Y-71166392D01*
X202734108Y-71200500D01*
X202734110Y-71200500D01*
X202865890Y-71200500D01*
X202865892Y-71200500D01*
X202993186Y-71166392D01*
X202993188Y-71166390D01*
X202993190Y-71166390D01*
X203107309Y-71100503D01*
X203107309Y-71100502D01*
X203107314Y-71100500D01*
X203200500Y-71007314D01*
X203204434Y-71000500D01*
X203266390Y-70893190D01*
X203266390Y-70893188D01*
X203266392Y-70893186D01*
X203300500Y-70765892D01*
X203300500Y-70634108D01*
X203295976Y-70617224D01*
X203299179Y-70556124D01*
X203337684Y-70508575D01*
X203396784Y-70492739D01*
X203417221Y-70495975D01*
X203434108Y-70500500D01*
X203434110Y-70500500D01*
X203565890Y-70500500D01*
X203565892Y-70500500D01*
X203582775Y-70495976D01*
X203643876Y-70499179D01*
X203691425Y-70537684D01*
X203707261Y-70596784D01*
X203704024Y-70617221D01*
X203699500Y-70634108D01*
X203699500Y-70765892D01*
X203710598Y-70807309D01*
X203733609Y-70893190D01*
X203799496Y-71007309D01*
X203799498Y-71007311D01*
X203799500Y-71007314D01*
X203892686Y-71100500D01*
X203892688Y-71100501D01*
X203892690Y-71100503D01*
X204006810Y-71166390D01*
X204006808Y-71166390D01*
X204006812Y-71166391D01*
X204006814Y-71166392D01*
X204134108Y-71200500D01*
X204134110Y-71200500D01*
X204265890Y-71200500D01*
X204265892Y-71200500D01*
X204393186Y-71166392D01*
X204393188Y-71166390D01*
X204393190Y-71166390D01*
X204507309Y-71100503D01*
X204507309Y-71100502D01*
X204507314Y-71100500D01*
X204600500Y-71007314D01*
X204604434Y-71000500D01*
X204666390Y-70893190D01*
X204666390Y-70893188D01*
X204666392Y-70893186D01*
X204700500Y-70765892D01*
X204700500Y-70634108D01*
X204695976Y-70617224D01*
X204699179Y-70556124D01*
X204737684Y-70508575D01*
X204796784Y-70492739D01*
X204817221Y-70495975D01*
X204834108Y-70500500D01*
X204834110Y-70500500D01*
X204965890Y-70500500D01*
X204965892Y-70500500D01*
X205093186Y-70466392D01*
X205093188Y-70466390D01*
X205093190Y-70466390D01*
X205149104Y-70434108D01*
X210699500Y-70434108D01*
X210699500Y-70565892D01*
X210729579Y-70678151D01*
X210733609Y-70693190D01*
X210799496Y-70807309D01*
X210799498Y-70807311D01*
X210799500Y-70807314D01*
X210892686Y-70900500D01*
X210892688Y-70900501D01*
X210892690Y-70900503D01*
X211006810Y-70966390D01*
X211006808Y-70966390D01*
X211006812Y-70966391D01*
X211006814Y-70966392D01*
X211134108Y-71000500D01*
X211134110Y-71000500D01*
X211265890Y-71000500D01*
X211265892Y-71000500D01*
X211393186Y-70966392D01*
X211393188Y-70966390D01*
X211393190Y-70966390D01*
X211507309Y-70900503D01*
X211507309Y-70900502D01*
X211507314Y-70900500D01*
X211600500Y-70807314D01*
X211666392Y-70693186D01*
X211700500Y-70565892D01*
X211700500Y-70434108D01*
X211666392Y-70306814D01*
X211666390Y-70306811D01*
X211666390Y-70306809D01*
X211600503Y-70192690D01*
X211600501Y-70192688D01*
X211600500Y-70192686D01*
X211507314Y-70099500D01*
X211507311Y-70099498D01*
X211507309Y-70099496D01*
X211393189Y-70033609D01*
X211393191Y-70033609D01*
X211343799Y-70020375D01*
X211265892Y-69999500D01*
X211134108Y-69999500D01*
X211056200Y-70020375D01*
X211006809Y-70033609D01*
X210892690Y-70099496D01*
X210799496Y-70192690D01*
X210733609Y-70306809D01*
X210721902Y-70350500D01*
X210699500Y-70434108D01*
X205149104Y-70434108D01*
X205207309Y-70400503D01*
X205207309Y-70400502D01*
X205207314Y-70400500D01*
X205300500Y-70307314D01*
X205321033Y-70271750D01*
X205366390Y-70193190D01*
X205366390Y-70193188D01*
X205366392Y-70193186D01*
X205400500Y-70065892D01*
X205400500Y-69934108D01*
X205366392Y-69806814D01*
X205366390Y-69806811D01*
X205366390Y-69806809D01*
X205300503Y-69692690D01*
X205300501Y-69692688D01*
X205300500Y-69692686D01*
X205207314Y-69599500D01*
X205207311Y-69599498D01*
X205207309Y-69599496D01*
X205093189Y-69533609D01*
X205093191Y-69533609D01*
X205043799Y-69520375D01*
X204965892Y-69499500D01*
X204834108Y-69499500D01*
X204817224Y-69504023D01*
X204756124Y-69500821D01*
X204708575Y-69462316D01*
X204692739Y-69403216D01*
X204695976Y-69382776D01*
X204700500Y-69365892D01*
X204700500Y-69234108D01*
X204695976Y-69217224D01*
X204699179Y-69156124D01*
X204717007Y-69134108D01*
X209999500Y-69134108D01*
X209999500Y-69265892D01*
X210026294Y-69365890D01*
X210033609Y-69393190D01*
X210099496Y-69507309D01*
X210099498Y-69507311D01*
X210099500Y-69507314D01*
X210192686Y-69600500D01*
X210192688Y-69600501D01*
X210192690Y-69600503D01*
X210306810Y-69666390D01*
X210306808Y-69666390D01*
X210306812Y-69666391D01*
X210306814Y-69666392D01*
X210434108Y-69700500D01*
X210434110Y-69700500D01*
X210565890Y-69700500D01*
X210565892Y-69700500D01*
X210693186Y-69666392D01*
X210693188Y-69666390D01*
X210693190Y-69666390D01*
X210807309Y-69600503D01*
X210807309Y-69600502D01*
X210807314Y-69600500D01*
X210900500Y-69507314D01*
X210906697Y-69496581D01*
X217970000Y-69496581D01*
X217970000Y-69703418D01*
X218010349Y-69906272D01*
X218089501Y-70097360D01*
X218089508Y-70097374D01*
X218204405Y-70269329D01*
X218206826Y-70271750D01*
X218602210Y-69876365D01*
X218619901Y-69907007D01*
X218712993Y-70000099D01*
X218743632Y-70017788D01*
X218348249Y-70413173D01*
X218350670Y-70415594D01*
X218522625Y-70530491D01*
X218522639Y-70530498D01*
X218713727Y-70609650D01*
X218916581Y-70649999D01*
X218916586Y-70650000D01*
X219123414Y-70650000D01*
X219123418Y-70649999D01*
X219326272Y-70609650D01*
X219517360Y-70530498D01*
X219517366Y-70530495D01*
X219689333Y-70415591D01*
X219691750Y-70413173D01*
X219296366Y-70017789D01*
X219327007Y-70000099D01*
X219420099Y-69907007D01*
X219437789Y-69876366D01*
X219833173Y-70271750D01*
X219835591Y-70269333D01*
X219950495Y-70097366D01*
X219950498Y-70097360D01*
X220029650Y-69906272D01*
X220069999Y-69703418D01*
X220070000Y-69703413D01*
X220070000Y-69496585D01*
X220069999Y-69496582D01*
X220069989Y-69496532D01*
X220509500Y-69496532D01*
X220509500Y-69703467D01*
X220549869Y-69906418D01*
X220629058Y-70097597D01*
X220672302Y-70162316D01*
X220744023Y-70269655D01*
X220890345Y-70415977D01*
X221062402Y-70530941D01*
X221253580Y-70610130D01*
X221456535Y-70650500D01*
X221456536Y-70650500D01*
X221663464Y-70650500D01*
X221663465Y-70650500D01*
X221866420Y-70610130D01*
X222057598Y-70530941D01*
X222229655Y-70415977D01*
X222375977Y-70269655D01*
X222490941Y-70097598D01*
X222570130Y-69906420D01*
X222610500Y-69703465D01*
X222610500Y-69496535D01*
X222610499Y-69496532D01*
X223049500Y-69496532D01*
X223049500Y-69703467D01*
X223089869Y-69906418D01*
X223169058Y-70097597D01*
X223212302Y-70162316D01*
X223284023Y-70269655D01*
X223430345Y-70415977D01*
X223602402Y-70530941D01*
X223793580Y-70610130D01*
X223996535Y-70650500D01*
X223996536Y-70650500D01*
X224203464Y-70650500D01*
X224203465Y-70650500D01*
X224406420Y-70610130D01*
X224597598Y-70530941D01*
X224769655Y-70415977D01*
X224915977Y-70269655D01*
X225030941Y-70097598D01*
X225110130Y-69906420D01*
X225150500Y-69703465D01*
X225150500Y-69496535D01*
X225110130Y-69293580D01*
X225030941Y-69102402D01*
X224915977Y-68930345D01*
X224769655Y-68784023D01*
X224694205Y-68733609D01*
X224597597Y-68669058D01*
X224406418Y-68589869D01*
X224203467Y-68549500D01*
X224203465Y-68549500D01*
X223996535Y-68549500D01*
X223996532Y-68549500D01*
X223793581Y-68589869D01*
X223602402Y-68669058D01*
X223430348Y-68784020D01*
X223284020Y-68930348D01*
X223169058Y-69102402D01*
X223089869Y-69293581D01*
X223049500Y-69496532D01*
X222610499Y-69496532D01*
X222570130Y-69293580D01*
X222490941Y-69102402D01*
X222375977Y-68930345D01*
X222229655Y-68784023D01*
X222154205Y-68733609D01*
X222057597Y-68669058D01*
X221866418Y-68589869D01*
X221663467Y-68549500D01*
X221663465Y-68549500D01*
X221456535Y-68549500D01*
X221456532Y-68549500D01*
X221253581Y-68589869D01*
X221062402Y-68669058D01*
X220890348Y-68784020D01*
X220744020Y-68930348D01*
X220629058Y-69102402D01*
X220549869Y-69293581D01*
X220509500Y-69496532D01*
X220069989Y-69496532D01*
X220029650Y-69293727D01*
X219950498Y-69102639D01*
X219950491Y-69102625D01*
X219835594Y-68930670D01*
X219833173Y-68928249D01*
X219437788Y-69323632D01*
X219420099Y-69292993D01*
X219327007Y-69199901D01*
X219296365Y-69182210D01*
X219691750Y-68786826D01*
X219689329Y-68784405D01*
X219517374Y-68669508D01*
X219517360Y-68669501D01*
X219326272Y-68590349D01*
X219123418Y-68550000D01*
X218916581Y-68550000D01*
X218713727Y-68590349D01*
X218522639Y-68669501D01*
X218522630Y-68669505D01*
X218350665Y-68784410D01*
X218348248Y-68786825D01*
X218743633Y-69182210D01*
X218712993Y-69199901D01*
X218619901Y-69292993D01*
X218602210Y-69323633D01*
X218206825Y-68928248D01*
X218204410Y-68930665D01*
X218089505Y-69102630D01*
X218089501Y-69102639D01*
X218010349Y-69293727D01*
X217970000Y-69496581D01*
X210906697Y-69496581D01*
X210966392Y-69393186D01*
X211000500Y-69265892D01*
X211000500Y-69134108D01*
X210966392Y-69006814D01*
X210966390Y-69006811D01*
X210966390Y-69006809D01*
X210900503Y-68892690D01*
X210900501Y-68892688D01*
X210900500Y-68892686D01*
X210807314Y-68799500D01*
X210807311Y-68799498D01*
X210807309Y-68799496D01*
X210693189Y-68733609D01*
X210693191Y-68733609D01*
X210643799Y-68720375D01*
X210565892Y-68699500D01*
X210434108Y-68699500D01*
X210356200Y-68720375D01*
X210306809Y-68733609D01*
X210192690Y-68799496D01*
X210099496Y-68892690D01*
X210033609Y-69006809D01*
X210024211Y-69041883D01*
X209999500Y-69134108D01*
X204717007Y-69134108D01*
X204737684Y-69108575D01*
X204796784Y-69092739D01*
X204817221Y-69095975D01*
X204834108Y-69100500D01*
X204834110Y-69100500D01*
X204965890Y-69100500D01*
X204965892Y-69100500D01*
X205093186Y-69066392D01*
X205093188Y-69066390D01*
X205093190Y-69066390D01*
X205135638Y-69041883D01*
X205207309Y-69000503D01*
X205207309Y-69000502D01*
X205207314Y-69000500D01*
X205300500Y-68907314D01*
X205311175Y-68888825D01*
X205366390Y-68793190D01*
X205366390Y-68793188D01*
X205366392Y-68793186D01*
X205400500Y-68665892D01*
X205400500Y-68534108D01*
X205366392Y-68406814D01*
X205366390Y-68406811D01*
X205366390Y-68406809D01*
X205300503Y-68292690D01*
X205300501Y-68292688D01*
X205300500Y-68292686D01*
X205207314Y-68199500D01*
X205207311Y-68199498D01*
X205207309Y-68199496D01*
X205093189Y-68133609D01*
X205093191Y-68133609D01*
X205043799Y-68120375D01*
X204965892Y-68099500D01*
X204834108Y-68099500D01*
X204817224Y-68104023D01*
X204756124Y-68100821D01*
X204708575Y-68062316D01*
X204692739Y-68003216D01*
X204695976Y-67982776D01*
X204700500Y-67965892D01*
X204700500Y-67834108D01*
X204666392Y-67706814D01*
X204666390Y-67706811D01*
X204666390Y-67706809D01*
X204600503Y-67592690D01*
X204600501Y-67592688D01*
X204600500Y-67592686D01*
X204507314Y-67499500D01*
X204507311Y-67499498D01*
X204507309Y-67499496D01*
X204393189Y-67433609D01*
X204393191Y-67433609D01*
X204343799Y-67420375D01*
X204265892Y-67399500D01*
X204134108Y-67399500D01*
X204056200Y-67420375D01*
X204006809Y-67433609D01*
X203892690Y-67499496D01*
X203799496Y-67592690D01*
X203733609Y-67706809D01*
X203699500Y-67834109D01*
X203699500Y-67965896D01*
X203704023Y-67982776D01*
X203700819Y-68043877D01*
X203662313Y-68091426D01*
X203603212Y-68107260D01*
X203582776Y-68104023D01*
X203565896Y-68099500D01*
X203565892Y-68099500D01*
X203434108Y-68099500D01*
X203417224Y-68104023D01*
X203356124Y-68100821D01*
X203308575Y-68062316D01*
X203292739Y-68003216D01*
X203295976Y-67982776D01*
X203300500Y-67965892D01*
X203300500Y-67834108D01*
X203266392Y-67706814D01*
X203266390Y-67706811D01*
X203266390Y-67706809D01*
X203200503Y-67592690D01*
X203200501Y-67592688D01*
X203200500Y-67592686D01*
X203107314Y-67499500D01*
X203107311Y-67499498D01*
X203107309Y-67499496D01*
X202993189Y-67433609D01*
X202993191Y-67433609D01*
X202943799Y-67420375D01*
X202865892Y-67399500D01*
X202734108Y-67399500D01*
X202656200Y-67420375D01*
X202606809Y-67433609D01*
X202492690Y-67499496D01*
X202399496Y-67592690D01*
X202333609Y-67706809D01*
X202299500Y-67834109D01*
X202299500Y-67965896D01*
X202304023Y-67982776D01*
X202300819Y-68043877D01*
X202262313Y-68091426D01*
X202203212Y-68107260D01*
X202182776Y-68104023D01*
X202165896Y-68099500D01*
X202165892Y-68099500D01*
X202034108Y-68099500D01*
X201956200Y-68120375D01*
X201906809Y-68133609D01*
X201792690Y-68199496D01*
X201699496Y-68292690D01*
X201633609Y-68406809D01*
X201614539Y-68477978D01*
X201599500Y-68534108D01*
X180000000Y-68534108D01*
X180000000Y-66634108D01*
X216399500Y-66634108D01*
X216399500Y-66765892D01*
X216429579Y-66878151D01*
X216433609Y-66893190D01*
X216499496Y-67007309D01*
X216499498Y-67007311D01*
X216499500Y-67007314D01*
X216592686Y-67100500D01*
X216592688Y-67100501D01*
X216592690Y-67100503D01*
X216706810Y-67166390D01*
X216706808Y-67166390D01*
X216706812Y-67166391D01*
X216706814Y-67166392D01*
X216834108Y-67200500D01*
X216834110Y-67200500D01*
X216965890Y-67200500D01*
X216965892Y-67200500D01*
X217093186Y-67166392D01*
X217093188Y-67166390D01*
X217093190Y-67166390D01*
X217207309Y-67100503D01*
X217207309Y-67100502D01*
X217207314Y-67100500D01*
X217300500Y-67007314D01*
X217366392Y-66893186D01*
X217400500Y-66765892D01*
X217400500Y-66634108D01*
X217366392Y-66506814D01*
X217366390Y-66506811D01*
X217366390Y-66506809D01*
X217300503Y-66392690D01*
X217300501Y-66392688D01*
X217300500Y-66392686D01*
X217207314Y-66299500D01*
X217207311Y-66299498D01*
X217207309Y-66299496D01*
X217093189Y-66233609D01*
X217093191Y-66233609D01*
X217043799Y-66220375D01*
X216965892Y-66199500D01*
X216834108Y-66199500D01*
X216756200Y-66220375D01*
X216706809Y-66233609D01*
X216592690Y-66299496D01*
X216499496Y-66392690D01*
X216433609Y-66506809D01*
X216433608Y-66506814D01*
X216399500Y-66634108D01*
X180000000Y-66634108D01*
X180000000Y-63881987D01*
X182199500Y-63881987D01*
X182199500Y-64118012D01*
X182230306Y-64352006D01*
X182230306Y-64352011D01*
X182291393Y-64579992D01*
X182381713Y-64798044D01*
X182499729Y-65002453D01*
X182643402Y-65189692D01*
X182643404Y-65189694D01*
X182643408Y-65189699D01*
X182810301Y-65356592D01*
X182810305Y-65356595D01*
X182810307Y-65356597D01*
X182952741Y-65465890D01*
X182997550Y-65500273D01*
X183201951Y-65618284D01*
X183201952Y-65618284D01*
X183201955Y-65618286D01*
X183416876Y-65707309D01*
X183420007Y-65708606D01*
X183647986Y-65769693D01*
X183881989Y-65800500D01*
X183881990Y-65800500D01*
X184118010Y-65800500D01*
X184118011Y-65800500D01*
X184352014Y-65769693D01*
X184579993Y-65708606D01*
X184798049Y-65618284D01*
X185002450Y-65500273D01*
X185189699Y-65356592D01*
X185212183Y-65334108D01*
X200249500Y-65334108D01*
X200249500Y-65465892D01*
X200279579Y-65578151D01*
X200283609Y-65593190D01*
X200349496Y-65707309D01*
X200349498Y-65707311D01*
X200349500Y-65707314D01*
X200442686Y-65800500D01*
X200442688Y-65800501D01*
X200442690Y-65800503D01*
X200556810Y-65866390D01*
X200556808Y-65866390D01*
X200556812Y-65866391D01*
X200556814Y-65866392D01*
X200684108Y-65900500D01*
X200684110Y-65900500D01*
X200815890Y-65900500D01*
X200815892Y-65900500D01*
X200943186Y-65866392D01*
X200943188Y-65866390D01*
X200943190Y-65866390D01*
X201057309Y-65800503D01*
X201057309Y-65800502D01*
X201057314Y-65800500D01*
X201150500Y-65707314D01*
X201150503Y-65707309D01*
X201216390Y-65593190D01*
X201216390Y-65593188D01*
X201216392Y-65593186D01*
X201250500Y-65465892D01*
X201250500Y-65334108D01*
X201216392Y-65206814D01*
X201216390Y-65206811D01*
X201216390Y-65206809D01*
X201150503Y-65092690D01*
X201150501Y-65092688D01*
X201150500Y-65092686D01*
X201057314Y-64999500D01*
X201057311Y-64999498D01*
X201057309Y-64999496D01*
X200943189Y-64933609D01*
X200943191Y-64933609D01*
X200893799Y-64920375D01*
X200815892Y-64899500D01*
X200684108Y-64899500D01*
X200606200Y-64920375D01*
X200556809Y-64933609D01*
X200442690Y-64999496D01*
X200349496Y-65092690D01*
X200283609Y-65206809D01*
X200283608Y-65206814D01*
X200249500Y-65334108D01*
X185212183Y-65334108D01*
X185356592Y-65189699D01*
X185500273Y-65002450D01*
X185618284Y-64798049D01*
X185708606Y-64579993D01*
X185769693Y-64352014D01*
X185800500Y-64118011D01*
X185800500Y-63984108D01*
X210999500Y-63984108D01*
X210999500Y-64115892D01*
X211020211Y-64193186D01*
X211033609Y-64243190D01*
X211099496Y-64357309D01*
X211099498Y-64357311D01*
X211099500Y-64357314D01*
X211192686Y-64450500D01*
X211192688Y-64450501D01*
X211192690Y-64450503D01*
X211306810Y-64516390D01*
X211306808Y-64516390D01*
X211306812Y-64516391D01*
X211306814Y-64516392D01*
X211434108Y-64550500D01*
X211434110Y-64550500D01*
X211565890Y-64550500D01*
X211565892Y-64550500D01*
X211693186Y-64516392D01*
X211693188Y-64516390D01*
X211693190Y-64516390D01*
X211807309Y-64450503D01*
X211807309Y-64450502D01*
X211807314Y-64450500D01*
X211900500Y-64357314D01*
X211966392Y-64243186D01*
X212000500Y-64115892D01*
X212000500Y-63984108D01*
X211973137Y-63881987D01*
X224199500Y-63881987D01*
X224199500Y-64118012D01*
X224230306Y-64352006D01*
X224230306Y-64352011D01*
X224291393Y-64579992D01*
X224381713Y-64798044D01*
X224499729Y-65002453D01*
X224643402Y-65189692D01*
X224643404Y-65189694D01*
X224643408Y-65189699D01*
X224810301Y-65356592D01*
X224810305Y-65356595D01*
X224810307Y-65356597D01*
X224952741Y-65465890D01*
X224997550Y-65500273D01*
X225201951Y-65618284D01*
X225201952Y-65618284D01*
X225201955Y-65618286D01*
X225416876Y-65707309D01*
X225420007Y-65708606D01*
X225647986Y-65769693D01*
X225881989Y-65800500D01*
X225881990Y-65800500D01*
X226118010Y-65800500D01*
X226118011Y-65800500D01*
X226352014Y-65769693D01*
X226579993Y-65708606D01*
X226798049Y-65618284D01*
X227002450Y-65500273D01*
X227189699Y-65356592D01*
X227356592Y-65189699D01*
X227500273Y-65002450D01*
X227618284Y-64798049D01*
X227708606Y-64579993D01*
X227769693Y-64352014D01*
X227800500Y-64118011D01*
X227800500Y-63881989D01*
X227769693Y-63647986D01*
X227708606Y-63420007D01*
X227693322Y-63383108D01*
X227618286Y-63201955D01*
X227583490Y-63141686D01*
X227500273Y-62997550D01*
X227356592Y-62810301D01*
X227189699Y-62643408D01*
X227189694Y-62643404D01*
X227189692Y-62643402D01*
X227002453Y-62499729D01*
X226798044Y-62381713D01*
X226579992Y-62291393D01*
X226424277Y-62249670D01*
X226352014Y-62230307D01*
X226352011Y-62230306D01*
X226352009Y-62230306D01*
X226118012Y-62199500D01*
X226118011Y-62199500D01*
X225881989Y-62199500D01*
X225881987Y-62199500D01*
X225647993Y-62230306D01*
X225647988Y-62230306D01*
X225420007Y-62291393D01*
X225201955Y-62381713D01*
X224997546Y-62499729D01*
X224810307Y-62643402D01*
X224643402Y-62810307D01*
X224499729Y-62997546D01*
X224381713Y-63201955D01*
X224291393Y-63420007D01*
X224230306Y-63647988D01*
X224230306Y-63647993D01*
X224199500Y-63881987D01*
X211973137Y-63881987D01*
X211966392Y-63856814D01*
X211962171Y-63849503D01*
X211900503Y-63742690D01*
X211900501Y-63742688D01*
X211900500Y-63742686D01*
X211807314Y-63649500D01*
X211807311Y-63649498D01*
X211807309Y-63649496D01*
X211693189Y-63583609D01*
X211693191Y-63583609D01*
X211643799Y-63570375D01*
X211565892Y-63549500D01*
X211434108Y-63549500D01*
X211356200Y-63570375D01*
X211306809Y-63583609D01*
X211192690Y-63649496D01*
X211099496Y-63742690D01*
X211033609Y-63856809D01*
X211020865Y-63904371D01*
X210999500Y-63984108D01*
X185800500Y-63984108D01*
X185800500Y-63881989D01*
X185769693Y-63647986D01*
X185708606Y-63420007D01*
X185693322Y-63383108D01*
X207850500Y-63383108D01*
X207850500Y-63514892D01*
X207880579Y-63627151D01*
X207884609Y-63642190D01*
X207950496Y-63756309D01*
X207950498Y-63756311D01*
X207950500Y-63756314D01*
X208043686Y-63849500D01*
X208043688Y-63849501D01*
X208043690Y-63849503D01*
X208157810Y-63915390D01*
X208157808Y-63915390D01*
X208157812Y-63915391D01*
X208157814Y-63915392D01*
X208285108Y-63949500D01*
X208285110Y-63949500D01*
X208416890Y-63949500D01*
X208416892Y-63949500D01*
X208544186Y-63915392D01*
X208544188Y-63915390D01*
X208544190Y-63915390D01*
X208584906Y-63891883D01*
X208658309Y-63849503D01*
X208658309Y-63849502D01*
X208658314Y-63849500D01*
X208751500Y-63756314D01*
X208759368Y-63742686D01*
X208817390Y-63642190D01*
X208817390Y-63642188D01*
X208817392Y-63642186D01*
X208851500Y-63514892D01*
X208851500Y-63383108D01*
X208817392Y-63255814D01*
X208817390Y-63255811D01*
X208817390Y-63255809D01*
X208751503Y-63141690D01*
X208751501Y-63141688D01*
X208751500Y-63141686D01*
X208658314Y-63048500D01*
X208658311Y-63048498D01*
X208658309Y-63048496D01*
X208544189Y-62982609D01*
X208544191Y-62982609D01*
X208494799Y-62969375D01*
X208416892Y-62948500D01*
X208285108Y-62948500D01*
X208207200Y-62969375D01*
X208157809Y-62982609D01*
X208043690Y-63048496D01*
X207950496Y-63141690D01*
X207884609Y-63255809D01*
X207884608Y-63255814D01*
X207850500Y-63383108D01*
X185693322Y-63383108D01*
X185618284Y-63201951D01*
X185500273Y-62997550D01*
X185356592Y-62810301D01*
X185189699Y-62643408D01*
X185189694Y-62643404D01*
X185189692Y-62643402D01*
X185002453Y-62499729D01*
X184798044Y-62381713D01*
X184579992Y-62291393D01*
X184424277Y-62249670D01*
X184352014Y-62230307D01*
X184352011Y-62230306D01*
X184352009Y-62230306D01*
X184118012Y-62199500D01*
X184118011Y-62199500D01*
X183881989Y-62199500D01*
X183881987Y-62199500D01*
X183647993Y-62230306D01*
X183647988Y-62230306D01*
X183420007Y-62291393D01*
X183201955Y-62381713D01*
X182997546Y-62499729D01*
X182810307Y-62643402D01*
X182643402Y-62810307D01*
X182499729Y-62997546D01*
X182381713Y-63201955D01*
X182291393Y-63420007D01*
X182230306Y-63647988D01*
X182230306Y-63647993D01*
X182199500Y-63881987D01*
X180000000Y-63881987D01*
X180000000Y-61434108D01*
X188649500Y-61434108D01*
X188649500Y-61565892D01*
X188658773Y-61600500D01*
X188683609Y-61693190D01*
X188749496Y-61807309D01*
X188749498Y-61807311D01*
X188749500Y-61807314D01*
X188842686Y-61900500D01*
X188842688Y-61900501D01*
X188842690Y-61900503D01*
X188956810Y-61966390D01*
X188956808Y-61966390D01*
X188956812Y-61966391D01*
X188956814Y-61966392D01*
X189084108Y-62000500D01*
X189084110Y-62000500D01*
X189215890Y-62000500D01*
X189215892Y-62000500D01*
X189343186Y-61966392D01*
X189343188Y-61966390D01*
X189343190Y-61966390D01*
X189457309Y-61900503D01*
X189457309Y-61900502D01*
X189457314Y-61900500D01*
X189550500Y-61807314D01*
X189616392Y-61693186D01*
X189650500Y-61565892D01*
X189650500Y-61434108D01*
X189616392Y-61306814D01*
X189616390Y-61306811D01*
X189616390Y-61306809D01*
X189550503Y-61192690D01*
X189550501Y-61192688D01*
X189550500Y-61192686D01*
X189457314Y-61099500D01*
X189457311Y-61099498D01*
X189457309Y-61099496D01*
X189343189Y-61033609D01*
X189343191Y-61033609D01*
X189293799Y-61020375D01*
X189215892Y-60999500D01*
X189084108Y-60999500D01*
X189006200Y-61020375D01*
X188956809Y-61033609D01*
X188842690Y-61099496D01*
X188749496Y-61192690D01*
X188683609Y-61306809D01*
X188683608Y-61306814D01*
X188649500Y-61434108D01*
X180000000Y-61434108D01*
X180000000Y-61181475D01*
X180004698Y-61167013D01*
X180004549Y-61151809D01*
X180013915Y-61138647D01*
X180018907Y-61123284D01*
X180040025Y-61101958D01*
X180040028Y-61101956D01*
X180051883Y-61093163D01*
X180059948Y-61087774D01*
X180346185Y-60916211D01*
X180354728Y-60911644D01*
X180656412Y-60768958D01*
X180665367Y-60765249D01*
X180979590Y-60652818D01*
X180988849Y-60650009D01*
X181312582Y-60568918D01*
X181322080Y-60567029D01*
X181652186Y-60518063D01*
X181661824Y-60517113D01*
X181970606Y-60501944D01*
X181997579Y-60500619D01*
X182002436Y-60500500D01*
X182065892Y-60500500D01*
X194417891Y-60500500D01*
X194476082Y-60519407D01*
G37*
%TD.AperFunction*%
%TD*%
M02*
